<svg width="" height="" viewBox="0 0 901 357" fill="none" xmlns="http://www.w3.org/2000/svg">
<path d="M0 285.707V236.011L146.391 4.71686H187.832V75.4698H162.563L64.0145 231.631V234.327H268.356V285.707H0ZM164.585 349.721V270.546L165.259 248.309V4.71686H224.219V349.721H164.585Z" fill="#F8F9FB"/>
<path d="M449.702 356.291C421.962 356.291 398.153 349.272 378.275 335.234C358.509 321.083 343.292 300.7 332.623 274.083C322.066 247.354 316.788 215.179 316.788 177.556C316.9 139.933 322.234 107.926 332.791 81.5343C343.46 55.03 358.678 34.8149 378.444 20.889C398.322 6.96299 422.075 0 449.702 0C477.329 0 501.082 6.96299 520.96 20.889C540.838 34.8149 556.056 55.03 566.613 81.5343C577.282 108.039 582.616 140.046 582.616 177.556C582.616 215.291 577.282 247.523 566.613 274.252C556.056 300.868 540.838 321.196 520.96 335.234C501.194 349.272 477.442 356.291 449.702 356.291ZM449.702 303.564C471.265 303.564 488.279 292.951 500.745 271.725C513.323 250.387 519.613 218.997 519.613 177.556C519.613 150.153 516.749 127.131 511.021 108.488C505.294 89.8449 497.207 75.8067 486.763 66.373C476.319 56.8269 463.965 52.0539 449.702 52.0539C428.251 52.0539 411.293 62.723 398.827 84.0612C386.361 105.287 380.072 136.452 379.96 177.556C379.848 205.071 382.599 228.206 388.214 246.961C393.942 265.716 402.028 279.867 412.472 289.413C422.917 298.847 435.327 303.564 449.702 303.564Z" fill="#F8F9FB"/>
<path d="M632.354 285.707V236.011L778.745 4.71686H820.186V75.4698H794.917L696.368 231.631V234.327H900.709V285.707H632.354ZM796.939 349.721V270.546L797.612 248.309V4.71686H856.573V349.721H796.939Z" fill="#F8F9FB"/>
</svg>
