<svg width="" height="" viewBox="0 0 62 54" fill="none" xmlns="http://www.w3.org/2000/svg">
<rect x="0.886719" width="60.2264" height="47.3208" rx="6.90566" fill=""/>
<path d="M33.7932 51.909C32.8425 53.0317 32.3672 53.593 31.8022 53.803C31.2847 53.9954 30.7153 53.9954 30.1979 53.803C29.6329 53.593 29.1575 53.0317 28.2069 51.909L25.1378 48.2846C23.5301 46.3859 22.7262 45.4366 22.7006 44.6349C22.6773 43.9068 23 43.2107 23.5707 42.758C24.1991 42.2594 25.4431 42.2594 27.9309 42.2594L34.0691 42.2594C36.557 42.2594 37.8009 42.2594 38.4294 42.758C39 43.2107 39.3227 43.9068 39.2995 44.6349C39.2738 45.4366 38.47 46.3859 36.8622 48.2846L33.7932 51.909Z" fill=""/>
</svg>