<svg xmlns="http://www.w3.org/2000/svg" width="178" height="70" viewBox="0 0 178 70" fill="none">
  <g filter="url(#filter0_d_1073_2999)">
    <mask id="path-1-inside-1_1073_2999" fill="white">
      <path fill-rule="evenodd" clip-rule="evenodd" d="M2.65396 4.27606C2 5.55953 2 7.23968 2 10.6V51.4C2 54.7603 2 56.4405 2.65396 57.7239C3.2292 58.8529 4.14708 59.7708 5.27606 60.346C6.55953 61 8.23969 61 11.6 61H82.1716C82.702 61 83.2107 61.2107 83.5858 61.5858L87.5858 65.5858C88.3668 66.3668 89.6332 66.3668 90.4142 65.5858L94.4142 61.5858C94.7893 61.2107 95.298 61 95.8284 61H166.4C169.76 61 171.44 61 172.724 60.346C173.853 59.7708 174.771 58.8529 175.346 57.7239C176 56.4405 176 54.7603 176 51.4V10.6C176 7.23969 176 5.55953 175.346 4.27606C174.771 3.14708 173.853 2.2292 172.724 1.65396C171.44 1 169.76 1 166.4 1H11.6C8.23969 1 6.55953 1 5.27606 1.65396C4.14708 2.2292 3.2292 3.14708 2.65396 4.27606Z"/>
    </mask>
    <path fill-rule="evenodd" clip-rule="evenodd" d="M2.65396 4.27606C2 5.55953 2 7.23968 2 10.6V51.4C2 54.7603 2 56.4405 2.65396 57.7239C3.2292 58.8529 4.14708 59.7708 5.27606 60.346C6.55953 61 8.23969 61 11.6 61H82.1716C82.702 61 83.2107 61.2107 83.5858 61.5858L87.5858 65.5858C88.3668 66.3668 89.6332 66.3668 90.4142 65.5858L94.4142 61.5858C94.7893 61.2107 95.298 61 95.8284 61H166.4C169.76 61 171.44 61 172.724 60.346C173.853 59.7708 174.771 58.8529 175.346 57.7239C176 56.4405 176 54.7603 176 51.4V10.6C176 7.23969 176 5.55953 175.346 4.27606C174.771 3.14708 173.853 2.2292 172.724 1.65396C171.44 1 169.76 1 166.4 1H11.6C8.23969 1 6.55953 1 5.27606 1.65396C4.14708 2.2292 3.2292 3.14708 2.65396 4.27606Z" fill="white"/>
    <path d="M2.65396 4.27606L3.54497 4.73005L2.65396 4.27606ZM2.65396 57.7239L3.54497 57.27H3.54497L2.65396 57.7239ZM5.27606 60.346L4.82207 61.237H4.82207L5.27606 60.346ZM172.724 60.346L172.27 59.455L172.724 60.346ZM175.346 57.7239L174.455 57.27L175.346 57.7239ZM175.346 4.27606L176.237 3.82207V3.82207L175.346 4.27606ZM172.724 1.65396L172.27 2.54497V2.54497L172.724 1.65396ZM5.27606 1.65396L5.73005 2.54497L5.27606 1.65396ZM3 10.6C3 8.90334 3.00078 7.69099 3.07842 6.74064C3.15512 5.80197 3.30179 5.20731 3.54497 4.73005L1.76295 3.82207C1.35217 4.62827 1.17186 5.51543 1.08507 6.57778C0.999222 7.62846 1 8.93634 1 10.6H3ZM3 51.4V10.6H1V51.4H3ZM3.54497 57.27C3.30179 56.7927 3.15512 56.198 3.07842 55.2594C3.00078 54.309 3 53.0967 3 51.4H1C1 53.0637 0.999222 54.3715 1.08507 55.4222C1.17186 56.4846 1.35217 57.3717 1.76295 58.1779L3.54497 57.27ZM5.73005 59.455C4.78924 58.9757 4.02433 58.2108 3.54497 57.27L1.76295 58.1779C2.43407 59.4951 3.50493 60.5659 4.82207 61.237L5.73005 59.455ZM11.6 60C9.90335 60 8.69099 59.9992 7.74064 59.9216C6.80197 59.8449 6.20731 59.6982 5.73005 59.455L4.82207 61.237C5.62827 61.6478 6.51543 61.8281 7.57778 61.9149C8.62846 62.0008 9.93635 62 11.6 62V60ZM82.1716 60H11.6V62H82.1716V60ZM88.2929 64.8787L84.2929 60.8787L82.8787 62.2929L86.8787 66.2929L88.2929 64.8787ZM93.7071 60.8787L89.7071 64.8787L91.1213 66.2929L95.1213 62.2929L93.7071 60.8787ZM166.4 60H95.8284V62H166.4V60ZM172.27 59.455C171.793 59.6982 171.198 59.8449 170.259 59.9216C169.309 59.9992 168.097 60 166.4 60V62C168.064 62 169.372 62.0008 170.422 61.9149C171.485 61.8281 172.372 61.6478 173.178 61.237L172.27 59.455ZM174.455 57.27C173.976 58.2108 173.211 58.9757 172.27 59.455L173.178 61.237C174.495 60.5659 175.566 59.4951 176.237 58.1779L174.455 57.27ZM175 51.4C175 53.0967 174.999 54.309 174.922 55.2594C174.845 56.198 174.698 56.7927 174.455 57.27L176.237 58.1779C176.648 57.3717 176.828 56.4846 176.915 55.4222C177.001 54.3715 177 53.0637 177 51.4H175ZM175 10.6V51.4H177V10.6H175ZM174.455 4.73005C174.698 5.20731 174.845 5.80197 174.922 6.74064C174.999 7.69099 175 8.90334 175 10.6H177C177 8.93634 177.001 7.62846 176.915 6.57778C176.828 5.51543 176.648 4.62827 176.237 3.82207L174.455 4.73005ZM172.27 2.54497C173.211 3.02433 173.976 3.78924 174.455 4.73005L176.237 3.82207C175.566 2.50493 174.495 1.43407 173.178 0.762953L172.27 2.54497ZM166.4 2C168.097 2 169.309 2.00078 170.259 2.07842C171.198 2.15512 171.793 2.30179 172.27 2.54497L173.178 0.762956C172.372 0.352173 171.485 0.171864 170.422 0.0850662C169.372 -0.000777721 168.064 0 166.4 0V2ZM11.6 2H166.4V0H11.6V2ZM5.73005 2.54497C6.20731 2.30179 6.80197 2.15512 7.74064 2.07842C8.69099 2.00078 9.90334 2 11.6 2V0C9.93634 0 8.62846 -0.000777721 7.57778 0.0850662C6.51543 0.171864 5.62827 0.352173 4.82207 0.762954L5.73005 2.54497ZM3.54497 4.73005C4.02433 3.78924 4.78924 3.02433 5.73005 2.54497L4.82207 0.762954C3.50493 1.43407 2.43407 2.50493 1.76295 3.82207L3.54497 4.73005ZM95.1213 62.2929C95.3089 62.1054 95.5632 62 95.8284 62V60C95.0328 60 94.2697 60.3161 93.7071 60.8787L95.1213 62.2929ZM86.8787 66.2929C88.0503 67.4645 89.9497 67.4645 91.1213 66.2929L89.7071 64.8787C89.3166 65.2692 88.6834 65.2692 88.2929 64.8787L86.8787 66.2929ZM82.1716 62C82.4368 62 82.6911 62.1054 82.8787 62.2929L84.2929 60.8787C83.7303 60.3161 82.9672 60 82.1716 60V62Z" fill="#E5E5E7" mask="url(#path-1-inside-1_1073_2999)"/>
  </g>
  <defs>
    <filter id="filter0_d_1073_2999" x="0" y="0" width="178" height="69.1714" filterUnits="userSpaceOnUse" color-interpolation-filters="sRGB">
      <feFlood flood-opacity="0" result="BackgroundImageFix"/>
      <feColorMatrix in="SourceAlpha" type="matrix" values="0 0 0 0 0 0 0 0 0 0 0 0 0 0 0 0 0 0 127 0" result="hardAlpha"/>
      <feOffset dy="1"/>
      <feGaussianBlur stdDeviation="1"/>
      <feComposite in2="hardAlpha" operator="out"/>
      <feColorMatrix type="matrix" values="0 0 0 0 0.0627451 0 0 0 0 0.0941176 0 0 0 0 0.156863 0 0 0 0.04 0"/>
      <feBlend mode="normal" in2="BackgroundImageFix" result="effect1_dropShadow_1073_2999"/>
      <feBlend mode="normal" in="SourceGraphic" in2="effect1_dropShadow_1073_2999" result="shape"/>
    </filter>
  </defs>
</svg>