<svg xmlns="http://www.w3.org/2000/svg" width="32" height="32" viewBox="0 0 32 32" fill="none">
  <path d="M6.66676 14.6667V22.2417C6.66676 23.3084 7.30248 24.2725 8.28297 24.6927L14.9496 27.5499C15.6204 27.8374 16.3797 27.8374 17.0505 27.5499L23.7172 24.6927C24.6977 24.2725 25.3334 23.3084 25.3334 22.2417V14.6667M29.3334 12.0001V18.6667M2.52599 10.7371L14.8075 4.59635C15.5583 4.22098 16.4419 4.22098 17.1927 4.59635L29.4742 10.7371C29.9656 10.9828 29.9656 11.684 29.4742 11.9297L17.1927 18.0704C16.4419 18.4458 15.5583 18.4458 14.8075 18.0704L2.526 11.9297C2.03463 11.684 2.03463 10.9828 2.52599 10.7371Z" stroke="white" stroke-width="2.2" stroke-linecap="round"/>
</svg>