<svg xmlns="http://www.w3.org/2000/svg" width="32" height="32" viewBox="0 0 32 32" fill="none">
  <path d="M11.9999 8.66663L7.64058 10.8463C6.2265 11.5533 5.33325 12.9986 5.33325 14.5796C5.33325 17.6825 8.59862 19.7006 11.3739 18.313L20.6259 13.687C23.4012 12.2993 26.6666 14.3174 26.6666 17.4203C26.6666 19.0013 25.7733 20.4466 24.3593 21.1536L19.9999 23.3333M19.9999 6.66663C19.9999 8.87576 18.2091 10.6666 15.9999 10.6666C13.7908 10.6666 11.9999 8.87576 11.9999 6.66663C11.9999 4.45749 13.7908 2.66663 15.9999 2.66663C18.2091 2.66663 19.9999 4.45749 19.9999 6.66663ZM19.9999 25.3333C19.9999 27.5424 18.2091 29.3333 15.9999 29.3333C13.7908 29.3333 11.9999 27.5424 11.9999 25.3333C11.9999 23.1242 13.7908 21.3333 15.9999 21.3333C18.2091 21.3333 19.9999 23.1242 19.9999 25.3333Z" stroke="white" stroke-width="2.2" stroke-linecap="round"/>
  <circle cx="16.5" cy="6.5" r="3.5" fill="white"/>
  <circle cx="16.5" cy="25.5" r="3.5" fill="white"/>
</svg>