<svg xmlns="http://www.w3.org/2000/svg" width="32" height="34" viewBox="0 0 32 34" fill="none">
  <g filter="url(#filter0_d_3645_6006)">
    <path d="M16 8.00002C17.4728 8.00002 18.6667 6.80611 18.6667 5.33335C18.6667 3.86059 17.4728 2.66669 16 2.66669C14.5272 2.66669 13.3333 3.86059 13.3333 5.33335C13.3333 6.80611 14.5272 8.00002 16 8.00002Z" fill="white"/>
    <path d="M4.44753 7.00349C4.99791 6.51426 5.84067 6.56384 6.32989 7.11422C7.27507 8.17754 10.7111 10.6667 16 10.6667C21.2889 10.6667 24.725 8.17754 25.6701 7.11422C26.1594 6.56384 27.0021 6.51426 27.5525 7.00349C28.1029 7.49271 28.1525 8.33548 27.6632 8.88585C26.5833 10.1008 23.9393 12.0282 20.0724 12.8907L21.3286 29.2218C21.374 29.8117 21.0352 30.2949 20.6012 30.515C20.3727 30.6308 20.0069 30.728 19.5933 30.5965C19.1383 30.4517 18.8658 30.1073 18.748 29.7922C18.6219 29.4552 18.4596 28.9687 18.2792 28.4279C18.2059 28.2084 18.1295 27.9794 18.0515 27.7484C17.7723 26.9215 17.4533 26.0079 17.1101 25.1575C16.7615 24.2935 16.4129 23.5581 16.0874 23.0588C16.0567 23.0117 16.0275 22.9688 15.9999 22.9297C15.9723 22.9688 15.9431 23.0117 15.9125 23.0588C15.5869 23.5581 15.2383 24.2935 14.8897 25.1575C14.5466 26.0079 14.2275 26.9215 13.9483 27.7484C13.8703 27.9795 13.7941 28.208 13.7208 28.4276C13.5403 28.9685 13.3779 29.4552 13.2519 29.7922C13.134 30.1073 12.8616 30.4516 12.4067 30.5964C11.9932 30.728 11.6274 30.6309 11.3989 30.5151C10.9647 30.2951 10.6259 29.8117 10.6712 29.2218L11.9275 12.8907C8.06068 12.0282 5.41674 10.1008 4.3368 8.88585C3.84758 8.33548 3.89715 7.49271 4.44753 7.00349Z" fill="white"/>
  </g>
  <defs>
    <filter id="filter0_d_3645_6006" x="2" y="1.66669" width="28" height="31.9929" filterUnits="userSpaceOnUse" color-interpolation-filters="sRGB">
      <feFlood flood-opacity="0" result="BackgroundImageFix"/>
      <feColorMatrix in="SourceAlpha" type="matrix" values="0 0 0 0 0 0 0 0 0 0 0 0 0 0 0 0 0 0 127 0" result="hardAlpha"/>
      <feOffset dy="1"/>
      <feGaussianBlur stdDeviation="1"/>
      <feComposite in2="hardAlpha" operator="out"/>
      <feColorMatrix type="matrix" values="0 0 0 0 0.0627451 0 0 0 0 0.0941176 0 0 0 0 0.156863 0 0 0 0.04 0"/>
      <feBlend mode="normal" in2="BackgroundImageFix" result="effect1_dropShadow_3645_6006"/>
      <feBlend mode="normal" in="SourceGraphic" in2="effect1_dropShadow_3645_6006" result="shape"/>
    </filter>
  </defs>
</svg>