<svg xmlns="http://www.w3.org/2000/svg" width="32" height="32" viewBox="0 0 32 32" fill="none">
  <path fill-rule="evenodd" clip-rule="evenodd" d="M21.7239 3.05715C22.2446 2.53645 23.0888 2.53645 23.6095 3.05715L26.6667 6.11434C27.7081 7.15574 27.7081 8.84418 26.6667 9.88558L23.6095 12.9428C23.0888 13.4635 22.2446 13.4635 21.7239 12.9428C21.2032 12.4221 21.2032 11.5778 21.7239 11.0571L23.4477 9.33329H10.6667C8.45753 9.33329 6.66667 11.1242 6.66667 13.3333V14.6666C6.66667 15.403 6.06971 16 5.33333 16C4.59695 16 4 15.403 4 14.6666V13.3333C4 9.65139 6.98477 6.66663 10.6667 6.66663H23.4477L21.7239 4.94277C21.2032 4.42207 21.2032 3.57785 21.7239 3.05715ZM26.6667 17.3333C27.403 17.3333 28 17.9302 28 18.6666V20C28 23.6819 25.0152 26.6666 21.3333 26.6666H8.55228L10.2761 28.3905C10.7968 28.9112 10.7968 29.7554 10.2761 30.2761C9.75544 30.7968 8.91122 30.7968 8.39052 30.2761L5.33333 27.2189C4.29193 26.1775 4.29194 24.4891 5.33333 23.4477L8.39052 20.3905C8.91122 19.8698 9.75544 19.8698 10.2761 20.3905C10.7968 20.9112 10.7968 21.7554 10.2761 22.2761L8.55228 24H21.3333C23.5425 24 25.3333 22.2091 25.3333 20V18.6666C25.3333 17.9302 25.9303 17.3333 26.6667 17.3333Z" fill="white"/>
</svg>