<svg width="32" height="33" viewBox="0 0 32 33" fill="none" xmlns="http://www.w3.org/2000/svg">
<g filter="url(#filter0_d_1191_2911)">
<path fill-rule="evenodd" clip-rule="evenodd" d="M5.57871 3.24799C6.07246 2.99641 6.70069 2.83718 7.72991 2.75309C8.7747 2.66772 10.1111 2.66669 12 2.66669H20C21.8888 2.66669 23.2253 2.66772 24.2701 2.75309C25.2993 2.83718 25.9275 2.99641 26.4213 3.24799C27.4248 3.75931 28.2407 4.57521 28.752 5.57874C29.0036 6.07249 29.1628 6.70072 29.2469 7.72994C29.2852 8.19805 29.3065 8.7247 29.3184 9.33335H2.68161C2.69349 8.7247 2.71481 8.19805 2.75306 7.72994C2.83715 6.70072 2.99638 6.07249 3.24795 5.57874C3.75928 4.57521 4.57518 3.75931 5.57871 3.24799ZM7.99999 6.66669C7.99999 5.93031 7.40304 5.33335 6.66666 5.33335C5.93028 5.33335 5.33332 5.93031 5.33332 6.66669C5.33332 7.40307 5.93028 8.00015 6.66666 8.00015C7.40304 8.00015 7.99999 7.40307 7.99999 6.66669ZM10.6667 5.33335C11.403 5.33335 12 5.93031 12 6.66669C12 7.40307 11.403 8.00015 10.6667 8.00015C9.93028 8.00015 9.33332 7.4032 9.33332 6.66682C9.33332 5.93044 9.93028 5.33335 10.6667 5.33335ZM16 6.66669C16 5.93031 15.403 5.33335 14.6667 5.33335C13.9303 5.33335 13.3333 5.93031 13.3333 6.66669C13.3333 7.40307 13.9303 8.00015 14.6667 8.00015C15.403 8.00015 16 7.40307 16 6.66669Z" fill="white"/>
<path d="M2.66666 20V12H29.3333V20C29.3333 21.8889 29.3323 23.2253 29.2469 24.2701C29.1628 25.2993 29.0036 25.9276 28.752 26.4213C28.2407 27.4248 27.4248 28.2407 26.4213 28.7521C25.9275 29.0036 25.2993 29.1629 24.2701 29.247C23.2253 29.3323 21.8888 29.3334 20 29.3334H12C10.1111 29.3334 8.7747 29.3323 7.72991 29.247C6.70069 29.1629 6.07246 29.0036 5.57871 28.7521C4.57518 28.2407 3.75928 27.4248 3.24795 26.4213C2.99638 25.9276 2.83715 25.2993 2.75306 24.2701C2.66769 23.2253 2.66666 21.8889 2.66666 20Z" fill="white"/>
</g>
<defs>
<filter id="filter0_d_1191_2911" x="0.666656" y="1.66669" width="30.6667" height="30.6667" filterUnits="userSpaceOnUse" color-interpolation-filters="sRGB">
<feFlood flood-opacity="0" result="BackgroundImageFix"/>
<feColorMatrix in="SourceAlpha" type="matrix" values="0 0 0 0 0 0 0 0 0 0 0 0 0 0 0 0 0 0 127 0" result="hardAlpha"/>
<feOffset dy="1"/>
<feGaussianBlur stdDeviation="1"/>
<feComposite in2="hardAlpha" operator="out"/>
<feColorMatrix type="matrix" values="0 0 0 0 0.0627451 0 0 0 0 0.0941176 0 0 0 0 0.156863 0 0 0 0.04 0"/>
<feBlend mode="normal" in2="BackgroundImageFix" result="effect1_dropShadow_1191_2911"/>
<feBlend mode="normal" in="SourceGraphic" in2="effect1_dropShadow_1191_2911" result="shape"/>
</filter>
</defs>
</svg>
