<svg xmlns="http://www.w3.org/2000/svg" width="" height="" viewBox="0 0 32 32" fill="none">
  <g filter="url(#filter0_d_1085_3268)">
    <path d="M29.3333 20C29.3333 16.7717 27.0387 14.0794 23.9914 13.465C23.2696 13.3194 22.6805 12.7304 22.535 12.0085C21.9206 8.96128 19.2282 6.66666 16 6.66666C12.7717 6.66666 10.0793 8.96128 9.46493 12.0085C9.31938 12.7304 8.73033 13.3194 8.00847 13.465C4.96125 14.0794 2.66663 16.7717 2.66663 20C2.66663 21.7358 3.33005 23.3167 4.41717 24.503C5.6585 25.8574 7.61501 26.1119 9.45228 26.1119H22.5476C24.3849 26.1119 26.3414 25.8574 27.5828 24.503C28.6699 23.3167 29.3333 21.7358 29.3333 20Z" fill="url(#paint0_linear_1085_3268)"/>
  </g>
  <defs>
    <filter id="filter0_d_1085_3268" x="0.666626" y="5.66666" width="30.6666" height="23.4453" filterUnits="userSpaceOnUse" color-interpolation-filters="sRGB">
      <feFlood flood-opacity="0" result="BackgroundImageFix"/>
      <feColorMatrix in="SourceAlpha" type="matrix" values="0 0 0 0 0 0 0 0 0 0 0 0 0 0 0 0 0 0 127 0" result="hardAlpha"/>
      <feOffset dy="1"/>
      <feGaussianBlur stdDeviation="1"/>
      <feComposite in2="hardAlpha" operator="out"/>
      <feColorMatrix type="matrix" values="0 0 0 0 0.0627451 0 0 0 0 0.0941176 0 0 0 0 0.156863 0 0 0 0.04 0"/>
      <feBlend mode="normal" in2="BackgroundImageFix" result="effect1_dropShadow_1085_3268"/>
      <feBlend mode="normal" in="SourceGraphic" in2="effect1_dropShadow_1085_3268" result="shape"/>
    </filter>
    <linearGradient id="paint0_linear_1085_3268" x1="16" y1="6.66666" x2="16" y2="26.1119" gradientUnits="userSpaceOnUse">
      <stop stop-color="#F32C40"/>
      <stop offset="1" stop-color="#FF5263"/>
    </linearGradient>
  </defs>
</svg>