<svg xmlns="http://www.w3.org/2000/svg" width="" height="" viewBox="0 0 37 37" fill="none">
  <g filter="url(#filter0_d_1073_3178)">
    <path d="M22 7.4928V13.3334C22 13.7016 22.2985 14 22.6667 14H28.5073C28.6867 14 28.8586 13.9277 28.9841 13.7993L32.8932 9.79933C33.3057 9.37719 33.0066 8.6667 32.4164 8.6667H28C27.6318 8.6667 27.3334 8.36823 27.3334 8.00004V3.58371C27.3334 2.99346 26.6229 2.69437 26.2008 3.10692L22.2008 7.01601C22.0724 7.14144 22 7.31333 22 7.4928Z" fill="url(#paint0_linear_1073_3178)"/>
    <path d="M18 18L22 14M32.6667 18C32.6667 26.1002 26.1002 32.6667 18 32.6667C9.89986 32.6667 3.33337 26.1002 3.33337 18C3.33337 9.89986 9.89986 3.33337 18 3.33337M27.3334 18C27.3334 23.1547 23.1547 27.3334 18 27.3334C12.8454 27.3334 8.66671 23.1547 8.66671 18C8.66671 12.8454 12.8454 8.6667 18 8.6667M22 13.3334V7.4928C22 7.31333 22.0724 7.14144 22.2008 7.01601L26.2008 3.10692C26.6229 2.69437 27.3334 2.99346 27.3334 3.58371V8.00004C27.3334 8.36823 27.6318 8.6667 28 8.6667H32.4164C33.0066 8.6667 33.3057 9.37719 32.8932 9.79933L28.9841 13.7993C28.8586 13.9277 28.6867 14 28.5073 14H22.6667C22.2985 14 22 13.7016 22 13.3334Z" stroke="#F32C40" stroke-width="2.66667" stroke-linecap="round"/>
  </g>
  <defs>
    <filter id="filter0_d_1073_3178" x="0" y="0.579712" width="36.4204" height="36.4203" filterUnits="userSpaceOnUse" color-interpolation-filters="sRGB">
      <feFlood flood-opacity="0" result="BackgroundImageFix"/>
      <feColorMatrix in="SourceAlpha" type="matrix" values="0 0 0 0 0 0 0 0 0 0 0 0 0 0 0 0 0 0 127 0" result="hardAlpha"/>
      <feOffset dy="1"/>
      <feGaussianBlur stdDeviation="1"/>
      <feComposite in2="hardAlpha" operator="out"/>
      <feColorMatrix type="matrix" values="0 0 0 0 0.0627451 0 0 0 0 0.0941176 0 0 0 0 0.156863 0 0 0 0.04 0"/>
      <feBlend mode="normal" in2="BackgroundImageFix" result="effect1_dropShadow_1073_3178"/>
      <feBlend mode="normal" in="SourceGraphic" in2="effect1_dropShadow_1073_3178" result="shape"/>
    </filter>
    <linearGradient id="paint0_linear_1073_3178" x1="18.2089" y1="2.91571" x2="18.2089" y2="32.6667" gradientUnits="userSpaceOnUse">
      <stop stop-color="#F32C40"/>
      <stop offset="1" stop-color="#FF5263"/>
    </linearGradient>
  </defs>
</svg>