<svg xmlns="http://www.w3.org/2000/svg" width="" height="" viewBox="0 0 32 32" fill="none">
  <g filter="url(#filter0_d_6141_3904)">
    <path fill-rule="evenodd" clip-rule="evenodd" d="M28 16C28 22.6274 22.6274 28 16 28C14.4573 28 12.9827 27.7089 11.6279 27.1787C11.1188 26.9794 10.568 26.8939 10.0288 26.9847L4.92368 27.8444C4.47165 27.9206 4.07943 27.5283 4.15555 27.0763L5.0153 21.9712C5.1061 21.432 5.02063 20.8812 4.82135 20.3721C4.29109 19.0173 4 17.5427 4 16C4 9.37258 9.37258 4 16 4C22.6274 4 28 9.37258 28 16ZM22.2761 14.2761C22.7968 13.7554 22.7968 12.9112 22.2761 12.3905C21.7554 11.8698 20.9112 11.8698 20.3905 12.3905L14.6667 18.1144L11.6095 15.0572C11.0888 14.5365 10.2446 14.5365 9.72386 15.0572C9.20316 15.5779 9.20316 16.4221 9.72386 16.9428L13.2525 20.4714C14.0335 21.2525 15.2998 21.2525 16.0809 20.4714L22.2761 14.2761Z" fill="url(#paint0_linear_6141_3904)"/>
  </g>
  <defs>
    <filter id="filter0_d_6141_3904" x="2" y="3" width="28" height="28" filterUnits="userSpaceOnUse" color-interpolation-filters="sRGB">
      <feFlood flood-opacity="0" result="BackgroundImageFix"/>
      <feColorMatrix in="SourceAlpha" type="matrix" values="0 0 0 0 0 0 0 0 0 0 0 0 0 0 0 0 0 0 127 0" result="hardAlpha"/>
      <feOffset dy="1"/>
      <feGaussianBlur stdDeviation="1"/>
      <feComposite in2="hardAlpha" operator="out"/>
      <feColorMatrix type="matrix" values="0 0 0 0 0.0627451 0 0 0 0 0.0941176 0 0 0 0 0.156863 0 0 0 0.04 0"/>
      <feBlend mode="normal" in2="BackgroundImageFix" result="effect1_dropShadow_6141_3904"/>
      <feBlend mode="normal" in="SourceGraphic" in2="effect1_dropShadow_6141_3904" result="shape"/>
    </filter>
    <linearGradient id="paint0_linear_6141_3904" x1="16" y1="4" x2="16" y2="28" gradientUnits="userSpaceOnUse">
      <stop stop-color="#F32C40"/>
      <stop offset="1" stop-color="#FF5263"/>
    </linearGradient>
  </defs>
</svg>