<svg xmlns="http://www.w3.org/2000/svg" width="" height="" viewBox="0 0 32 34" fill="none">
  <g filter="url(#filter0_d_6141_3913)">
    <path d="M16 7.99999C17.4728 7.99999 18.6667 6.80608 18.6667 5.33332C18.6667 3.86056 17.4728 2.66666 16 2.66666C14.5272 2.66666 13.3333 3.86056 13.3333 5.33332C13.3333 6.80608 14.5272 7.99999 16 7.99999Z" fill="url(#paint0_linear_6141_3913)"/>
    <path d="M4.44753 7.00346C4.99791 6.51423 5.84067 6.56381 6.32989 7.11419C7.27507 8.17751 10.7111 10.6667 16 10.6667C21.2889 10.6667 24.725 8.17751 25.6701 7.11419C26.1594 6.56381 27.0021 6.51423 27.5525 7.00346C28.1029 7.49268 28.1525 8.33545 27.6632 8.88582C26.5833 10.1008 23.9393 12.0282 20.0724 12.8907L21.3286 29.2218C21.374 29.8117 21.0352 30.2949 20.6012 30.515C20.3727 30.6308 20.0069 30.728 19.5933 30.5964C19.1383 30.4517 18.8658 30.1073 18.748 29.7922C18.6219 29.4552 18.4596 28.9687 18.2792 28.4279C18.2059 28.2083 18.1295 27.9794 18.0515 27.7484C17.7723 26.9215 17.4533 26.0079 17.1101 25.1574C16.7615 24.2935 16.4129 23.5581 16.0874 23.0587C16.0567 23.0117 16.0275 22.9688 15.9999 22.9297C15.9723 22.9688 15.9431 23.0117 15.9125 23.0587C15.5869 23.5581 15.2383 24.2935 14.8897 25.1574C14.5466 26.0079 14.2275 26.9215 13.9483 27.7484C13.8703 27.9795 13.7941 28.208 13.7208 28.4276C13.5403 28.9684 13.3779 29.4552 13.2519 29.7922C13.134 30.1073 12.8616 30.4516 12.4067 30.5964C11.9932 30.7279 11.6274 30.6308 11.3989 30.515C10.9647 30.295 10.6259 29.8117 10.6712 29.2218L11.9275 12.8907C8.06068 12.0281 5.41674 10.1007 4.3368 8.88582C3.84758 8.33545 3.89715 7.49268 4.44753 7.00346Z" fill="url(#paint1_linear_6141_3913)"/>
  </g>
  <defs>
    <filter id="filter0_d_6141_3913" x="2" y="1.66666" width="28" height="31.9929" filterUnits="userSpaceOnUse" color-interpolation-filters="sRGB">
      <feFlood flood-opacity="0" result="BackgroundImageFix"/>
      <feColorMatrix in="SourceAlpha" type="matrix" values="0 0 0 0 0 0 0 0 0 0 0 0 0 0 0 0 0 0 127 0" result="hardAlpha"/>
      <feOffset dy="1"/>
      <feGaussianBlur stdDeviation="1"/>
      <feComposite in2="hardAlpha" operator="out"/>
      <feColorMatrix type="matrix" values="0 0 0 0 0.0627451 0 0 0 0 0.0941176 0 0 0 0 0.156863 0 0 0 0.04 0"/>
      <feBlend mode="normal" in2="BackgroundImageFix" result="effect1_dropShadow_6141_3913"/>
      <feBlend mode="normal" in="SourceGraphic" in2="effect1_dropShadow_6141_3913" result="shape"/>
    </filter>
    <linearGradient id="paint0_linear_6141_3913" x1="16" y1="2.66666" x2="16" y2="30.6595" gradientUnits="userSpaceOnUse">
      <stop stop-color="#FF6F7D"/>
      <stop offset="1" stop-color="#F32C40"/>
    </linearGradient>
    <linearGradient id="paint1_linear_6141_3913" x1="16" y1="2.66666" x2="16" y2="30.6595" gradientUnits="userSpaceOnUse">
      <stop stop-color="#FF6F7D"/>
      <stop offset="1" stop-color="#F32C40"/>
    </linearGradient>
  </defs>
</svg>