<svg width="" height="" viewBox="0 0 14 17" fill="none" xmlns="http://www.w3.org/2000/svg">
<path fill-rule="evenodd" clip-rule="evenodd" d="M6.44941 0.224414C6.52165 0.153278 6.60747 0.0968393 6.70195 0.0583307C6.79642 0.0198221 6.89771 0 7 0C7.10229 0 7.20358 0.0198221 7.29806 0.0583307C7.39253 0.0968393 7.47835 0.153278 7.55059 0.224414L13.7719 6.33533C13.918 6.47876 14 6.6733 14 6.87615C14 7.07899 13.918 7.27353 13.7719 7.41696C13.6259 7.56039 13.4279 7.64098 13.2213 7.64098C13.0148 7.64098 12.8168 7.56039 12.6708 7.41696L7.77767 2.6092V16.0425C7.77767 16.2451 7.69574 16.4394 7.5499 16.5827C7.40405 16.7259 7.20625 16.8064 7 16.8064C6.79375 16.8064 6.59595 16.7259 6.45011 16.5827C6.30426 16.4394 6.22233 16.2451 6.22233 16.0425V2.6092L1.32924 7.41696C1.25694 7.48798 1.1711 7.54432 1.07663 7.58276C0.982157 7.62119 0.880905 7.64098 0.778651 7.64098C0.676397 7.64098 0.575144 7.62119 0.480674 7.58276C0.386204 7.54432 0.300366 7.48798 0.228061 7.41696C0.155757 7.34594 0.0984022 7.26163 0.0592713 7.16883C0.0201405 7.07604 -1.5237e-09 6.97658 0 6.87615C1.5237e-09 6.77571 0.0201405 6.67625 0.0592713 6.58346C0.0984022 6.49066 0.155757 6.40635 0.228061 6.33533L6.44941 0.224414Z" fill=""/>
</svg>
