<svg width="20" height="20" viewBox="0 0 20 20" fill="none" xmlns="http://www.w3.org/2000/svg">
<path fill-rule="evenodd" clip-rule="evenodd" d="M10 2C5.58177 2 2 5.58177 2 10C2 14.4182 5.58177 18 10 18C14.4182 18 18 14.4182 18 10C18 5.58177 14.4182 2 10 2ZM10.5581 5.53488C10.5581 5.38686 10.4993 5.24489 10.3947 5.14022C10.29 5.03555 10.148 4.97674 10 4.97674C9.85197 4.97674 9.71001 5.03555 9.60534 5.14022C9.50066 5.24489 9.44186 5.38686 9.44186 5.53488V10C9.44186 10.3081 9.69191 10.5581 10 10.5581H14.4651C14.6131 10.5581 14.7551 10.4993 14.8598 10.3947C14.9645 10.29 15.0233 10.148 15.0233 10C15.0233 9.85197 14.9645 9.71001 14.8598 9.60534C14.7551 9.50066 14.6131 9.44186 14.4651 9.44186H10.5581V5.53488Z" fill="white"/>
</svg>
