<svg width="81" height="48" viewBox="0 0 81 48" fill="none" xmlns="http://www.w3.org/2000/svg">
<g filter="url(#filter0_d_5604_4751)">
<path fill-rule="evenodd" clip-rule="evenodd" d="M2.65396 4.27606C2 5.55953 2 7.23969 2 10.6V29.4C2 32.7603 2 34.4405 2.65396 35.7239C3.2292 36.8529 4.14708 37.7708 5.27606 38.346C6.55953 39 8.23969 39 11.6 39H34.1716C34.702 39 35.2107 39.2107 35.5858 39.5858L39.5858 43.5858C40.3668 44.3668 41.6332 44.3668 42.4142 43.5858L46.4142 39.5858C46.7893 39.2107 47.298 39 47.8284 39H69.4C72.7603 39 74.4405 39 75.7239 38.346C76.8529 37.7708 77.7708 36.8529 78.346 35.7239C79 34.4405 79 32.7603 79 29.4V10.6C79 7.23969 79 5.55953 78.346 4.27606C77.7708 3.14708 76.8529 2.2292 75.7239 1.65396C74.4405 1 72.7603 1 69.4 1H11.6C8.23969 1 6.55953 1 5.27606 1.65396C4.14708 2.2292 3.2292 3.14708 2.65396 4.27606Z" fill="white"/>
</g>
<path d="M15.2866 25V14.8182H16.8228V19.6804H16.9471L21.2177 14.8182H23.1516L19.0451 19.402L23.1665 25H21.3171L18.0259 20.451L16.8228 21.8331V25H15.2866ZM27.1202 25.1541C26.4043 25.1541 25.7795 24.9901 25.2459 24.6619C24.7123 24.3338 24.298 23.8748 24.003 23.2848C23.708 22.6948 23.5605 22.0054 23.5605 21.2166C23.5605 20.4245 23.708 19.7318 24.003 19.1385C24.298 18.5452 24.7123 18.0845 25.2459 17.7564C25.7795 17.4283 26.4043 17.2642 27.1202 17.2642C27.8361 17.2642 28.4609 17.4283 28.9945 17.7564C29.5281 18.0845 29.9424 18.5452 30.2374 19.1385C30.5324 19.7318 30.6799 20.4245 30.6799 21.2166C30.6799 22.0054 30.5324 22.6948 30.2374 23.2848C29.9424 23.8748 29.5281 24.3338 28.9945 24.6619C28.4609 24.9901 27.8361 25.1541 27.1202 25.1541ZM27.1252 23.9062C27.5892 23.9062 27.9737 23.7836 28.2786 23.5384C28.5835 23.2931 28.8089 22.9666 28.9547 22.5589C29.1039 22.1513 29.1784 21.7022 29.1784 21.2116C29.1784 20.7244 29.1039 20.277 28.9547 19.8693C28.8089 19.4583 28.5835 19.1286 28.2786 18.88C27.9737 18.6314 27.5892 18.5071 27.1252 18.5071C26.6578 18.5071 26.2701 18.6314 25.9618 18.88C25.6569 19.1286 25.4299 19.4583 25.2807 19.8693C25.1349 20.277 25.062 20.7244 25.062 21.2116C25.062 21.7022 25.1349 22.1513 25.2807 22.5589C25.4299 22.9666 25.6569 23.2931 25.9618 23.5384C26.2701 23.7836 26.6578 23.9062 27.1252 23.9062ZM32.3391 27.8636V17.3636H33.7908V18.6016H33.9151C34.0013 18.4425 34.1256 18.2585 34.288 18.0497C34.4504 17.8409 34.6758 17.6586 34.9641 17.5028C35.2525 17.3438 35.6336 17.2642 36.1076 17.2642C36.7241 17.2642 37.2743 17.42 37.7582 17.7315C38.2421 18.0431 38.6216 18.4922 38.8967 19.0788C39.1751 19.6655 39.3143 20.3714 39.3143 21.1967C39.3143 22.022 39.1767 22.7296 38.9016 23.3196C38.6265 23.9062 38.2487 24.3587 37.7681 24.6768C37.2875 24.9917 36.739 25.1491 36.1225 25.1491C35.6585 25.1491 35.279 25.0713 34.984 24.9155C34.6924 24.7597 34.4637 24.5774 34.2979 24.3686C34.1322 24.1598 34.0046 23.9742 33.9151 23.8118H33.8256V27.8636H32.3391ZM33.7958 21.1818C33.7958 21.7187 33.8737 22.1894 34.0295 22.5938C34.1853 22.9981 34.4106 23.3146 34.7056 23.5433C35.0006 23.7687 35.3619 23.8814 35.7894 23.8814C36.2335 23.8814 36.6048 23.7637 36.9031 23.5284C37.2013 23.2898 37.4267 22.9666 37.5792 22.5589C37.735 22.1513 37.8129 21.6922 37.8129 21.1818C37.8129 20.678 37.7366 20.2256 37.5842 19.8246C37.435 19.4235 37.2096 19.107 36.908 18.875C36.6097 18.643 36.2369 18.527 35.7894 18.527C35.3585 18.527 34.994 18.638 34.6957 18.8601C34.4007 19.0821 34.177 19.392 34.0245 19.7898C33.872 20.1875 33.7958 20.6515 33.7958 21.1818ZM40.9798 25V17.3636H42.4663V25H40.9798ZM41.7305 16.1854C41.4719 16.1854 41.2499 16.0992 41.0643 15.9268C40.882 15.7512 40.7908 15.5424 40.7908 15.3004C40.7908 15.0552 40.882 14.8464 41.0643 14.674C41.2499 14.4983 41.4719 14.4105 41.7305 14.4105C41.989 14.4105 42.2094 14.4983 42.3917 14.674C42.5773 14.8464 42.6701 15.0552 42.6701 15.3004C42.6701 15.5424 42.5773 15.7512 42.3917 15.9268C42.2094 16.0992 41.989 16.1854 41.7305 16.1854ZM47.7573 25.1541C47.0049 25.1541 46.3569 24.9934 45.8134 24.6719C45.2731 24.3471 44.8555 23.8913 44.5605 23.3047C44.2689 22.7147 44.123 22.0237 44.123 21.2315C44.123 20.4493 44.2689 19.7599 44.5605 19.1634C44.8555 18.5668 45.2665 18.1011 45.7935 17.7663C46.3238 17.4316 46.9436 17.2642 47.6529 17.2642C48.0837 17.2642 48.5014 17.3355 48.9057 17.478C49.3101 17.6205 49.673 17.8442 49.9945 18.1491C50.316 18.4541 50.5695 18.8501 50.7551 19.3374C50.9408 19.8213 51.0336 20.4096 51.0336 21.1023V21.6293H44.9632V20.5156H49.5769C49.5769 20.1245 49.4973 19.7782 49.3382 19.4766C49.1792 19.1716 48.9554 18.9313 48.6671 18.7557C48.382 18.58 48.0473 18.4922 47.6628 18.4922C47.2452 18.4922 46.8806 18.5949 46.5691 18.8004C46.2608 19.0026 46.0222 19.2678 45.8532 19.5959C45.6874 19.9207 45.6046 20.2737 45.6046 20.6548V21.5249C45.6046 22.0353 45.6941 22.4695 45.873 22.8274C46.0553 23.1854 46.3089 23.4588 46.6337 23.6477C46.9585 23.8333 47.338 23.9261 47.7722 23.9261C48.0539 23.9261 48.3108 23.8864 48.5428 23.8068C48.7748 23.724 48.9753 23.6013 49.1444 23.4389C49.3134 23.2765 49.4426 23.076 49.5321 22.8374L50.9391 23.0909C50.8264 23.5052 50.6242 23.8681 50.3326 24.1797C50.0442 24.4879 49.6813 24.7282 49.2438 24.9006C48.8096 25.0696 48.3141 25.1541 47.7573 25.1541ZM52.6829 25V17.3636H54.1197V18.5767H54.1992C54.3384 18.1657 54.5837 17.8426 54.935 17.6072C55.2897 17.3686 55.6907 17.2493 56.1381 17.2493C56.2309 17.2493 56.3403 17.2526 56.4663 17.2592C56.5955 17.2659 56.6966 17.2741 56.7695 17.2841V18.706C56.7099 18.6894 56.6038 18.6712 56.4513 18.6513C56.2989 18.6281 56.1464 18.6165 55.994 18.6165C55.6426 18.6165 55.3294 18.6911 55.0543 18.8402C54.7826 18.986 54.5671 19.1899 54.408 19.4517C54.2489 19.7102 54.1694 20.0052 54.1694 20.3366V25H52.6829ZM62.0717 17.3636V18.5568H57.9006V17.3636H62.0717ZM59.0192 15.5341H60.5057V22.7578C60.5057 23.0462 60.5488 23.2633 60.6349 23.4091C60.7211 23.5516 60.8321 23.6494 60.968 23.7024C61.1072 23.7521 61.258 23.777 61.4205 23.777C61.5398 23.777 61.6442 23.7687 61.7337 23.7521C61.8232 23.7356 61.8928 23.7223 61.9425 23.7124L62.2109 24.9403C62.1248 24.9735 62.0021 25.0066 61.843 25.0398C61.6839 25.0762 61.4851 25.0961 61.2464 25.0994C60.8554 25.1061 60.4908 25.0365 60.1527 24.8906C59.8146 24.7448 59.5412 24.5194 59.3324 24.2145C59.1236 23.9096 59.0192 23.5268 59.0192 23.0661V15.5341ZM65.5904 14.8182L65.4611 22.0717H64.084L63.9547 14.8182H65.5904ZM64.775 25.0945C64.4999 25.0945 64.2646 24.9983 64.0691 24.8061C63.8735 24.6106 63.7774 24.3752 63.7807 24.1001C63.7774 23.8284 63.8735 23.5964 64.0691 23.4041C64.2646 23.2086 64.4999 23.1108 64.775 23.1108C65.0435 23.1108 65.2755 23.2086 65.4711 23.4041C65.6666 23.5964 65.766 23.8284 65.7694 24.1001C65.766 24.2824 65.718 24.4498 65.6252 24.6023C65.5357 24.7514 65.4164 24.8707 65.2672 24.9602C65.1181 25.0497 64.954 25.0945 64.775 25.0945Z" fill="#F32C40"/>
<defs>
<filter id="filter0_d_5604_4751" x="0" y="0" width="81" height="47.1719" filterUnits="userSpaceOnUse" color-interpolation-filters="sRGB">
<feFlood flood-opacity="0" result="BackgroundImageFix"/>
<feColorMatrix in="SourceAlpha" type="matrix" values="0 0 0 0 0 0 0 0 0 0 0 0 0 0 0 0 0 0 127 0" result="hardAlpha"/>
<feOffset dy="1"/>
<feGaussianBlur stdDeviation="1"/>
<feComposite in2="hardAlpha" operator="out"/>
<feColorMatrix type="matrix" values="0 0 0 0 0.0627451 0 0 0 0 0.0941176 0 0 0 0 0.156863 0 0 0 0.04 0"/>
<feBlend mode="normal" in2="BackgroundImageFix" result="effect1_dropShadow_5604_4751"/>
<feBlend mode="normal" in="SourceGraphic" in2="effect1_dropShadow_5604_4751" result="shape"/>
</filter>
</defs>
</svg>
