<svg width="37" height="37" viewBox="0 0 37 37" fill="none" xmlns="http://www.w3.org/2000/svg">
<g filter="url(#filter0_d_1191_213)">
<path d="M21.9999 7.49274V13.3333C21.9999 13.7015 22.2984 14 22.6666 14H28.5072C28.6866 14 28.8585 13.9276 28.9839 13.7993L32.893 9.79926C33.3056 9.37713 33.0065 8.66664 32.4162 8.66664H27.9999C27.6317 8.66664 27.3333 8.36817 27.3333 7.99998V3.58365C27.3333 2.9934 26.6228 2.69431 26.2006 3.10686L22.2006 7.01595C22.0723 7.14138 21.9999 7.31327 21.9999 7.49274Z" fill="url(#paint0_linear_1191_213)"/>
<path d="M17.9999 18L21.9999 14M32.6666 18C32.6666 26.1002 26.1001 32.6666 17.9999 32.6666C9.89974 32.6666 3.33325 26.1002 3.33325 18C3.33325 9.8998 9.89974 3.33331 17.9999 3.33331M27.3333 18C27.3333 23.1546 23.1546 27.3333 17.9999 27.3333C12.8453 27.3333 8.66658 23.1546 8.66658 18C8.66658 12.8453 12.8453 8.66664 17.9999 8.66664M21.9999 13.3333V7.49274C21.9999 7.31327 22.0723 7.14138 22.2006 7.01595L26.2006 3.10686C26.6228 2.69431 27.3333 2.9934 27.3333 3.58365V7.99998C27.3333 8.36817 27.6317 8.66664 27.9999 8.66664H32.4162C33.0065 8.66664 33.3056 9.37713 32.893 9.79926L28.9839 13.7993C28.8585 13.9276 28.6866 14 28.5072 14H22.6666C22.2984 14 21.9999 13.7015 21.9999 13.3333Z" stroke="#F32C40" stroke-width="2.66667" stroke-linecap="round"/>
</g>
<defs>
<filter id="filter0_d_1191_213" x="0" y="0.579712" width="36.4202" height="36.4203" filterUnits="userSpaceOnUse" color-interpolation-filters="sRGB">
<feFlood flood-opacity="0" result="BackgroundImageFix"/>
<feColorMatrix in="SourceAlpha" type="matrix" values="0 0 0 0 0 0 0 0 0 0 0 0 0 0 0 0 0 0 127 0" result="hardAlpha"/>
<feOffset dy="1"/>
<feGaussianBlur stdDeviation="1"/>
<feComposite in2="hardAlpha" operator="out"/>
<feColorMatrix type="matrix" values="0 0 0 0 0.0627451 0 0 0 0 0.0941176 0 0 0 0 0.156863 0 0 0 0.04 0"/>
<feBlend mode="normal" in2="BackgroundImageFix" result="effect1_dropShadow_1191_213"/>
<feBlend mode="normal" in="SourceGraphic" in2="effect1_dropShadow_1191_213" result="shape"/>
</filter>
<linearGradient id="paint0_linear_1191_213" x1="18.2087" y1="2.91565" x2="18.2087" y2="32.6666" gradientUnits="userSpaceOnUse">
<stop stop-color="#F32C40"/>
<stop offset="1" stop-color="#FF5263"/>
</linearGradient>
</defs>
</svg>
