<svg width="24" height="18" viewBox="0 0 24 18" fill="none" xmlns="http://www.w3.org/2000/svg">
<path d="M2.62499 2.16406L10.721 8.06737C11.4733 8.61593 12.5267 8.61593 13.279 8.06737L21.375 2.16406M4.91666 16.8125H19.0833C20.2501 16.8125 20.8335 16.8125 21.2791 16.5996C21.6711 16.4124 21.9899 16.1136 22.1896 15.7461C22.4167 15.3283 22.4167 14.7814 22.4167 13.6875V4.3125C22.4167 3.21865 22.4167 2.67172 22.1896 2.25392C21.9899 1.88642 21.6711 1.58763 21.2791 1.40038C20.8335 1.1875 20.2501 1.1875 19.0833 1.1875H4.91666C3.74989 1.1875 3.1665 1.1875 2.72085 1.40038C2.32884 1.58763 2.01013 1.88642 1.8104 2.25392C1.58333 2.67172 1.58333 3.21865 1.58333 4.3125V13.6875C1.58333 14.7814 1.58333 15.3283 1.8104 15.7461C2.01013 16.1136 2.32884 16.4124 2.72085 16.5996C3.1665 16.8125 3.74989 16.8125 4.91666 16.8125Z" stroke="white" stroke-width="1.73611"/>
</svg>
