<svg width="" height="" viewBox="0 0 168 284" fill="none" xmlns="http://www.w3.org/2000/svg">
<path d="M110.969 181.534V264.072L121.724 267.331C121.934 267.389 122.116 267.522 122.235 267.704C122.354 267.886 122.402 268.105 122.371 268.32C122.34 268.535 122.231 268.731 122.065 268.872C121.899 269.013 121.687 269.088 121.47 269.084H94.1653L84.2518 181.534H110.969Z" fill="#181818"/>
<path d="M57.535 181.534V264.072L46.7791 267.331C46.5686 267.389 46.3866 267.522 46.2675 267.705C46.1484 267.888 46.1004 268.108 46.1326 268.323C46.1647 268.539 46.2747 268.735 46.4419 268.875C46.6091 269.016 46.822 269.09 47.0403 269.084H74.3382L84.2517 181.534H57.535Z" fill="#181818"/>
<path d="M72.0657 99.3798L83.7947 106.341L96.4314 99.3798V85.7581H72.0657V99.3798Z" fill="white" stroke="#F32C40" stroke-width="1.55191" stroke-miterlimit="10"/>
<path d="M121.169 167.169L117.904 169.985L119.935 175.466C120.79 175.04 121.775 174.951 122.693 175.218C123.611 175.485 124.394 176.088 124.885 176.906L124.964 177.03L116.872 179.97L115.004 157.647L118.204 156.539L121.169 167.169Z" fill="white" stroke="#F32C40" stroke-width="1.55191" stroke-miterlimit="10"/>
<path d="M48.7997 158.838L52.065 161.653L50.0339 167.135C49.1788 166.708 48.1938 166.62 47.276 166.887C46.3582 167.154 45.5753 167.757 45.0837 168.575L45.0054 168.699L53.0968 171.638L54.9646 149.316L51.7646 148.208L48.7997 158.838Z" fill="white" stroke="#F32C40" stroke-width="1.55191" stroke-miterlimit="10"/>
<path d="M137.274 140.31C136.346 143.732 133.251 150.034 126.825 152.198C123.443 153.288 119.927 153.908 116.376 154.043L120.359 169.639C120.359 169.639 147.54 172.246 151.765 149.904C152.155 147.835 152.345 145.733 152.333 143.628C151.948 137.859 150.287 132.248 147.468 127.197C142.864 118.815 129.476 107.155 109.277 98.3501C108.057 99.5382 107.3 101.121 107.142 102.815C107.085 103.907 107.269 104.999 107.682 106.013C108.095 107.027 106.337 108.667 107.142 109.41C126.936 117.225 139.821 130.931 137.274 140.31Z" fill="#181818"/>
<path d="M39.3603 128.985C39.2355 132.452 40.3027 139.242 45.6832 143.127C48.5291 145.126 51.6361 146.726 54.9172 147.88L46.6722 161.307C46.6722 161.307 20.5059 155.866 23.0317 133.753C23.2669 131.706 23.6982 129.686 24.3197 127.721C26.3516 122.44 29.5315 117.675 33.6308 113.77C40.3645 107.269 56.2603 100.249 77.6965 97.8716C78.4927 99.336 78.7417 101.035 78.3989 102.664C78.1353 103.703 77.6462 104.67 76.9662 105.498C76.2862 106.326 75.432 106.994 74.4641 107.455C53.6935 109.024 39.6977 119.478 39.3603 128.985Z" fill="#181818"/>
<path d="M51.468 182.16H117.029L110.08 98.5065H58.4166L51.468 182.16Z" fill="#181818"/>
<path d="M109.832 27.5562V89.9294C109.834 90.5929 109.704 91.2503 109.451 91.8639C109.198 92.4774 108.826 93.0351 108.356 93.5049C107.887 93.9747 107.329 94.3474 106.715 94.6018C106.101 94.8561 105.442 94.987 104.777 94.987H62.9814C61.8326 94.9759 60.6987 94.7255 59.6524 94.2519C58.6061 93.7784 57.6703 93.092 56.905 92.2368C56.1397 91.3817 55.5617 90.3764 55.208 89.2855C54.8543 88.1946 54.7326 87.042 54.8508 85.9015L61.3814 27.5562H109.832Z" fill="white" stroke="#F32C40" stroke-width="1.55191" stroke-miterlimit="10"/>
<path d="M110.505 62.2232C123.057 26.7415 110.505 21.573 110.505 21.573C110.05 19.869 109.148 18.3168 107.893 17.0759C100.709 10.1347 80.9083 14.7035 77.421 15.5573C75.3377 16.0657 72.2748 16.9195 70.4397 15.3357C68.4806 13.6346 68.8724 9.96525 69.4993 7.14966C68.9704 7.2018 65.1565 7.61892 62.9687 10.8973C62.0133 12.4561 61.5582 14.2691 61.6644 16.0934C61.7706 17.9176 62.4331 19.6659 63.563 21.1038C62.3586 21.2832 61.1312 20.9938 60.1344 20.2956C59.375 19.6854 58.8121 18.8657 58.516 17.9385C58.2199 17.0114 58.2036 16.0178 58.4691 15.0815C57.2606 16.1781 56.3754 17.5835 55.9093 19.1457C55.4431 20.708 55.4137 22.3677 55.8242 23.9454C56.2116 25.2289 56.8751 26.4124 57.7685 27.4132C58.6619 28.414 59.7636 29.208 60.9965 29.7396H107.671C95.4259 49.7811 107.018 62.2492 107.018 62.2492L110.505 62.2232Z" fill="#F32C40"/>
<path d="M84.6697 63.1877C83.6057 63.1877 82.7431 62.3269 82.7431 61.265C82.7431 60.2032 83.6057 59.3423 84.6697 59.3423C85.7336 59.3423 86.5962 60.2032 86.5962 61.265C86.5962 62.3269 85.7336 63.1877 84.6697 63.1877Z" fill="#181818"/>
<path d="M64.3334 63.1877C63.2694 63.1877 62.4068 62.3269 62.4068 61.265C62.4068 60.2032 63.2694 59.3423 64.3334 59.3423C65.3974 59.3423 66.2599 60.2032 66.2599 61.265C66.2599 62.3269 65.3974 63.1877 64.3334 63.1877Z" fill="#181818"/>
<path d="M106.378 63.5788C106.378 63.5788 110.786 52.5771 117.16 54.3238C123.534 56.0705 122.247 78.0804 108.709 78.4389" fill="white"/>
<path d="M106.378 63.5788C106.378 63.5788 110.786 52.5771 117.16 54.3238C123.534 56.0705 122.247 78.0804 108.709 78.4389" stroke="#F32C40" stroke-width="1.55191" stroke-miterlimit="10" stroke-linecap="round"/>
<path d="M116.076 61.265C116.076 61.265 109.251 62.1384 107.671 70.3505" stroke="#F32C40" stroke-width="1.55191" stroke-miterlimit="10" stroke-linecap="round"/>
<path d="M109.427 65.8077C109.427 65.8077 113.084 65.4558 113.62 70.37" stroke="#F32C40" stroke-width="1.55191" stroke-miterlimit="10" stroke-linecap="round"/>
<path d="M93.934 50.0744L78.9919 47.2066L78.3715 41.1257L93.5748 46.6005L93.934 50.0744Z" fill="#181818"/>
<path d="M56.3731 49.2675L71.5074 47.7492L72.6674 41.7467L57.0348 45.8352L56.3731 49.2675Z" fill="#181818"/>
<path d="M84.2517 162.626L62.4068 98.5H106.136L84.2517 162.626Z" fill="white"/>
<path d="M83.6576 101.348L91.0045 148.053C88.7275 152.78 86.444 157.501 84.1539 162.216L77.447 147.831L83.6576 101.348Z" fill="#F32C40"/>
<path d="M88.0721 104.411L83.5725 108.459L79.4648 104.587L83.8338 98.8323C85.2444 100.692 86.6572 102.552 88.0721 104.411Z" fill="#F32C40"/>
<path d="M84.2519 162.626L101.342 96.9946H111.38L111.759 123.565L105.228 124.193L109.597 132.64L84.2519 162.626Z" fill="#181818" stroke="white" stroke-width="1.55191" stroke-linecap="round" stroke-linejoin="round"/>
<path d="M84.252 162.626L67.1548 96.9947H57.1238L56.745 123.565L63.2691 124.193L58.9067 132.64L84.252 162.626Z" fill="#181818" stroke="white" stroke-width="1.55191" stroke-linecap="round" stroke-linejoin="round"/>
<path d="M65.9562 98.5465L77.9399 106.335L83.6411 98.8268L89.3423 106.335L101.999 98.5465H65.9562Z" stroke="#181818" stroke-width="1.55191" stroke-linecap="round" stroke-linejoin="round"/>
<path d="M74.0052 50.6088L68.5195 73.681L75.6117 73.844" stroke="#F32C40" stroke-width="1.55191" stroke-miterlimit="10" stroke-linecap="round"/>
<path d="M76.0437 84.5034C77.7905 83.2867 82.223 80.9913 83.9567 83.1245" stroke="#323539" stroke-width="1.55191" stroke-linecap="round" stroke-linejoin="round"/>
</svg>
