<svg width="20" height="20" viewBox="0 0 20 20" fill="none" xmlns="http://www.w3.org/2000/svg">
<path d="M10.0045 18.3356C5.40211 18.3356 1.67114 14.6047 1.67114 10.0023C1.67114 5.3999 5.40211 1.66895 10.0045 1.66895C14.6068 1.66895 18.3378 5.3999 18.3378 10.0023C18.3378 14.6047 14.6068 18.3356 10.0045 18.3356ZM8.37949 9.16892C8.57249 8.21801 9.41324 7.50228 10.4212 7.50228C10.9338 7.50228 11.4032 7.68746 11.7662 7.99458L13.1836 7.04958C12.4982 6.30334 11.5142 5.83561 10.4212 5.83561C8.49091 5.83561 6.9013 7.29396 6.69403 9.16892H5.83781V10.8356H6.69403C6.9013 12.7106 8.49091 14.1689 10.4212 14.1689C11.5142 14.1689 12.4982 13.7013 13.1836 12.955L11.7661 12.01C11.4032 12.3171 10.9338 12.5023 10.4212 12.5023C9.41324 12.5023 8.57249 11.7865 8.37949 10.8356H12.5045V9.16892H8.37949Z" fill="white"/>
</svg>
