<svg width="76" height="75" viewBox="0 0 76 75" fill="none" xmlns="http://www.w3.org/2000/svg">
<path d="M57.8046 7.40784H18.3224C18.0737 7.40784 17.8353 7.50661 17.6594 7.68242C17.4836 7.85824 17.3849 8.0967 17.3849 8.34534V65.7203H11.5686C11.32 65.7203 11.0815 65.8191 10.9057 65.9949C10.7299 66.1707 10.6311 66.4092 10.6311 66.6578C10.6311 66.9065 10.7299 67.1449 10.9057 67.3208C11.0815 67.4966 11.32 67.5953 11.5686 67.5953H64.5584C64.807 67.5953 65.0454 67.4966 65.2213 67.3208C65.3971 67.1449 65.4959 66.9065 65.4959 66.6578C65.4959 66.4092 65.3971 66.1707 65.2213 65.9949C65.0454 65.8191 64.807 65.7203 64.5584 65.7203H58.7421V8.34534C58.7421 8.0967 58.6433 7.85824 58.4675 7.68242C58.2917 7.50661 58.0532 7.40784 57.8046 7.40784ZM35.8514 65.7173V56.8996H40.2764V65.7173H35.8514ZM42.1514 65.7173V55.9621C42.1515 55.8389 42.1273 55.717 42.0802 55.6032C42.0331 55.4894 41.9641 55.386 41.877 55.299C41.7899 55.2119 41.6865 55.1428 41.5727 55.0958C41.459 55.0487 41.337 55.0245 41.2139 55.0246H34.9139C34.7907 55.0245 34.6688 55.0487 34.555 55.0958C34.4412 55.1428 34.3378 55.2119 34.2507 55.299C34.1636 55.386 34.0946 55.4894 34.0475 55.6032C34.0004 55.717 33.9763 55.8389 33.9764 55.9621V65.7173H19.2599V9.28284H56.8671V65.7173H42.1514Z" fill="#181818"/>
<path d="M52.1334 34.0712H23.9927C23.744 34.0712 23.5056 34.1699 23.3298 34.3458C23.1539 34.5216 23.0552 34.76 23.0552 35.0087V41.3087C23.0552 41.5573 23.1539 41.7958 23.3298 41.9716C23.5056 42.1474 23.744 42.2462 23.9927 42.2462H52.1334C52.3821 42.2462 52.6205 42.1474 52.7963 41.9716C52.9722 41.7958 53.0709 41.5573 53.0709 41.3087V35.0087C53.0709 34.76 52.9722 34.5216 52.7963 34.3458C52.6205 34.1699 52.3821 34.0712 52.1334 34.0712ZM51.1959 40.3712H24.9302V35.9462H51.1997L51.1959 40.3712Z" fill="#181818"/>
<path d="M52.1334 13.2577H23.9927C23.744 13.2577 23.5056 13.3565 23.3298 13.5323C23.1539 13.7081 23.0552 13.9466 23.0552 14.1952V20.4952C23.0552 20.7438 23.1539 20.9823 23.3298 21.1581C23.5056 21.3339 23.744 21.4327 23.9927 21.4327H52.1334C52.3821 21.4327 52.6205 21.3339 52.7963 21.1581C52.9722 20.9823 53.0709 20.7438 53.0709 20.4952V14.1952C53.0709 13.9466 52.9722 13.7081 52.7963 13.5323C52.6205 13.3565 52.3821 13.2577 52.1334 13.2577ZM51.1959 19.5577H24.9302V15.1327H51.1997L51.1959 19.5577Z" fill="#181818"/>
<path d="M52.1334 23.5935H23.9927C23.744 23.5935 23.5056 23.6923 23.3298 23.8681C23.1539 24.0439 23.0552 24.2824 23.0552 24.531V30.975C23.0552 31.2237 23.1539 31.4621 23.3298 31.6379C23.5056 31.8137 23.744 31.9125 23.9927 31.9125H52.1334C52.2569 31.913 52.3792 31.8891 52.4933 31.8422C52.6075 31.7953 52.7113 31.7264 52.7988 31.6393C52.8862 31.5522 52.9556 31.4486 53.003 31.3346C53.0503 31.2207 53.0747 31.0984 53.0747 30.975V24.531C53.0747 24.4076 53.0503 24.2854 53.003 24.1714C52.9556 24.0574 52.8862 23.9539 52.7988 23.8668C52.7113 23.7797 52.6075 23.7107 52.4933 23.6638C52.3792 23.6169 52.2569 23.593 52.1334 23.5935ZM51.1997 30.0338H24.9302V25.4685H51.1997V30.0338Z" fill="#181818"/>
<path d="M52.1334 44.5502H23.9927C23.744 44.5502 23.5056 44.6489 23.3298 44.8248C23.1539 45.0006 23.0552 45.239 23.0552 45.4877V51.7877C23.0552 52.0363 23.1539 52.2748 23.3298 52.4506C23.5056 52.6264 23.744 52.7252 23.9927 52.7252H52.1334C52.3821 52.7252 52.6205 52.6264 52.7963 52.4506C52.9722 52.2748 53.0709 52.0363 53.0709 51.7877V45.4877C53.0709 45.239 52.9722 45.0006 52.7963 44.8248C52.6205 44.6489 52.3821 44.5502 52.1334 44.5502ZM51.1997 50.8502H24.9302V46.4252H51.1997V50.8502Z" fill="#181818"/>
<path d="M30.2927 55.0247H23.9927C23.744 55.0247 23.5056 55.1234 23.3298 55.2992C23.1539 55.4751 23.0552 55.7135 23.0552 55.9622V62.2622C23.0552 62.5108 23.1539 62.7493 23.3298 62.9251C23.5056 63.1009 23.744 63.1997 23.9927 63.1997H30.2927C30.5413 63.1997 30.7798 63.1009 30.9556 62.9251C31.1314 62.7493 31.2302 62.5108 31.2302 62.2622V55.9622C31.2302 55.7135 31.1314 55.4751 30.9556 55.2992C30.7798 55.1234 30.5413 55.0247 30.2927 55.0247ZM29.3552 61.3247H24.9302V56.8997H29.3552V61.3247Z" fill="#181818"/>
<path d="M52.1335 55.0247H45.8335C45.5849 55.0247 45.3464 55.1234 45.1706 55.2992C44.9948 55.4751 44.896 55.7135 44.896 55.9622V62.2622C44.896 62.5108 44.9948 62.7493 45.1706 62.9251C45.3464 63.1009 45.5849 63.1997 45.8335 63.1997H52.1335C52.3821 63.1997 52.6206 63.1009 52.7964 62.9251C52.9722 62.7493 53.071 62.5108 53.071 62.2622V55.9622C53.071 55.7135 52.9722 55.4751 52.7964 55.2992C52.6206 55.1234 52.3821 55.0247 52.1335 55.0247ZM51.196 61.3247H46.7747V56.8997H51.1997L51.196 61.3247Z" fill="#181818"/>
</svg>
