<svg width="32" height="32" viewBox="0 0 32 32" fill="none" xmlns="http://www.w3.org/2000/svg">
<g clip-path="url(#clip0_1191_2716)">
<g filter="url(#filter0_d_1191_2716)">
<path fill-rule="evenodd" clip-rule="evenodd" d="M14.3444 2.66663C13.0496 2.66663 12 3.71625 12 5.01103C12 6.81575 10.0463 7.94368 8.48337 7.04132C7.36205 6.39392 5.92821 6.77811 5.28081 7.89943L3.62525 10.767C2.97785 11.8883 3.36204 13.3221 4.48337 13.9695C6.04633 14.8719 6.04633 17.1278 4.48337 18.0302C3.36204 18.6776 2.97785 20.1115 3.62525 21.2328L5.28081 24.1003C5.92821 25.2216 7.36204 25.6058 8.48336 24.9584C10.0463 24.0561 12 25.1841 12 26.9888C12 28.2836 13.0497 29.3333 14.3445 29.3333H17.6555C18.9503 29.3333 20 28.2836 20 26.9888C20 25.184 21.9537 24.056 23.5167 24.9584C24.638 25.6058 26.0719 25.2216 26.7193 24.1003L28.3748 21.2328C29.0222 20.1115 28.638 18.6776 27.5167 18.0302C25.9537 17.1278 25.9537 14.8719 27.5167 13.9695C28.638 13.3221 29.0222 11.8883 28.3748 10.767L26.7193 7.89946C26.0719 6.77812 24.638 6.39394 23.5167 7.04134C21.9537 7.94371 20 6.81577 20 5.01104C20 3.71626 18.9504 2.66663 17.6556 2.66663H14.3444ZM16 21.3333C18.9455 21.3333 21.3333 18.9455 21.3333 16C21.3333 13.0544 18.9455 10.6666 16 10.6666C13.0545 10.6666 10.6667 13.0544 10.6667 16C10.6667 18.9455 13.0545 21.3333 16 21.3333Z" fill="white"/>
</g>
</g>
<defs>
<filter id="filter0_d_1191_2716" x="1.31076" y="1.66663" width="29.3785" height="30.6666" filterUnits="userSpaceOnUse" color-interpolation-filters="sRGB">
<feFlood flood-opacity="0" result="BackgroundImageFix"/>
<feColorMatrix in="SourceAlpha" type="matrix" values="0 0 0 0 0 0 0 0 0 0 0 0 0 0 0 0 0 0 127 0" result="hardAlpha"/>
<feOffset dy="1"/>
<feGaussianBlur stdDeviation="1"/>
<feComposite in2="hardAlpha" operator="out"/>
<feColorMatrix type="matrix" values="0 0 0 0 0.0627451 0 0 0 0 0.0941176 0 0 0 0 0.156863 0 0 0 0.04 0"/>
<feBlend mode="normal" in2="BackgroundImageFix" result="effect1_dropShadow_1191_2716"/>
<feBlend mode="normal" in="SourceGraphic" in2="effect1_dropShadow_1191_2716" result="shape"/>
</filter>
<clipPath id="clip0_1191_2716">
<rect width="32" height="32" fill="white"/>
</clipPath>
</defs>
</svg>
