<svg xmlns="http://www.w3.org/2000/svg" width="" height="" viewBox="0 0 80 80" fill="none">
<path d="M74.1571 67.2517H72.9706V34.8526C72.9706 34.2765 72.5036 33.8096 71.9276 33.8096H67.3968V19.2461C67.3968 18.6701 66.9299 18.2031 66.3539 18.2031H61.895C61.319 18.2031 60.852 18.6701 60.852 19.2461V33.8095H58.4789V19.2461C58.4789 18.6701 58.0119 18.2031 57.4359 18.2031H52.9769C52.4009 18.2031 51.9339 18.6701 51.9339 19.2461V33.8095H49.561V28.164C49.561 27.588 49.094 27.121 48.518 27.121H34.0263C33.4503 27.121 32.9834 27.588 32.9834 28.164V33.8095H29.5674C28.9915 33.8095 28.5245 34.2763 28.5245 34.8525V44.0525L25.0367 44.8452V40.4261C25.0367 39.8501 24.5697 39.3831 23.9937 39.3831H23.8826L22.848 12.4858H22.8788C23.4548 12.4858 23.9218 12.0189 23.9218 11.4429C23.9218 10.8667 23.4548 10.3999 22.8788 10.3999H13.9611C13.3851 10.3999 12.9181 10.8667 12.9181 11.4429C12.9181 12.0189 13.3851 12.4858 13.9611 12.4858H13.9919L13.7764 18.0907C13.7543 18.6663 14.2029 19.151 14.7786 19.1731C14.7922 19.1736 14.8059 19.1739 14.8193 19.1739C15.3768 19.1739 15.8391 18.7329 15.8608 18.171L15.9079 16.9449H20.9321L21.7951 39.3831H15.0449L15.6893 22.63C15.7114 22.0544 15.2628 21.5698 14.6871 21.5477C14.1083 21.5246 13.6269 21.9742 13.6048 22.5498L12.9573 39.3831H12.8462C12.2702 39.3831 11.8032 39.8501 11.8032 40.4261V47.8528L4.81201 49.4419C4.25033 49.5696 3.89851 50.1285 4.02617 50.6901C4.13616 51.1739 4.56614 51.5023 5.04229 51.5023C5.11878 51.5023 5.19651 51.4936 5.27439 51.4761L6.22975 51.2589V67.2519H5.04313C4.46713 67.2519 4.00016 67.7189 4.00016 68.2949C4.00016 68.871 4.46713 69.3378 5.04313 69.3378H74.1571C74.7331 69.3378 75.2 68.871 75.2 68.2949C75.2 67.7187 74.7331 67.2517 74.1571 67.2517ZM15.9882 14.8589L16.0794 12.486H20.7605L20.8517 14.8589H15.9882ZM13.8892 41.4692H22.9507V45.3195L13.8892 47.3789V41.4692ZM22.9507 67.2516H13.8892V64.8786H22.9507V67.2516ZM22.9507 62.7927H13.8892V60.4198H22.9507V62.7927ZM22.9507 58.3338H13.8892V55.9609H22.9507V58.3338ZM28.5245 67.2517H25.0367V55.9609H25.1084C25.6844 55.9609 26.1514 55.4939 26.1514 54.9179C26.1514 54.3419 25.6844 53.8749 25.1084 53.8749H11.7315C11.1555 53.8749 10.6885 54.3419 10.6885 54.9179C10.6885 55.4939 11.1555 55.9609 11.7315 55.9609H11.8032V67.2517H8.31554V50.7847L28.5245 46.1917V67.2517ZM62.9379 20.289H65.3109V22.662H62.9379V20.289ZM62.9378 24.7481H65.3108V33.8096H62.9378V24.7481ZM54.0199 20.289H56.393V22.662H54.0199V20.289ZM54.0199 24.7481H56.393V33.8096H54.0199V24.7481ZM30.6104 35.8956H41.8295C42.4055 35.8956 42.8725 35.4286 42.8725 34.8526C42.8725 34.2765 42.4055 33.8096 41.8295 33.8096H35.0693V29.2071H47.4749V33.8096H46.2883C45.7123 33.8096 45.2453 34.2765 45.2453 34.8526C45.2453 35.4286 45.7123 35.8956 46.2883 35.8956H70.8845V53.8749H30.6104V35.8956ZM65.3109 55.9609V62.7929H60.7084V55.9609H65.3109ZM58.6224 55.9609V62.7929H54.0199V55.9609H58.6224ZM47.4751 55.9609V62.7929H42.8725V55.9609H47.4751ZM40.7866 55.9609V62.7929H36.184V55.9609H40.7866ZM70.8846 67.2517H30.6104V55.9609H34.0982V63.8358C34.0982 64.4118 34.5652 64.8788 35.1412 64.8788H48.518C49.094 64.8788 49.561 64.4118 49.561 63.8358V55.9609H51.9339V63.8358C51.9339 64.4118 52.4009 64.8788 52.9769 64.8788H66.3539C66.9299 64.8788 67.3968 64.4118 67.3968 63.8358V55.9609H70.8846V67.2517Z" fill=""/>
</svg>