<svg width="100" height="100" viewBox="0 0 100 100" fill="none" xmlns="http://www.w3.org/2000/svg">
<path d="M92.6963 84.0648H91.2132V43.5659C91.2132 42.8457 90.6295 42.2622 89.9095 42.2622H84.246V24.0577C84.246 23.3377 83.6623 22.754 82.9423 22.754H77.3687C76.6487 22.754 76.065 23.3377 76.065 24.0577V42.262H73.0986V24.0577C73.0986 23.3377 72.5149 22.754 71.7949 22.754H66.2211C65.5011 22.754 64.9174 23.3377 64.9174 24.0577V42.262H61.9512V35.2051C61.9512 34.4851 61.3675 33.9014 60.6475 33.9014H42.5329C41.8129 33.9014 41.2292 34.4851 41.2292 35.2051V42.262H36.9593C36.2393 42.262 35.6556 42.8455 35.6556 43.5657V55.0658L31.2958 56.0566V50.5327C31.2958 49.8127 30.7121 49.229 29.9921 49.229H29.8532L28.5599 15.6074H28.5985C29.3185 15.6074 29.9022 15.0237 29.9022 14.3037C29.9022 13.5835 29.3185 13 28.5985 13H17.4513C16.7313 13 16.1476 13.5835 16.1476 14.3037C16.1476 15.0237 16.7313 15.6074 17.4513 15.6074H17.4899L17.2205 22.6135C17.1928 23.333 17.7536 23.9388 18.4732 23.9664C18.4903 23.9671 18.5073 23.9675 18.5242 23.9675C19.2211 23.9675 19.7989 23.4163 19.826 22.7138L19.8849 21.1812H26.1651L27.2439 49.229H18.8061L19.6116 28.2876C19.6393 27.5682 19.0785 26.9624 18.3589 26.9347C17.6354 26.9059 17.0336 27.4679 17.006 28.1873L16.1966 49.229H16.0577C15.3377 49.229 14.754 49.8127 14.754 50.5327V59.8162L6.01501 61.8025C5.31292 61.9621 4.87313 62.6607 5.03271 63.3628C5.17021 63.9675 5.70768 64.3779 6.30287 64.3779C6.39847 64.3779 6.49564 64.3672 6.59299 64.3453L7.78718 64.0737V84.065H6.30391C5.58392 84.065 5.0002 84.6487 5.0002 85.3687C5.0002 86.0889 5.58392 86.6724 6.30391 86.6724H92.6963C93.4163 86.6724 94 86.0889 94 85.3687C94 84.6485 93.4163 84.0648 92.6963 84.0648ZM19.9852 18.5738L20.0992 15.6076H25.9506L26.0647 18.5738H19.9852ZM17.3614 51.8366H28.6884V56.6495L17.3614 59.2238V51.8366ZM28.6884 84.0646H17.3614V81.0984H28.6884V84.0646ZM28.6884 78.491H17.3614V75.5248H28.6884V78.491ZM28.6884 72.9174H17.3614V69.9512H28.6884V72.9174ZM35.6556 84.0648H31.2958V69.9512H31.3855C32.1055 69.9512 32.6892 69.3675 32.6892 68.6475C32.6892 67.9275 32.1055 67.3438 31.3855 67.3438H14.6643C13.9443 67.3438 13.3606 67.9275 13.3606 68.6475C13.3606 69.3675 13.9443 69.9512 14.6643 69.9512H14.754V84.0648H10.3944V63.481L35.6556 57.7398V84.0648ZM78.6724 25.3614H81.6386V28.3276H78.6724V25.3614ZM78.6722 30.9352H81.6384V42.2622H78.6722V30.9352ZM67.5248 25.3614H70.4912V28.3276H67.5248V25.3614ZM67.5248 30.9352H70.4912V42.2622H67.5248V30.9352ZM38.263 44.8696H52.2869C53.0069 44.8696 53.5906 44.2859 53.5906 43.5659C53.5906 42.8457 53.0069 42.2622 52.2869 42.2622H43.8366V36.509H59.3436V42.2622H57.8604C57.1404 42.2622 56.5567 42.8457 56.5567 43.5659C56.5567 44.2859 57.1404 44.8696 57.8604 44.8696H88.6056V67.3438H38.263V44.8696ZM81.6386 69.9512V78.4912H75.8854V69.9512H81.6386ZM73.278 69.9512V78.4912H67.5248V69.9512H73.278ZM59.3438 69.9512V78.4912H53.5906V69.9512H59.3438ZM50.9832 69.9512V78.4912H45.23V69.9512H50.9832ZM88.6058 84.0648H38.263V69.9512H42.6228V79.7949C42.6228 80.5149 43.2065 81.0986 43.9265 81.0986H60.6475C61.3675 81.0986 61.9512 80.5149 61.9512 79.7949V69.9512H64.9174V79.7949C64.9174 80.5149 65.5011 81.0986 66.2211 81.0986H82.9423C83.6623 81.0986 84.246 80.5149 84.246 79.7949V69.9512H88.6058V84.0648Z" fill="#323539"/>
</svg>
