<svg width="86" height="85" viewBox="0 0 86 85" fill="none" xmlns="http://www.w3.org/2000/svg">
<path d="M36.9062 44.9203C36.9062 45.156 36.8126 45.382 36.646 45.5486C36.4793 45.7153 36.2533 45.8089 36.0176 45.8089C35.7819 45.8089 35.5558 45.7153 35.3892 45.5486C35.2225 45.382 35.1289 45.156 35.1289 44.9203V42.6905C35.1289 42.4548 35.2225 42.2287 35.3892 42.0621C35.5558 41.8954 35.7819 41.8018 36.0176 41.8018C36.2533 41.8018 36.4793 41.8954 36.646 42.0621C36.8126 42.2287 36.9062 42.4548 36.9062 42.6905V44.9203ZM53.4173 19.4453H69.5332C69.7689 19.4453 69.9949 19.539 70.1616 19.7056C70.3282 19.8723 70.4219 20.0983 70.4219 20.334V38.2344C70.4219 38.4142 70.3675 38.5898 70.2657 38.7379C70.1638 38.8861 70.0195 38.9999 69.8516 39.0644C69.6838 39.1288 69.5004 39.1408 69.3255 39.0988C69.1507 39.0568 68.9928 38.9627 68.8725 38.8291L59.1845 28.0665L52.7566 20.9271C52.6417 20.7995 52.5662 20.6412 52.5393 20.4716C52.5124 20.3019 52.5353 20.1281 52.6051 19.9712C52.675 19.8142 52.7888 19.6809 52.9328 19.5873C53.0769 19.4937 53.245 19.4439 53.4168 19.4438L53.4173 19.4453ZM68.6445 35.9173V28.3605H61.8398L68.6445 35.9173ZM55.413 21.2227L60.2407 26.5847H68.6445V21.2227H55.413ZM75.5 15.2544V74.1098C75.5 74.3455 75.4064 74.5716 75.2397 74.7382C75.0731 74.9049 74.847 74.9985 74.6113 74.9985H15.1815C13.9406 74.997 12.7509 74.5035 11.8734 73.6262C10.9958 72.7489 10.5019 71.5594 10.5 70.3185V27.4718C10.5002 26.3079 10.9341 25.1858 11.717 24.3245C12.4998 23.4633 13.5755 22.9246 14.7341 22.8136C15.8927 22.7025 17.0511 23.0272 17.9833 23.7242C18.9155 24.4212 19.5545 25.4405 19.7757 26.5832H25.4368V12.9093C25.4372 12.6756 25.5295 12.4514 25.6938 12.2852C26.4088 11.5589 27.2616 10.9827 28.2022 10.5903C29.1429 10.1979 30.1523 9.99724 31.1715 10C32.1906 9.99714 33.2001 10.1978 34.1406 10.5902C35.0812 10.9826 35.9339 11.5589 36.6488 12.2852C36.8135 12.4512 36.906 12.6755 36.9062 12.9093V26.5832H51.0163L41.3516 15.849C41.2367 15.7214 41.1612 15.5631 41.1343 15.3935C41.1074 15.2238 41.1303 15.05 41.2001 14.893C41.27 14.7361 41.3838 14.6028 41.5279 14.5092C41.6719 14.4156 41.84 14.3657 42.0118 14.3657H58.3126C58.5483 14.3657 58.7743 14.4593 58.941 14.626C59.1076 14.7926 59.2012 15.0187 59.2012 15.2544C59.2012 15.4901 59.1076 15.7161 58.941 15.8828C58.7743 16.0494 58.5483 16.143 58.3126 16.143H44.008L53.6712 26.8757L72.2195 47.4786L73.7227 49.1473V16.1446H66.4863C66.2506 16.1446 66.0246 16.0509 65.8579 15.8843C65.6913 15.7176 65.5977 15.4916 65.5977 15.2559C65.5977 15.0202 65.6913 14.7942 65.8579 14.6275C66.0246 14.4608 66.2506 14.3672 66.4863 14.3672H74.6113C74.8468 14.3672 75.0726 14.4606 75.2392 14.627C75.4058 14.7933 75.4996 15.0189 75.5 15.2544ZM33.7294 55.7661C33.3938 55.4297 32.9951 55.1627 32.5562 54.9806C32.1173 54.7984 31.6467 54.7046 31.1715 54.7046C30.6963 54.7046 30.2258 54.7984 29.7868 54.9806C29.3479 55.1627 28.9493 55.4297 28.6137 55.7661L27.402 56.9778L28.8498 59.9439H33.4932L34.941 56.9783L33.7294 55.7661ZM29.7177 61.7212L31.1715 64.7006L32.6259 61.7212H29.7177ZM27.2141 23.1661H35.1289V19.4885H27.2141V23.1661ZM27.2141 17.7112H35.1289V13.2896C34.0408 12.3158 32.6318 11.7774 31.1715 11.7774C29.7113 11.7774 28.3023 12.3158 27.2141 13.2896V17.7112ZM12.2773 66.6496C13.1056 65.998 14.1277 65.6418 15.1815 65.6375H18.0852V27.4718C18.0751 26.7083 17.7647 25.9795 17.2212 25.4431C16.6777 24.9068 15.9449 24.6061 15.1813 24.6061C14.4177 24.6061 13.6848 24.9068 13.1413 25.4431C12.5978 25.9795 12.2874 26.7083 12.2773 27.4718V66.6496ZM73.7227 73.2227V51.8037L52.6164 28.3605H36.9062V36.8191C36.9062 37.0548 36.8126 37.2809 36.646 37.4475C36.4793 37.6142 36.2533 37.7078 36.0176 37.7078C35.7819 37.7078 35.5558 37.6142 35.3892 37.4475C35.2225 37.2809 35.1289 37.0548 35.1289 36.8191V24.9434H27.2141V54.6505L27.3568 54.5073C28.2355 53.6234 29.3949 53.0737 30.6353 52.9528C30.8123 52.9356 30.9909 52.9269 31.171 52.9269C32.4174 52.9228 33.6261 53.3538 34.5886 54.1457C34.7257 54.2584 34.8581 54.3784 34.9857 54.5057L35.1289 54.6489V50.7896C35.1289 50.5539 35.2225 50.3278 35.3892 50.1612C35.5558 49.9945 35.7819 49.9009 36.0176 49.9009C36.2533 49.9009 36.4793 49.9945 36.646 50.1612C36.8126 50.3278 36.9062 50.5539 36.9062 50.7896V56.7975C36.9062 56.8188 36.8986 56.8386 36.8971 56.8594C36.8937 56.9028 36.8873 56.9459 36.8778 56.9884C36.8676 57.0345 36.8536 57.0797 36.8362 57.1235C36.828 57.1448 36.8265 57.1672 36.8164 57.188L34.8471 61.2221L31.9703 67.1162C31.8973 67.2658 31.7837 67.3919 31.6425 67.48C31.5013 67.5682 31.3382 67.6149 31.1718 67.6149C31.0053 67.6149 30.8422 67.5682 30.701 67.48C30.5599 67.3919 30.4463 67.2658 30.3732 67.1162L27.496 61.2221L25.5267 57.1875C25.517 57.1677 25.516 57.1459 25.5079 57.1255C25.4896 57.0803 25.4752 57.0336 25.4647 56.9859C25.4555 56.9448 25.4492 56.903 25.4459 56.861C25.4459 56.8396 25.4368 56.8193 25.4368 56.7975V28.36H19.8625V66.5257C19.8625 66.7613 19.7689 66.9874 19.6023 67.154C19.4356 67.3207 19.2096 67.4143 18.9739 67.4143H15.1815C14.7969 67.4092 14.4152 67.4806 14.0584 67.6243C13.7016 67.7679 13.3769 67.981 13.1032 68.2512C12.8294 68.5213 12.6121 68.8432 12.4637 69.198C12.3153 69.5529 12.2389 69.9336 12.2389 70.3183C12.2389 70.7029 12.3153 71.0836 12.4637 71.4385C12.6121 71.7933 12.8294 72.1152 13.1032 72.3853C13.3769 72.6555 13.7016 72.8686 14.0584 73.0123C14.4152 73.1559 14.7969 73.2273 15.1815 73.2222L73.7227 73.2227ZM65.5977 62.2814H37.541C37.3053 62.2814 37.0793 62.375 36.9126 62.5416C36.746 62.7083 36.6523 62.9343 36.6523 63.17C36.6523 63.4057 36.746 63.6318 36.9126 63.7984C37.0793 63.9651 37.3053 64.0587 37.541 64.0587H65.5977C65.8333 64.0587 66.0594 63.9651 66.226 63.7984C66.3927 63.6318 66.4863 63.4057 66.4863 63.17C66.4863 62.9343 66.3927 62.7083 66.226 62.5416C66.0594 62.375 65.8333 62.2814 65.5977 62.2814ZM65.5977 55.9088H43C42.7643 55.9088 42.5383 56.0024 42.3716 56.1691C42.205 56.3358 42.1113 56.5618 42.1113 56.7975C42.1113 57.0332 42.205 57.2592 42.3716 57.4259C42.5383 57.5925 42.7643 57.6862 43 57.6862H65.5977C65.8333 57.6862 66.0594 57.5925 66.226 57.4259C66.3927 57.2592 66.4863 57.0332 66.4863 56.7975C66.4863 56.5618 66.3927 56.3358 66.226 56.1691C66.0594 56.0024 65.8333 55.9088 65.5977 55.9088ZM65.5977 49.5363H43C42.7643 49.5363 42.5383 49.6299 42.3716 49.7966C42.205 49.9632 42.1113 50.1893 42.1113 50.425C42.1113 50.6606 42.205 50.8867 42.3716 51.0533C42.5383 51.22 42.7643 51.3136 43 51.3136H65.5977C65.8333 51.3136 66.0594 51.22 66.226 51.0533C66.3927 50.8867 66.4863 50.6606 66.4863 50.425C66.4863 50.1893 66.3927 49.9632 66.226 49.7966C66.0594 49.6299 65.8333 49.5363 65.5977 49.5363Z" fill="#323539"/>
</svg>
