 <svg
           
            width="18"
            height="18"
            viewBox="0 0 18 18"
            fill="none"
            xmlns="http://www.w3.org/2000/svg"
          >
            <g clipPath="url(#clip0_1191_61)">
              <path
                d="M9.00073 6.75073C8.404 6.75073 7.8317 6.98778 7.40974 7.40974C6.98778 7.8317 6.75073 8.404 6.75073 9.00073C6.75073 9.59747 6.98778 10.1698 7.40974 10.5917C7.8317 11.0137 8.404 11.2507 9.00073 11.2507C9.59747 11.2507 10.1698 11.0137 10.5917 10.5917C11.0137 10.1698 11.2507 9.59747 11.2507 9.00073C11.2507 8.404 11.0137 7.8317 10.5917 7.40974C10.1698 6.98778 9.59747 6.75073 9.00073 6.75073ZM9.00073 5.25073C9.99529 5.25073 10.9491 5.64582 11.6524 6.34908C12.3556 7.05234 12.7507 8.00617 12.7507 9.00073C12.7507 9.99529 12.3556 10.9491 11.6524 11.6524C10.9491 12.3556 9.99529 12.7507 9.00073 12.7507C8.00617 12.7507 7.05234 12.3556 6.34908 11.6524C5.64582 10.9491 5.25073 9.99529 5.25073 9.00073C5.25073 8.00617 5.64582 7.05234 6.34908 6.34908C7.05234 5.64582 8.00617 5.25073 9.00073 5.25073ZM13.8757 5.06323C13.8757 5.31187 13.777 5.55033 13.6011 5.72614C13.4253 5.90196 13.1869 6.00073 12.9382 6.00073C12.6896 6.00073 12.4511 5.90196 12.2753 5.72614C12.0995 5.55033 12.0007 5.31187 12.0007 5.06323C12.0007 4.81459 12.0995 4.57614 12.2753 4.40032C12.4511 4.2245 12.6896 4.12573 12.9382 4.12573C13.1869 4.12573 13.4253 4.2245 13.6011 4.40032C13.777 4.57614 13.8757 4.81459 13.8757 5.06323ZM9.00073 3.00073C7.14523 3.00073 6.84223 3.00598 5.97898 3.04423C5.39098 3.07198 4.99648 3.15073 4.63048 3.29323C4.30498 3.41923 4.07023 3.56998 3.82048 3.82048C3.58574 4.04728 3.40525 4.32417 3.29248 4.63048C3.14998 4.99798 3.07123 5.39173 3.04423 5.97898C3.00523 6.80698 3.00073 7.09648 3.00073 9.00073C3.00073 10.8562 3.00598 11.1592 3.04423 12.0225C3.07198 12.6097 3.15073 13.005 3.29248 13.3702C3.41998 13.6965 3.56998 13.9312 3.81898 14.1802C4.07173 14.4322 4.30648 14.583 4.62898 14.7075C4.99948 14.8507 5.39398 14.9302 5.97898 14.9572C6.80698 14.9962 7.09648 15.0007 9.00073 15.0007C10.8562 15.0007 11.1592 14.9955 12.0225 14.9572C12.609 14.9295 13.0042 14.8507 13.3702 14.709C13.695 14.5822 13.9312 14.4315 14.1802 14.1825C14.433 13.9297 14.5837 13.695 14.7082 13.3725C14.8507 13.0027 14.9302 12.6075 14.9572 12.0225C14.9962 11.1945 15.0007 10.905 15.0007 9.00073C15.0007 7.14523 14.9955 6.84223 14.9572 5.97898C14.9295 5.39248 14.8507 4.99648 14.7082 4.63048C14.5952 4.32448 14.415 4.0477 14.181 3.82048C13.9543 3.58562 13.6774 3.40511 13.371 3.29248C13.0035 3.14998 12.609 3.07123 12.0225 3.04423C11.1945 3.00523 10.905 3.00073 9.00073 3.00073ZM9.00073 1.50073C11.0385 1.50073 11.2927 1.50823 12.0922 1.54573C12.891 1.58323 13.4347 1.70848 13.9132 1.89448C14.4082 2.08498 14.8252 2.34298 15.2422 2.75923C15.6236 3.13415 15.9187 3.58767 16.107 4.08823C16.2922 4.56598 16.4182 5.11048 16.4557 5.90923C16.491 6.70873 16.5007 6.96298 16.5007 9.00073C16.5007 11.0385 16.4932 11.2927 16.4557 12.0922C16.4182 12.891 16.2922 13.4347 16.107 13.9132C15.9192 14.4141 15.6241 14.8677 15.2422 15.2422C14.8672 15.6235 14.4137 15.9185 13.9132 16.107C13.4355 16.2922 12.891 16.4182 12.0922 16.4557C11.2927 16.491 11.0385 16.5007 9.00073 16.5007C6.96298 16.5007 6.70873 16.4932 5.90923 16.4557C5.11048 16.4182 4.56673 16.2922 4.08823 16.107C3.58748 15.9191 3.13388 15.6239 2.75923 15.2422C2.37779 14.8674 2.08268 14.4138 1.89448 13.9132C1.70848 13.4355 1.58323 12.891 1.54573 12.0922C1.51048 11.2927 1.50073 11.0385 1.50073 9.00073C1.50073 6.96298 1.50823 6.70873 1.54573 5.90923C1.58323 5.10973 1.70848 4.56673 1.89448 4.08823C2.08216 3.58737 2.37734 3.13372 2.75923 2.75923C3.13399 2.37766 3.58755 2.08253 4.08823 1.89448C4.56673 1.70848 5.10973 1.58323 5.90923 1.54573C6.70873 1.51048 6.96298 1.50073 9.00073 1.50073Z"
                fill=""
              />
            </g>
            <defs>
              <clipPath id="clip0_1191_61">
                <rect width="18" height="18" fill="white" />
              </clipPath>
            </defs>
          </svg>