<svg width="18" height="18" viewBox="0 0 18 18" fill="none" xmlns="http://www.w3.org/2000/svg">
<g clip-path="url(#clip0_2_8761)">
<path d="M9.00098 6.75073C8.40424 6.75073 7.83194 6.98778 7.40999 7.40974C6.98803 7.8317 6.75098 8.404 6.75098 9.00073C6.75098 9.59747 6.98803 10.1698 7.40999 10.5917C7.83194 11.0137 8.40424 11.2507 9.00098 11.2507C9.59771 11.2507 10.17 11.0137 10.592 10.5917C11.0139 10.1698 11.251 9.59747 11.251 9.00073C11.251 8.404 11.0139 7.8317 10.592 7.40974C10.17 6.98778 9.59771 6.75073 9.00098 6.75073ZM9.00098 5.25073C9.99554 5.25073 10.9494 5.64582 11.6526 6.34908C12.3559 7.05234 12.751 8.00617 12.751 9.00073C12.751 9.99529 12.3559 10.9491 11.6526 11.6524C10.9494 12.3556 9.99554 12.7507 9.00098 12.7507C8.00641 12.7507 7.05259 12.3556 6.34933 11.6524C5.64606 10.9491 5.25098 9.99529 5.25098 9.00073C5.25098 8.00617 5.64606 7.05234 6.34933 6.34908C7.05259 5.64582 8.00641 5.25073 9.00098 5.25073ZM13.876 5.06323C13.876 5.31187 13.7772 5.55033 13.6014 5.72614C13.4256 5.90196 13.1871 6.00073 12.9385 6.00073C12.6898 6.00073 12.4514 5.90196 12.2756 5.72614C12.0997 5.55033 12.001 5.31187 12.001 5.06323C12.001 4.81459 12.0997 4.57614 12.2756 4.40032C12.4514 4.2245 12.6898 4.12573 12.9385 4.12573C13.1871 4.12573 13.4256 4.2245 13.6014 4.40032C13.7772 4.57614 13.876 4.81459 13.876 5.06323ZM9.00098 3.00073C7.14548 3.00073 6.84248 3.00598 5.97923 3.04423C5.39123 3.07198 4.99673 3.15073 4.63073 3.29323C4.30523 3.41923 4.07048 3.56998 3.82073 3.82048C3.58598 4.04728 3.40549 4.32417 3.29273 4.63048C3.15023 4.99798 3.07148 5.39173 3.04448 5.97898C3.00548 6.80698 3.00098 7.09648 3.00098 9.00073C3.00098 10.8562 3.00623 11.1592 3.04448 12.0225C3.07223 12.6097 3.15098 13.005 3.29273 13.3702C3.42023 13.6965 3.57023 13.9312 3.81923 14.1802C4.07198 14.4322 4.30673 14.583 4.62923 14.7075C4.99973 14.8507 5.39423 14.9302 5.97923 14.9572C6.80723 14.9962 7.09673 15.0007 9.00098 15.0007C10.8565 15.0007 11.1595 14.9955 12.0227 14.9572C12.6092 14.9295 13.0045 14.8507 13.3705 14.709C13.6952 14.5822 13.9315 14.4315 14.1805 14.1825C14.4332 13.9297 14.584 13.695 14.7085 13.3725C14.851 13.0027 14.9305 12.6075 14.9575 12.0225C14.9965 11.1945 15.001 10.905 15.001 9.00073C15.001 7.14523 14.9957 6.84223 14.9575 5.97898C14.9297 5.39248 14.851 4.99648 14.7085 4.63048C14.5954 4.32448 14.4153 4.0477 14.1812 3.82048C13.9545 3.58562 13.6776 3.40511 13.3712 3.29248C13.0037 3.14998 12.6092 3.07123 12.0227 3.04423C11.1947 3.00523 10.9052 3.00073 9.00098 3.00073ZM9.00098 1.50073C11.0387 1.50073 11.293 1.50823 12.0925 1.54573C12.8912 1.58323 13.435 1.70848 13.9135 1.89448C14.4085 2.08498 14.8255 2.34298 15.2425 2.75923C15.6238 3.13415 15.9189 3.58767 16.1072 4.08823C16.2925 4.56598 16.4185 5.11048 16.456 5.90923C16.4912 6.70873 16.501 6.96298 16.501 9.00073C16.501 11.0385 16.4935 11.2927 16.456 12.0922C16.4185 12.891 16.2925 13.4347 16.1072 13.9132C15.9195 14.4141 15.6243 14.8677 15.2425 15.2422C14.8674 15.6235 14.414 15.9185 13.9135 16.107C13.4357 16.2922 12.8912 16.4182 12.0925 16.4557C11.293 16.491 11.0387 16.5007 9.00098 16.5007C6.96323 16.5007 6.70898 16.4932 5.90948 16.4557C5.11073 16.4182 4.56698 16.2922 4.08848 16.107C3.58772 15.9191 3.13412 15.6239 2.75948 15.2422C2.37803 14.8674 2.08293 14.4138 1.89473 13.9132C1.70873 13.4355 1.58348 12.891 1.54598 12.0922C1.51073 11.2927 1.50098 11.0385 1.50098 9.00073C1.50098 6.96298 1.50848 6.70873 1.54598 5.90923C1.58348 5.10973 1.70873 4.56673 1.89473 4.08823C2.0824 3.58737 2.37758 3.13372 2.75948 2.75923C3.13423 2.37766 3.5878 2.08253 4.08848 1.89448C4.56698 1.70848 5.10998 1.58323 5.90948 1.54573C6.70898 1.51048 6.96323 1.50073 9.00098 1.50073Z" fill="#F32C40"/>
</g>
<defs>
<clipPath id="clip0_2_8761">
<rect width="18" height="18" fill="white"/>
</clipPath>
</defs>
</svg>
