<svg xmlns="http://www.w3.org/2000/svg" width="" height="" viewBox="0 0 14 14" fill="none">
  <path d="M7.00327 12.8349C3.7816 12.8349 1.16992 10.2232 1.16992 7.00153C1.16992 3.77988 3.7816 1.16821 7.00327 1.16821C10.2249 1.16821 12.8366 3.77988 12.8366 7.00153C12.8366 10.2232 10.2249 12.8349 7.00327 12.8349ZM5.86577 6.4182C6.00087 5.75256 6.58939 5.25155 7.29493 5.25155C7.6538 5.25155 7.98239 5.38117 8.23643 5.59616L9.22863 4.93466C8.74883 4.41229 8.06009 4.08488 7.29493 4.08488C5.94376 4.08488 4.83103 5.10572 4.68595 6.4182H4.08659V7.58486H4.68595C4.83103 8.89736 5.94376 9.91819 7.29493 9.91819C8.06009 9.91819 8.74883 9.59083 9.22863 9.06845L8.23637 8.40695C7.98233 8.62191 7.6538 8.75153 7.29493 8.75153C6.58939 8.75153 6.00087 8.2505 5.86577 7.58486H8.75327V6.4182H5.86577Z" fill=""/>
</svg>