<svg xmlns="http://www.w3.org/2000/svg" width="" height="" viewBox="0 0 14 14" fill="none">
  <path fill-rule="evenodd" clip-rule="evenodd" d="M7.00039 1.3999C3.90763 1.3999 1.40039 3.90714 1.40039 6.9999C1.40039 10.0927 3.90763 12.5999 7.00039 12.5999C10.0932 12.5999 12.6004 10.0927 12.6004 6.9999C12.6004 3.90714 10.0932 1.3999 7.00039 1.3999ZM7.39109 3.87432C7.39109 3.7707 7.34993 3.67133 7.27666 3.59806C7.20339 3.52479 7.10401 3.48362 7.00039 3.48362C6.89677 3.48362 6.7974 3.52479 6.72413 3.59806C6.65086 3.67133 6.60969 3.7707 6.60969 3.87432V6.9999C6.60969 7.21557 6.78473 7.3906 7.00039 7.3906H10.126C10.2296 7.3906 10.329 7.34944 10.4022 7.27617C10.4755 7.2029 10.5167 7.10352 10.5167 6.9999C10.5167 6.89628 10.4755 6.79691 10.4022 6.72364C10.329 6.65037 10.2296 6.60921 10.126 6.60921H7.39109V3.87432Z" fill=""/>
</svg>