<svg xmlns="http://www.w3.org/2000/svg" width="" height="" viewBox="0 0 14 14" fill="none">
<path d="M7.00008 6.70841C6.61331 6.70841 6.24237 6.55477 5.96888 6.28128C5.69539 6.00779 5.54175 5.63686 5.54175 5.25008C5.54175 4.86331 5.69539 4.49237 5.96888 4.21888C6.24237 3.94539 6.61331 3.79175 7.00008 3.79175C7.38686 3.79175 7.75779 3.94539 8.03128 4.21888C8.30477 4.49237 8.45841 4.86331 8.45841 5.25008C8.45841 5.44159 8.42069 5.63123 8.34741 5.80816C8.27412 5.98509 8.1667 6.14586 8.03128 6.28128C7.89586 6.4167 7.73509 6.52412 7.55816 6.59741C7.38123 6.67069 7.19159 6.70841 7.00008 6.70841ZM7.00008 1.16675C5.91711 1.16675 4.8785 1.59696 4.11273 2.36273C3.34696 3.1285 2.91675 4.16711 2.91675 5.25008C2.91675 8.31258 7.00008 12.8334 7.00008 12.8334C7.00008 12.8334 11.0834 8.31258 11.0834 5.25008C11.0834 4.16711 10.6532 3.1285 9.88743 2.36273C9.12166 1.59696 8.08305 1.16675 7.00008 1.16675Z" fill=""/>
</svg>