<svg xmlns="http://www.w3.org/2000/svg" width="" height="" viewBox="0 0 62 62" fill="none">
<g clip-path="url(#clip0_2758_4712)">
<path d="M25.838 14.2488H16.7753C15.9518 14.2488 15.2822 14.9184 15.2822 15.7419V30.5455C15.2822 31.3686 15.9518 32.0386 16.7753 32.0386H25.838C26.6615 32.0386 27.3311 31.3686 27.3311 30.5455V15.7419C27.3311 14.9184 26.6615 14.2488 25.838 14.2488ZM20.4106 30.2469H17.0739V26.5832H20.4106V30.2469ZM20.4106 24.7915H17.0739V21.4955H20.4106V24.7915ZM20.4106 19.7038H17.0739V16.0405H20.4106V19.7038ZM25.5393 30.2469H22.2023V26.5832H25.5393V30.2469ZM25.5393 24.7915H22.2023V21.4955H25.5393V24.7915ZM25.5393 19.7038H22.2023V16.0405H25.5393V19.7038Z" fill=""/>
<path d="M37.8529 50.015C37.3578 50.015 36.957 50.4163 36.957 50.9108V53.0618C36.957 53.5564 37.3578 53.9577 37.8529 53.9577C38.3479 53.9577 38.7487 53.5564 38.7487 53.0618V50.9108C38.7487 50.4163 38.3479 50.015 37.8529 50.015Z" fill=""/>
<path d="M61.558 40.9678C61.5165 40.6533 61.3555 40.3729 61.1049 40.1788L42.1253 25.4937C41.7045 25.1685 41.2015 24.9963 40.6705 24.9963C40.139 24.9963 39.6361 25.1685 39.2147 25.4942L36.3442 27.7151V25.1424C36.3442 24.6473 35.9434 24.2465 35.4484 24.2465C34.9533 24.2465 34.5525 24.6473 34.5525 25.1424V29.1014L20.2365 40.1783C19.9873 40.3706 19.8217 40.6603 19.7825 40.9715C19.7419 41.2865 19.8264 41.5991 20.02 41.8515L21.4725 43.7408C21.7007 44.0361 22.045 44.2055 22.4178 44.2055C22.6801 44.2055 22.939 44.1173 23.1471 43.9563L40.6705 30.3981L53.9157 40.6463V59.3119H46.7003V57.6322C46.7003 57.1371 46.2995 56.7363 45.8044 56.7363C45.3094 56.7363 44.9086 57.1371 44.9086 57.6322V59.3119H36.431V45.5875H44.9086V53.4216C44.9086 53.9167 45.3094 54.3175 45.8044 54.3175C46.2995 54.3175 46.7003 53.9167 46.7003 53.4216V45.2889C46.7003 44.4658 46.0302 43.7958 45.2072 43.7958H36.1329C35.3093 43.7958 34.6393 44.4658 34.6393 45.2889V59.3119H27.8317V56.8684C27.8317 56.0448 27.1621 55.3753 26.3386 55.3753H25.481C25.5524 55.0188 25.5911 54.6506 25.5911 54.2736C25.5911 51.1731 23.0683 48.6507 19.9677 48.6507C18.2847 48.6507 16.71 49.4229 15.6569 50.6753C15.2584 50.5493 14.8348 50.4807 14.3952 50.4807C14.0723 50.4807 13.7551 50.5166 13.4466 50.5885C12.471 48.9171 10.6503 47.8421 8.68226 47.8421C8.47276 47.8421 8.26559 47.8552 8.06122 47.879V17.891L21.3069 7.64184L34.553 17.891V20.9612C34.553 21.4563 34.9538 21.8571 35.4488 21.8571C35.9434 21.8571 36.3447 21.4563 36.3447 20.9612V19.2773L38.8307 21.2006C39.0383 21.3615 39.2973 21.4497 39.5595 21.4497C39.9333 21.4497 40.2781 21.2799 40.5053 20.9841C40.5086 20.9799 40.5118 20.9752 40.5151 20.971L41.9065 19.0916L41.9154 19.0804C42.0073 18.9651 42.2513 18.6595 42.1944 18.212C42.1529 17.8962 41.9914 17.6157 41.7413 17.423L22.7622 2.73795C22.3413 2.41273 21.8383 2.24056 21.3069 2.24056C20.7754 2.24056 20.2724 2.41273 19.8511 2.73841L14.6402 6.77025V5.64109C15.3447 5.52164 15.8832 4.90854 15.8832 4.17085V2.3796C15.8832 1.55607 15.2132 0.886505 14.3901 0.886505H7.13037C6.3073 0.886505 5.63727 1.55607 5.63727 2.3796V4.17039C5.63727 4.90854 6.17572 5.52118 6.88027 5.64109V12.7744L0.874287 17.4216C0.624193 17.6139 0.458552 17.9041 0.419359 18.2144C0.378298 18.5298 0.462285 18.8424 0.656388 19.0953L2.10889 20.9845C2.33659 21.2804 2.68094 21.4497 3.05421 21.4497C3.31644 21.4497 3.57493 21.3615 3.78396 21.2006L6.2695 19.2773V48.4058C4.84733 49.1056 3.75223 50.4028 3.34536 51.985C1.99458 52.5057 1.06652 53.8178 1.06652 55.3071C1.06652 55.4714 1.07819 55.6328 1.09965 55.7915C0.815496 56.0635 0.638191 56.4452 0.638191 56.8684V59.611C0.638191 60.4341 1.30775 61.1041 2.13129 61.1041H58.304C58.799 61.1041 59.1998 60.7028 59.1998 60.2082C59.1998 59.7132 58.799 59.3124 58.304 59.3124H55.7074V42.0326L58.1939 43.9563C58.4015 44.1168 58.6605 44.2055 58.9227 44.2055C59.2964 44.2055 59.6412 44.0356 59.8685 43.7394C59.8717 43.7352 59.875 43.731 59.8783 43.7268L61.2701 41.8469L61.2794 41.8352C61.3709 41.7204 61.6145 41.4148 61.558 40.9678ZM19.9677 50.4424C22.0805 50.4424 23.7994 52.1614 23.7994 54.2736C23.7994 54.6567 23.7416 55.0262 23.6366 55.3753H18.5264C18.5652 55.1476 18.5866 54.9133 18.5866 54.6744C18.5866 53.459 18.0664 52.3634 17.2382 51.5963C17.9465 50.8773 18.9263 50.4424 19.9677 50.4424ZM7.42899 2.67822H14.0915V3.87177H7.42899V2.67822ZM12.8485 5.66349V8.15649L8.67199 11.3881V5.66349H12.8485ZM3.16293 19.4159L2.44017 18.4757L20.9471 4.15546C21.053 4.0738 21.1739 4.03228 21.3069 4.03228C21.4398 4.03228 21.5607 4.0738 21.6661 4.15499L40.1479 18.4556L39.4424 19.4089L21.8551 5.80066C21.5322 5.55104 21.0815 5.55104 20.7586 5.80066L3.16293 19.4159ZM26.04 59.3124H2.42991V57.167H10.6821C11.1767 57.167 11.5779 56.7662 11.5779 56.2711C11.5779 55.7761 11.1767 55.3753 10.6821 55.3753H2.86057C2.85964 55.3524 2.85824 55.33 2.85824 55.3071C2.85824 54.4621 3.45875 53.7319 4.28695 53.5714C4.66162 53.4986 4.94905 53.1967 5.00317 52.8193C5.26446 51.0037 6.84621 49.6343 8.68226 49.6343C10.2071 49.6343 11.6013 50.5913 12.1514 52.0153C12.241 52.2477 12.4229 52.432 12.6544 52.5248C12.8858 52.6172 13.1448 52.6088 13.3701 52.5024C13.6921 52.3503 14.0373 52.2729 14.3952 52.2729C15.7185 52.2729 16.7949 53.3502 16.7949 54.6749C16.7949 54.9189 16.7567 55.1536 16.6885 55.3753H14.9822C14.4871 55.3753 14.0863 55.7765 14.0863 56.2711C14.0863 56.7662 14.4871 57.167 14.9822 57.167H26.04V59.3124ZM58.806 42.1646L41.2187 28.5569C40.8959 28.3068 40.4451 28.3068 40.1222 28.5569L22.5261 42.1716L21.8033 41.2314L40.3107 26.9117C40.4167 26.8296 40.5375 26.788 40.6705 26.788C40.803 26.788 40.9243 26.8296 41.0298 26.9112L59.5115 41.2114L58.806 42.1646Z" fill=""/>
</g>
<defs>
<clipPath id="clip0_2758_4712">
<rect width="61.1574" height="61.1573" fill="white" transform="translate(0.40918 0.408699)"/>
</clipPath>
</defs>
</svg>