<svg xmlns="http://www.w3.org/2000/svg" width="" height="" viewBox="0 0 62 44" fill="none">
<path d="M56.1858 13.3507C52.8029 9.95991 48.3193 8.09251 43.5605 8.09251H17.1113V3.32805C17.1113 2.36945 16.5608 1.52919 15.6744 1.13522C14.7866 0.740531 13.7544 0.895779 13.0336 1.52943L1.32263 11.0004C0.751118 11.4632 0.426461 12.147 0.431703 12.8766C0.436945 13.6045 0.769108 14.2823 1.34348 14.7374L13.1095 24.253C13.8562 24.8574 14.8604 24.9738 15.7311 24.5565C16.5828 24.1483 17.1118 23.319 17.1112 22.3929V17.6464H24.3792C25.0371 17.6464 25.5706 17.1117 25.5706 16.4522C25.5706 15.7926 25.0371 15.2579 24.3792 15.2579H15.9199C15.262 15.2579 14.7285 15.7926 14.7285 16.4522V22.3856C14.7173 22.3956 14.6938 22.4094 14.6656 22.4132C14.6424 22.4163 14.6282 22.4122 14.6065 22.3946L2.83476 12.8744C2.83047 12.8709 2.82392 12.8622 2.81951 12.8589L14.5519 3.37056C14.5696 3.35623 14.5868 3.34154 14.6038 3.32626C14.617 3.31396 14.6291 3.30488 14.661 3.30691C14.6905 3.30882 14.716 3.32076 14.7285 3.32996V9.28685C14.7285 9.94641 15.262 10.4811 15.9199 10.4811H43.5606C47.6829 10.4811 51.5683 12.1001 54.5009 15.0396C57.4337 17.9795 59.0488 21.874 59.0488 26.0059C59.0488 30.1379 57.4337 34.0325 54.5009 36.9722C51.5682 39.9119 47.6828 41.5309 43.5606 41.5309H23.6642C23.3414 41.5309 23.0685 41.2574 23.0685 40.9338V37.3511C23.0685 37.0275 23.3414 36.754 23.6642 36.754H43.5606C46.4106 36.754 49.0993 35.6322 51.1317 33.595C53.164 31.5577 54.2832 28.8627 54.2832 26.006C54.2832 23.1493 53.1639 20.4542 51.1317 18.417C49.0993 16.3799 46.4106 15.2581 43.5606 15.2581H35.1019C34.444 15.2581 33.9105 15.7927 33.9105 16.4523C33.9105 17.1119 34.444 17.6465 35.1019 17.6465H43.5606C45.774 17.6465 47.8644 18.52 49.4467 20.1059C51.0289 21.6919 51.9004 23.7873 51.9004 26.006C51.9004 28.2248 51.029 30.3202 49.4467 31.9061C47.8644 33.492 45.7741 34.3656 43.5606 34.3656H23.6642C22.0219 34.3656 20.6857 35.7049 20.6857 37.3511V40.9338C20.6857 42.58 22.0219 43.9193 23.6642 43.9193H43.5606C48.3192 43.9193 52.8029 42.0519 56.1859 38.6612C59.5688 35.2703 61.4316 30.776 61.4316 26.006C61.4316 21.236 59.5686 16.7415 56.1858 13.3507Z" fill=""/>
</svg>