<svg xmlns="http://www.w3.org/2000/svg" width="" height="" viewBox="0 0 80 80" fill="none">
<path d="M34.2651 42.2779C34.2651 42.4997 34.1769 42.7125 34.0201 42.8693C33.8632 43.0262 33.6505 43.1143 33.4287 43.1143C33.2068 43.1143 32.9941 43.0262 32.8372 42.8693C32.6804 42.7125 32.5923 42.4997 32.5923 42.2779V40.1793C32.5923 39.9575 32.6804 39.7447 32.8372 39.5879C32.9941 39.431 33.2068 39.3429 33.4287 39.3429C33.6505 39.3429 33.8632 39.431 34.0201 39.5879C34.1769 39.7447 34.2651 39.9575 34.2651 40.1793V42.2779ZM49.8048 18.3015H64.9728C65.1946 18.3015 65.4073 18.3896 65.5642 18.5465C65.721 18.7034 65.8092 18.9161 65.8092 19.1379V35.9853C65.8092 36.1546 65.758 36.3198 65.6621 36.4593C65.5663 36.5987 65.4304 36.7058 65.2725 36.7665C65.1145 36.8271 64.9419 36.8384 64.7773 36.7989C64.6128 36.7593 64.4641 36.6708 64.351 36.545L55.2328 26.4155L49.183 19.6962C49.0748 19.576 49.0038 19.4271 48.9785 19.2674C48.9532 19.1077 48.9747 18.9441 49.0404 18.7964C49.1062 18.6487 49.2133 18.5232 49.3489 18.4351C49.4845 18.347 49.6427 18.3001 49.8044 18.3001L49.8048 18.3015ZM64.1364 33.8045V26.6923H57.732L64.1364 33.8045ZM51.6831 19.9743L56.2269 25.0209H64.1364V19.9743H51.6831ZM70.5886 14.3571V69.7505C70.5886 69.9723 70.5005 70.185 70.3436 70.3419C70.1867 70.4987 69.974 70.5868 69.7522 70.5868H13.8182C12.6503 70.5855 11.5306 70.121 10.7047 69.2953C9.87871 68.4696 9.41388 67.35 9.41211 66.1821V25.8559C9.41232 24.7604 9.82067 23.7043 10.5575 22.8937C11.2943 22.0831 12.3067 21.5761 13.3972 21.4716C14.4876 21.3671 15.5779 21.6727 16.4552 22.3287C17.3325 22.9847 17.934 23.944 18.1422 25.0195H23.4703V12.1499C23.4706 11.93 23.5575 11.719 23.7121 11.5626C24.3851 10.879 25.1878 10.3367 26.073 9.96739C26.9583 9.59807 27.9084 9.40919 28.8677 9.41182C29.8268 9.4091 30.7769 9.59794 31.6621 9.96726C32.5473 10.3366 33.3499 10.8789 34.0227 11.5626C34.1777 11.7188 34.2648 11.9299 34.2651 12.1499V25.0195H47.5451L38.4489 14.9167C38.3408 14.7966 38.2697 14.6477 38.2444 14.488C38.2191 14.3283 38.2406 14.1647 38.3064 14.017C38.3721 13.8693 38.4792 13.7438 38.6148 13.6557C38.7504 13.5676 38.9086 13.5207 39.0703 13.5207H54.4122C54.634 13.5207 54.8467 13.6088 55.0036 13.7657C55.1605 13.9225 55.2486 14.1352 55.2486 14.3571C55.2486 14.5789 55.1605 14.7916 55.0036 14.9485C54.8467 15.1054 54.634 15.1935 54.4122 15.1935H40.9491L50.0438 25.2948L67.5011 44.6858L68.9158 46.2563V15.1949H62.1051C61.8833 15.1949 61.6706 15.1068 61.5137 14.9499C61.3568 14.7931 61.2687 14.5803 61.2687 14.3585C61.2687 14.1367 61.3568 13.9239 61.5137 13.7671C61.6706 13.6102 61.8833 13.5221 62.1051 13.5221H69.7522C69.9738 13.5221 70.1863 13.61 70.3431 13.7666C70.4999 13.9231 70.5882 14.1355 70.5886 14.3571ZM31.2751 52.4858C30.9592 52.1691 30.584 51.9179 30.1709 51.7464C29.7578 51.575 29.3149 51.4867 28.8677 51.4867C28.4204 51.4867 27.9775 51.575 27.5644 51.7464C27.1513 51.9179 26.7761 52.1691 26.4603 52.4858L25.3199 53.6262L26.6825 56.4178H31.0528L32.4154 53.6266L31.2751 52.4858ZM27.4993 58.0906L28.8677 60.8947L30.2365 58.0906H27.4993ZM25.1431 21.8034H32.5923V18.3421H25.1431V21.8034ZM25.1431 16.6694H32.5923V12.5079C31.5681 11.5914 30.242 11.0847 28.8677 11.0847C27.4933 11.0847 26.1672 11.5914 25.1431 12.5079V16.6694ZM11.0849 62.729C11.8644 62.1158 12.8264 61.7805 13.8182 61.7765H16.5511V25.8559C16.5416 25.1373 16.2495 24.4513 15.738 23.9465C15.2264 23.4417 14.5367 23.1587 13.818 23.1587C13.0993 23.1587 12.4096 23.4417 11.8981 23.9465C11.3865 24.4513 11.0944 25.1373 11.0849 25.8559V62.729ZM68.9158 68.9155V48.7564L49.0511 26.6923H34.2651V34.6533C34.2651 34.8751 34.1769 35.0879 34.0201 35.2447C33.8632 35.4016 33.6505 35.4897 33.4287 35.4897C33.2068 35.4897 32.9941 35.4016 32.8372 35.2447C32.6804 35.0879 32.5923 34.8751 32.5923 34.6533V23.4762H25.1431V51.4357L25.2774 51.301C26.1043 50.4691 27.1955 49.9517 28.363 49.838C28.5296 49.8217 28.6977 49.8136 28.8672 49.8136C30.0402 49.8097 31.1779 50.2154 32.0837 50.9607C32.2128 51.0668 32.3374 51.1797 32.4575 51.2995L32.5923 51.4343V47.802C32.5923 47.5801 32.6804 47.3674 32.8372 47.2105C32.9941 47.0537 33.2068 46.9656 33.4287 46.9656C33.6505 46.9656 33.8632 47.0537 34.0201 47.2105C34.1769 47.3674 34.2651 47.5801 34.2651 47.802V53.4565C34.2651 53.4766 34.2579 53.4952 34.2564 53.5148C34.2532 53.5556 34.2472 53.5962 34.2383 53.6362C34.2286 53.6795 34.2155 53.7221 34.1991 53.7633C34.1914 53.7834 34.19 53.8044 34.1805 53.824L32.327 57.6208L29.6195 63.1682C29.5507 63.309 29.4438 63.4276 29.3109 63.5106C29.1781 63.5936 29.0246 63.6376 28.8679 63.6376C28.7112 63.6376 28.5577 63.5936 28.4249 63.5106C28.292 63.4276 28.1851 63.309 28.1163 63.1682L25.4083 57.6208L23.5549 53.8235C23.5458 53.8049 23.5448 53.7844 23.5372 53.7652C23.52 53.7226 23.5064 53.6787 23.4966 53.6338C23.4879 53.5951 23.482 53.5558 23.4789 53.5162C23.4789 53.4962 23.4703 53.477 23.4703 53.4565V26.6918H18.2239V62.6124C18.2239 62.8342 18.1358 63.047 17.9789 63.2038C17.8221 63.3607 17.6093 63.4488 17.3875 63.4488H13.8182C13.4563 63.444 13.097 63.5112 12.7612 63.6464C12.4254 63.7816 12.1198 63.9821 11.8622 64.2364C11.6045 64.4907 11.3999 64.7936 11.2603 65.1276C11.1207 65.4615 11.0488 65.8199 11.0488 66.1819C11.0488 66.5439 11.1207 66.9023 11.2603 67.2363C11.3999 67.5702 11.6045 67.8731 11.8622 68.1274C12.1198 68.3817 12.4254 68.5822 12.7612 68.7174C13.097 68.8526 13.4563 68.9198 13.8182 68.915L68.9158 68.9155ZM61.2687 58.6178H34.8625C34.6407 58.6178 34.4279 58.7059 34.2711 58.8627C34.1142 59.0196 34.0261 59.2323 34.0261 59.4542C34.0261 59.676 34.1142 59.8887 34.2711 60.0456C34.4279 60.2024 34.6407 60.2906 34.8625 60.2906H61.2687C61.4906 60.2906 61.7033 60.2024 61.8601 60.0456C62.017 59.8887 62.1051 59.676 62.1051 59.4542C62.1051 59.2323 62.017 59.0196 61.8601 58.8627C61.7033 58.7059 61.4906 58.6178 61.2687 58.6178ZM61.2687 52.6201H40.0003C39.7785 52.6201 39.5658 52.7082 39.4089 52.8651C39.2521 53.0219 39.1639 53.2347 39.1639 53.4565C39.1639 53.6783 39.2521 53.891 39.4089 54.0479C39.5658 54.2048 39.7785 54.2929 40.0003 54.2929H61.2687C61.4906 54.2929 61.7033 54.2048 61.8601 54.0479C62.017 53.891 62.1051 53.6783 62.1051 53.4565C62.1051 53.2347 62.017 53.0219 61.8601 52.8651C61.7033 52.7082 61.4906 52.6201 61.2687 52.6201ZM61.2687 46.6224H40.0003C39.7785 46.6224 39.5658 46.7105 39.4089 46.8674C39.2521 47.0242 39.1639 47.237 39.1639 47.4588C39.1639 47.6806 39.2521 47.8934 39.4089 48.0502C39.5658 48.2071 39.7785 48.2952 40.0003 48.2952H61.2687C61.4906 48.2952 61.7033 48.2071 61.8601 48.0502C62.017 47.8934 62.1051 47.6806 62.1051 47.4588C62.1051 47.237 62.017 47.0242 61.8601 46.8674C61.7033 46.7105 61.4906 46.6224 61.2687 46.6224Z" fill=""/>
</svg>