<svg xmlns="http://www.w3.org/2000/svg" width="" height="" fill="none"><path d="M17.596.849c-.335.264-.42.772-.199 1.186.065.121.875 1.103 1.8 2.182l1.682 1.963-3.116.06c-2.559.049-3.145.092-3.282.24-.15.161-7.504 8.589-11.754 13.471L1.08 21.842v33.341l.316.248.316.249h69.166l.26-.276.26-.277.003-16.652.004-16.652-.753-.828C66.251 16.146 57.239 6.478 57.024 6.374c-.195-.095-3.131-.134-10.093-.134h-9.817L34.87 3.602c-1.234-1.451-2.361-2.72-2.504-2.82C32.141.624 31.156.6 25.009.6c-6.998 0-7.101.003-7.413.249m16.036 4.198 2.132 2.513-5.612-.001H24.54l-1.92-2.244a263.361 263.361 0 0 1-2.139-2.519l-.218-.276 5.618.007 5.619.007 2.132 2.513M23.183 8.82l.66.66h7.033c4.899 0 7.121-.04 7.325-.133.311-.142.559-.565.559-.953 0-.23.15-.234 8.733-.234h8.734l6.014 6.51 6.013 6.51-5.597.073c-3.078.04-12.023.078-19.877.083l-14.28.011-5.46-6.362c-3.003-3.499-5.534-6.466-5.625-6.593-.161-.227-.11-.232 2.472-.232h2.636l.66.66m-2.011 6.926 5.948 6.925v31.213l-2.85-.032-2.85-.032-.06-9.257c-.058-8.89-.069-9.268-.289-9.51-.226-.25-.287-.253-5.889-.253h-5.66l-.26.277-.26.277-.031 9.233-.031 9.233h-6l-.026-15.6-.026-15.6 6.067-6.936c3.337-3.815 6.112-6.92 6.168-6.9.056.02 2.778 3.153 6.049 6.962M69.54 38.52v15.3H29.1l-.03-15.27-.031-15.269 15.691-.032c8.629-.017 17.742-.031 20.25-.03l4.56.001v15.3m-33.965-5.105-.295.294v4.129c0 3.996.008 4.14.249 4.446l.248.316h5.032c4.871 0 5.039-.008 5.271-.24.231-.231.24-.4.24-4.491v-4.252l-.316-.248c-.308-.243-.441-.249-5.226-.249h-4.909l-.294.295m18.055-.141c-.445.341-.47.592-.47 4.682 0 3.877.008 4.022.249 4.328l.248.316h5.032c4.823 0 5.041-.01 5.264-.233.129-.129.266-.412.307-.63.04-.218.056-2.107.036-4.198l-.036-3.8-.291-.31-.291-.309-4.929.004c-3.685.003-4.977.041-5.119.15m-9.11 4.646v2.88H37.2v-5.76h7.32v2.88m17.88 0v2.88h-7.32v-5.76h7.32v2.88m-42.906.51c.044 1.006.063 4.881.043 8.61l-.037 6.78h-8.64l-.031-8.46c-.017-4.653-.005-8.528.026-8.61.045-.116 1.018-.15 4.309-.15h4.251l.079 1.83" fill-rule="evenodd" fill=""/></svg>