<svg xmlns="http://www.w3.org/2000/svg" width="" height="" fill="none"><path d="M23.868.571c-6.167.029-6.687.047-6.861.24-.316.35-.354.775-.105 1.169.125.198.938 1.183 1.806 2.19L20.287 6l-2.973.002c-1.636.001-3.035.041-3.109.09-.074.048-3.058 3.434-6.63 7.525L1.08 21.053v16.174c0 16.013.002 16.175.24 16.413.23.23.402.24 4.23.242 41.727.023 63.143-.022 63.346-.131.13-.069.287-.261.35-.426.07-.185.114-6.44.114-16.245V21.137l-1.969-2.139-1.968-2.138 2.73-.06c2.907-.064 3.03-.09 3.257-.685a.887.887 0 0 0-.008-.571c-.1-.262-12.335-14.212-12.922-14.732-.219-.195-1.138-.21-14.087-.24C36.774.554 27.537.554 23.868.571m8.364 3.899c.97 1.138 1.901 2.218 2.068 2.4l.305.33H23.813l-2.007-2.332c-1.103-1.283-2.006-2.363-2.006-2.4 0-.038 2.4-.068 5.334-.068h5.334l1.764 2.07m13.833.33 2.06 2.4H37.087l-1.954-2.288c-1.074-1.258-1.971-2.338-1.993-2.4-.025-.068 2.072-.112 5.413-.112h5.452l2.06 2.4m13.395-.097c1.122 1.267 2.058 2.347 2.08 2.4.022.054-2.435.094-5.46.091l-5.5-.007-1.68-1.988c-.924-1.093-1.832-2.17-2.019-2.393l-.338-.406h10.878l2.039 2.303m-33.788 7.585c2.112 2.463 3.86 4.399 4.007 4.439.144.038 7.659.074 16.701.079l16.44.01 1.68 1.822 1.679 1.822-10.499.073c-5.775.04-14.423.08-19.217.09l-8.717.017-1.788-2.07c-.983-1.139-3.449-4.001-5.478-6.36l-3.69-4.29h5.135l3.747 4.368m-3.369 4.992 3.975 4.62.001 15.092.001 15.093-2.73-.033-2.73-.032-.06-8.981-.06-8.98-.283-.23c-.27-.218-.545-.229-5.654-.229-5.247 0-5.378.006-5.686.248l-.315.248-.031 8.962L8.7 52.02H2.94l-.03-15.082-.031-15.081 5.888-6.728 5.888-6.728 1.837 2.129c1.011 1.172 3.626 4.209 5.811 6.75m16.32-5.342c1.329 1.549 2.417 2.845 2.417 2.88 0 .034-2.395.062-5.323.062h-5.322l-2.418-2.818c-1.329-1.549-2.417-2.845-2.417-2.88 0-.034 2.395-.062 5.323-.062h5.322l2.418 2.818m13.463-.098c1.284 1.495 2.377 2.791 2.43 2.88.08.133-.844.159-5.4.157l-5.496-.003-2.1-2.472a1146.01 1146.01 0 0 1-2.439-2.877l-.338-.405h11.009l2.334 2.72m13.507-.17a643.749 643.749 0 0 0 2.55 2.88l.302.33H57.179l-2.16-2.533a361.99 361.99 0 0 1-2.438-2.88l-.278-.347h11.043l2.247 2.55m1.847 25.59v14.821l-19.59-.031-19.59-.03-.03-14.729-.031-14.73 10.231-.031 19.62-.061 9.39-.029v14.82m-32.945-4.925-.295.294v3.912c0 4.098.044 4.472.545 4.664.107.041 2.316.075 4.909.075 4.587 0 4.722-.007 5.03-.249l.316-.248v-8.221l-.278-.261c-.275-.259-.314-.261-5.105-.261h-4.828l-.294.295m17.366-.017c-.257.274-.261.333-.261 4.371v4.094l.316.248c.308.242.442.249 5.1.249 4.603 0 4.793-.009 5.021-.237.13-.13.268-.36.305-.51.038-.15.053-2.019.033-4.154l-.035-3.88-.283-.23c-.269-.217-.538-.229-5.109-.229h-4.826l-.261.278m-8.689 4.312.033 2.73H36.12v-5.524l3.51.032 3.51.032.032 2.73m17.308-.03v2.76H53.4v-2.68c0-1.474.036-2.716.08-2.76.044-.044 1.637-.08 3.54-.08h3.46v2.76m-41.549 7.17-.031 8.25h-8.28l-.031-8.25-.031-8.25h8.404l-.031 8.25" fill-rule="evenodd" fill=""/></svg>