<svg xmlns="http://www.w3.org/2000/svg" width="" height="" viewBox="0 0 68 69" fill="none">
<path d="M59.976 9.58421C59.9456 9.47684 59.8942 9.37653 59.8249 9.28902C59.7557 9.2015 59.6698 9.1285 59.5723 9.07419C59.4748 9.01988 59.3675 8.98532 59.2567 8.97249C59.1458 8.95966 59.0335 8.96881 58.9261 8.99941L7.33385 23.6874C7.11723 23.7493 6.93403 23.8946 6.8245 24.0915C6.71498 24.2884 6.68808 24.5206 6.74973 24.7373L8.02541 29.2253C8.05597 29.3327 8.10739 29.4331 8.17674 29.5206C8.24608 29.6081 8.33199 29.6811 8.42955 29.7354C8.52712 29.7897 8.63442 29.8243 8.74535 29.8371C8.85627 29.8499 8.96863 29.8407 9.07601 29.8101L13.9475 28.4202V58.585C13.9474 58.6967 13.9694 58.8072 14.0121 58.9104C14.0547 59.0136 14.1173 59.1073 14.1963 59.1863C14.2752 59.2652 14.369 59.3278 14.4721 59.3705C14.5753 59.4132 14.6859 59.4351 14.7975 59.435H53.3535C53.579 59.435 53.7952 59.3455 53.9546 59.1861C54.114 59.0266 54.2035 58.8104 54.2035 58.585V16.9561L60.6635 15.116C60.7708 15.0855 60.8711 15.0341 60.9585 14.9647C61.046 14.8954 61.1189 14.8096 61.1731 14.7121C61.2274 14.6146 61.2619 14.5073 61.2747 14.3965C61.2874 14.2857 61.2783 14.1734 61.2477 14.0661L59.976 9.58421ZM26.2195 57.735V34.8693H41.9343V57.735H26.2195ZM43.6343 57.735V34.0193C43.6343 33.7939 43.5447 33.5777 43.3853 33.4183C43.2259 33.2589 43.0097 33.1693 42.7843 33.1693H25.3695C25.1441 33.1693 24.9279 33.2589 24.7684 33.4183C24.609 33.5777 24.5195 33.7939 24.5195 34.0193V57.735H23.0711V31.4394H45.084V57.735H43.6343ZM52.5062 17.4409V57.735H46.784V30.5894C46.784 30.364 46.6945 30.1478 46.5351 29.9884C46.3757 29.829 46.1595 29.7394 45.9341 29.7394H22.2211C21.9957 29.7394 21.7795 29.829 21.6201 29.9884C21.4606 30.1478 21.3711 30.364 21.3711 30.5894V57.735H15.6475V27.9388L41.6052 20.5451L52.5062 17.4409ZM40.8517 18.992L14.5643 26.4775L14.5514 26.4829L9.42689 27.9442L8.61633 25.0882L58.5732 10.866L59.3838 13.7139L40.8517 18.992Z" fill=""/>
</svg>