<svg xmlns="http://www.w3.org/2000/svg" width="" height="" fill="none"><path d="M17.88.685c-.546.201-.767.819-.483 1.35.065.121.875 1.103 1.8 2.182l1.682 1.963-3.116.06c-2.559.049-3.145.092-3.282.24-.15.161-7.504 8.589-11.754 13.471L1.08 21.842v33.341l.316.248.316.249h69.166l.26-.276.26-.277.003-16.666.004-16.667-.464-.487c-.255-.268-3.385-3.653-6.956-7.523-3.57-3.87-6.637-7.15-6.814-7.29-.309-.243-.454-.254-3.217-.257l-2.894-.003-2.28-2.689C47.526 2.065 46.376.797 46.224.727 45.937.594 18.239.553 17.88.685m15.654 4.293c1.158 1.352 2.106 2.486 2.106 2.52 0 .034-2.498.062-5.55.061h-5.55l-1.92-2.244a263.361 263.361 0 0 1-2.139-2.519l-.218-.276h11.165l2.106 2.458m13.806-.213a263.361 263.361 0 0 1 2.139 2.519l.218.276-5.738-.003-5.739-.003-1.44-1.704c-.792-.937-1.755-2.07-2.141-2.517l-.7-.813 5.74.001h5.741l1.92 2.244m-20.89 7.897c2.107 2.468 3.901 4.515 3.987 4.548.154.059 7.75.086 21.433.075 6.886-.005 7.056-.011 7.29-.245.146-.146.24-.4.24-.651 0-.363-.368-.84-3.216-4.172-1.769-2.069-3.257-3.828-3.307-3.909-.071-.115.298-.148 1.629-.148h1.721l6.014 6.51 6.013 6.51-5.597.073c-3.078.04-12.023.078-19.877.084l-14.28.011-5.46-6.363c-3.003-3.499-5.534-6.466-5.625-6.594-.161-.226-.109-.231 2.52-.224l2.685.008 3.83 4.487m-5.278 3.084 5.948 6.925v31.213l-2.85-.032-2.85-.032-.06-9.281-.06-9.28-.283-.23c-.27-.218-.549-.229-5.889-.229H9.522l-.26.277-.26.277-.031 9.233-.031 9.233h-6l-.026-15.6-.026-15.6 6.067-6.936c3.337-3.815 6.112-6.92 6.168-6.9.056.02 2.778 3.153 6.049 6.962m18.058-4.09a741.282 741.282 0 0 0 2.56 3l.711.824H31.34l-2.445-2.85c-1.346-1.567-2.487-2.917-2.538-3-.072-.119 1.052-.15 5.467-.15h5.557l1.849 2.176m14.563.674c1.341 1.567 2.479 2.917 2.529 3 .073.119-1.079.15-5.609.15h-5.7l-2.442-2.85c-1.342-1.567-2.482-2.917-2.533-3-.073-.119 1.08-.15 5.613-.15h5.706l2.436 2.85M69.54 38.52v15.3H29.1l-.03-15.27-.031-15.269 15.691-.032c8.629-.017 17.742-.031 20.25-.03l4.56.001v15.3m-33.942-5.106-.318.295v4.129c0 3.996.008 4.14.249 4.446l.248.316h5.032c4.871 0 5.039-.008 5.271-.24.231-.231.24-.4.24-4.491v-4.252l-.316-.248c-.308-.243-.441-.249-5.203-.249h-4.886l-.317.294m18.032-.14c-.445.341-.47.592-.47 4.682 0 3.877.008 4.022.249 4.328l.248.316h5.032c4.823 0 5.041-.01 5.264-.233.129-.129.266-.412.307-.63.04-.218.056-2.116.036-4.218l-.036-3.82-.337-.29-.336-.289-4.884.004c-3.649.003-4.931.041-5.073.15m-9.11 4.646v2.88H37.2v-5.76h7.32v2.88m17.88 0v2.88h-7.32v-5.76h7.32v2.88m-42.906.51c.044 1.006.063 4.881.043 8.61l-.037 6.78h-8.64l-.031-8.46c-.017-4.653-.005-8.528.026-8.61.045-.116 1.018-.15 4.309-.15h4.251l.079 1.83" fill-rule="evenodd" fill=""/></svg>