<svg xmlns="http://www.w3.org/2000/svg" width="" height="" viewBox="0 0 68 69" fill="none">
<path d="M34.6043 7.98065C34.4448 7.82136 34.2286 7.73189 34.0032 7.73189C33.7778 7.73189 33.5616 7.82136 33.4021 7.98065L24.8688 16.5119V12.1599C24.8688 11.9345 24.7792 11.7183 24.6198 11.5589C24.4604 11.3995 24.2442 11.3099 24.0188 11.3099H17.3895C17.164 11.3099 16.9478 11.3995 16.7884 11.5589C16.629 11.7183 16.5395 11.9345 16.5395 12.1599V24.8392L6.96507 34.4109C6.80578 34.5704 6.71631 34.7866 6.71631 35.012C6.71631 35.2374 6.80578 35.4536 6.96507 35.6131L10.4541 39.1015C10.533 39.1806 10.6267 39.2433 10.7299 39.286C10.833 39.3288 10.9436 39.3508 11.0553 39.3508C11.1669 39.3508 11.2775 39.3288 11.3807 39.286C11.4838 39.2433 11.5775 39.1806 11.6564 39.1015L14.902 35.8552V59.8721C14.9026 60.0972 14.9924 60.3129 15.1517 60.4718C15.3111 60.6308 15.5269 60.7201 15.752 60.7201H52.2408C52.4663 60.7201 52.6825 60.6305 52.8419 60.4711C53.0013 60.3117 53.0908 60.0955 53.0908 59.8701V35.8491L56.3433 39.1015C56.4221 39.1806 56.5158 39.2434 56.6189 39.2862C56.7221 39.3291 56.8327 39.3511 56.9444 39.3511C57.0561 39.3511 57.1667 39.3291 57.2698 39.2862C57.373 39.2434 57.4667 39.1806 57.5455 39.1015L61.0346 35.6131C61.1939 35.4536 61.2833 35.2374 61.2833 35.012C61.2833 34.7866 61.1939 34.5704 61.0346 34.4109L34.6043 7.98065ZM18.2395 23.1378V13.0058H23.1688V18.2092L20.2203 21.157L18.2395 23.1378ZM51.3908 59.0201H16.602V34.1566L33.9998 16.7554L51.3942 34.1498L51.3908 59.0201ZM56.9444 37.2968L52.8419 33.1944L34.5975 14.95C34.438 14.7907 34.2218 14.7012 33.9964 14.7012C33.771 14.7012 33.5548 14.7907 33.3953 14.95L11.0553 37.2988L8.77183 35.012L20.8269 22.9563L24.6199 19.1673L24.6253 19.1585L34.0032 9.78333L59.2312 35.0113L56.9444 37.2968Z" fill=""/>
<path d="M25.1973 38.5004V51.1138C25.1973 51.3392 25.2868 51.5554 25.4462 51.7148C25.6056 51.8742 25.8218 51.9638 26.0473 51.9638H41.9559C42.1813 51.9638 42.3975 51.8742 42.5569 51.7148C42.7163 51.5554 42.8059 51.3392 42.8059 51.1138V38.5004C42.8059 38.275 42.7163 38.0588 42.5569 37.8994C42.3975 37.74 42.1813 37.6504 41.9559 37.6504H26.0473C25.8218 37.6504 25.6056 37.74 25.4462 37.8994C25.2868 38.0588 25.1973 38.275 25.1973 38.5004ZM26.8973 45.6568H33.1533V50.2638H26.8973V45.6568ZM34.8533 50.2638V45.6568H41.1093V50.2638H34.8533ZM41.1093 43.9568H34.8499V39.3504H41.1059L41.1093 43.9568ZM33.1499 39.3504V43.9568H26.8973V39.3504H33.1499Z" fill=""/>
</svg>