<svg xmlns="http://www.w3.org/2000/svg" width="" height="" viewBox="0 0 60 61" fill="none">
<path d="M45.8438 6.1265H14.258C14.0591 6.1265 13.8683 6.20551 13.7277 6.34617C13.587 6.48682 13.508 6.67758 13.508 6.8765V52.7765H8.85498C8.65607 52.7765 8.4653 52.8555 8.32465 52.9962C8.184 53.1368 8.10498 53.3276 8.10498 53.5265C8.10498 53.7254 8.184 53.9162 8.32465 54.0568C8.4653 54.1975 8.65607 54.2765 8.85498 54.2765H51.2468C51.4457 54.2765 51.6365 54.1975 51.7771 54.0568C51.9178 53.9162 51.9968 53.7254 51.9968 53.5265C51.9968 53.3276 51.9178 53.1368 51.7771 52.9962C51.6365 52.8555 51.4457 52.7765 51.2468 52.7765H46.5938V6.8765C46.5938 6.67758 46.5148 6.48682 46.3741 6.34617C46.2335 6.20551 46.0427 6.1265 45.8438 6.1265ZM28.2812 52.7741V45.7199H31.8212V52.7741H28.2812ZM33.3212 52.7741V44.9699C33.3213 44.8714 33.3019 44.7738 33.2643 44.6828C33.2266 44.5918 33.1713 44.5091 33.1017 44.4394C33.032 44.3697 32.9493 44.3145 32.8583 44.2768C32.7673 44.2392 32.6697 44.2198 32.5712 44.2199H27.5312C27.4327 44.2198 27.3351 44.2392 27.2441 44.2768C27.153 44.3145 27.0703 44.3697 27.0007 44.4394C26.931 44.5091 26.8758 44.5918 26.8381 44.6828C26.8004 44.7738 26.7811 44.8714 26.7812 44.9699V52.7741H15.008V7.6265H45.0938V52.7741H33.3212Z" fill=""/>
<path d="M41.3065 27.457H18.7939C18.595 27.457 18.4043 27.536 18.2636 27.6766C18.123 27.8173 18.0439 28.0081 18.0439 28.207V33.247C18.0439 33.4459 18.123 33.6366 18.2636 33.7773C18.4043 33.918 18.595 33.997 18.7939 33.997H41.3065C41.5055 33.997 41.6962 33.918 41.8369 33.7773C41.9775 33.6366 42.0565 33.4459 42.0565 33.247V28.207C42.0565 28.0081 41.9775 27.8173 41.8369 27.6766C41.6962 27.536 41.5055 27.457 41.3065 27.457ZM40.5565 32.497H19.5439V28.957H40.5595L40.5565 32.497Z" fill=""/>
<path d="M41.3065 10.8062H18.7939C18.595 10.8062 18.4043 10.8852 18.2636 11.0259C18.123 11.1665 18.0439 11.3573 18.0439 11.5562V16.5962C18.0439 16.7951 18.123 16.9859 18.2636 17.1265C18.4043 17.2672 18.595 17.3462 18.7939 17.3462H41.3065C41.5055 17.3462 41.6962 17.2672 41.8369 17.1265C41.9775 16.9859 42.0565 16.7951 42.0565 16.5962V11.5562C42.0565 11.3573 41.9775 11.1665 41.8369 11.0259C41.6962 10.8852 41.5055 10.8062 41.3065 10.8062ZM40.5565 15.8462H19.5439V12.3062H40.5595L40.5565 15.8462Z" fill=""/>
<path d="M41.3065 19.0749H18.7939C18.595 19.0749 18.4043 19.1539 18.2636 19.2946C18.123 19.4352 18.0439 19.626 18.0439 19.8249V24.9801C18.0439 25.179 18.123 25.3698 18.2636 25.5105C18.4043 25.6511 18.595 25.7301 18.7939 25.7301H41.3065C41.4053 25.7305 41.5031 25.7114 41.5945 25.6739C41.6858 25.6364 41.7689 25.5812 41.8388 25.5115C41.9088 25.4418 41.9643 25.359 42.0022 25.2678C42.04 25.1766 42.0595 25.0789 42.0595 24.9801V19.8249C42.0595 19.7262 42.04 19.6284 42.0022 19.5372C41.9643 19.446 41.9088 19.3632 41.8388 19.2935C41.7689 19.2238 41.6858 19.1687 41.5945 19.1312C41.5031 19.0936 41.4053 19.0745 41.3065 19.0749ZM40.5595 24.2271H19.5439V20.5749H40.5595V24.2271Z" fill=""/>
<path d="M41.3065 35.8401H18.7939C18.595 35.8401 18.4043 35.9192 18.2636 36.0598C18.123 36.2005 18.0439 36.3912 18.0439 36.5901V41.6301C18.0439 41.8291 18.123 42.0198 18.2636 42.1605C18.4043 42.3011 18.595 42.3802 18.7939 42.3802H41.3065C41.5055 42.3802 41.6962 42.3011 41.8369 42.1605C41.9775 42.0198 42.0565 41.8291 42.0565 41.6301V36.5901C42.0565 36.3912 41.9775 36.2005 41.8369 36.0598C41.6962 35.9192 41.5055 35.8401 41.3065 35.8401ZM40.5595 40.8801H19.5439V37.3401H40.5595V40.8801Z" fill=""/>
<path d="M23.8339 44.2198H18.7939C18.595 44.2198 18.4043 44.2989 18.2636 44.4395C18.123 44.5802 18.0439 44.7709 18.0439 44.9698V50.0098C18.0439 50.2088 18.123 50.3995 18.2636 50.5402C18.4043 50.6808 18.595 50.7599 18.7939 50.7599H23.8339C24.0329 50.7599 24.2236 50.6808 24.3643 50.5402C24.5049 50.3995 24.5839 50.2088 24.5839 50.0098V44.9698C24.5839 44.7709 24.5049 44.5802 24.3643 44.4395C24.2236 44.2989 24.0329 44.2198 23.8339 44.2198ZM23.0839 49.2598H19.5439V45.7198H23.0839V49.2598Z" fill=""/>
<path d="M41.3066 44.2198H36.2666C36.0677 44.2198 35.8769 44.2989 35.7363 44.4395C35.5956 44.5802 35.5166 44.7709 35.5166 44.9698V50.0098C35.5166 50.2088 35.5956 50.3995 35.7363 50.5402C35.8769 50.6808 36.0677 50.7599 36.2666 50.7599H41.3066C41.5055 50.7599 41.6963 50.6808 41.8369 50.5402C41.9776 50.3995 42.0566 50.2088 42.0566 50.0098V44.9698C42.0566 44.7709 41.9776 44.5802 41.8369 44.4395C41.6963 44.2989 41.5055 44.2198 41.3066 44.2198ZM40.5566 49.2598H37.0196V45.7198H40.5596L40.5566 49.2598Z" fill=""/>
</svg>