<svg xmlns="http://www.w3.org/2000/svg" width="" height="" viewBox="0 0 61 43" fill="none">
<g clip-path="url(#clip0_2758_4704)">
<path d="M60.1054 10.3358L48.3951 0.887733C47.6741 0.255576 46.642 0.100693 45.7543 0.494332C44.868 0.887376 44.3173 1.72553 44.3173 2.68198V7.4352H17.8681C13.1094 7.4352 8.62568 9.29819 5.24281 12.6809C1.85995 16.0637 -0.00292969 20.5475 -0.00292969 25.3063C-0.00292969 30.065 1.86006 34.5488 5.24281 37.9316C8.62568 41.3144 13.1094 43.1774 17.8681 43.1774H37.7645C39.4068 43.1774 40.743 41.8412 40.743 40.1989V36.6245C40.743 34.9822 39.4068 33.646 37.7645 33.646H17.8681C15.6546 33.646 13.5642 32.7746 11.982 31.1925C10.3997 29.6103 9.52828 27.5197 9.52828 25.3062C9.52828 23.0927 10.3997 21.0023 11.982 19.4201C13.5642 17.8379 15.6546 16.9665 17.8681 16.9665H26.3268C26.9848 16.9665 27.5182 16.4331 27.5182 15.7751C27.5182 15.1171 26.9848 14.5837 26.3268 14.5837H17.8681C15.0181 14.5837 12.3293 15.703 10.2971 17.7352C8.2648 19.7675 7.14548 22.4563 7.14548 25.3062C7.14548 28.1562 8.26468 30.845 10.297 32.8773C12.3293 34.9096 15.018 36.0288 17.868 36.0288H37.7644C38.0872 36.0288 38.3601 36.3017 38.3601 36.6245V40.1989C38.3601 40.5217 38.0872 40.7946 37.7644 40.7946H17.8681C13.7458 40.7946 9.86056 39.1794 6.92781 36.2466C3.99506 33.3139 2.37987 29.4285 2.37987 25.3063C2.37987 21.1841 3.99506 17.2987 6.92781 14.3659C9.86056 11.4332 13.7458 9.818 17.8681 9.818H45.5088C46.1669 9.818 46.7002 9.28461 46.7002 8.6266L46.7006 2.68341C46.7133 2.67436 46.7386 2.66256 46.7678 2.66078C46.7989 2.65863 46.8116 2.66793 46.8249 2.68008C46.8418 2.69533 46.8589 2.7101 46.8767 2.7244L58.607 12.1956C58.6026 12.199 58.5983 12.2025 58.594 12.2059L46.8216 21.704C46.8004 21.7212 46.7869 21.7253 46.763 21.7221C46.7348 21.7183 46.7112 21.7044 46.7001 21.6946V15.7752C46.7001 15.1172 46.1667 14.5838 45.5087 14.5838H37.0493C36.3913 14.5838 35.8579 15.1172 35.8579 15.7752C35.8579 16.4333 36.3913 16.9666 37.0493 16.9666H44.3173V21.7013C44.3168 22.6259 44.8457 23.4532 45.6974 23.8606C46.5681 24.2767 47.5725 24.1607 48.3184 23.5582L60.0847 14.065C60.6593 13.6109 60.9916 12.9347 60.9968 12.2083C61.0023 11.4801 60.6775 10.7979 60.1054 10.3358Z" fill=""/>
</g>
<defs>
<clipPath id="clip0_2758_4704">
<rect width="61" height="43" fill="white"/>
</clipPath>
</defs>
</svg>