<svg xmlns="http://www.w3.org/2000/svg" width="" height="" viewBox="0 0 68 69" fill="none">
<path d="M13.7397 64.2C13.1292 64.2 12.5184 64.0307 11.9711 63.6916C10.8585 63.0023 10.2576 61.7658 10.4031 60.4649L11.5208 50.4656C10.3054 48.9641 9.24393 47.3413 8.3629 45.6364C8.14001 45.2052 8.30899 44.6749 8.74013 44.4521C9.17116 44.2292 9.70167 44.3982 9.92445 44.8293C10.8045 46.5322 11.8768 48.1484 13.1113 49.6327C13.2641 49.8166 13.3356 50.0547 13.309 50.2923L12.15 60.6601C12.0797 61.2893 12.3588 61.8639 12.8968 62.1973C13.4351 62.5308 14.0741 62.5249 14.6065 62.1817L22.3372 57.1919C22.5824 57.0336 22.8902 57.0074 23.1586 57.1219C26.3561 58.4854 29.7534 59.1998 33.2563 59.2454C40.1588 59.3343 46.7898 56.6782 51.9276 51.7696C57.0669 46.8596 60.0164 40.3577 60.233 33.4618C60.4641 26.1086 57.7584 19.1741 52.6141 13.9355C50.1189 11.3944 47.1974 9.40878 43.9305 8.03368C40.5454 6.60877 36.9489 5.91173 33.2401 5.96024C26.2212 6.054 19.5962 8.94131 14.5855 14.0904C9.5757 19.2386 6.86768 25.9404 6.96038 32.9608C6.99811 35.7787 7.47437 38.5515 8.37614 41.2021C8.53247 41.6616 8.28661 42.1609 7.82711 42.3172C7.36773 42.4737 6.86827 42.2278 6.71193 41.7682C5.75063 38.9425 5.24285 35.9871 5.20265 32.9843C5.15273 29.2013 5.8643 25.4988 7.31792 21.9795C8.71834 18.5887 10.7396 15.522 13.3258 12.8645C15.9121 10.2066 18.9226 8.10282 22.2733 6.6117C25.752 5.06363 29.4338 4.25314 33.2167 4.20264C37.1696 4.15025 41.0028 4.89417 44.6123 6.41353C48.095 7.87946 51.2092 9.99578 53.8682 12.7038C56.5259 15.4103 58.584 18.5602 59.9854 22.0662C61.4398 25.705 62.1142 29.5576 61.9898 33.517C61.7587 40.8765 58.6164 47.8102 53.1418 53.0407C47.7577 58.1847 40.8253 61.005 33.5882 61.0053C33.4696 61.0053 33.3524 61.0046 33.2337 61.0031C29.6579 60.9567 26.1847 60.256 22.9023 58.9195L15.5595 63.6589C15.0002 64.0195 14.3702 64.2 13.7397 64.2Z" fill=""/>
<path d="M33.6018 41.5543C31.5345 41.5543 29.8529 39.872 29.8529 37.8042V36.5866C29.8529 33.3816 31.8723 30.5144 34.8781 29.452C36.5033 28.8772 37.5505 27.2688 37.4245 25.5409C37.2863 23.6524 35.7572 22.1348 33.8677 22.011C31.8661 21.8786 30.0813 23.3214 29.8058 25.2961C29.7809 25.4723 29.7685 25.6535 29.7685 25.8356C29.7685 27.9027 28.0867 29.5845 26.0196 29.5845C23.9518 29.5845 22.2695 27.9027 22.2695 25.8356C22.2695 25.3099 22.3062 24.7797 22.3788 24.2599C23.1946 18.4156 28.458 14.1419 34.3577 14.5287C36.2742 14.6544 38.1406 15.2764 39.7555 16.3273C40.1624 16.5921 40.2776 17.1365 40.0127 17.5434C39.7479 17.9503 39.2032 18.0654 38.7967 17.8006C37.4337 16.9136 35.8591 16.3889 34.2427 16.2828C29.2546 15.9555 24.8089 19.5661 24.1197 24.5028C24.0584 24.9424 24.0274 25.3909 24.0274 25.8356C24.0274 26.9335 24.9211 27.8267 26.0196 27.8267C27.1175 27.8267 28.0106 26.9335 28.0106 25.8356C28.0106 25.5719 28.0289 25.3083 28.0649 25.0522C28.467 22.1705 31.0657 20.064 33.9832 20.2569C36.7424 20.4378 38.976 22.6544 39.1776 25.4129C39.3609 27.9287 37.8339 30.2711 35.464 31.1093C33.1591 31.924 31.6107 34.1251 31.6107 36.5866V37.8042C31.6107 38.9027 32.5039 39.7964 33.6018 39.7964C34.7003 39.7964 35.594 38.9027 35.594 37.8042V36.5866C35.594 35.811 36.0747 35.1189 36.79 34.8644C40.8491 33.4297 43.4639 29.4246 43.1504 25.1237C43.0277 23.439 42.4519 21.8105 41.4855 20.4142C41.2092 20.015 41.3088 19.4675 41.7079 19.1913C42.1069 18.915 42.6544 19.0146 42.9309 19.4138C44.0759 21.0679 44.758 22.9982 44.9035 24.996C45.2744 30.0846 42.1797 34.8238 37.3775 36.5211C37.3736 36.5225 37.3518 36.545 37.3518 36.5866V37.8042C37.3518 39.872 35.6696 41.5543 33.6018 41.5543Z" fill=""/>
<path d="M33.6024 50.0948C31.535 50.0948 29.853 48.4129 29.853 46.3454V46.3216C29.853 44.2542 31.535 42.5723 33.6024 42.5723C35.6698 42.5723 37.3518 44.2543 37.3518 46.3216V46.3454C37.3519 48.4129 35.6698 50.0948 33.6024 50.0948ZM33.6024 44.3301C32.5043 44.3301 31.6109 45.2236 31.6109 46.3216V46.3454C31.6109 47.4435 32.5043 48.3369 33.6024 48.3369C34.7006 48.3369 35.5939 47.4435 35.5939 46.3454V46.3216C35.594 45.2236 34.7006 44.3301 33.6024 44.3301Z" fill=""/>
</svg>