<svg width=""  viewBox="0 0 55 54" height="" fill="none" xmlns="http://www.w3.org/2000/svg"><path d="m22.852 4.787-4.335 4.329V6.955c0-2.23-.057-2.664-.371-2.832-.101-.054-1.598-.09-3.778-.09h-3.611l-.199.212-.2.213V17.28l-4.959 4.949C2.672 24.952.386 27.303.32 27.454c-.148.34-.085.715.158.934.169.154.472.168 4.161.192l3.978.026v24.202l.225.225.225.225h37.101l.199-.211.199-.212.023-12.141.023-12.14 3.973-.046 3.973-.046.175-.216a.97.97 0 0 0 .175-.55c0-.32-.511-.844-13.452-13.785L28.003.458h-.816l-4.335 4.329m17.069 9.88L52.204 26.95l-9.258.001c-5.092.001-16.158.027-24.59.059-8.98.034-15.331.024-15.331-.024 0-.083 24.483-24.603 24.567-24.603.025 0 5.573 5.528 12.329 12.284M16.958 8.136v2.544l-2.521 2.52-2.52 2.52V5.592h5.041v2.544m28.05 31.968V51.7H10.175V28.601l8.135-.024c4.475-.013 12.312-.034 17.417-.046l9.281-.023v11.596M19.204 29.948a1.125 1.125 0 0 0-.389.235l-.207.191V44.283l.225.225.225.225h17.159l.225-.225.225-.225.005-3.418a2310.1 2310.1 0 0 0-.004-6.948l-.009-3.53-.227-.229-.228-.229-8.408-.013c-4.625-.007-8.491.007-8.592.032m7.654 4.06v2.567H20.167v-5.133H26.858v2.566m8.25 0v2.567H28.417v-2.506c0-1.378.027-2.533.061-2.566.033-.034 1.539-.061 3.346-.061h3.284v2.566m-8.25 6.646v2.521H20.167v-5.042H26.858v2.521m8.25 0v2.521H28.417v-5.042H35.108v2.521" fill-rule="evenodd" fill=""/></svg>