<svg xmlns="http://www.w3.org/2000/svg" width="18" height="18" viewBox="0 0 18 18" fill="none">
<g clip-path="url(#clip0_2188_3530)">
<path d="M8.5786 3C10.0581 3 11.4771 3.58774 12.5233 4.63394C13.5695 5.68013 14.1572 7.09907 14.1572 8.5786C14.1572 10.484 13.1183 12.0435 12.0237 13.1624C11.4767 13.7152 10.88 14.2165 10.241 14.6599L9.97697 14.8397L9.853 14.9221L9.61932 15.0709L9.41106 15.1979L9.1532 15.3479C8.9781 15.4476 8.78008 15.5 8.5786 15.5C8.37712 15.5 8.17911 15.4476 8.00401 15.3479L7.74615 15.1979L7.42383 14.9996L7.30482 14.9221L7.05069 14.7529C6.3614 14.2863 5.7193 13.7536 5.13351 13.1624C4.03886 12.0429 3 10.484 3 8.5786C3 7.09907 3.58774 5.68013 4.63394 4.63394C5.68013 3.58774 7.09907 3 8.5786 3ZM8.5786 6.71907C8.33441 6.71907 8.0926 6.76717 7.86699 6.86062C7.64138 6.95407 7.43639 7.09104 7.26371 7.26371C7.09104 7.43639 6.95407 7.64138 6.86062 7.86699C6.76717 8.0926 6.71907 8.33441 6.71907 8.5786C6.71907 8.8228 6.76717 9.06461 6.86062 9.29022C6.95407 9.51583 7.09104 9.72082 7.26371 9.89349C7.43639 10.0662 7.64138 10.2031 7.86699 10.2966C8.0926 10.39 8.33441 10.4381 8.5786 10.4381C9.07178 10.4381 9.54476 10.2422 9.89349 9.89349C10.2422 9.54476 10.4381 9.07178 10.4381 8.5786C10.4381 8.08542 10.2422 7.61244 9.89349 7.26371C9.54476 6.91498 9.07178 6.71907 8.5786 6.71907Z" fill=""/>
</g>
<defs>
<clipPath id="clip0_2188_3530">
<rect width="18" height="18" fill="white"/>
</clipPath>
</defs>
</svg>