<svg xmlns="http://www.w3.org/2000/svg" width="" height="" viewBox="0 0 35 35" fill="none">
  <g filter="url(#filter0_d_6671_845)">
    <path d="M16.5699 2.78223C19.7525 2.78223 22.8047 4.04651 25.0551 6.29695C27.3056 8.54738 28.5699 11.5996 28.5699 14.7822C28.5699 18.8809 26.3352 22.2356 23.9805 24.6422C22.8039 25.8314 21.5202 26.9098 20.1459 27.8636L19.5779 28.2502L19.3112 28.4276L18.8085 28.7476L18.3605 29.0209L17.8059 29.3436C17.4292 29.558 17.0033 29.6707 16.5699 29.6707C16.1365 29.6707 15.7105 29.558 15.3339 29.3436L14.7792 29.0209L14.0859 28.5942L13.8299 28.4276L13.2832 28.0636C11.8005 27.06 10.4193 25.9141 9.15919 24.6422C6.80452 22.2342 4.56985 18.8809 4.56985 14.7822C4.56985 11.5996 5.83414 8.54738 8.08457 6.29695C10.335 4.04651 13.3873 2.78223 16.5699 2.78223ZM16.5699 10.7822C16.0446 10.7822 15.5244 10.8857 15.0391 11.0867C14.5538 11.2877 14.1129 11.5824 13.7414 11.9538C13.37 12.3252 13.0754 12.7662 12.8743 13.2515C12.6733 13.7368 12.5699 14.2569 12.5699 14.7822C12.5699 15.3075 12.6733 15.8277 12.8743 16.313C13.0754 16.7983 13.37 17.2392 13.7414 17.6107C14.1129 17.9821 14.5538 18.2767 15.0391 18.4777C15.5244 18.6788 16.0446 18.7822 16.5699 18.7822C17.6307 18.7822 18.6481 18.3608 19.3983 17.6107C20.1484 16.8605 20.5699 15.8431 20.5699 14.7822C20.5699 13.7214 20.1484 12.7039 19.3983 11.9538C18.6481 11.2037 17.6307 10.7822 16.5699 10.7822Z" fill="#F32C40"/>
  </g>
  <defs>
    <filter id="filter0_d_6671_845" x="4.56985" y="2.08085" width="30.3124" height="32.4997" filterUnits="userSpaceOnUse" color-interpolation-filters="sRGB">
      <feFlood flood-opacity="0" result="BackgroundImageFix"/>
      <feColorMatrix in="SourceAlpha" type="matrix" values="0 0 0 0 0 0 0 0 0 0 0 0 0 0 0 0 0 0 127 0" result="hardAlpha"/>
      <feOffset dx="3.50689" dy="2.10414"/>
      <feGaussianBlur stdDeviation="1.40276"/>
      <feComposite in2="hardAlpha" operator="out"/>
      <feColorMatrix type="matrix" values="0 0 0 0 0 0 0 0 0 0 0 0 0 0 0 0 0 0 0.3 0"/>
      <feBlend mode="normal" in2="BackgroundImageFix" result="effect1_dropShadow_6671_845"/>
      <feBlend mode="normal" in="SourceGraphic" in2="effect1_dropShadow_6671_845" result="shape"/>
    </filter>
  </defs>
</svg>