<svg width="32" height="26" viewBox="0 0 32 26" fill="none" xmlns="http://www.w3.org/2000/svg">
<path d="M3.4 3.375L14.281 11.6869C15.2921 12.4592 16.7079 12.4592 17.719 11.6868L28.6 3.375M6.48 24H25.52C27.0881 24 27.8722 24 28.4712 23.7003C28.998 23.4366 29.4264 23.0159 29.6948 22.4985C30 21.9102 30 21.1401 30 19.6V6.4C30 4.85986 30 4.08978 29.6948 3.50153C29.4264 2.98408 28.998 2.56338 28.4712 2.29973C27.8722 2 27.0881 2 25.52 2H6.48C4.91185 2 4.12778 2 3.52883 2.29973C3.00197 2.56338 2.57363 2.98408 2.30518 3.50153C2 4.08978 2 4.85986 2 6.4V19.6C2 21.1401 2 21.9102 2.30518 22.4985C2.57363 23.0159 3.00197 23.4366 3.52883 23.7003C4.12778 24 4.91185 24 6.48 24Z" stroke="white" stroke-width="2.625"/>
</svg>
