<svg width="65" height="66" viewBox="0 0 65 66" fill="none" xmlns="http://www.w3.org/2000/svg">
<path d="M64.0499 21.1605L51.5717 11.0929C50.8034 10.4193 49.7036 10.2543 48.7577 10.6737C47.8133 11.0925 47.2265 11.9857 47.2265 13.0048V18.0697H19.0429C13.9722 18.0697 9.19442 20.0549 5.58972 23.6595C1.98503 27.264 0 32.0419 0 37.1128C0 42.1835 1.98516 46.9612 5.58972 50.5659C9.19442 54.1705 13.9722 56.1557 19.0429 56.1557H40.244C41.994 56.1557 43.4178 54.7319 43.4178 52.9818V49.1731C43.4178 47.4231 41.994 45.9993 40.244 45.9993H19.0429C16.6842 45.9993 14.4567 45.0708 12.7708 43.3849C11.0847 41.6989 10.1562 39.4713 10.1562 37.1126C10.1562 34.754 11.0847 32.5265 12.7708 30.8405C14.4567 29.1546 16.6842 28.2261 19.0429 28.2261H28.0563C28.7574 28.2261 29.3258 27.6577 29.3258 26.9565C29.3258 26.2554 28.7574 25.687 28.0563 25.687H19.0429C16.0061 25.687 13.1409 26.8797 10.9754 29.0452C8.80988 31.2107 7.61716 34.0758 7.61716 37.1126C7.61716 40.1495 8.80975 43.0147 10.9753 45.1802C13.1409 47.3458 16.0059 48.5384 19.0428 48.5384H40.2439C40.5879 48.5384 40.8786 48.8291 40.8786 49.1731V52.9818C40.8786 53.3259 40.5879 53.6166 40.2439 53.6166H19.0429C14.6503 53.6166 10.5103 51.8955 7.38521 48.7704C4.26015 45.6454 2.53905 41.5052 2.53905 37.1128C2.53905 32.7202 4.26015 28.58 7.38521 25.455C10.5103 22.3299 14.6503 20.6088 19.0429 20.6088H48.4962C49.1973 20.6088 49.7657 20.0404 49.7657 19.3393L49.7661 13.0064C49.7796 12.9967 49.8066 12.9841 49.8377 12.9822C49.8708 12.98 49.8844 12.9899 49.8985 13.0028C49.9165 13.0191 49.9348 13.0348 49.9537 13.05L62.4532 23.1423C62.4485 23.1459 62.4439 23.1496 62.4394 23.1533L49.895 33.2742C49.8724 33.2925 49.858 33.2969 49.8326 33.2935C49.8025 33.2895 49.7774 33.2746 49.7656 33.2642V26.9567C49.7656 26.2555 49.1972 25.6871 48.496 25.6871H39.4819C38.7807 25.6871 38.2124 26.2555 38.2124 26.9567C38.2124 27.6578 38.7807 28.2262 39.4819 28.2262H47.2265V33.2713C47.226 34.2566 47.7895 35.1381 48.6971 35.5722C49.6249 36.0156 50.6951 35.892 51.49 35.25L64.0278 25.1343C64.6401 24.6505 64.9942 23.9299 64.9997 23.1558C65.0056 22.3799 64.6595 21.653 64.0499 21.1605Z" fill="#323539"/>
</svg>
