<svg width="24" height="24" viewBox="0 0 24 24" fill="none" xmlns="http://www.w3.org/2000/svg">
<path d="M20.8472 14.8564L16.4306 12.8774L16.4184 12.8717C16.1892 12.7737 15.939 12.7343 15.6907 12.7572C15.4424 12.7801 15.2037 12.8646 14.9963 13.003C14.9718 13.0191 14.9484 13.0366 14.9259 13.0555L12.6441 15.0008C11.1984 14.2986 9.70595 12.8173 9.00376 11.3905L10.9519 9.07391C10.9706 9.05047 10.9884 9.02704 11.0053 9.00172C11.1407 8.79482 11.2229 8.55765 11.2445 8.31132C11.2661 8.065 11.2264 7.81715 11.1291 7.58985V7.5786L9.14438 3.15454C9.0157 2.8576 8.79444 2.61024 8.51362 2.44939C8.2328 2.28853 7.9075 2.22281 7.58626 2.26204C6.31592 2.4292 5.14986 3.05307 4.30588 4.01713C3.4619 4.98118 2.99771 6.2195 3.00001 7.50079C3.00001 14.9445 9.05626 21.0008 16.5 21.0008C17.7813 21.0031 19.0196 20.5389 19.9837 19.6949C20.9477 18.8509 21.5716 17.6849 21.7388 16.4145C21.7781 16.0934 21.7125 15.7682 21.5518 15.4874C21.3911 15.2066 21.144 14.9852 20.8472 14.8564ZM16.5 19.5008C13.3185 19.4973 10.2682 18.2319 8.01856 15.9822C5.76888 13.7325 4.50348 10.6823 4.50001 7.50079C4.49648 6.58531 4.82631 5.69985 5.42789 5.00976C6.02947 4.31968 6.86167 3.87216 7.76907 3.75079C7.7687 3.75453 7.7687 3.7583 7.76907 3.76204L9.73782 8.16829L7.80001 10.4877C7.78034 10.5103 7.76247 10.5344 7.74657 10.5598C7.60549 10.7763 7.52273 11.0256 7.5063 11.2835C7.48988 11.5413 7.54035 11.7991 7.65282 12.0317C8.5022 13.7689 10.2525 15.5061 12.0084 16.3545C12.2428 16.466 12.502 16.5147 12.7608 16.4959C13.0196 16.4772 13.2692 16.3917 13.485 16.2477C13.5091 16.2314 13.5322 16.2139 13.5544 16.1952L15.8334 14.2508L20.2397 16.2242H20.25C20.1301 17.1329 19.6833 17.9668 18.9931 18.5699C18.3028 19.1729 17.4166 19.5039 16.5 19.5008Z" fill="white"/>
</svg>
