<svg xmlns="http://www.w3.org/2000/svg" width="" height="" viewBox="0 0 80 80" fill="none">
<path d="M64.2609 52.3005C64.0344 52.0736 63.7199 51.9434 63.3994 51.9434C63.0789 51.9434 62.7644 52.0736 62.5378 52.3005C62.3111 52.5273 62.1807 52.8402 62.1807 53.1621C62.1807 53.4826 62.3109 53.7971 62.5378 54.0236C62.7644 54.2503 63.0789 54.3809 63.3994 54.3809C63.7199 54.3809 64.0344 54.2505 64.2609 54.0236C64.4878 53.7971 64.6182 53.4826 64.6182 53.1621C64.6182 52.8416 64.4878 52.5271 64.2609 52.3005Z" fill=""/>
<path d="M69.9811 68.7622H64.6186V57.4278C64.6186 56.7548 64.0728 56.2091 63.3998 56.2091C62.7268 56.2091 62.1811 56.7548 62.1811 57.4278V68.7622H23.6686V57.306C23.6686 56.633 23.1228 56.0872 22.4498 56.0872C21.7768 56.0872 21.2311 56.633 21.2311 57.306V68.7622H17.8186V36.7093L39.9998 19.3925L62.1811 36.7093V48.2872C62.1811 48.9602 62.7268 49.506 63.3998 49.506C64.0728 49.506 64.6186 48.9602 64.6186 48.2872V38.6123L64.8316 38.7786C65.053 38.9516 65.3176 39.0368 65.5811 39.0368C65.8946 39.0368 66.2068 38.9162 66.4433 38.6798L70.8392 34.2838C71.086 34.0369 71.2152 33.6959 71.1938 33.3473C71.1724 32.9987 71.0026 32.6761 70.7273 32.4613L63.3998 26.7407V14.5278C63.3998 13.8547 62.854 13.3091 62.1811 13.3091H55.1174C54.4444 13.3091 53.8987 13.8547 53.8987 14.5278V19.3231L40.7497 9.05784C40.3091 8.71379 39.6905 8.71379 39.2498 9.05784L9.27219 32.4613C8.99688 32.6761 8.8271 32.9987 8.80565 33.3473C8.78433 33.6959 8.91351 34.0367 9.16031 34.2838L13.5562 38.6798C13.9913 39.1148 14.6828 39.1574 15.168 38.7786L15.3811 38.6123V68.7622H10.0186C9.34556 68.7622 8.7998 69.308 8.7998 69.981C8.7998 70.654 9.34556 71.1997 10.0186 71.1997H69.9811C70.654 71.1997 71.1998 70.654 71.1998 69.981C71.1998 69.308 70.654 68.7622 69.9811 68.7622ZM56.3362 15.7466H60.9623V24.8377L56.3362 21.2261V15.7466ZM14.5177 36.194L11.8584 33.5346L39.9998 11.5646L68.1412 33.5346L65.4819 36.194L40.7497 16.8856C40.5294 16.7135 40.2646 16.6275 39.9998 16.6275C39.735 16.6275 39.4701 16.7135 39.2499 16.8856L14.5177 36.194Z" fill=""/>
<path d="M51.6998 35.3682H28.2998C27.6268 35.3682 27.0811 35.9138 27.0811 36.5869V59.9869C27.0811 60.6599 27.6268 61.2057 28.2998 61.2057H51.6998C52.3728 61.2057 52.9186 60.6599 52.9186 59.9869V36.5869C52.9186 35.9138 52.3728 35.3682 51.6998 35.3682ZM38.7811 58.7682H29.5186V49.5057H38.7811V58.7682ZM38.7811 47.0682H29.5186V37.8057H38.7811V47.0682ZM50.4811 58.7682H41.2186V49.5057H50.4811V58.7682ZM50.4811 47.0682H41.2186V37.8057H50.4811V47.0682Z" fill=""/>
<path d="M22.4502 51.2734C21.7772 51.2734 21.2314 51.8191 21.2314 52.4922V52.5118C21.2314 53.1848 21.7772 53.7306 22.4502 53.7306C23.1232 53.7306 23.6689 53.1848 23.6689 52.5118V52.4922C23.6689 51.8192 23.1232 51.2734 22.4502 51.2734Z" fill=""/>
</svg>