<svg width="100" height="100" viewBox="0 0 100 100" fill="none" xmlns="http://www.w3.org/2000/svg">
<path d="M80.3269 65.3756C80.0437 65.0921 79.6507 64.9292 79.25 64.9292C78.8493 64.9292 78.4563 65.0921 78.1729 65.3756C77.8896 65.6591 77.7266 66.0503 77.7266 66.4526C77.7266 66.8533 77.8894 67.2463 78.1729 67.5296C78.4563 67.8129 78.8493 67.9761 79.25 67.9761C79.6507 67.9761 80.0437 67.8131 80.3269 67.5296C80.6104 67.2463 80.7734 66.8533 80.7734 66.4526C80.7734 66.052 80.6104 65.6589 80.3269 65.3756Z" fill="#181818"/>
<path d="M87.4766 85.953H80.7734V71.785C80.7734 70.9438 80.0912 70.2616 79.25 70.2616C78.4088 70.2616 77.7266 70.9438 77.7266 71.785V85.953H29.5859V71.6327C29.5859 70.7915 28.9037 70.1093 28.0625 70.1093C27.2213 70.1093 26.5391 70.7915 26.5391 71.6327V85.953H22.2734V45.8869L50 24.2408L77.7266 45.8869V60.3593C77.7266 61.2005 78.4088 61.8827 79.25 61.8827C80.0912 61.8827 80.7734 61.2005 80.7734 60.3593V48.2656L81.0397 48.4736C81.3165 48.6897 81.6473 48.7962 81.9766 48.7962C82.3685 48.7962 82.7588 48.6455 83.0543 48.35L88.5492 42.855C88.8577 42.5463 89.0192 42.1201 88.9925 41.6844C88.9657 41.2487 88.7535 40.8454 88.4094 40.5768L79.25 33.4261V18.16C79.25 17.3186 78.5678 16.6366 77.7266 16.6366H68.897C68.0558 16.6366 67.3736 17.3186 67.3736 18.16V24.1542L50.9374 11.3225C50.3867 10.8925 49.6133 10.8925 49.0625 11.3225L11.5905 40.5768C11.2463 40.8454 11.0341 41.2487 11.0073 41.6844C10.9807 42.1201 11.1421 42.5462 11.4506 42.855L16.9455 48.35C17.4894 48.8937 18.3538 48.947 18.9603 48.4736L19.2266 48.2656V85.953H12.5234C11.6822 85.953 11 86.6352 11 87.4764C11 88.3177 11.6822 88.9999 12.5234 88.9999H87.4766C88.3178 88.9999 89 88.3177 89 87.4764C89 86.6352 88.3178 85.953 87.4766 85.953ZM70.4205 19.6835H76.2031V31.0474L70.4205 26.5329V19.6835ZM18.1474 45.2428L14.8232 41.9185L50 14.456L85.1768 41.9185L81.8526 45.2428L50.9374 21.1073C50.6619 20.8922 50.331 20.7846 50 20.7846C49.669 20.7846 49.3379 20.8922 49.0626 21.1073L18.1474 45.2428Z" fill="#181818"/>
<path d="M64.625 44.2104H35.375C34.5338 44.2104 33.8516 44.8925 33.8516 45.7339V74.9839C33.8516 75.8251 34.5338 76.5073 35.375 76.5073H64.625C65.4662 76.5073 66.1484 75.8251 66.1484 74.9839V45.7339C66.1484 44.8925 65.4662 44.2104 64.625 44.2104ZM48.4766 73.4604H36.8984V61.8823H48.4766V73.4604ZM48.4766 58.8354H36.8984V47.2573H48.4766V58.8354ZM63.1016 73.4604H51.5234V61.8823H63.1016V73.4604ZM63.1016 58.8354H51.5234V47.2573H63.1016V58.8354Z" fill="#181818"/>
<path d="M28.0625 64.0922C27.2213 64.0922 26.5391 64.7742 26.5391 65.6156V65.6401C26.5391 66.4814 27.2213 67.1636 28.0625 67.1636C28.9037 67.1636 29.5859 66.4814 29.5859 65.6401V65.6156C29.5859 64.7744 28.9037 64.0922 28.0625 64.0922Z" fill="#181818"/>
</svg>
