<svg width="86" height="85" viewBox="0 0 86 85" fill="none" xmlns="http://www.w3.org/2000/svg">
<path d="M75.4699 11.7301C75.4318 11.5959 75.3676 11.4705 75.281 11.3611C75.1945 11.2517 75.0871 11.1604 74.9653 11.0925C74.8434 11.0247 74.7093 10.9815 74.5707 10.9654C74.4321 10.9494 74.2917 10.9608 74.1575 10.9991L9.66719 29.3591C9.39642 29.4364 9.16742 29.6181 9.03051 29.8642C8.8936 30.1102 8.85998 30.4006 8.93704 30.6715L10.5316 36.2815C10.5698 36.4157 10.6341 36.5411 10.7208 36.6505C10.8075 36.7599 10.9149 36.8512 11.0368 36.9191C11.1588 36.9869 11.2929 37.0301 11.4316 37.0462C11.5702 37.0622 11.7107 37.0507 11.8449 37.0125L17.9343 35.2751V72.9811C17.9342 73.1206 17.9616 73.2588 18.0149 73.3878C18.0683 73.5168 18.1466 73.6339 18.2452 73.7326C18.3439 73.8313 18.4611 73.9096 18.5901 73.9629C18.719 74.0163 18.8572 74.0437 18.9968 74.0436H67.1918C67.4736 74.0436 67.7438 73.9316 67.9431 73.7324C68.1423 73.5331 68.2543 73.2629 68.2543 72.9811V20.9449L76.3293 18.6448C76.4634 18.6066 76.5887 18.5424 76.698 18.4557C76.8073 18.3691 76.8985 18.2618 76.9663 18.1399C77.0341 18.018 77.0772 17.884 77.0932 17.7454C77.1092 17.6069 77.0977 17.4665 77.0594 17.3324L75.4699 11.7301ZM33.2742 71.9186V43.3365H52.9177V71.9186H33.2742ZM55.0427 71.9186V42.274C55.0427 41.9922 54.9308 41.7219 54.7315 41.5227C54.5323 41.3234 54.262 41.2115 53.9802 41.2115H32.2117C31.9299 41.2115 31.6597 41.3234 31.4604 41.5227C31.2612 41.7219 31.1492 41.9922 31.1492 42.274V71.9186H29.3387V39.0491H56.8549V71.9186H55.0427ZM66.1327 21.551V71.9186H58.9799V37.9866C58.9799 37.7048 58.868 37.4345 58.6687 37.2353C58.4695 37.036 58.1992 36.9241 57.9174 36.9241H28.2762C27.9944 36.9241 27.7242 37.036 27.5249 37.2353C27.3257 37.4345 27.2137 37.7048 27.2137 37.9866V71.9186H20.0593V34.6733L52.5063 25.4312L66.1327 21.551ZM51.5645 23.4898L18.7052 32.8466L18.6891 32.8534L12.2835 34.6801L11.2703 31.1101L73.7164 13.3323L74.7296 16.8921L51.5645 23.4898Z" fill="#181818"/>
</svg>
