<svg width="32" height="32" viewBox="0 0 32 32" fill="none" xmlns="http://www.w3.org/2000/svg">
<g filter="url(#filter0_d_1191_2978)">
<path fill-rule="evenodd" clip-rule="evenodd" d="M16 13.3334C17.4727 13.3334 18.6667 14.5273 18.6667 16.0001C18.6667 17.4728 17.4727 18.6667 16 18.6667C14.5272 18.6667 13.3333 17.4728 13.3333 16.0001C13.3333 14.5273 14.5272 13.3334 16 13.3334Z" fill="white"/>
<path fill-rule="evenodd" clip-rule="evenodd" d="M23.8272 23.0715C27.6131 19.1705 27.6131 12.8297 23.8272 8.92867C23.3144 8.40023 23.327 7.55611 23.8555 7.04326C24.3839 6.53042 25.228 6.54306 25.7409 7.07149C30.5308 12.0071 30.5308 19.9931 25.7409 24.9287C25.228 25.4571 24.3839 25.4697 23.8555 24.9569C23.327 24.4441 23.3144 23.5999 23.8272 23.0715ZM20.3765 19.516C22.2567 17.5787 22.2567 14.4216 20.3765 12.4843C19.8637 11.9559 19.8763 11.1117 20.4047 10.5989C20.9332 10.0861 21.7773 10.0987 22.2901 10.6271C25.1743 13.599 25.1743 18.4013 22.2901 21.3732C21.7773 21.9016 20.9332 21.9143 20.4047 21.4014C19.8763 20.8886 19.8637 20.0445 20.3765 19.516Z" fill="white"/>
<path fill-rule="evenodd" clip-rule="evenodd" d="M8.17275 23.0715C4.38685 19.1705 4.38685 12.8297 8.17275 8.92867C8.68559 8.40023 8.67295 7.55611 8.14452 7.04326C7.61608 6.53042 6.77195 6.54306 6.25911 7.07149C1.46917 12.0071 1.46917 19.9931 6.25911 24.9287C6.77196 25.4571 7.61608 25.4697 8.14452 24.9569C8.67295 24.4441 8.68559 23.5999 8.17275 23.0715ZM11.6235 19.516C9.74332 17.5787 9.74332 14.4216 11.6235 12.4843C12.1363 11.9559 12.1237 11.1117 11.5952 10.5989C11.0668 10.0861 10.2227 10.0987 9.70984 10.6271C6.82564 13.599 6.82564 18.4013 9.70984 21.3732C10.2227 21.9016 11.0668 21.9143 11.5952 21.4014C12.1237 20.8886 12.1363 20.0445 11.6235 19.516Z" fill="white"/>
</g>
<defs>
<filter id="filter0_d_1191_2978" x="0.666656" y="5.66675" width="30.6667" height="22.6667" filterUnits="userSpaceOnUse" color-interpolation-filters="sRGB">
<feFlood flood-opacity="0" result="BackgroundImageFix"/>
<feColorMatrix in="SourceAlpha" type="matrix" values="0 0 0 0 0 0 0 0 0 0 0 0 0 0 0 0 0 0 127 0" result="hardAlpha"/>
<feOffset dy="1"/>
<feGaussianBlur stdDeviation="1"/>
<feComposite in2="hardAlpha" operator="out"/>
<feColorMatrix type="matrix" values="0 0 0 0 0.0627451 0 0 0 0 0.0941176 0 0 0 0 0.156863 0 0 0 0.04 0"/>
<feBlend mode="normal" in2="BackgroundImageFix" result="effect1_dropShadow_1191_2978"/>
<feBlend mode="normal" in="SourceGraphic" in2="effect1_dropShadow_1191_2978" result="shape"/>
</filter>
</defs>
</svg>
