<svg width="71" height="48" viewBox="0 0 71 48" fill="none" xmlns="http://www.w3.org/2000/svg">
<g filter="url(#filter0_d_2758_4633)">
<mask id="path-1-inside-1_2758_4633" fill="white">
<path fill-rule="evenodd" clip-rule="evenodd" d="M2.65396 4.27606C2 5.55953 2 7.23969 2 10.6V29.4C2 32.7603 2 34.4405 2.65396 35.7239C3.2292 36.8529 4.14708 37.7708 5.27606 38.346C6.55953 39 8.23968 39 11.6 39H29.1716C29.702 39 30.2107 39.2107 30.5858 39.5858L34.5858 43.5858C35.3668 44.3668 36.6332 44.3668 37.4142 43.5858L41.4142 39.5858C41.7893 39.2107 42.298 39 42.8284 39H59.4C62.7603 39 64.4405 39 65.7239 38.346C66.8529 37.7708 67.7708 36.8529 68.346 35.7239C69 34.4405 69 32.7603 69 29.4V10.6C69 7.23969 69 5.55953 68.346 4.27606C67.7708 3.14708 66.8529 2.2292 65.7239 1.65396C64.4405 1 62.7603 1 59.4 1H11.6C8.23969 1 6.55953 1 5.27606 1.65396C4.14708 2.2292 3.2292 3.14708 2.65396 4.27606Z"/>
</mask>
<path fill-rule="evenodd" clip-rule="evenodd" d="M2.65396 4.27606C2 5.55953 2 7.23969 2 10.6V29.4C2 32.7603 2 34.4405 2.65396 35.7239C3.2292 36.8529 4.14708 37.7708 5.27606 38.346C6.55953 39 8.23968 39 11.6 39H29.1716C29.702 39 30.2107 39.2107 30.5858 39.5858L34.5858 43.5858C35.3668 44.3668 36.6332 44.3668 37.4142 43.5858L41.4142 39.5858C41.7893 39.2107 42.298 39 42.8284 39H59.4C62.7603 39 64.4405 39 65.7239 38.346C66.8529 37.7708 67.7708 36.8529 68.346 35.7239C69 34.4405 69 32.7603 69 29.4V10.6C69 7.23969 69 5.55953 68.346 4.27606C67.7708 3.14708 66.8529 2.2292 65.7239 1.65396C64.4405 1 62.7603 1 59.4 1H11.6C8.23969 1 6.55953 1 5.27606 1.65396C4.14708 2.2292 3.2292 3.14708 2.65396 4.27606Z" fill="white"/>
<path d="M2.65396 4.27606L3.54497 4.73005L2.65396 4.27606ZM2.65396 35.7239L3.54497 35.27H3.54497L2.65396 35.7239ZM5.27606 38.346L4.82207 39.237H4.82207L5.27606 38.346ZM65.7239 38.346L66.1779 39.237L65.7239 38.346ZM68.346 35.7239L67.455 35.27L68.346 35.7239ZM68.346 4.27606L69.237 3.82207V3.82207L68.346 4.27606ZM65.7239 1.65396L66.1779 0.762955V0.762954L65.7239 1.65396ZM5.27606 1.65396L5.73005 2.54497L5.27606 1.65396ZM3 10.6C3 8.90334 3.00078 7.69099 3.07842 6.74064C3.15512 5.80197 3.30179 5.20731 3.54497 4.73005L1.76295 3.82207C1.35217 4.62827 1.17186 5.51543 1.08507 6.57778C0.999222 7.62846 1 8.93634 1 10.6H3ZM3 29.4V10.6H1V29.4H3ZM3.54497 35.27C3.30179 34.7927 3.15512 34.198 3.07842 33.2594C3.00078 32.309 3 31.0967 3 29.4H1C1 31.0637 0.999222 32.3715 1.08507 33.4222C1.17186 34.4846 1.35217 35.3717 1.76295 36.1779L3.54497 35.27ZM5.73005 37.455C4.78924 36.9757 4.02433 36.2108 3.54497 35.27L1.76295 36.1779C2.43407 37.4951 3.50493 38.5659 4.82207 39.237L5.73005 37.455ZM11.6 38C9.90334 38 8.69099 37.9992 7.74064 37.9216C6.80197 37.8449 6.20731 37.6982 5.73005 37.455L4.82207 39.237C5.62827 39.6478 6.51543 39.8281 7.57778 39.9149C8.62846 40.0008 9.93634 40 11.6 40V38ZM29.1716 38H11.6V40H29.1716V38ZM35.2929 42.8787L31.2929 38.8787L29.8787 40.2929L33.8787 44.2929L35.2929 42.8787ZM40.7071 38.8787L36.7071 42.8787L38.1213 44.2929L42.1213 40.2929L40.7071 38.8787ZM59.4 38H42.8284V40H59.4V38ZM65.27 37.455C64.7927 37.6982 64.198 37.8449 63.2594 37.9216C62.309 37.9992 61.0967 38 59.4 38V40C61.0637 40 62.3715 40.0008 63.4222 39.9149C64.4846 39.8281 65.3717 39.6478 66.1779 39.237L65.27 37.455ZM67.455 35.27C66.9757 36.2108 66.2108 36.9757 65.27 37.455L66.1779 39.237C67.4951 38.5659 68.5659 37.4951 69.237 36.1779L67.455 35.27ZM68 29.4C68 31.0967 67.9992 32.309 67.9216 33.2594C67.8449 34.198 67.6982 34.7927 67.455 35.27L69.237 36.1779C69.6478 35.3717 69.8281 34.4846 69.9149 33.4222C70.0008 32.3715 70 31.0637 70 29.4H68ZM68 10.6V29.4H70V10.6H68ZM67.455 4.73005C67.6982 5.20731 67.8449 5.80197 67.9216 6.74064C67.9992 7.69099 68 8.90334 68 10.6H70C70 8.93634 70.0008 7.62846 69.9149 6.57778C69.8281 5.51543 69.6478 4.62827 69.237 3.82207L67.455 4.73005ZM65.27 2.54497C66.2108 3.02433 66.9757 3.78924 67.455 4.73005L69.237 3.82207C68.5659 2.50493 67.4951 1.43407 66.1779 0.762955L65.27 2.54497ZM59.4 2C61.0967 2 62.309 2.00078 63.2594 2.07842C64.198 2.15512 64.7927 2.30179 65.27 2.54497L66.1779 0.762954C65.3717 0.352173 64.4846 0.171864 63.4222 0.0850662C62.3715 -0.000777721 61.0637 0 59.4 0V2ZM11.6 2H59.4V0H11.6V2ZM5.73005 2.54497C6.20731 2.30179 6.80197 2.15512 7.74064 2.07842C8.69099 2.00078 9.90334 2 11.6 2V0C9.93634 0 8.62846 -0.000777721 7.57778 0.0850662C6.51543 0.171864 5.62827 0.352173 4.82207 0.762954L5.73005 2.54497ZM3.54497 4.73005C4.02433 3.78924 4.78924 3.02433 5.73005 2.54497L4.82207 0.762954C3.50493 1.43407 2.43407 2.50493 1.76295 3.82207L3.54497 4.73005ZM42.1213 40.2929C42.3089 40.1054 42.5632 40 42.8284 40V38C42.0328 38 41.2697 38.3161 40.7071 38.8787L42.1213 40.2929ZM33.8787 44.2929C35.0503 45.4645 36.9497 45.4645 38.1213 44.2929L36.7071 42.8787C36.3166 43.2692 35.6834 43.2692 35.2929 42.8787L33.8787 44.2929ZM29.1716 40C29.4368 40 29.6911 40.1054 29.8787 40.2929L31.2929 38.8787C30.7303 38.3161 29.9672 38 29.1716 38V40Z" fill="#E5E5E7" mask="url(#path-1-inside-1_2758_4633)"/>
</g>
<defs>
<filter id="filter0_d_2758_4633" x="0" y="0" width="71" height="47.1716" filterUnits="userSpaceOnUse" color-interpolation-filters="sRGB">
<feFlood flood-opacity="0" result="BackgroundImageFix"/>
<feColorMatrix in="SourceAlpha" type="matrix" values="0 0 0 0 0 0 0 0 0 0 0 0 0 0 0 0 0 0 127 0" result="hardAlpha"/>
<feOffset dy="1"/>
<feGaussianBlur stdDeviation="1"/>
<feComposite in2="hardAlpha" operator="out"/>
<feColorMatrix type="matrix" values="0 0 0 0 0.0627451 0 0 0 0 0.0941176 0 0 0 0 0.156863 0 0 0 0.04 0"/>
<feBlend mode="normal" in2="BackgroundImageFix" result="effect1_dropShadow_2758_4633"/>
<feBlend mode="normal" in="SourceGraphic" in2="effect1_dropShadow_2758_4633" result="shape"/>
</filter>
</defs>
</svg>
