<svg width="502" height="373" viewBox="0 0 502 373" fill="none" xmlns="http://www.w3.org/2000/svg">
<g clip-path="url(#clip0_7160_1040)">
<path d="M500.623 225.906C500.827 226.835 501.382 229.555 500.305 232.297C499.229 235.05 497.699 234.744 496.464 237.735C495.422 240.285 495.739 242.381 495.025 242.483C494.572 242.551 494.289 241.712 493.19 240.251C492.261 239.004 490.187 236.228 488.635 236.568C487.377 236.84 487.151 238.97 486.233 238.891C485.531 238.823 485.531 237.577 484.477 237.203C483.831 236.987 483.559 237.361 482.075 237.611C480.353 237.894 480.115 237.497 479.197 237.849C477.713 238.404 477.033 239.899 476.953 240.092C476.342 241.486 476.953 242.335 477.271 244.805C477.724 248.25 477.135 251.083 476.795 252.725C476.466 254.3 476.296 255.082 475.832 256.079C474.415 259.104 471.923 260.691 469.997 261.926C468.694 262.753 467.527 263.501 465.759 263.92C463.561 264.441 463.323 263.784 461.521 264.316C460.286 264.69 460.298 265.03 456.241 267.523C454.474 268.599 454.1 268.769 453.522 268.803C451.868 268.883 451.086 267.704 449.84 268.078C449.047 268.327 448.639 269.03 448.084 270.004C446.758 272.293 447.415 273.709 446.157 274.718C445.364 275.364 444.356 275.375 444.005 275.352C442.044 275.273 441.263 273.415 440.322 273.755C439.767 273.959 439.903 274.65 439.042 276.803C438.475 278.208 438.203 278.91 437.603 279.601C436.821 280.485 436.402 280.36 434.408 281.675C432.833 282.706 432.04 283.25 431.734 284.077C431.28 285.334 431.904 286.615 432.278 287.385C433.071 289.017 434.725 290.784 436.753 291.759C437.274 292.008 437.988 292.28 438.566 293.028C438.906 293.492 439.132 294.025 439.314 295.011C439.722 297.231 439.212 297.741 439.529 298.738C439.948 300.132 441.217 300.007 444.106 301.99C446.452 303.599 447.8 305.174 448.639 306.42C449.556 307.769 450.225 308.788 449.976 309.933C449.738 311.02 448.775 311.757 447.2 312.969C445.636 314.182 444.854 314.374 444.639 315.269C444.526 315.757 444.718 316.334 445.126 317.456C445.885 319.609 446.395 319.79 446.282 320.47C445.999 322.079 442.804 322.634 442.928 323.11C442.974 323.303 443.529 323.28 444.605 323.303C445.613 323.325 446.916 323.427 449.522 323.62C450.973 323.733 451.698 323.79 451.959 323.903C452.967 324.345 453.126 324.934 454.916 327.189C456.479 329.149 456.751 329.183 456.955 329.942C457.476 331.834 456.389 333.557 456.321 333.659C455.426 335.03 454.519 334.724 453.488 336.004C452.434 337.341 452.378 338.95 452.321 340.536C452.219 343.369 453.137 344.083 452.48 346.031C452.276 346.655 451.879 347.765 450.769 348.377C449.285 349.204 447.676 348.479 447.574 348.433C446.792 348.06 446.373 347.493 446.033 347.051C444.277 344.774 442.758 342.791 440.696 341.771C439.608 341.227 438.974 341.25 437.444 340.332C436.413 339.709 435.858 339.358 435.631 338.678C435.257 337.534 436.005 336.004 437.014 335.211C437.829 334.576 438.577 334.588 438.725 333.987C438.883 333.364 438.26 332.718 438.135 332.594C437.127 331.551 436.039 332.22 435.042 331.37C434.022 330.497 434.714 329.387 433.683 328.549C433.161 328.118 432.289 328.061 430.567 327.982C429.218 327.925 428.55 327.891 427.927 327.982C425.774 328.311 425.423 329.704 422.488 331.585C420.539 332.831 419.134 333.727 417.605 333.341C415.814 332.888 414.761 330.905 414.489 330.384C413.412 328.356 413.798 326.69 412.891 326.384C412.597 326.282 412.404 326.418 410.886 327.189C408.336 328.481 407.951 328.583 407.532 328.469C406.512 328.175 406.648 326.962 405.776 326.781C404.699 326.566 404.189 328.311 402.173 328.787C401.912 328.843 400.496 329.183 399.85 328.469C399.238 327.767 399.68 326.441 399.85 325.909C400.405 324.243 401.459 323.722 401.21 323.031C401.028 322.509 400.246 322.215 399.612 322.226C398.32 322.26 398.003 323.586 395.93 325.421C394.094 327.064 392.95 327.234 392.972 328.061C392.995 328.9 394.196 329.07 395.374 330.305C396.938 331.925 397.878 334.792 396.972 336.061C396.428 336.831 395.329 336.82 389.301 336.219C383.104 335.607 382.537 335.449 380.973 335.585C377.098 335.925 377.778 337.16 373.144 337.987C370.153 338.508 364.714 339.482 361.145 338.145C360.805 338.009 359.944 337.67 359.06 337.987C358.165 338.304 357.667 339.154 356.874 340.967C355.163 344.898 355.514 345.42 354.642 346.088C354.041 346.541 353.712 346.417 349.622 346.723C345.94 347.006 345.645 347.142 345.362 347.368C343.447 348.909 344.784 352.41 343.232 353.124C342.155 353.611 341.136 352.127 339.606 352.694C339.04 352.909 338.949 353.192 337.68 354.722C335.221 357.713 334.473 357.974 333.952 358.03C332.921 358.144 332.094 357.543 332.026 357.498C330.315 356.206 331.358 353.532 330.326 353.022C329.103 352.41 327.267 355.968 322.429 357.815C321.806 358.053 320.492 358.506 318.803 358.461C318.395 358.438 315.28 358.348 314.758 356.852C314.498 356.127 315.144 355.821 315.178 354.62C315.246 352.841 313.92 350.881 312.413 350.564C311.677 350.405 311.552 350.779 310.272 350.813C310.034 350.824 307.462 350.915 306.974 349.929C306.249 348.479 310.408 345.59 309.852 344.694C309.433 344.026 306.997 345.68 303.235 345.556C300.233 345.454 297.865 344.264 297.264 343.958C294.092 342.281 293.899 340.525 291.724 340.378C290.239 340.276 288.88 340.989 287.327 341.817C285.084 343.006 284.506 344.049 283.407 343.822C282.58 343.652 282.501 342.984 281.005 341.341C280.189 340.446 278.161 338.213 277.323 338.621C277.119 338.723 276.892 339.041 277.243 342.78C277.504 345.59 277.651 347.017 278.161 348.014C278.977 349.623 279.623 349.419 280.359 351.017C280.518 351.345 281.47 353.498 280.846 355.572C280.337 357.249 279.102 357.894 277.005 359.492C274.06 361.758 271.907 364.024 269.131 366.936C267.091 369.077 266.128 370.346 263.964 371.253C262.661 371.808 260.52 372.386 259.931 371.616C259.523 371.072 260.191 370.324 261.211 367.333C261.789 365.633 261.585 365.871 262.287 363.684C263.33 360.444 263.93 359.492 263.511 359.095C263.239 358.835 262.706 358.993 260.259 360.002C256.486 361.565 255.568 362.098 254.617 361.656C253.744 361.259 253.268 360.262 253.008 359.741C252.668 359.016 252.35 358.359 252.532 357.656C252.906 356.274 254.854 356.342 255.194 354.937C255.308 354.473 255.172 354.031 254.877 353.124C254.594 352.229 254.345 352.037 253.71 350.722C252.894 349.079 253.076 348.955 252.747 348.751C251.682 348.094 250.379 349.702 248.849 349.068C248.136 348.773 247.739 348.139 247.467 347.686C246.595 346.247 247.15 345.25 246.402 344.49C246.062 344.139 245.666 344.049 243.943 343.958C239.751 343.72 239.32 344.094 238.618 343.527C237.848 342.904 238.085 342.213 236.59 340.434C236.159 339.924 235.955 339.675 235.74 339.584C233.961 338.791 230.211 343.652 229.338 344.808C227.526 345.25 224.852 345.635 221.894 344.864C218.382 343.935 218.291 342.372 212.059 338.701C206.746 335.573 206.213 336.367 203.108 333.987C202.395 333.432 201.103 332.378 199.109 331.902C197.704 331.562 197.353 331.846 195.064 331.744C193.398 331.664 191.268 331.574 188.866 330.747C187.597 330.305 186.849 329.863 184.345 329.024C182.804 328.503 182.521 328.481 182.26 328.492C180.334 328.537 179.949 330.135 177.83 330.735C177.581 330.803 175.383 331.393 173.729 330.248C172.108 329.138 171.474 326.679 171.383 326.305C171.111 325.24 171.157 324.549 170.635 324.277C169.91 323.903 168.789 324.719 168.505 324.923C167.134 325.897 167.191 326.985 166.205 327.268C165.593 327.438 165.435 327.064 164.177 326.781C161.956 326.283 160.585 327.053 160.234 326.464C159.951 325.988 160.608 325.115 160.88 324.753C162.24 322.94 164.188 322.929 164.29 321.875C164.313 321.603 164.098 321.229 163.645 320.493C163.305 319.915 162.976 319.382 162.478 318.997C161.639 318.363 160.642 318.408 159.486 318.465C157.39 318.578 157.073 319.246 156.291 318.895C154.999 318.317 155.419 316.289 154.263 315.904C153.447 315.632 152.473 316.402 151.487 317.184C149.855 318.487 150.093 319.156 148.938 319.858C147.159 320.923 145.912 319.802 144.881 320.81C143.737 321.932 144.881 323.722 143.703 324.866C142.536 325.999 140.497 325.127 140.293 325.716C140.055 326.418 142.831 328.027 144.768 328.922C146.615 329.75 147.533 330.169 148.824 330.192C151.612 330.248 152.597 328.481 153.946 329.126C155.249 329.761 155.611 332.072 155.226 333.715C154.943 334.871 154.048 336.718 152.767 336.808C151.226 336.922 150.819 334.395 148.824 334.146C147.748 334.01 147.442 334.69 144.564 336.276C142.219 337.556 140.95 338.259 139.228 338.406C137.188 338.587 135.568 337.908 134.752 337.556C131.568 336.185 131.5 334.35 129.098 333.931C126.741 333.511 124.713 334.928 124.623 334.996C122.923 336.208 123.286 337.466 121.529 338.621C120.657 339.188 119.637 339.358 117.575 339.686C115.411 340.038 115.207 339.822 112.465 340.117C109.145 340.468 108.805 340.853 107.774 340.434C107.106 340.162 107.253 340.015 104.681 337.772C103.038 336.344 102.54 336.027 101.848 335.845C101.486 335.755 100.308 335.505 99.0838 336.004C97.5769 336.627 97.7242 337.67 96.0926 338.723C94.631 339.675 93.1467 339.732 92.5235 339.743C91.4811 339.766 89.249 339.584 88.9431 338.565C88.8525 338.259 88.9771 337.975 89.5889 336.967C91.1185 334.429 91.8437 333.715 91.6171 333.341C91.2885 332.82 89.385 333.432 89.1584 333.5C87.4928 334.044 87.1189 334.837 86.3938 334.678C85.646 334.508 85.6799 333.625 84.6829 331.959C83.4592 329.908 82.6887 330.044 81.6916 328.118C81.0911 326.928 80.6379 326.045 80.8419 324.968C81.1251 323.541 82.2808 323.427 83.1306 321.399C83.4705 320.606 83.8218 319.768 83.6178 318.782C83.3572 317.513 82.4734 317.479 81.8049 315.859C81.5897 315.337 80.9665 313.83 81.6463 312.811C82.0202 312.255 82.6887 311.984 83.1306 311.802C84.139 311.394 84.7395 311.564 84.9435 311.156C85.1021 310.862 84.8981 310.477 84.5242 309.797C83.7538 308.414 83.1306 308.222 83.1306 307.508C83.1419 306.828 83.7085 306.296 83.7991 306.205C84.3883 305.65 84.8755 305.865 85.2947 305.378C85.5666 305.061 85.578 304.732 85.646 303.724C85.7366 302.194 85.7819 301.435 85.8046 301.378C86.2351 299.917 87.9347 300.211 89.4983 298.432C89.7929 298.092 90.8579 296.891 90.8919 295.35C90.9373 293.787 89.8835 293.141 88.5692 290.954C87.6741 289.447 86.4391 287.396 86.4164 285.04C86.3938 282.842 87.4248 281.187 88.9771 278.717C90.518 276.247 90.9599 276.497 92.7388 273.755C94.2457 271.432 95.1748 269.993 95.7187 267.818C96.3419 265.302 95.8207 264.384 96.8971 263.013C97.9848 261.62 99.3104 261.574 99.5597 260.351C99.741 259.433 99.0612 259.172 98.5966 257.575C98.506 257.269 97.7922 254.674 98.9139 252.351C99.6617 250.811 100.387 251.094 100.942 249.576C101.531 247.967 100.806 247.389 101.588 245.95C102.109 244.987 103.095 244.012 103.287 243.82C103.979 243.14 104.171 243.117 104.352 242.755C104.862 241.724 103.956 240.568 103.503 239.344C102.494 236.614 103.775 233.758 104.149 232.942C105.406 230.133 107.91 228.592 109.157 227.821C110.233 227.153 111.366 226.654 113.315 225.26C114.935 224.105 115.366 223.584 115.558 222.915C115.943 221.533 114.969 220.581 115.558 219.822C116 219.233 116.691 219.663 118.006 219.187C119.524 218.632 119.297 217.805 121.099 216.729C122.572 215.856 123.229 216.117 124.192 215.131C124.793 214.519 125.064 213.885 125.257 213.432C126.605 210.18 127.138 207.982 128.135 205.534C129.007 203.393 129.449 202.328 130.48 201.161C131.863 199.608 133.324 198.963 133.154 198.498C132.984 198.045 131.557 198.487 129.733 198.396C127.013 198.237 124.997 196.957 121.745 194.872C118.402 192.742 118.595 192.153 116.997 191.836C114.969 191.417 114.108 192.244 111.185 191.62C110.086 191.383 109.157 191.19 108.148 190.499C106.641 189.479 106.641 188.493 105.587 188.21C104.398 187.881 103.865 188.969 101.746 189.694C101.033 189.944 97.9055 191.02 95.7754 189.649C94.3591 188.731 94.3137 187.338 92.5688 186.816C91.7644 186.578 90.9939 186.646 90.8919 186.658C89.249 186.828 88.5805 187.87 87.9347 187.542C87.4928 187.315 87.7421 186.771 87.2096 185.615C86.677 184.437 86.2011 184.562 85.612 183.383C85.408 182.964 85.2381 182.216 84.8981 180.743C84.4563 178.828 84.5242 178.772 84.3316 178.5C83.5158 177.344 81.3744 177.186 79.7768 177.627C77.5447 178.228 77.658 179.656 75.3806 180.902C72.4913 182.477 69.2848 181.842 67.7779 181.536C65.5345 181.094 63.7216 180.732 62.4979 179.225C61.9087 178.489 61.4668 177.503 60.7417 177.514C60.4244 177.525 60.1752 177.718 59.3594 178.715C57.7844 180.63 57.4672 181.412 56.7987 181.434C56.1415 181.468 55.643 180.755 55.575 180.664C55.2804 180.256 55.0425 179.599 55.575 176.664C55.9149 174.727 56.1302 174.432 55.8583 174.024C55.2804 173.152 53.8754 173.945 52.5045 172.903C51.5867 172.211 51.7906 171.532 50.8276 170.988C50.1251 170.591 49.7398 170.772 48.4255 170.659C45.8082 170.444 45.3776 169.526 44.1086 169.945C43.0549 170.285 42.1258 171.305 42.2618 172.019C42.4091 172.755 43.5874 172.642 44.1879 173.707C44.5958 174.444 44.6412 175.565 44.1086 176.188C43.8933 176.426 43.4741 176.732 40.109 176.426C38.1148 176.234 37.1064 176.143 36.5852 175.701C35.2142 174.557 35.1463 172.257 35.1463 172.109C35.1349 171.022 35.4635 170.353 34.9876 169.628C34.6591 169.118 34.2058 168.971 33.7866 168.744C32.9708 168.302 32.461 167.657 30.988 164.824C29.1185 161.221 29.549 161.482 28.7446 160.269C27.113 157.765 25.7533 157.312 25.946 156.19C26.1952 154.74 28.6199 154.513 28.5859 153.471C28.5633 152.542 26.6484 152.576 24.7563 150.91C22.8188 149.211 23.4986 148.021 21.3345 145.982C20.6547 145.324 19.4083 144.157 17.5501 143.795C15.386 143.376 14.5476 144.475 13.6638 143.84C12.4174 142.968 14.0037 140.758 13.7091 135.637C13.5845 133.303 13.1426 131.796 14.1397 130.776C14.8195 130.096 15.6126 130.187 16.3831 129.179C16.9156 128.476 17.0402 127.74 17.1762 126.833C17.5728 124.261 16.7003 123.468 17.3348 122.618C17.9467 121.814 18.8644 122.392 21.1305 121.553C22.4335 121.077 23.7139 120.601 24.0538 119.582C24.5636 118.109 22.6148 117.021 23.102 115.48C23.5326 114.098 25.3794 114.03 25.3908 113.021C25.4021 112.376 24.6316 111.945 23.204 111.005C20.1901 108.999 20.8813 109.112 19.1024 108.07C17.0856 106.88 16.8023 107.084 12.7573 105.294C8.28183 103.323 7.69265 102.654 7.42072 101.884C7.13746 101.068 7.09214 99.8441 7.04681 98.2578C7.00149 96.7849 7.1148 96.4109 6.78621 95.9691C6.02708 94.9493 4.59944 95.7085 3.42108 94.7341C2.75258 94.1789 2.5713 93.2384 2.25405 91.3803C1.76684 88.5816 2.29937 88.457 1.82349 86.6328C1.24564 84.4007 0.21457 83.6869 0.679117 82.5312C0.996369 81.7267 1.55156 81.8854 2.11808 80.9223C2.70726 79.9252 2.61662 78.8601 2.43533 77.0926C2.17473 74.4979 1.58555 73.6028 2.11808 73.093C2.75258 72.4698 3.97627 73.3875 4.83738 72.6851C5.34725 72.2658 5.34725 71.5747 5.39257 70.2943C5.52854 67.1671 5.59652 65.6149 6.03841 65.173C7.3754 63.8473 10.4686 66.1587 11.7943 64.7764C12.4628 64.0739 11.8622 63.2921 12.8367 61.094C13.5165 59.5531 14.1057 59.2698 14.2983 59.1905C15.0008 58.9073 15.4993 59.2585 16.6777 59.4964C17.6974 59.7004 19.6916 60.1083 20.6773 59.3378C22.1276 58.1935 20.6886 55.0209 21.7877 54.4544C22.5808 54.0465 23.3853 55.6554 25.3908 55.8141C26.6371 55.9047 26.8637 55.3269 29.549 54.5337C31.7698 53.8766 32.8802 53.548 33.7073 54.0578C35.0896 54.8963 34.3871 57.0038 35.6335 57.5703C36.7212 58.0801 37.537 56.5619 39.7917 56.6185C41.3327 56.6525 41.5933 57.3777 42.8283 57.253C44.2106 57.1171 45.7969 55.9954 46.3407 54.5337C47.4398 51.6445 43.7574 49.3784 44.6638 45.2541C44.7658 44.7782 45.0604 43.4979 45.8648 43.26C46.6693 43.022 47.2018 44.0418 49.5472 45.0162C50.6689 45.4807 51.3488 45.5827 52.0286 45.4127C52.2099 45.3674 52.7764 45.2315 53.2183 44.7782C54.2947 43.7018 53.9208 41.6964 53.7055 40.5407C53.3089 38.4332 52.5951 37.8214 52.9803 37.2548C53.4902 36.5297 54.8272 37.3681 56.9007 36.9376C59.0535 36.4844 58.9968 35.2947 61.3762 34.3769C63.6649 33.5045 64.1181 34.4449 66.9054 33.6631C69.5341 32.9153 69.2168 32.0428 71.6189 31.4197C73.0805 31.0458 72.8766 31.4423 78.1792 31.1817C78.5191 31.1591 80.0487 31.0798 82.0202 30.7059C83.5385 30.4113 84.309 30.2526 84.5809 29.9014C85.8612 28.2245 81.8389 24.2249 82.972 22.7066C83.5725 21.9135 84.8302 22.7632 87.6174 22.548C88.9771 22.4347 89.1357 22.1967 95.7754 19.6587C98.37 18.673 99.673 18.1744 100.092 18.0611C102.755 17.3473 103.922 17.5173 104.409 16.6221C105.134 15.2965 103.129 13.7669 103.933 12.3053C104.205 11.8067 104.488 11.886 106.97 10.3904C108.046 9.74459 108.579 9.416 108.726 9.26871C109.508 8.49824 109.678 7.69378 110.494 4.14736C110.89 2.39114 111.105 1.49604 111.604 1.11081C112.612 0.329007 114.425 0.40832 115.128 1.26943C115.66 1.91527 115.184 2.5611 115.286 4.62324C115.332 5.62031 115.388 6.844 115.932 7.98837C116.691 9.61995 118.13 10.4357 119.445 11.1835C122.107 12.7018 123.218 12.1693 124.09 13.427C124.906 14.6167 124.079 15.3418 124.566 17.5852C125.2 20.5085 127.308 22.4007 128.09 23.0238C130.163 24.7007 132.996 25.5165 133.041 25.4259C133.381 24.4968 133.732 23.1598 133.528 21.5849C133.404 20.6444 133.188 20.3272 133.392 20.0213C134.118 18.9675 139.012 19.6474 141.04 22.548C142.955 25.2786 140.576 27.4314 142.479 30.5359C144.043 33.0852 147.295 34.2749 149.357 35.0227C151.283 35.7139 152.427 35.7592 154.478 36.9376C155.124 37.3115 155.657 37.6741 157.673 39.3396C161.764 42.7048 164.075 44.7782 164.075 44.7782C167.338 47.7015 167.724 48.2453 168.551 48.132C170.182 47.9281 170.273 45.594 172.709 42.0589C175.36 38.2179 178.635 36.0538 179.745 35.34C183.597 32.8586 184.549 33.8557 186.951 31.6576C190.214 28.6777 189.229 26.1284 191.903 24.7801C194.69 23.3751 196.118 25.9697 200.23 24.7801C203.448 23.8623 203.607 21.9701 207.108 21.4262C209.34 21.075 209.805 21.7548 211.844 21.1543C214.008 20.5198 214.53 19.4434 216.75 18.1744C218.201 17.3473 219.73 16.9734 222.721 16.2482C233.519 13.6649 233.383 13.7442 234.029 13.4836C236.341 12.5205 236.986 11.8407 239.117 10.4811C240.046 9.89188 239.989 9.95986 242.776 8.36227C247.467 5.66563 247.954 5.15577 249.019 5.35971C250.22 5.58632 250.005 6.30014 252.135 7.42185C254.401 8.61154 256.373 8.73618 256.373 9.26871C256.373 9.66527 255.512 9.71059 254.447 10.8663C254.061 11.2969 254.141 11.3308 253.653 11.9087C252.656 13.0757 251.965 13.3363 252.056 13.6649C252.169 14.1408 253.574 13.7895 253.891 14.3901C254.265 15.1039 253.03 17.1547 251.331 17.5059C249.337 17.9251 248.034 15.727 246.538 16.3842C245.462 16.8601 245.201 18.3897 245.178 18.5483C244.895 20.3499 246.402 20.9164 247.093 23.8283C247.376 25.018 247.694 26.321 247.048 27.4994C246.504 28.5191 245.79 28.4511 245.258 29.5841C245.167 29.7541 244.442 31.363 245.292 32.7793C245.7 33.4592 246.549 34.2409 247.569 34.2749C249.189 34.3316 249.541 32.4847 252.26 31.2837C252.758 31.0684 254.798 30.1733 255.682 30.9665C255.976 31.2384 255.92 31.499 256.214 32.8586C256.679 35.0454 256.951 35.0001 256.849 35.5553C256.577 37.1755 254.322 37.1642 254.073 38.6485C253.891 39.7475 255.092 40.0421 255.466 41.8437C255.863 43.8038 254.832 45.2994 255.251 45.526C255.648 45.73 256.701 44.5176 256.905 44.3024C257.789 43.3279 257.823 42.5575 258.503 42.3762C259.115 42.2176 259.919 42.6141 260.214 43.1806C260.542 43.8038 260.078 44.3364 260.418 44.7216C260.769 45.1068 261.675 45.0955 262.185 44.6763C262.786 44.1664 262.401 43.4299 263.035 42.8634C263.42 42.5122 264.055 42.3422 264.531 42.5348C264.939 42.7048 265.131 43.1013 265.652 44.5403C266.298 46.3532 266.208 46.3078 266.366 46.6138C266.955 47.7808 267.93 47.8828 269.969 49.0158C272.088 50.1942 273.153 50.7947 273.89 51.9731C274.909 53.6386 274.989 55.8934 275.011 56.3693C275.057 57.8082 274.785 58.7033 275.408 59.2585C275.872 59.6664 276.654 59.7231 277.243 59.4964C278.32 59.0772 278.24 57.9102 279 57.7289C279.861 57.5363 281.22 58.7373 281.56 60.131C281.991 61.8305 280.756 63.1448 281.322 63.6547C281.617 63.9153 282.319 63.7454 283.724 63.4168C284.755 63.1675 284.846 63.0315 285.243 63.0882C285.798 63.1788 286.217 63.5187 287.158 64.6971C288.234 66.0228 288.778 66.6913 288.925 67.0878C289.594 68.9573 288.245 69.8185 288.766 72.4471C288.914 73.2063 289.118 74.26 289.877 74.6112C290.761 75.0078 291.656 74.1354 292.279 74.6112C292.811 75.0078 292.324 75.7556 292.845 76.662C293.344 77.5571 294.624 78.2596 295.825 77.9424C296.437 77.7838 297.287 77.2965 297.48 76.5034C297.774 75.2684 296.267 74.3053 296.63 73.7275C296.686 73.6368 296.924 73.3422 299.394 73.7275C301.445 74.056 301.706 74.3166 302.816 74.3166C303.145 74.3166 305.535 74.3166 305.909 73.2516C306.136 72.5944 305.49 71.8126 305.048 71.2801C304.278 70.351 303.394 69.7618 301.162 68.6628C298.397 67.3144 297.729 67.2125 297.264 66.3174C296.845 65.4902 296.811 64.4252 297.219 63.5981C297.446 63.1109 297.876 62.6236 299.394 61.8872C302.034 60.6182 302.748 61.094 305.32 59.9723C306.759 59.3492 307.122 58.9413 308.039 59.0092C309.139 59.1112 309.988 59.8137 310.759 60.4482C312.039 61.5246 311.994 62.0458 313.161 62.7483C313.501 62.9522 314.849 63.7567 315.506 63.2808C315.971 62.9409 315.631 62.2724 316.197 61.5699C316.651 61.0261 317.5 60.6635 317.954 60.9354C318.486 61.2413 318.033 62.1364 318.645 62.7936C319.132 63.3148 320.084 63.4961 320.73 63.1675C321.613 62.7256 321.319 61.5926 322.225 61.1507C322.826 60.8448 323.653 61.0147 324.14 61.4113C324.525 61.7285 324.661 62.1591 324.831 64.1872C325.012 66.272 325.092 67.3144 325.103 68.2322C325.103 69.8298 325.001 70.351 325.364 70.5889C325.896 70.9288 326.553 70.1017 328.038 69.9431C329.545 69.7845 329.93 70.5323 330.587 70.2603C332.502 69.5012 331.629 62.4424 330.995 59.1339C330.689 57.5703 330.508 55.9954 330.111 54.4544C329.579 52.381 329.035 51.0893 329.556 50.6587C330.066 50.2282 330.893 51.2139 332.389 50.976C333.216 50.84 333.794 50.3641 334.949 49.4124C336.468 48.166 337.431 46.9084 337.589 46.6931C338.711 45.2088 339.198 44.0304 339.549 44.1324C339.867 44.2344 339.515 45.1975 340.15 45.8999C340.614 46.4098 341.09 46.2059 341.747 46.6931C342.269 47.0896 342.79 47.8488 342.79 48.6193C342.79 49.9222 341.328 50.2282 341.068 51.8597C340.932 52.6982 341.204 53.4007 341.306 53.65C341.77 54.783 342.586 55.0776 344.784 56.6185C346.891 58.0801 346.608 58.1255 347.605 58.6353C349.226 59.4738 350.71 59.7231 351.548 59.8137C352.205 59.8817 353.848 60.029 355.763 59.4398C357.225 58.9866 357.146 58.6127 359.117 57.9442C360.726 57.4003 360.828 57.6269 362.052 57.0944C363.581 56.4259 363.876 55.8707 364.714 55.9727C365.519 56.0747 365.519 56.6185 366.742 57.1964C367.128 57.389 368.272 57.9329 369.62 57.7289C370.889 57.559 371.852 56.7998 372.238 56.5052C373.121 55.8254 373.303 55.3155 373.722 55.3835C374.277 55.4742 374.175 56.3806 375.172 57.355C375.682 57.8649 375.852 57.7742 376.555 58.4314C376.917 58.7713 377.382 59.2019 377.676 59.7571C378.379 61.1054 377.416 61.9325 377.993 63.2242C378.277 63.8587 378.798 64.2099 379.863 64.9351C380.792 65.5696 381.619 65.9095 382.786 66.374C384.486 67.0538 384.497 66.8726 385.03 67.2238C386.117 67.9489 387.273 69.4899 386.956 70.7476C386.525 72.3678 383.885 72.3905 383.863 73.4102C383.829 74.3733 386.14 74.5432 388.769 76.7187C389.913 77.6704 391.964 79.3587 391.749 81.1942C391.579 82.6332 390.162 82.9957 390.253 84.5027C390.321 85.4884 391.001 86.5422 391.749 86.6328C392.564 86.7348 393.006 85.6244 393.618 85.8057C394.241 85.9983 394.445 87.4033 394.411 88.287C394.377 89.4427 393.935 89.8393 394.173 90.6891C394.332 91.233 394.672 91.6182 395.057 91.9694C396.745 93.499 398.422 93.5557 400.496 94.768C402.909 96.173 402.784 97.3514 404.892 97.8839C405.504 98.0425 406.229 98.0992 407.691 98.2012C409.877 98.3711 411.101 98.2691 411.418 98.9263C411.543 99.1982 411.464 99.4588 411.373 99.7988C410.908 101.385 409.401 101.532 409.288 102.439C409.209 103.209 410.183 103.912 412.007 105.237C413.866 106.586 414.738 106.858 414.727 107.481C414.727 108.161 413.684 108.115 412.653 109.396C411.566 110.755 412.007 111.673 410.976 112.364C410.149 112.908 409.447 112.613 409.05 113.237C408.801 113.633 408.937 113.996 409.05 114.914C409.073 115.083 409.265 116.726 409.05 118.279C408.892 119.423 408.79 120.194 408.257 120.919C407.158 122.392 405.526 121.95 405.209 122.913C404.858 124.012 406.535 125.779 408.166 126.437C409.288 126.878 410.568 126.912 410.568 126.912C411.826 126.946 412.381 126.629 412.891 126.992C413.073 127.128 413.378 127.445 413.446 129.077C413.56 131.694 412.857 132.714 413.526 133.631C413.922 134.164 414.228 133.915 414.965 134.515C415.509 134.957 416.098 135.694 416.732 138.435C417.446 141.585 416.959 141.88 417.605 142.673C418.749 144.067 420.46 143.353 421.287 144.747C421.718 145.483 421.627 146.276 421.446 147.715C421.185 149.823 420.471 150.502 420.891 151.545C421.094 152.077 421.536 152.383 422.409 152.984C424.233 154.253 425.162 154.173 426.726 155.148C428.187 156.066 429.037 157.165 429.207 157.391C430.725 159.419 430.045 160.507 431.53 162.025C431.734 162.241 432.821 163.328 434.566 163.623C435.212 163.736 436.368 163.929 437.286 163.306C438.271 162.637 438.056 161.663 438.883 161.312C439.495 161.04 440.107 161.357 441.602 162.105C445.636 164.11 445.636 163.986 445.919 164.348C447.109 165.878 446.01 166.943 447.279 169.22C447.46 169.549 447.528 169.605 449.681 171.94C452.457 174.965 452.514 175.044 452.876 175.305C455.063 176.88 456.128 176.245 457.035 177.548C458.111 179.066 456.944 180.369 457.918 181.944C458.723 183.225 459.98 183.134 462.722 184.097C464.626 184.777 467.821 185.91 470.155 188.425C471.538 189.91 472.172 191.405 473.328 194.124C474.937 197.909 474.381 198.441 475.458 199.994C476.444 201.41 477.69 202.078 484.205 204.254C491.377 206.656 491.978 206.531 494.232 207.778C496.986 209.285 500.702 211.347 500.951 214.383C501.155 216.955 498.685 217.862 498.923 221.102C499.07 223.13 500.056 223.153 500.623 225.906Z" fill="#313131" stroke="#181818" stroke-width="2.31881" stroke-miterlimit="10"/>
<path d="M164.257 91.6406C166.334 91.6406 168.019 89.9564 168.019 87.8789C168.019 85.8014 166.334 84.1172 164.257 84.1172C162.179 84.1172 160.495 85.8014 160.495 87.8789C160.495 89.9564 162.179 91.6406 164.257 91.6406Z" fill="#181818"/>
<path d="M150.388 151.646C152.466 151.646 154.15 149.962 154.15 147.884C154.15 145.807 152.466 144.123 150.388 144.123C148.311 144.123 146.626 145.807 146.626 147.884C146.626 149.962 148.311 151.646 150.388 151.646Z" fill="#181818"/>
<path d="M248.249 261.132C250.327 261.132 252.011 259.448 252.011 257.37C252.011 255.293 250.327 253.608 248.249 253.608C246.171 253.608 244.487 255.293 244.487 257.37C244.487 259.448 246.171 261.132 248.249 261.132Z" fill="#181818"/>
<path d="M133.041 25.4136C132.384 27.8043 132.644 29.4812 133.041 30.6142C133.404 31.6453 135.216 36.0415 135.205 37.0159C135.194 37.945 134.82 37.7184 134.083 40.2904C133.744 41.4801 133.664 42.0013 133.154 42.3752C132.191 43.0664 130.741 42.5338 130.594 42.4772C129.789 42.1713 129.857 41.8427 128.996 41.4121C128.645 41.2422 127.127 40.5397 125.96 41.1402C125.314 41.4801 125.495 41.8427 124.577 42.7944C123.455 43.9501 122.821 43.8028 122.549 44.5507C122.164 45.627 123.116 46.9187 123.297 47.168C123.92 48.0178 124.317 47.8705 124.792 48.6636C125.223 49.3887 125.506 50.5331 125.008 51.2809C124.691 51.7455 124.385 51.5755 123.671 52.1307C122.98 52.6746 122.209 53.6943 122.39 54.6347C122.436 54.8613 122.549 55.1219 122.98 55.5978C124.555 57.3087 126.084 57.0594 126.707 58.3171C127.036 58.9743 126.605 59.0083 126.923 60.13C127.251 61.297 127.795 61.4896 128.679 63.1212C129.098 63.8917 129.393 64.4129 129.585 65.206C129.835 66.1918 129.767 66.9282 129.642 68.3559C129.506 69.8968 129.438 70.6673 129.053 70.8599C128.271 71.2565 127.33 69.5795 125.801 69.7948C124.815 69.9308 124.124 70.7806 123.886 71.0752C122.968 72.1969 123.263 73.1146 122.504 73.4772C122.186 73.6245 122.152 73.4546 120.532 73.3752C119.297 73.3073 118.889 73.3866 118.561 73.6472C118.3 73.8511 118.368 73.9531 118.028 74.4516C117.224 75.63 116.057 76.2872 115.898 76.3665C115.422 76.6157 115.298 76.6044 115.207 76.797C114.992 77.2389 115.513 77.8054 116.431 79.1424C117.779 81.0913 117.847 81.5785 117.813 81.9184C117.768 82.4849 117.45 83.1421 116.907 83.516C115.989 84.1391 115.082 83.516 112.669 83.3573C110.901 83.244 110.018 83.1874 109.553 83.6746C108.409 84.8643 110.392 87.7649 109.236 88.7959C108.601 89.3625 107.582 88.8753 107.4 89.2718C107.174 89.7817 108.76 90.7448 110.199 92.0704C113.734 95.3109 113.609 98.2002 115.875 98.5514C116.453 98.6421 117.224 98.3928 118.753 97.9169C120.317 97.4184 120.963 96.9992 122.436 96.3193C124.928 95.175 126.356 94.5178 128.35 94.2345C130.265 93.9739 131.115 94.2799 132.588 93.5094C133.517 93.0335 133.744 92.6143 134.423 92.6256C135.568 92.6596 135.76 93.872 137.46 94.7897C138.842 95.5262 139.103 94.937 140.259 95.6735C141.018 96.1494 141.596 97.0105 142.74 98.7101C143.442 99.7638 143.805 100.296 143.941 100.625C144.632 102.29 144.156 103.424 144.1 105.588C144.054 107.468 144.36 108.828 144.734 110.55C145.369 113.417 145.686 114.845 146.819 116.227C147.521 117.099 149.096 118.652 150.66 119.989C151.476 120.68 151.872 120.974 151.861 121.428C151.827 122.425 149.833 122.731 147.057 124.464C145.063 125.71 144.077 126.322 143.782 127.183C142.955 129.597 146.717 131.07 147.703 136.066C148.201 138.57 147.657 140.281 148.586 140.701C149.776 141.244 151.045 138.582 153.141 138.865C154.977 139.114 155.124 141.312 158.025 142.31C158.908 142.615 160.268 142.876 160.585 142.389C160.801 142.049 160.393 141.562 159.781 140.395C158.784 138.457 158.195 137.324 158.58 136.474C159.067 135.398 160.971 135.16 161.934 135.194C162.613 135.217 162.591 135.375 163.69 135.511C165.571 135.749 166.092 135.364 166.488 135.749C167.168 136.429 165.729 137.721 166.25 139.352C166.432 139.93 166.715 140.066 170.012 142.706C171.338 143.771 171.315 143.771 171.53 143.907C173.219 145.006 175.383 145.697 175.53 145.743C176.55 146.071 176.992 146.117 177.207 146.547C177.558 147.238 176.935 148.213 176.731 148.541C175.972 149.731 175.315 149.561 174.488 150.535C173.105 152.178 173.468 154.456 173.525 154.852C173.661 155.679 173.808 156.631 174.408 156.846C175.111 157.107 175.802 156.144 178.17 154.127C180.833 151.861 181.025 152.178 181.694 151.17C182.85 149.414 182.419 148.247 183.779 147.25C184.005 147.091 184.934 146.445 186.101 146.524C187.11 146.604 187.155 147.148 188.503 147.567C188.968 147.714 190.464 148.156 191.948 147.488C192.299 147.329 192.673 147.159 192.99 146.762C193.908 145.607 193.5 143.431 192.356 142.604C191.54 142.026 190.973 142.559 190.271 142.049C188.9 141.041 189.002 137.415 190.747 135.976C191.71 135.171 192.469 135.636 192.99 134.854C193.772 133.676 192.254 132.316 192.911 129.891C193.024 129.483 193.217 128.781 193.795 128.135C194.588 127.229 195.245 127.387 195.472 126.855C195.993 125.676 193.07 124.294 193.149 122.221C193.217 120.6 195.007 120.442 195.143 118.946C195.336 116.839 191.846 116.193 189.784 112.624C188.639 110.641 188.526 108.783 188.345 105.588C188.175 102.71 188.571 101.18 188.266 96.7046C188.141 94.9484 187.994 93.8493 187.223 92.7842C186.067 91.1867 184.549 91.1413 184.504 90.2236C184.458 89.3965 185.682 88.9999 188.741 87.0284C191.914 84.9776 192.208 84.3544 193.217 84.4677C195.29 84.6943 195.687 87.5043 197.534 87.5043C198.791 87.5043 198.893 86.2013 200.888 84.9436C202.904 83.6746 204.921 83.6746 208.411 83.6633C210.745 83.6633 211.935 83.6633 212.728 84.4677C213.804 85.5441 213.147 86.7791 214.325 87.9915C215.277 88.9659 216.954 89.4531 218.325 88.9546C219.923 88.3654 220.704 86.5978 220.886 85.2722C221.316 82.009 218.121 80.5701 218.801 77.9187C219.198 76.4005 220.67 75.2334 221.996 74.8822C224.194 74.3043 225.123 76.1852 227.118 75.6866C228.942 75.2221 228.681 73.5225 231.593 70.8826C233.848 68.8431 234.777 69.1603 235.275 67.846C236.057 65.7612 233.904 64.4809 234.471 61.6029C234.505 61.4103 234.958 59.3029 236.714 58.0792C238.21 57.0368 239.66 57.3314 242.312 57.2747C243.626 57.2521 247.762 57.1614 249.994 56.153C251.942 55.2692 254.311 52.8219 255.274 45.5477" stroke="#181818" stroke-width="2.31881" stroke-miterlimit="10"/>
<path d="M148.269 140.44C148.02 140.86 147.657 141.585 147.601 142.514C147.386 146.31 152.722 147.873 153.198 152.587C153.255 153.142 153.391 154.513 152.722 155.94C151.997 157.47 151.079 157.515 150.003 159.294C149.47 160.178 148.473 161.821 149.04 163.135C149.538 164.28 150.739 164.03 151.442 165.379C151.94 166.33 151.906 167.554 151.442 168.415C150.977 169.265 150.343 169.322 148.881 170.171C147.737 170.84 145.369 172.211 144.406 174.488C144.145 175.112 144.338 174.953 143.93 177.049C143.42 179.621 143.046 180.256 142.491 182.646C141.868 185.343 142.23 185.014 141.686 187.122C141.12 189.331 140.667 191.099 139.284 192.719C138.401 193.75 138.061 193.659 136.248 195.28C134.843 196.526 133.823 197.682 133.155 198.475" stroke="#181818" stroke-width="2.32156" stroke-miterlimit="10"/>
<path d="M190.871 138.672C191.449 138.321 192.288 137.947 193.115 138.197C193.681 138.366 193.783 138.695 194.236 139.001C195.573 139.907 196.842 138.502 199.437 138.684C201.125 138.797 201.454 139.454 202.881 139.16C203.255 139.08 204.4 138.842 204.876 137.959C205.216 137.335 204.921 136.962 205.034 135.964C205.068 135.67 205.306 133.902 206.394 133.166C207.323 132.531 207.992 133.256 210.473 133.087C211.799 132.996 213.079 132.905 213.668 132.044C214.019 131.546 213.804 131.24 213.827 129.563C213.861 126.991 214.371 126.22 213.747 125.484C213.351 125.019 212.66 124.747 212.15 124.929C211.719 125.076 211.629 125.461 211.266 125.971C210.711 126.753 209.589 127.705 208.705 127.569C207.414 127.376 206.915 124.917 206.79 124.294C206.621 123.444 206.303 121.903 207.108 121.178C207.674 120.668 208.173 121.133 209.51 120.782C209.77 120.714 210.235 120.566 212.705 118.867C214.133 117.881 214.62 117.496 214.869 117.666C215.345 117.994 214.121 119.898 214.79 120.544C215.198 120.952 216.217 120.759 216.875 120.306C217.883 119.615 217.724 118.504 218.393 118.312C218.948 118.142 219.515 118.776 220.557 119.751C222.789 121.847 223.911 122.9 224.874 122.866C225.146 122.866 226.132 122.221 228.069 120.952C229.553 119.977 230.041 119.649 230.312 119.83C230.788 120.159 230.131 121.869 229.995 122.232C229.508 123.49 229.123 123.603 228.715 124.555C228.16 125.846 227.831 128.044 228.873 128.792C229.474 129.223 230.471 129.132 231.117 128.713C232.295 127.943 232.295 126.13 232.556 126.152C232.85 126.186 232.567 128.418 233.19 128.634C233.78 128.838 234.459 127.013 236.544 126.232C237.53 125.869 237.938 126.073 238.062 126.152C238.493 126.424 238.584 127.013 238.697 127.829C238.81 128.611 238.742 128.872 238.776 129.744C238.833 131.172 238.856 131.885 239.252 132.463C239.717 133.143 240.079 132.905 240.85 133.744C241.326 134.265 241.28 134.446 242.051 135.738C243.014 137.358 243.206 137.267 243.252 137.732C243.32 138.423 242.912 138.786 241.575 140.769C240.102 142.955 240.125 143.216 240.215 143.329C240.408 143.567 241.042 143.307 243.569 142.525C245.541 141.913 245.858 141.856 246.13 142.049C246.81 142.525 246.096 143.816 246.288 146.049C246.481 148.315 247.557 150.841 248.77 150.932C248.951 150.943 249.155 150.898 249.812 150.456C251.104 149.572 251.75 148.79 252.769 147.737C254.174 146.275 254.945 145.697 255.727 145.255C256.576 144.78 257.052 144.508 257.403 144.7C258.242 145.153 256.894 147.34 257.483 150.377C258.083 153.504 259.885 155.815 259.885 155.815C260.463 156.552 261.256 157.39 261.086 158.376C261.018 158.761 260.837 158.954 260.157 159.758C258.174 162.092 258.027 162.364 257.913 162.636C257.562 163.52 257.392 164.936 258.072 165.571C258.571 166.047 259.08 165.65 259.941 166.16C260.678 166.591 261.369 167.486 261.278 168.347C261.233 168.789 260.905 169.174 260.27 169.944C259.692 170.647 259.556 170.624 259.182 171.134C258.808 171.633 258.242 172.369 258.265 173.219C258.276 174.023 258.808 174.125 259.545 175.496C260.293 176.89 259.919 177.094 260.587 178.136C261.335 179.303 262.423 179.994 262.785 180.221C263.873 180.89 264.428 180.844 264.95 181.581C265.414 182.238 265.233 182.646 265.675 182.94C266.502 183.507 267.827 182.51 268.077 182.861C268.281 183.133 267.442 183.79 266.876 185.184C266.547 185.988 266.468 186.645 266.4 187.178C266.241 188.458 266.071 189.784 266.638 190.781C267.612 192.481 269.754 191.517 272.314 193.659C272.473 193.784 273.028 194.441 274.15 195.744C276.348 198.293 277.447 199.562 277.504 199.664C279.396 202.871 276.745 204.865 278.467 208.944C279.396 211.153 280.359 211.006 280.755 213.045C281.084 214.722 280.857 216.966 279.792 218.914C278.863 220.614 278.002 220.795 278.081 221.792C278.183 223.095 279.713 223.254 280.642 225.418C281.061 226.393 281.129 227.231 281.175 227.865C281.265 229.112 281.367 230.37 280.642 230.857C280.042 231.265 279.033 231.015 278.399 230.539C277.198 229.633 277.334 227.877 276.903 227.877C276.484 227.877 276.541 229.531 275.306 230.437C275.181 230.528 274.592 230.959 273.81 230.97C272.008 230.981 271.363 228.693 269.969 228.84C269.221 228.919 268.485 229.69 268.371 230.437C268.179 231.786 270.116 232.386 270.932 234.279C271.634 235.91 271.091 237.508 270.297 239.819C269.72 241.496 268.507 245.008 264.961 247.705C263.658 248.702 261.143 250.606 257.925 250.481C255.874 250.402 255.534 249.575 254.084 249.846C251.296 250.356 248.804 254.107 248.86 257.495C248.883 258.662 249.857 260.746 251.818 264.927C253.132 267.737 253.189 267.624 253.574 268.689C254.446 271.091 254.31 272.156 254.933 276.212C255.466 279.679 255.727 281.424 256.372 283.566C257.369 286.897 258.129 287.69 257.97 289.809C257.902 290.738 257.437 291.95 256.531 294.364C254.933 298.59 254.469 298.794 254.616 299.961C254.888 302.136 256.599 302.318 256.86 304.765C256.928 305.366 256.814 305.264 256.225 308.493C255.534 312.277 255.579 312.991 255.908 313.716C256.508 315.053 257.46 315.042 257.505 315.959C257.585 317.602 254.571 318.158 254.514 319.902C254.48 320.934 255.511 321.058 256.644 323.211C257.075 324.015 257.687 325.182 257.709 326.621C257.743 328.593 256.69 331.142 255.047 331.528C253.562 331.867 253.087 330.123 250.888 329.93C248.747 329.737 248.509 331.335 245.348 331.845C244.272 332.015 242.039 332.377 239.909 331.312C238.765 330.734 238.516 330.191 237.564 330.134C236.034 330.055 234.777 331.392 234.153 332.049C232.828 333.454 233.145 334.02 232.239 335.04C231.344 336.037 230.437 336.15 224.353 337.17C220.795 337.771 220.296 337.861 219.549 337.487C217.894 336.66 218.178 335.108 216.24 333.227C214.756 331.788 213.124 331.267 211.549 330.78C208.275 329.737 207.425 330.632 204.513 329.499C202.972 328.899 201.952 328.162 200.57 327.154C199.981 326.723 198.225 325.409 195.562 322.463C192.186 318.735 192.276 317.818 190.021 316.175C188.016 314.713 185.331 313.523 184.798 314.147C184.345 314.679 185.523 316.424 186.509 317.874C186.815 318.316 187.857 319.835 189.818 321.931C191.268 323.472 191.948 323.981 192.378 325.239C192.458 325.477 193.092 327.313 192.378 327.902C191.676 328.48 190.055 327.573 188.537 326.723C185.841 325.216 185.591 324.344 183.416 323.313C181.218 322.259 179.156 322.055 179.042 322.35C178.906 322.701 181.546 323.404 182.351 325.545C182.781 326.689 182.521 327.834 182.294 328.536" stroke="#181818" stroke-width="2.31881" stroke-miterlimit="10"/>
<path d="M13.7321 137.71C17.8904 137.642 21.1649 137.88 23.5216 138.14C26.2976 138.435 29.1188 138.911 30.875 137.291C31.4076 136.803 31.6002 136.339 32.3707 136.01C33.6737 135.455 34.6707 136.135 36.7442 136.226C37.8999 136.271 38.7497 136.101 39.7354 135.908C41.6956 135.512 42.9419 134.685 48.3692 130.9C50.488 129.416 51.961 128.385 52.6295 128.872C53.2526 129.325 52.6521 130.662 53.3773 131.116C53.9211 131.444 54.533 130.866 56.5724 130.583C56.5724 130.583 57.105 130.515 57.7508 130.481C59.643 130.379 61.2632 131.705 63.2914 133.042C66.4526 135.115 68.0275 136.158 69.795 136.135C71.6646 136.112 72.7636 135.183 73.4208 135.818C73.9307 136.305 73.4548 137.019 73.4208 139.341C73.3868 141.211 73.3868 142.808 74.3839 143.817C75.0524 144.508 75.7775 144.497 75.7662 144.882C75.7662 145.494 73.9533 145.494 72.1404 146.797C71.9252 146.955 69.5571 148.689 69.897 150.105C70.135 151.068 71.3926 150.83 73.4208 152.235C75.4149 153.629 75.0297 154.445 77.2618 156.076C78.8027 157.198 79.6299 157.277 79.7092 157.991C79.8451 159.09 77.953 159.317 77.2618 161.186C76.616 162.909 77.8736 163.679 77.1598 165.991C76.9785 166.568 76.6613 167.543 75.7775 168.234C74.9164 168.891 74.4519 168.585 73.5341 169.197C72.3784 169.968 71.5286 171.554 71.9365 172.607C72.1404 173.14 72.503 173.095 73.4321 173.888C74.4179 174.726 74.9504 175.576 75.5622 176.55C76.2761 177.684 76.7406 178.749 77.0465 179.632" stroke="#181818" stroke-width="2.31881" stroke-miterlimit="10"/>
<path d="M223.05 337.34C224.228 339.199 225.452 339.912 226.381 340.218C227.378 340.547 228.25 340.468 229.338 341.181C230.131 341.703 230.63 342.36 230.924 342.847" stroke="#181818" stroke-width="2.32156" stroke-miterlimit="10"/>
</g>
<defs>
<clipPath id="clip0_7160_1040">
<rect width="501.53" height="372.556" fill="white"/>
</clipPath>
</defs>
</svg>
