<svg width="" height="" viewBox="0 0 924 843" fill="none" xmlns="http://www.w3.org/2000/svg">
<g clip-path="url(#clip0_8144_2276)">
<path d="M66.0255 252.359C64.4835 253.284 66.3725 256.541 64.2522 259.837C63.327 261.264 61.3802 263.153 59.3178 262.979C57.0433 262.806 56.6 260.3 54.1905 260.223C52.7642 260.165 51.2222 261.013 50.4511 262.189C49.1212 264.232 51.068 266.083 49.8729 268.106C49.0248 269.514 47.2707 269.995 45.0734 270.593C42.4712 271.306 41.7195 270.766 40.1196 271.634C39.8498 271.788 37.903 272.867 37.0934 274.968C35.6478 278.669 39.1173 281.773 37.4596 284.086C36.6308 285.261 35.6285 284.548 34.4334 285.917C33.4504 286.996 33.6046 287.998 33.1034 293.241C32.7372 297.116 32.5637 297.636 32.3517 298.118C31.6385 299.853 30.7904 300.373 30.27 302.108C29.8459 303.573 30.0001 304.826 30.1158 305.944C30.3278 307.987 30.9061 309.336 31.2916 310.454C33.5082 316.699 32.5444 321.537 35.0695 322.848C35.4357 323.041 35.7827 323.156 35.7827 323.156C37.768 323.85 38.9824 323.002 39.8498 323.677C40.2545 323.985 40.3509 324.448 40.5051 325.354C40.8906 327.455 40.2931 328.688 40.216 330.018C40.1196 331.657 40.8714 332.833 42.3555 335.126C43.5506 336.977 47.0009 342.297 52.3979 342.952C54.2098 343.164 54.2291 342.644 56.1759 342.952C58.9515 343.395 59.8767 344.687 63.4234 346.865C68.4735 349.968 71.1335 350.142 71.4033 352.185C71.5768 353.438 70.7287 354.672 70.5167 354.999C69.2252 356.907 67.4519 356.618 67.105 357.813C66.6616 359.452 69.842 360.589 69.7649 363.21C69.7264 364.675 68.6855 365.755 68.2808 366.16C66.6809 367.817 64.3679 368.087 62.6717 368.299C60.4357 368.569 59.5298 368.203 58.4697 369.051C57.583 369.745 57.2746 370.747 57.1204 371.267C56.3686 373.793 58.0649 374.853 57.583 376.954C57.1204 378.978 55.3278 378.958 53.6701 381.541C52.5136 383.334 52.2823 385.049 52.051 386.938C49.8343 404.768 50.6054 406.387 51.6077 406.811C52.6293 407.235 53.1111 406.136 55.9446 405.982C58.8166 405.828 61.014 406.811 61.7464 407.158C64.7919 408.565 66.4496 410.82 67.3555 412.092C69.1674 414.598 68.3771 414.926 70.0155 416.719C71.4419 418.28 72.7141 418.781 74.5452 421.152C75.5475 422.443 75.6824 422.964 75.6246 423.407C75.4511 424.988 73.1767 425.123 72.6755 426.549C72.1165 428.168 74.391 429.537 76.9161 433.045C78.4002 435.107 79.6531 437.729 82.1396 443.01C83.566 446.036 84.1057 447.443 85.7827 448.426C87.5367 449.467 89.0209 449.139 89.6184 450.296C90.3316 451.684 88.5969 452.84 88.7318 455.038C88.9438 458.565 93.7626 460.782 94.3409 461.052C94.977 461.341 98.6585 462.979 102.224 461.341C102.533 461.187 105.366 459.895 105.289 458.276C105.193 456.618 102.09 456.387 101.743 454.344C101.531 453.033 102.533 451.53 103.709 450.99C104.942 450.431 105.578 451.279 108.142 451.568C111.361 451.954 112.383 450.874 113.944 451.857C114.908 452.455 114.561 452.898 116.026 454.228C116.527 454.671 117.76 455.789 119.572 456.387C121.808 457.139 122.868 456.426 123.408 457.177C124.044 458.045 122.81 459.24 122.136 461.996C121.461 464.733 121.461 468.376 122.83 468.993C123.466 469.282 124.218 468.82 125.085 468.299C127.822 466.661 127.783 464.444 130.019 463.769C130.289 463.692 131.214 463.422 132.178 463.769C133.238 464.155 133.45 464.964 134.26 465.851C135.089 466.738 136.824 467.239 140.274 468.222C142.047 468.723 142.953 468.974 144.11 469.205C146.384 469.648 146.615 469.475 151.203 469.995C154.056 470.304 154.287 470.419 154.942 470.188C156.773 469.552 156.735 468.145 158.874 466.198C159.607 465.543 161.631 463.712 164.387 463.442C165.813 463.307 165.505 463.769 169.996 464.675C172.598 465.196 173.774 465.254 174.275 466.198C174.661 466.911 174.333 467.509 174.217 468.762C174.063 470.554 174.526 471.865 175.258 473.927C175.644 474.988 177.552 480.442 179.615 480.308C180.559 480.25 180.559 479.074 182.275 478.303C182.602 478.149 184.279 477.455 185.821 478.091C186.939 478.534 187.016 479.305 188.924 481.869C191.025 484.683 191.874 485.011 192.182 485.126C193.358 485.531 193.917 485.03 195.883 484.76C200.258 484.143 201.492 486.052 203.632 484.914C205.79 483.777 205.617 481.252 207.043 481.214C207.988 481.175 208.296 482.331 210.667 484.76C212.305 486.456 213.134 487.304 214.214 487.709C216.257 488.5 217.433 487.478 220.42 487.42C222.444 487.382 223.813 487.806 226.55 488.673C228.786 489.367 230.308 490.099 235.956 493.106C243.608 497.193 243.589 497.347 245.015 497.732C249.873 499.062 253.092 498.041 253.593 499.409C253.978 500.489 252.089 501.549 249.757 504.691C247.887 507.197 247.001 509.336 245.729 512.401C244.09 516.372 244.129 517.798 241.816 523.619C240.64 526.549 239.869 528.091 238.269 528.746C236.746 529.382 235.667 528.688 234.221 529.729C233.682 530.134 233.682 530.327 231.966 532.794C230.347 535.107 230.116 535.261 229.884 535.358C228.13 536.167 226.569 534.336 225.355 535.069C224.256 535.724 224.854 537.613 224.372 540.003C223.755 542.952 221.847 544.783 219.842 546.711C215.756 550.624 213.809 549.371 210.185 552.513C209.202 553.38 204.422 557.736 204.268 563.557C204.133 568.819 207.834 573.099 205.752 575.489C205.732 575.508 205.752 575.489 204.171 576.877C201.338 579.363 201.106 579.575 200.914 580.018C200.278 581.58 201.685 582.235 201.608 584.452C201.55 586.109 200.721 586.244 198.35 590.466C196.461 593.8 196.133 595.227 195.979 596.075C195.825 596.981 195.632 598.118 195.883 599.525C196.5 602.994 199.083 604.055 198.543 605.539C198.273 606.31 197.541 606.117 194.9 607.621C192.972 608.7 192.009 609.259 191.45 610.184C190.621 611.591 191.257 612.574 191.16 615.408C191.16 615.408 191.083 617.933 190.081 621.017C189.079 624.082 187.479 626.048 186.149 627.725C180.829 634.394 178.169 637.728 177.089 640.35C176.338 642.123 173.35 649.371 176.511 653.843C178.13 656.136 180.443 656.445 181.793 659.76C182.737 662.112 182.448 664.193 182.371 664.637C181.831 668.125 179.306 670.304 178.824 670.708C176.492 672.617 174.738 672.27 174.083 673.966C173.639 675.142 174.43 675.45 174.237 677.667C174.16 678.553 173.948 680.905 172.309 682.254C171.095 683.257 170.17 682.833 169.803 683.584C169.071 685.068 172.656 686.9 172.309 689.348C172.039 691.294 169.63 691.217 168.165 694.378C167.837 695.072 167.182 696.479 167.413 698.176C167.625 699.718 168.358 700.026 169.379 702.647C170.035 704.324 170.362 705.173 170.208 706.194C169.996 707.698 169.013 708.122 167.837 709.741C166.334 711.842 165.312 714.81 165.756 717.277C165.929 718.222 166.816 719.417 168.608 721.807C172.425 726.915 174.16 727.551 174.873 730.442C174.988 730.963 175.066 731.445 175.451 731.676C176.993 732.543 180.463 727.725 182.506 728.669C182.891 728.843 183.123 729.17 183.547 729.748C183.759 730.038 184.684 731.31 184.588 732.312C184.356 734.336 179.807 734.432 179.615 736.109C179.46 737.401 182.005 738.846 183.855 739.405C184.279 739.521 188.134 740.639 191.334 738.519C193.493 737.092 193.319 735.57 196.153 733.796C197.271 733.102 198.119 732.563 199.295 732.408C202.86 731.946 206.253 735.203 208.759 737.632C210.706 739.502 210.995 740.292 212.498 740.89C214.387 741.641 215.871 741.179 218.3 740.793C224.95 739.752 225.258 741.41 228.747 740.215C230.501 739.598 230.096 739.309 236.534 734.49C242.567 729.98 243.666 729.691 244.823 729.671C246.924 729.633 247.328 730.597 251.82 731.059C253.844 731.271 254.364 731.136 255.174 731.637C257.255 732.948 256.523 735.531 258.123 737.15C260.147 739.193 264.271 738.172 265.601 737.844C270.806 736.553 273.774 732.678 280.675 729.267C281.484 728.862 282.602 728.341 283.624 728.765C285.628 729.614 285.012 733.237 286.978 734.085C288.096 734.548 289.368 733.854 290.524 733.199C291.218 732.813 294.707 730.847 294.958 726.992C295.093 725.007 294.36 722.328 292.298 721.075C290.293 719.86 287.922 720.554 285.513 721.267C282.583 722.135 282.795 722.906 280.771 723.349C276.318 724.313 272.213 721.132 270.632 719.899C269.842 719.282 266.739 716.892 267.278 715.562C267.818 714.232 271.345 715.562 273.003 713.596C274.295 712.034 272.772 710.435 274.083 708.276C275.123 706.56 277.089 705.866 279.499 705.018C282.352 704.016 282.718 704.614 283.739 703.746C285.783 701.992 284.78 699.178 286.881 698.021C286.939 697.983 288.019 697.405 289.252 697.732C290.293 698.002 290.91 698.773 291.623 699.698C295.073 704.247 295.227 704.44 295.671 704.517C297.521 704.903 298.389 701.838 301.184 701.857C302.764 701.857 303.998 702.84 304.73 703.438C305.482 704.055 307.159 705.365 307.197 707.177C307.197 707.736 307.062 708.295 305.039 711.225C302.957 714.193 302.359 714.695 302.571 715.408C302.899 716.506 304.749 716.892 307.005 717.335C309.318 717.798 310.474 718.029 311.631 717.528C314.098 716.468 313.712 713.596 315.871 712.998C317.51 712.536 319.322 713.75 320.208 714.695C321.076 715.62 321.191 716.449 321.827 718.607C322.926 722.27 323.485 724.082 324.275 724.737C326.627 726.703 331.6 725.122 334.395 723.561C337.71 721.711 338.115 719.822 340.601 719.648C342.51 719.513 343.493 720.535 346.211 721.942C346.808 722.25 351.184 724.467 355.829 725.122C361.38 725.893 363.115 723.812 368.242 725.412C369.688 725.855 370.729 726.395 372.02 727.108C378.747 730.828 384.144 734.799 387.016 736.861C395.42 742.894 399.699 745.94 404.017 746.903C404.075 746.903 404.017 746.903 412.729 748.079C416.816 748.638 418.126 748.812 419.688 748.079C420.478 747.694 420.883 747.308 424.121 743.569C427.436 739.752 427.86 739.174 428.631 739.232C430.039 739.328 430.173 741.371 433.431 745.13C435.05 747 435.879 747.925 437.209 748.233C438.693 748.58 439.214 747.867 442.606 747.366C445.054 747.019 446.307 746.846 447.193 747.462C448.099 748.099 447.849 748.792 449.16 751.742C450.066 753.746 450.528 754.768 451.415 755.23C452.436 755.77 453.612 755.616 455.058 755.423C456.966 755.192 457.352 754.671 458.161 754.98C459.067 755.307 459.26 756.194 460.127 758.045C461.997 761.977 463.096 762.131 462.884 763.461C462.594 765.234 460.628 765.041 459.337 767.509C459.241 767.701 457.698 770.728 459.144 773.233C460.146 774.949 462.19 775.816 463.924 775.893C466.623 776.009 467.587 774.159 473.08 772.482C474.853 771.942 475.759 771.826 476.029 772.231C476.473 772.848 475.085 774.082 474.198 776.221C472.907 779.401 474.526 780.269 473.697 783.912C472.772 787.96 470.247 789.135 471.037 791.391C471.422 792.509 472.425 793.337 473.408 793.646C475.046 794.186 477.109 793.415 481.099 789.907C487.44 784.336 486.9 782.196 491.546 778.669C495.497 775.681 496.519 776.761 500.355 773.388C502.648 771.383 505.482 768.839 506.272 764.675C506.446 763.75 507.217 759.644 504.942 756.541C503.227 754.247 501.473 754.71 500.2 752.397C499.564 751.221 499.776 750.643 499.757 745.612C499.738 740.215 499.487 739.078 500.335 738.519C501.569 737.748 503.998 738.827 505.366 740.292C507.043 742.085 506.388 743.723 508.026 745.034C509.587 746.287 511.746 745.997 512.305 745.92C515.775 745.458 516.045 742.682 519.553 741.333C523.08 739.984 526.665 741.333 528.265 741.911C531.754 743.203 531.446 744.552 535.069 746.499C536.303 747.154 541.777 749.91 548.08 748.87C552.186 748.195 554.73 746.21 555.906 747.385C556.658 748.137 556.407 749.718 556.06 750.643C554.961 753.496 551.511 753.418 551.183 755.674C551.049 756.599 551.473 757.717 552.224 758.179C553.593 759.047 555.154 757.177 557.544 757.601C558.335 757.736 559.26 758.488 561.091 759.972C564.618 762.844 566.372 764.29 566.122 765.581C565.89 766.815 564.233 766.93 564.194 767.952C564.136 769.301 566.912 770.651 569.071 771.21C574.352 772.578 579.133 770.053 579.711 769.725C580.116 769.513 582.197 767.894 586.361 764.694C589.271 762.459 590.274 761.688 591.083 762.034C592.76 762.767 591.141 767.046 593.589 768.993C594.765 769.918 596.557 770.053 597.868 769.571C600.779 768.511 599.969 765.003 603.034 763.21C603.921 762.69 603.959 762.998 609.992 762.169C614.098 761.61 614.425 761.418 614.734 761.129C616.796 759.182 614.252 755.847 616.353 752.551C617.857 750.2 620.671 749.544 621.075 749.448C623.62 748.889 624.545 750.142 628.901 750.2C631.368 750.238 632.66 750.219 633.643 749.313C634.954 748.079 634.067 746.653 634.973 743.55C635.782 740.774 637.749 738.384 639.715 737.189C642.066 735.762 643.897 736.36 651.646 736.996C657.583 737.478 660.57 737.728 662.344 737.497C668.55 736.707 669.514 734.182 675.798 733.353C678.13 733.044 678.149 733.372 684.857 733.758C702.282 734.721 703.901 732.62 704.325 731.734C705.038 730.25 704.287 728.226 704.113 727.744C703.708 726.684 703.169 726.105 700.49 723.388C697.617 720.477 697.213 720.092 697.232 719.398C697.271 718.125 698.716 717.779 701.588 715.62C705.964 712.362 706.58 710.242 709.279 710.088C710.416 710.011 712.093 710.28 712.382 711.129C712.922 712.69 707.988 714.54 708.238 717.258C708.373 718.742 709.992 720.053 711.419 720.246C711.977 720.323 712.324 720.207 715.196 719.012C718.088 717.836 718.319 717.721 718.82 717.759C720.825 717.913 720.902 719.899 722.733 720.13C723.697 720.246 725.335 719.263 728.651 717.316C729.46 716.834 730.212 716.371 731.156 716.506C732.043 716.622 732.872 717.239 733.296 717.991C733.932 719.109 733.431 720.13 733.373 721.248C733.219 724.371 736.631 728.091 739.869 728.496C741.469 728.688 742.914 727.84 745.709 726.125C750.991 722.906 750.914 721.113 754.287 720.13C755.809 719.687 755.115 720.265 761.38 719.687C763.982 719.456 765.023 719.263 765.967 719.976C767.471 721.132 766.372 722.829 767.895 724.486C769.302 726.028 770.863 725.238 773.62 727.358C775.123 728.534 775.142 729.151 775.142 729.382C775.085 730.288 773.967 730.481 772.695 731.715C772.193 732.177 770.574 733.912 770.401 736.302C770.381 736.63 770.227 739.425 772.02 740.89C773.697 742.239 775.354 741.025 777.937 742.065C779.344 742.644 779.826 743.376 781.927 745.766C785.744 750.045 787.652 752.204 789.907 753.303C790.794 753.727 795.208 755.77 797.598 753.881C799.487 752.397 799.294 749.062 799.082 745.304C798.812 740.89 797.772 740.061 798.504 737.613C798.909 736.225 800.065 734.876 802.34 732.235C806.291 727.667 807.178 727.686 807.467 726.125C808.045 722.944 804.884 719.783 802.533 717.451C800.74 715.658 799.063 714.001 796.422 713.114C790.582 711.167 785.185 714.733 784.395 713.307C783.797 712.247 787.247 710.782 787.536 707.196C787.749 704.633 786.11 703.611 786.361 699.91C786.418 698.87 786.476 697.867 787.035 696.73C788.25 694.128 790.351 694.051 791.7 692.027C793.126 689.887 792.587 687.208 792.278 685.724C791.083 679.71 785.223 675.951 783.701 674.987C779.807 672.482 776.916 672.27 776.222 669.668C775.933 668.627 776.28 668.183 776.029 665.331C775.991 664.945 775.759 662.362 775.335 660.897C774.102 656.734 769.9 657.312 766.758 652.821C764.599 649.718 763.616 645.13 765.37 642.721C765.659 642.335 765.813 642.277 768.473 640.639C772.27 638.326 774.179 637.15 774.526 636.649C776.569 633.7 774.121 630.539 776.145 628.823C777.051 628.052 778.265 628.11 780.732 628.245C785.185 628.457 785.821 629.903 787.382 629.286C790.158 628.149 788.693 623.311 792.702 620.13C794.186 618.954 795.748 618.511 796.403 618.357C799.14 617.702 800.104 618.8 802.166 618.646C806.754 618.318 807.062 612.536 812.517 611.109C814.734 610.531 814.83 611.437 819.013 610.955C819.206 610.936 822.964 610.493 826.26 609.182C826.781 608.989 836.977 604.749 839.869 594.841C840.794 591.68 840.524 588.307 840.023 581.541C839.522 574.91 838.519 572.559 840.177 569.417C841.488 566.93 844.244 564.309 847.425 564.097C849.275 563.962 851.781 564.637 853.785 565.716C855.424 566.603 856.06 567.412 857.043 567.2C858.797 566.815 858.643 563.846 860.146 563.5C861.341 563.23 862.44 564.849 865.466 568.087C868.473 571.306 869.977 572.925 870.94 572.964C874.294 573.118 877.147 565.62 879.229 560.107C881.58 553.9 882.756 550.816 881.6 547.597C880.462 544.436 878.227 543.781 877.456 539.714C877.263 538.712 876.8 536.225 877.86 533.604C879.21 530.25 881.696 530.115 882.39 527.879C883.643 523.85 877.359 518.569 876.472 517.836C868.512 511.129 864.29 515.446 855.578 509.375C849.853 505.385 847.849 500.816 841.777 500.315C839.001 500.084 838.211 500.932 836.65 500.065C832.544 497.771 835.994 490.639 831.33 483.16C830.52 481.869 827.783 477.513 822.945 476.067C820.497 475.354 819.533 475.971 815.852 474.891C812.768 473.985 810.301 473.272 808.951 471.152C807.351 468.627 809.067 466.776 807.371 464.348C806.156 462.594 804.73 462.786 801.858 461.206C798.061 459.124 795.902 456.233 794.476 454.305C791.854 450.797 792.837 450.238 789.348 444.456C786.072 439.02 784.26 437.96 783.142 437.459C782.486 437.17 779.884 436.013 777.031 436.765C774.796 437.343 774.545 438.538 772.001 439.136C771.056 439.348 769.148 439.637 767.066 438.943C764.792 438.172 763.481 436.591 762.324 435.203C759.607 431.85 760.57 430.597 758.18 427.917C756.33 425.836 754.094 424.698 752.456 423.87C749.159 422.212 748.292 422.713 747.039 421.306C745.382 419.436 745.035 416.487 745.459 414.309C745.883 412.15 746.827 411.842 746.634 410.261C746.557 409.587 746.249 408.546 743.493 405.924C740.447 403.033 740.196 403.688 739.252 402.378C737.652 400.161 738.693 398.677 736.997 392.914C736.669 391.776 736.168 390.292 734.838 389.463C733.913 388.885 733.508 389.193 732.968 388.673C731.985 387.709 732.776 386.052 732.968 382.274C733.161 378.727 732.583 378.11 732.39 377.937C731.484 377.127 730.385 377.802 728.149 377.744C724.603 377.667 722.02 375.855 721.056 375.18C719.109 373.831 716.257 371.075 716.912 369.571C717.452 368.376 719.649 369.321 721.846 367.605C723.832 366.044 724.314 363.442 724.449 362.594C725.085 359.008 723.254 357.64 724.391 355.558C725.143 354.19 726.01 354.672 728.361 352.532C729.749 351.26 730.501 350.123 731.619 348.465C733.527 345.612 734.472 344.186 734.125 342.991C733.816 341.95 732.949 341.757 729.537 339.81C724.179 336.746 724.121 335.955 724.14 335.666C724.294 334.298 727.764 334.51 728.651 332.197C729.075 331.079 728.824 329.575 727.976 328.862C726.858 327.917 725.316 328.958 723.099 329.016C721.133 329.074 720.478 328.322 715.196 325.315C710.455 322.617 708.084 321.287 705.867 320.265C702.128 318.55 700.547 318.241 699.95 316.622C699.237 314.656 700.952 313.461 700.143 311.109C699.564 309.394 698.099 308.334 696.596 307.274C694.032 305.443 692.509 305.539 692.259 304.421C691.97 303.13 693.839 302.532 694.63 300.489C695.671 297.732 694.013 294.301 692.51 292.451C688.847 287.96 682.737 288.557 682.602 286.379C682.525 285.069 684.761 284.895 685.86 282.235C686.688 280.211 686.573 277.474 685.108 275.739C684.838 275.431 684.163 274.699 680.829 273.658C675.836 272.135 674.95 273.022 673.581 271.884C671.365 270.015 673.311 267.355 671.075 262.864C670.555 261.823 668.627 258.025 665.466 257.544C663.674 257.274 663.192 258.315 658.971 259.028C657.005 259.355 655.925 259.548 654.46 259.394C650.759 259.028 650.123 257.081 647.213 257.1C646.789 257.1 646.442 257.158 642.182 258.951C636.534 261.341 636.361 261.611 634.857 261.9C633.816 262.112 633.99 261.958 628.362 262.112C623.466 262.247 623.273 262.362 622.367 262.112C619.784 261.36 619.688 259.857 616.295 257.081C611.65 253.284 608.45 253.361 608.238 251.163C608.103 249.679 609.568 249.487 610.609 246.056C611.072 244.533 611.592 242.74 610.686 241.179C610.609 241.025 609.703 239.56 608.238 239.406C606.927 239.271 605.983 240.292 604.46 241.622C601.569 244.186 600.104 245.458 598.388 246.056C594.765 247.328 592.22 245.034 590.64 246.73C589.792 247.617 589.85 248.985 589.888 250.2C589.984 252.725 591.18 253.881 591.97 256.04C592.702 258.083 592.567 259.625 592.336 262.998C592.008 267.644 591.681 273.33 591.218 280.076H581.831C581.6 276.896 581.426 274.313 581.311 271.942C581.311 271.884 581.214 269.976 580.347 267.74C579.691 266.063 579.171 265.601 578.651 265.446C577.841 265.215 577.031 265.678 576.8 265.813C575.258 266.719 575.624 268.28 574.352 268.916C573.427 269.379 572.078 269.147 571.326 268.473C570.131 267.393 570.979 265.716 569.919 265.003C569.032 264.386 567.394 264.887 566.449 265.755C565.197 266.892 565.601 268.28 564.753 268.569C563.809 268.877 562.498 267.393 561.341 266.083C559.53 264.039 559.664 263.384 558.778 262.632C557.062 261.148 554.479 261.688 549.911 262.69C545.96 263.557 543.338 264.618 539.657 266.14C533.277 268.781 532.795 269.668 532.698 270.323C532.544 271.615 533.951 271.981 537.132 275.797C540.004 279.247 539.965 280.269 541.565 280.77C543.666 281.426 545.015 280.019 547.155 281.117C547.444 281.271 548.948 282.042 549.044 283.237C549.179 284.818 546.808 286.514 544.611 286.938C543.03 287.247 542.625 286.668 539.194 286.36C536.476 286.09 535.127 285.975 534.472 286.649C533.045 288.133 535.648 291.275 534.337 292.837C532.93 294.533 528.092 292.837 525.47 291.429C523.446 290.35 520.651 288.827 519.861 285.955C519.148 283.353 520.941 282.601 520.825 278.496C520.786 277.05 520.69 273.773 518.377 271.402C516.7 269.687 514.464 269.07 513.789 268.897C511.322 268.222 510.705 268.974 509.645 268.222C507.352 266.603 509.26 262.285 507.197 261.052C506.426 260.589 504.884 260.897 501.82 261.514C499.873 261.919 499.16 262.247 498.408 261.803C497.271 261.148 497.29 259.336 497.174 258.064C496.731 253.226 493.685 249.024 491.507 247.077C491.237 246.846 491.507 247.077 483.431 242.451C481.446 241.314 480.116 240.524 479.692 239.001C479.19 237.247 480.347 236.052 479.499 234.76C478.882 233.835 477.494 233.257 476.434 233.584C474.796 234.086 474.719 236.514 473.581 236.534C473.08 236.534 472.579 235.917 471.615 234.664C470.189 232.813 470.266 232.312 469.746 232.197C469.129 232.062 468.493 232.64 464.715 236.437C464.059 237.093 463.616 237.555 463.211 237.42C462.537 237.208 462.864 235.666 462.325 233.623C461.457 230.327 459.375 229.903 459.587 227.783C459.722 226.491 460.59 225.566 461.438 224.679C463.23 222.79 464.406 223.176 465.216 221.807C466.122 220.265 465.717 217.817 464.329 216.333C462.922 214.849 460.956 214.849 459.819 214.849C457.776 214.849 456.272 215.601 454.345 216.545C450.567 218.434 450.104 219.822 448.35 219.648C446.557 219.475 445.073 217.837 444.514 216.314C443.724 214.194 444.649 212.17 445.401 210.551C447.367 206.271 449.911 206.098 449.988 203.592C450.065 201.067 447.444 200.585 447.618 197.675C447.733 195.824 448.851 195.188 448.658 193.087C448.504 191.43 447.733 191.275 447.772 190.138C447.849 187.671 451.434 184.818 454.73 184.972C457.313 185.088 458.836 187.015 459.761 186.302C460.204 185.955 460.166 184.992 460.05 183.045C459.915 180.404 459.51 179.575 460.05 179.055C460.84 178.284 462.517 179.402 462.999 178.766C463.462 178.168 462.575 176.395 461.226 175.219C459.375 173.6 457.93 174.159 455.617 173.002C452.841 171.615 450.624 168.704 451.183 167.682C452.109 165.948 461.014 169.706 461.978 167.837C462.44 166.911 460.455 165.774 459.761 162.517C459.587 161.688 458.932 158.584 460.513 157.042C462.267 155.327 465.929 156.406 467.606 156.888C471.519 158.045 472.29 159.876 474.853 159.548C476.376 159.355 478.188 158.43 478.554 157.042C478.728 156.368 478.554 155.558 476.473 152.763C473.774 149.082 473.408 149.544 472.772 148.176C471.23 144.861 473.851 143.222 472.483 139.155C471.577 136.495 469.765 135.146 470.401 134.124C470.825 133.469 472.02 133.392 472.772 133.546C475.143 133.97 475.644 136.707 477.051 136.649C478.304 136.591 479.402 134.413 479.711 132.659C480.27 129.46 478.477 125.932 475.875 123.889C472.444 121.191 470.285 123.157 467.008 120.535C464.04 118.164 465.235 116.083 461.881 113.056C459.414 110.84 458.527 111.746 454.981 109.124C453.342 107.91 450.817 106.04 449.063 102.821C447.444 99.8335 447.965 98.4072 445.921 96.1134C444.495 94.5136 443.975 94.8991 442.375 93.1643C439.792 90.3501 440.293 88.4033 438.635 87.8443C436.766 87.2083 433.874 88.8659 433.123 90.9862C432.429 92.9137 433.778 94.4365 432.93 95.3231C431.793 96.4989 428.843 94.3979 427.803 95.5159C427.012 96.3447 427.61 98.7156 428.978 100.046C430.617 101.645 432.409 100.855 433.123 102.204C433.894 103.631 432.564 105.79 431.85 106.946C431.099 108.141 430.617 108.931 429.769 109.105C428.284 109.433 427.282 107.563 424.892 105.751C422.29 103.766 422.502 103.901 417.182 101.279C412.999 100.238 410.86 98.812 410.378 97.0965C409.78 94.9184 410.995 92.3933 413.018 91.3524C415.12 90.2923 416.912 91.815 418.531 90.5622C419.996 89.4442 419.958 87.1504 419.938 86.6686C419.784 82.64 415.582 82.1003 414.194 77.3586C413.308 74.2938 414.194 71.5375 414.599 70.2653C415.158 68.492 416.122 65.5043 418.685 64.2129C421.422 62.8251 423.504 64.637 424.757 63.3262C426.28 61.6878 424.545 57.3509 422.54 54.903C421.519 53.6308 419.803 51.5298 417.375 51.3563C416.006 51.2599 414.734 51.7804 413.539 50.913C412.768 50.354 412.768 49.7565 412.113 49.583C410.956 49.2939 410.358 50.9515 408.971 50.913C407.93 50.8937 407.66 49.9492 405.867 48.6963C405.501 48.4265 404.133 47.482 402.725 47.1158C399.834 46.364 396.982 48.1759 395.671 48.9855C392.779 50.7973 392.645 52.3201 390.505 52.6285C388.693 52.8983 387.729 51.9924 386.958 52.6285C385.918 53.4959 386.823 55.8474 387.151 57.8521C387.864 62.3047 385.744 66.044 383.797 69.475C382.236 72.2314 378.689 78.4959 371.577 80.2113C370.093 80.5583 365.389 81.7148 361.534 79.3247C357.968 77.1273 358.373 73.9469 354.537 72.2314C353.593 71.8073 350.143 70.4581 347.155 72.3278C345.015 73.6578 343.512 76.3563 343.897 78.7272C344.36 81.5992 347.251 81.869 347.637 84.9338C347.868 86.7649 347.078 88.6539 345.864 89.7526C344.129 91.3139 341.662 91.179 340.64 91.1404C331.099 90.7549 321.114 94.7449 320.054 95.1882C316.642 96.5568 311.939 98.5228 309.51 103.265C307.448 107.332 307.429 112.652 309.318 113.615C311.573 114.772 315.389 108.951 319.167 110.358C320.15 110.724 320.632 111.379 321.635 112.729C322.309 113.635 325.567 118.241 324.198 122.867C323.196 126.279 320.767 126.029 319.861 129.864C319.341 132.12 320.054 132.736 319.283 135.281C318.878 136.63 318.146 139.02 316.18 140.157C314.83 140.928 314.04 140.466 309.973 140.312C305.405 140.138 303.092 140.08 301.55 141.352C300.991 141.815 301.415 141.661 298.736 145.632C297.54 147.405 297.059 148.022 297.251 148.735C297.598 150.007 299.584 149.795 300.2 151.106C300.894 152.532 299.391 154.633 298.716 155.539C291.411 165.581 293.551 164.174 289.252 168.839C283.605 174.988 281.504 175.778 280.231 176.086C279.056 176.376 276.01 177.147 273.427 175.643C271.982 174.776 271.962 173.966 270.921 173.716C268.84 173.253 267.124 176.086 263.096 180.076C257.737 185.358 255.964 185.069 255.405 187.613C254.788 190.389 256.908 190.793 257.776 196.923C258.604 202.783 257.005 204.749 256.446 205.346C256.234 205.578 255.559 206.271 254.518 206.676C250.663 208.18 245.748 204.305 242.857 200.219C242.471 195.921 240.813 193.087 240.756 192.374C240.409 187.459 240.698 184.105 239.04 182.004C237.826 180.462 236.438 181.368 233.123 179.845C232.756 179.672 226.241 176.588 225.644 171.557C225.316 168.858 226.974 167.817 226.049 166.044C225.027 164.136 221.885 163.076 219.553 164.078C217.876 164.791 217.105 166.372 216.796 167.027C214.965 170.959 217.953 173.272 216.392 176.684C215.004 179.749 210.975 181.329 210.281 181.618C208.277 182.409 207.352 182.158 206.349 183.199C204.73 184.857 205.54 187.054 204.961 189.116C203.94 192.837 198.89 194.436 194.071 195.901C182.024 199.583 174.391 197.463 172.348 201.665C171.538 203.322 172.541 204.074 171.442 206.445C169.495 210.628 164.599 212.17 163.963 212.362C158.566 213.962 156.272 210.917 151.646 213.056C149.179 214.194 149.719 215.099 146.904 216.314C143.454 217.798 141.797 216.757 138.192 218.087C135.32 219.128 135.802 219.976 132.718 221.499C126.877 224.352 123.774 221.961 121.635 224.448C119.9 226.472 121.712 228.342 120.15 234.49C119.495 237.112 118.666 240.369 116.893 240.697C114.85 241.063 113.905 237.035 109.51 235.531C107.506 234.837 104.383 234.529 103.304 235.975C102.494 237.054 103.285 238.557 105.386 244.263C107.872 251.029 108.103 252.667 107.467 254.305C106.908 255.712 105.617 257.312 103.921 257.717C102.417 258.064 101.839 257.197 98.3116 256.233C95.5938 255.5 93.8012 255.038 92.5483 255.944C91.2568 256.869 91.5267 258.488 90.775 258.604C89.4257 258.816 88.6932 253.689 86.0332 253.13C84.2985 252.763 83.6624 254.787 80.4242 255.635C77.9184 256.31 75.7595 255.79 73.9284 255.346C68.8976 254.151 67.2399 251.549 65.8521 252.397V252.301L66.0255 252.359Z" fill="#323232"/>
<path d="M286.611 408.796C289.194 400.064 292.394 397.424 295.034 396.826C297.829 396.171 299.603 397.751 302.513 396.421C305.848 394.918 306.214 391.14 308.816 391.102C310.204 391.082 311.226 392.142 311.38 392.277C314.117 395.13 309.934 400.199 312.17 403.515C313.384 405.307 315.061 404.459 323.003 406.869C330.269 409.047 330.983 410.415 331.079 411.206C331.156 411.919 330.732 412.285 329.055 414.347C326.549 417.431 324.969 419.398 323.889 421.595C323.369 422.655 321.441 426.549 322.714 427.802C323.966 429.035 328.072 427.493 330.828 425.142C333.585 422.79 333.161 421.229 337.035 416.121C339.367 413.056 340.562 411.533 342.355 411.09C344.63 410.55 345.323 411.977 350.046 412.266C353.978 412.497 355.404 411.63 355.963 411.225C356.175 411.071 358.334 409.509 358.045 407.967C357.621 405.847 353.034 406.464 351.838 403.688C351.183 402.165 351.742 400.142 352.879 399.101C354.344 397.751 356.561 398.253 359.529 398.657C366.835 399.66 372.444 400.411 375.046 397.771C376.26 396.537 376.877 394.475 377.86 391.275C378.631 388.711 378.554 387.805 379.479 387.131C381.002 386.071 382.544 387.593 386.438 387.574C388.095 387.574 391.488 387.536 392.644 385.647C393.646 383.989 391.835 382.717 392.201 378.997C392.49 376.067 393.839 374.602 393.088 373.831C392.394 373.098 390.62 373.754 389.541 374.12C386.187 375.315 385.859 377.127 384.067 377.069C381.908 377.011 380.327 374.274 379.633 373.079C378.843 371.711 378.303 370.785 378.593 369.822C379.017 368.415 381.156 367.817 385.377 366.718C389.001 365.774 390.215 365.832 391.738 364.502C392.837 363.519 393.415 362.42 393.82 362.574C394.533 362.863 393.049 366.66 394.109 367.316C394.572 367.586 395.169 367.104 398.388 365.388C400.528 364.27 400.875 364.155 401.337 364.213C402.764 364.367 403.014 365.735 404.749 367.027C406.252 368.145 408.932 369.263 411.11 368.511C413.384 367.721 413.249 365.504 415.852 364.675C417.182 364.251 419.109 364.213 419.687 365.118C420.285 366.063 418.974 367.297 417.471 370.728C416.295 373.445 415.312 375.739 415.986 378.129C416.411 379.652 417.606 381.502 418.801 381.464C419.957 381.425 420.208 379.575 422.945 377.262C423.735 376.587 424.93 375.585 425.528 375.932C426.318 376.375 425.296 378.63 426.087 379.189C426.954 379.768 428.708 377.686 432.582 376.433C434.086 375.932 435.223 375.585 435.705 376.086C436.688 377.108 433.45 379.883 433.932 383.7C434.279 386.514 436.495 388.596 437.401 389.444C440.081 391.95 442.413 391.911 442.914 393.973C443.3 395.554 442.297 397.058 442.124 397.327C440.717 399.428 438.693 398.85 437.189 400.681C435.532 402.686 435.821 406.04 436.688 406.406C437.613 406.792 439.02 403.707 442.991 402.165C443.82 401.857 444.61 401.645 445.362 401.973C446.268 402.358 446.769 403.38 447.135 404.922C448.292 409.76 446.249 411.707 447.714 414.193C448.6 415.677 450.258 416.506 451.646 416.66C453.882 416.911 455.636 415.465 456.465 414.791C459.105 412.632 458.855 410.55 462.074 407.794C463.095 406.907 463.654 406.464 464.232 406.618C465.852 407.061 466.025 411.842 466.199 416.179C466.391 421.209 465.909 421.884 466.777 423.272C468.627 426.163 472.386 425.855 472.694 427.994C472.733 428.303 472.733 428.785 470.921 431.348C468.068 435.377 467.374 435.184 466.989 436.668C466.333 439.097 467.509 442.162 469.148 443.954C470.285 445.188 471.152 445.303 471.518 446.518C472.058 448.33 470.747 450.257 470.343 450.855C468.974 452.859 467.818 452.628 467.201 453.804C466.16 455.789 468.261 458.7 472.521 464.444C477.706 471.441 479.633 472.154 480.983 472.327C482.737 472.559 483.912 471.961 484.626 472.79C485.532 473.831 484.703 476.028 483.296 479.556C481.677 483.68 481.002 483.95 481.214 485.03C481.754 487.478 485.493 487.401 490.832 490.35C493.165 491.641 497.212 493.896 499.699 498.041C501.973 501.838 502.166 505.886 502.359 510.454C502.629 516.622 501.376 519.243 503.535 521.98C504.788 523.561 506.272 524.062 506.792 526.125C507.293 528.091 506.522 529.941 506.098 530.943C505.019 533.603 503.824 533.584 502.956 536.071C502.571 537.131 501.896 539.078 502.667 540.889C503.612 543.106 505.713 542.682 506.908 545.034C507.987 547.135 507.274 549.39 507.101 549.968C506.638 551.472 505.366 553.765 504.248 553.611C502.648 553.399 502.687 548.503 501.183 548.387C500.952 548.368 500.489 548.445 498.041 552.031C496.364 554.498 496.191 554.999 495.574 555.095C494.186 555.307 493.627 552.994 490.755 551.356C490.312 551.105 486.958 549.255 485.339 550.566C483.951 551.684 484.606 554.421 484.645 554.613C485.223 556.984 486.958 557.505 488.481 559.741C490.119 562.131 490.293 564.656 490.408 566.352C490.852 573.137 485.358 578.457 481.985 581.714C477.821 585.743 474.005 589.444 469.861 588.673C465.717 587.902 465.582 583.449 459.51 581.136C458.662 580.808 453.265 578.765 450.798 581.136C448.504 583.333 449.622 588.461 450.508 590.889C451.742 594.263 453.592 595.438 453.168 597.983C452.86 599.852 451.704 600.103 451.395 601.973C450.971 604.44 452.532 606.502 453.766 608.333C455.289 610.627 456.657 613.653 459.375 619.706C461.225 623.811 461.958 626.934 463.211 632.408C464.078 636.186 464.599 639.771 465.62 646.942C466.353 652.088 466.719 654.671 466.603 655.616C465.929 661.167 462.999 662.458 462.074 669.417C461.765 671.653 461.553 673.503 462.266 675.72C463.192 678.592 464.714 678.939 465.023 681.444C465.119 682.273 465.003 682.601 463.635 687.555C462.343 692.219 462.305 692.508 462.459 693.067C463.172 695.67 466.006 695.959 466.199 698.58C466.218 698.869 466.314 700.026 465.62 700.951C464.811 702.011 463.731 701.722 462.478 702.724C461.592 703.418 460.859 704.555 460.705 705.673C460.474 707.312 461.476 708.661 463.269 710.993C465.466 713.846 466.584 714.212 466.815 715.928C466.95 716.853 466.642 717.74 466.025 719.475C464.888 722.693 464.329 724.293 463.076 724.795C460.84 725.681 459.259 722.173 455.79 722.636C453.65 722.925 453.496 724.332 450.855 724.602C449.622 724.737 449.178 724.467 446.326 724.023C445.131 723.831 443.878 723.696 441.391 723.445C435.281 722.79 432.236 722.462 430.347 723.445C427.667 724.852 428.631 726.741 425.817 729.555C424.333 731.04 423.195 731.387 411.823 734.297C403.959 736.302 402.359 736.668 400.393 735.685C398.388 734.663 397.521 732.967 395.266 732.929C392.702 732.871 391.16 735.01 390.543 734.509C389.483 733.642 394.533 727.589 392.702 725.045C392.316 724.505 391.661 724.216 388.77 723.869C384.51 723.368 381.407 723.484 380.385 723.465C374.525 723.465 369.88 719.609 367.278 717.451C365.89 716.313 366.121 716.256 358.7 706.618C354.286 700.874 352.59 698.811 349.429 697.347C346.249 695.901 342.22 695.342 341.546 696.556C341.121 697.327 342.259 698.445 345.69 702.956C349.718 708.237 348.832 707.64 351.01 710.242C355.192 715.272 357.775 716.757 357.216 718.414C356.811 719.648 354.923 720.226 353.573 720.284C350.046 720.419 348.947 716.911 343.724 714.174C339.772 712.131 335.397 711.514 334.953 712.4C334.761 712.786 335.339 713.326 337.903 716.333C339.098 717.74 340.061 718.916 340.659 719.629" stroke="#1E1E1C" stroke-width="4" stroke-miterlimit="10"/>
<path d="M251.954 206.58C251.183 209.953 254.364 212.497 254.865 214.078C255.79 216.969 257.294 217.894 257.968 221.325C258.469 223.831 258.065 225.758 257.968 226.202C257.91 226.452 256.638 231.869 253.535 232.408C251.897 232.698 251.53 231.329 248.658 230.635C247.829 230.442 244.341 229.594 241.7 231.387C240.601 232.139 239.792 233.854 238.153 237.304C237.151 239.405 236.65 240.485 236.823 241.14C237.498 243.993 243.184 244.166 243.184 245.882C243.184 246.672 241.97 246.846 239.772 248.542C238.616 249.428 235.262 252.031 235.782 253.862C235.86 254.17 236.11 254.633 239.329 256.078C241.449 257.023 243.068 257.62 243.319 257.698C248.947 259.779 250.856 271.46 249.68 277.512C249.468 278.669 249.082 279.806 248.196 280.172C246.654 280.809 245.266 278.322 243.165 278.553C241.064 278.785 241.16 281.406 237.999 284.028C236.958 284.895 234.896 285.782 230.752 287.574C227.07 289.174 226.318 289.29 225.586 290.388C223.909 292.875 225.046 296.46 225.142 296.749C226.068 299.506 227.995 300.508 227.513 301.626C227.359 301.954 226.993 302.3 224.41 302.802C221.095 303.457 220.613 303.129 219.244 303.553C215.89 304.575 214.252 307.89 214.078 308.295C212.71 311.167 213.307 313.923 213.5 314.656C214.368 318.125 216.546 318.395 224.738 325.739C227.494 328.206 228.246 329.074 229.769 329.151C232.583 329.247 233.643 326.433 237.594 323.831C239.445 322.617 242.606 321.826 248.832 320.284C256.445 318.395 260.301 317.47 261.843 318.357C265.389 320.381 264.059 324.737 269.225 328.997C271.673 331.021 272.309 330.307 273.658 331.946C276.222 335.03 274.583 338.287 274.834 346.73C275.027 352.647 275.123 355.616 276.916 358.546C279.903 363.461 283.836 362.497 285.204 366.236C286.688 370.304 282.39 372.539 279.691 382.1C278.477 386.379 276.8 392.335 279.287 397.867C280.867 401.356 282.216 400.508 284.799 404.96C288.288 410.955 288.462 417.007 288.346 419.745C288.25 422.25 288.134 424.833 286.765 427.821C284.549 432.659 281.368 433.449 281.638 436.283C281.908 438.981 284.876 439.579 285.378 443.569C285.474 444.359 285.609 445.477 285.185 446.711C283.913 450.276 279.499 449.93 276.318 453.11C275.663 453.785 274.796 454.845 273.061 462.574C270.767 472.79 271.711 473.33 270.112 477.936C268.223 483.353 265.351 487.034 263.018 490.061C259.684 494.359 256.291 497.424 253.708 499.467" stroke="#1E1E1C" stroke-width="4" stroke-miterlimit="10"/>
<path d="M51.1064 395.458C57.6022 394.879 62.8258 395.246 66.5459 395.728C72.8296 396.537 79.1134 398.233 81.7734 395.149C82.6407 394.128 82.6022 393.183 83.8551 392.489C85.8597 391.352 87.7872 392.798 91.1026 392.933C93.8204 393.048 95.8443 392.239 97.7525 391.448C101.55 389.926 101.839 388.307 107.217 384.201C111.303 381.078 114.618 378.553 116.681 379.613C118.801 380.712 118.069 384.837 120.227 385.377C121.172 385.608 122.386 385.088 123.042 384.336C123.986 383.256 123.562 381.888 124.217 381.676C124.68 381.522 125.027 382.158 126.723 383.16C127.629 383.7 128.092 383.97 128.651 384.047C130.039 384.24 130.655 383.314 131.465 383.603C132.39 383.931 132.352 385.357 132.795 386.553C134.183 390.311 140.274 391.969 144.032 392.027C146.866 392.065 149.198 391.583 149.198 391.583C151.608 391.082 152.513 390.465 153.188 391.005C154.113 391.699 153.053 393.26 153.188 396.768C153.285 399.409 153.978 401.896 154.672 404.305C155.328 406.599 155.501 406.56 155.424 407.119C154.981 410.068 150.355 410.3 149.352 413.48C148.813 415.234 149.68 416.95 150.104 417.759C152.167 421.807 156.311 420.824 160.455 425.45C161.399 426.51 163.52 428.881 162.961 431.213C162.556 432.929 161.149 432.697 160.301 434.625C159.009 437.555 161.496 439.849 160.012 443.202C159.703 443.877 159.375 444.282 158.836 444.976C155.636 448.966 152.147 448.465 151.588 450.585C151.068 452.512 153.824 453.283 154.248 457.081C154.499 459.317 153.651 459.972 154.094 461.668C154.711 463.962 156.966 465.369 158.971 466.256" stroke="#1E1E1C" stroke-width="4" stroke-miterlimit="10"/>
<path d="M284.607 418.048C287.691 418.048 290.216 415.542 290.216 412.439C290.216 409.336 287.71 406.83 284.607 406.83C281.503 406.83 278.998 409.336 278.998 412.439C278.998 415.542 281.503 418.048 284.607 418.048Z" fill="#1E1E1C"/>
<path d="M308.007 350.238C311.091 350.238 313.616 347.732 313.616 344.629C313.616 341.525 311.11 339.02 308.007 339.02C304.904 339.02 302.398 341.525 302.398 344.629C302.398 347.732 304.904 350.238 308.007 350.238Z" fill="#1E1E1C"/>
<path d="M308.007 310.897C311.091 310.897 313.616 308.392 313.616 305.288C313.616 302.185 311.11 299.679 308.007 299.679C304.904 299.679 302.398 302.185 302.398 305.288C302.398 308.392 304.904 310.897 308.007 310.897Z" fill="#1E1E1C"/>
<path d="M313.616 208.45C316.7 208.45 319.225 205.944 319.225 202.841C319.225 199.737 316.719 197.231 313.616 197.231C310.513 197.231 308.007 199.737 308.007 202.841C308.007 205.944 310.513 208.45 313.616 208.45Z" fill="#1E1E1C"/>
<path d="M433 272C432.193 273.582 429.555 275.647 426.288 277.557C423.276 279.313 423.02 278.946 422.056 279.93C419.536 282.477 421.13 285.102 419.044 287.031C416.859 289.038 412.883 288.324 410.58 287.919C405.915 287.089 404.517 285.005 403.041 285.835C400.462 287.321 402.293 295.058 402.45 295.598C403.592 300.249 405.363 301.078 404.871 303.587C404.261 306.597 400.856 309.511 397.627 309.511C393.907 309.491 393.612 305.632 387.963 303.297C387.096 302.95 380.994 300.519 375.896 303.008C373.554 304.146 373.691 305.227 370.463 306.848C368.259 307.967 365.641 309.279 362.924 308.623C359.479 307.793 359.302 304.629 356.586 304.474C354.736 304.378 354.263 305.787 349.952 308.912C345.267 312.289 343.102 312.579 343.004 314.238C342.964 314.759 343.161 315.338 347.236 319.274C350.838 322.747 351.251 322.844 351.468 323.712C352.216 326.799 347.728 328.034 347.236 332.588C346.901 335.656 348.85 336.081 349.657 341.753C350.248 345.96 349.224 345.902 349.952 347.967C351.763 353.08 357.747 352.424 359.617 357.73C359.834 358.348 360.739 360.933 359.617 363.345C358.574 365.564 356.704 365.719 356.606 367.185C356.428 369.558 361.251 370.253 361.743 373.398C362.117 375.791 359.775 378.222 358.731 379.322C356.487 381.657 354.716 381.676 354.499 383.162C354.204 385.091 357.039 385.902 356.921 388.198C356.822 389.992 355.011 390.398 354.204 392.636C353.476 394.643 354.086 396.669 354.637 398" stroke="#1E1E1C" stroke-width="4" stroke-miterlimit="10"/>
<path d="M365.968 540.369C369.052 540.369 371.577 537.863 371.577 534.76C371.577 531.657 369.071 529.151 365.968 529.151C362.864 529.151 360.358 531.657 360.358 534.76C360.358 537.863 362.864 540.369 365.968 540.369Z" fill="#1E1E1C"/>
<path d="M450.74 604.248C453.824 604.248 456.35 601.742 456.35 598.638C456.35 595.535 453.844 593.029 450.74 593.029C447.637 593.029 445.131 595.535 445.131 598.638C445.131 601.742 447.637 604.248 450.74 604.248Z" fill="#1E1E1C"/>
<path d="M237.999 204.036C236.785 203.746 234.279 203.322 231.369 204.17C229.865 204.614 226.916 205.5 225.451 208.006C223.774 210.878 225.972 213.461 224.275 215.389C222.791 217.066 220.652 215.678 217.49 216.873C214.888 217.856 213.269 220.497 210.108 225.739C206.388 231.908 204.537 234.992 205.366 237.555C206.388 240.678 209.723 241.102 209.8 244.051C209.838 245.786 208.759 247.79 207.14 248.484C204.672 249.544 202.841 246.807 199.16 246.711C196.268 246.653 194.225 248.253 190.582 251.144C184.376 256.059 185.301 258.257 180.54 261.187C176.222 263.827 174.41 262.671 171.384 265.62C168.724 268.203 167.818 271.306 167.24 273.311C165.274 280.076 167.818 282.948 165.158 287.497C163.635 290.119 162.517 289.637 161.014 291.931C157.564 297.193 160.474 304.209 161.997 310.069C165.158 322.212 160.069 323.87 162.787 335.281C163.404 337.864 163.462 337.285 166.045 346.306C168.184 353.843 169.264 357.678 169.591 360.493C170.478 368.222 168.146 369.88 168.107 376.453C168.069 384.722 171.712 390.716 178.15 401.279C184.973 412.478 189.194 414.714 190.563 423.156C191.45 428.554 189.927 428.978 190.563 434.394C191.797 444.957 198.408 451.028 204.75 459.22C210.571 465.099 212.672 473.484 221.557 486.572C223.022 486.745 224.121 487.883 226.627 488.634C228.67 489.251 230.251 489.964 236.033 493.068C243.165 496.904 244.071 497.597 246.731 498.349C250.413 499.371 251.126 498.735 253.689 499.39C260.783 501.24 264.638 508.777 266.835 512.748C271.384 520.901 268.416 523.812 273.928 533.141C275.933 536.514 278.034 540.099 282.217 543.183C285.956 545.959 287.787 545.708 290.1 548.503C291.18 549.814 292.471 551.915 293.647 559.934C294.881 568.26 293.878 568.742 294.823 573.735C296.307 581.541 298.813 580.789 300.74 589.097C301.762 593.511 303.092 599.274 301.145 605.654C300.201 608.719 299.14 609.837 298.639 613.538C298.099 617.451 299.025 618.203 298.639 622.848C298.369 626.086 298.119 629.132 296.268 632.158C294.244 635.473 292.568 635.088 291.103 638.075C289.271 641.796 290.235 645.785 290.524 646.942C292.009 653.11 296.249 653.496 296.731 658.623C297.039 661.9 295.343 662.15 295.112 666.757C295.035 668.203 294.765 673.233 297.483 677.397C300.355 681.83 303.381 680.346 310.05 686.553C313.79 690.041 314.811 692.354 315.081 694.378C315.428 696.942 314.618 699.024 314.329 699.698C313.057 702.84 311.361 703.765 306.426 709.259C302.957 713.133 302.379 714.328 302.745 715.253C303.169 716.294 304.653 716.641 306.581 717.046C308.739 717.528 310.956 718.029 312.652 716.853C314.483 715.6 314.194 713.442 316.064 712.825C316.989 712.516 317.837 712.786 318.184 712.902C322.521 714.27 321.153 723.041 325.547 725.18C328.612 726.684 333.527 724.486 335.975 722.732C338.115 721.19 338.77 719.725 340.794 719.475C342.78 719.243 344.032 720.458 346.403 721.768C349.468 723.484 351.955 724.024 356.022 724.949C362.093 726.317 363.732 724.159 368.435 725.238C371.133 725.855 373.427 726.857 383.508 734.047C395.459 742.586 397.02 744.61 402.205 746.132C407.082 747.578 413.038 747.983 413.635 748.021C416.604 748.214 418.088 748.311 419.321 747.925C425.335 746.094 426.762 738.731 429.364 739.251C430.424 739.463 430.251 740.735 432.506 743.588C434.144 745.67 435.455 747.347 437.402 748.06C441.527 749.583 445.035 745.496 447.386 747.289C448.427 748.079 447.772 748.908 449.352 751.568C450.374 753.284 451.357 754.922 453.072 755.423C455.328 756.078 456.542 754.035 458.373 754.806C458.682 754.941 459.106 755.192 461.072 759.259C462.71 762.651 462.845 763.403 462.517 764.058C462.074 764.984 461.187 764.733 460.146 765.832C458.682 767.374 458.778 769.61 458.778 769.899C458.932 772.867 461.611 775.431 464.136 775.681C465.698 775.855 466.141 775.026 470.208 773.407C472.83 772.366 475.682 771.248 476.261 772.019C476.8 772.713 474.853 774.043 474.044 777.223C473.254 780.307 474.622 780.847 473.928 783.7C473.022 787.439 470.247 788.287 470.729 790.562C471.018 791.969 472.367 793.068 473.639 793.434C474.275 793.627 476.511 794.07 482.062 789.02C488.404 783.257 487.999 780.346 493.069 777.551C495.17 776.395 496.076 776.414 498.562 774.737C500.49 773.445 502.841 771.865 504.518 769.089C506.253 766.198 507.93 760.936 505.694 757.177C504.036 754.382 501.877 755.172 500.432 752.185C499.873 751.009 500.085 750.643 499.988 743.974C499.931 739.81 499.815 738.808 500.605 738.287C501.819 737.478 504.345 738.48 505.636 740.061C506.715 741.371 506.272 742.354 507.371 743.665C508.836 745.4 511.052 745.708 511.399 745.766C514.426 746.209 519.167 741.834 523.196 741.429C524.834 741.275 526.299 740.639 531.581 743.53C537.363 746.691 539.638 749.159 543.628 749.294C548.947 749.486 551.395 749.004 553.053 747.713C560.378 743.53 559.761 732.447 568.762 723.118C572.097 719.648 572.714 717.836 575.046 714.213C578.458 708.95 579.19 705.5 580.308 701.279C582.371 693.492 587.363 689.328 594.418 682.794C603.843 671.287 621.866 658.334 621.634 641.969C621.5 632.081 617.452 632.543 615.871 620.516C616.604 609.066 623.196 598.002 623.196 598.002C624.776 594.764 625.817 591.718 626.415 587.382C626.415 583.873 624.237 580.732 626.607 575.161C628.94 568.164 630.694 566.352 629.46 561.36C629.267 560.608 629.499 559.722 627.88 558.218C624.738 556.117 623.176 555.597 620.285 553.091C617.76 551.279 616.835 548.503 616.141 546.383C614.483 541.352 613.269 536.668 611.631 533.604C610.59 531.503 612.691 533.064 605.347 529.941C596.962 528.38 593.743 527.378 589.117 526.279C582.313 525.238 583.161 526.086 578.13 524.718C573.716 523.503 569.553 519.629 561.631 514.078C560.281 513.133 559.954 512.921 559.53 512.362C557.467 509.702 559.298 507.197 558.354 500.759C557.968 498.137 557.776 496.826 557.197 495.477C556.677 494.282 556.137 493.492 556.099 492.143C556.06 490.697 556.6 489.579 556.87 489.059C558.219 486.418 560.031 486.688 561.187 484.49C562.151 482.678 561.843 480.751 561.65 479.517C561.264 477.089 560.281 476.587 559.53 473.812C559.067 472.058 559.028 470.728 559.009 469.186C558.971 467.49 559.009 462.998 561.072 456.676C562.883 451.067 563.963 447.79 566.989 444.745C570.632 441.082 572.463 442.393 574.796 438.924C577.263 435.261 575.933 432.717 579.113 429.19C580.887 427.224 582.043 427.185 582.564 425.47C583.161 423.503 581.927 422.636 580.752 418.299C579.576 413.943 580.27 412.806 578.843 411.052C577.552 409.452 576.376 409.645 573.755 408.334C570.748 406.83 570.902 405.867 564.503 399.718C559.742 395.15 559.028 395.072 558.161 393.087C556.638 389.618 558.123 388.191 556.715 384.837C556.33 383.912 555.559 382.505 549.237 377.763C542.914 373.041 539.715 370.689 537.459 371.345C534.375 372.231 534.318 376.106 531.33 376.414C529.479 376.607 528.747 375.18 525.335 373.156C521.422 370.824 517.837 369.995 515.447 369.436C509.722 368.106 509.24 369.494 505.463 367.933C501.434 366.256 500.74 364.155 498.119 364.348C494.996 364.579 494.688 367.702 491.816 367.971C489.117 368.222 486.727 365.601 481.966 360.358C478.901 356.985 478.901 356.329 476.685 354.517C473.273 351.722 472.02 352.281 469.495 350.142C464.869 346.229 464.059 340.138 463.963 339.309C463.443 334.914 465.235 334.375 465.544 327.416C465.756 322.732 465.89 319.918 464.175 317.355C461.9 313.924 459.202 315.215 455.193 311.649C453.111 309.779 453.998 309.567 448.793 300.084C445.247 293.608 443.878 291.95 444.302 289.059C444.572 287.227 445.401 286.09 444.938 283.97C444.591 282.389 443.955 282.216 442.22 279.247C440.119 275.643 440.524 274.968 439.214 273.985C437.19 272.463 435.802 273.812 433.739 272.386C431.927 271.133 431.446 269.012 430.694 265.736C430.173 263.519 429.826 261.881 430.617 260.338C431.465 258.681 433.219 259.086 433.682 257.852C434.26 256.252 432.024 254.614 430.405 251.973C429.961 251.241 429.094 249.66 428.227 242.798C426.781 231.406 428.574 231.059 426.858 227.204C424.68 222.231 421.654 222.655 419.996 217.49C419.63 216.372 419.495 215.466 419.456 214.675C419.321 211.514 419.514 208.874 419.534 207.794C419.572 204.093 416.334 201.395 413.828 198.908C403.612 188.808 406.291 183.083 397.001 176.241C392.972 173.291 389.387 172.096 385.436 170.786C373.89 166.95 370.189 170.111 358.855 166.063C354.036 164.348 353.285 163.268 346.847 161.187C342.799 159.876 338.905 158.662 333.72 158.353C327.995 158.006 323.639 158.951 320.844 159.587C311.477 161.688 303.959 165.967 303.323 166.333C298.948 168.858 293.107 172.867 288.443 171.711C287.884 171.576 287.537 171.422 286.881 171.403C283.354 171.345 282.602 175.874 278.67 176.26C277.687 176.356 275.663 176.549 273.716 175.45C272.232 174.621 272.174 173.773 271.211 173.523C269.322 173.022 267.49 175.643 264.445 178.804C258.45 185.011 256.253 184.51 255.694 187.42C255.116 190.389 257.371 191.025 258.065 196.73C258.412 199.602 258.855 203.207 256.735 205.153C255.848 205.963 254.615 206.31 248.716 205.655C245.941 205.346 242.298 204.826 238.038 203.92L237.999 204.036Z" fill="#F32C40" fill-opacity="0.3"/>
<path d="M231.369 204.171C229.692 204.653 226.877 205.578 225.451 208.006C223.774 210.878 225.972 213.461 224.275 215.389C222.791 217.066 220.652 215.678 217.49 216.873C214.888 217.837 213.269 220.497 210.108 225.74C206.388 231.908 204.537 234.992 205.366 237.555C206.388 240.678 209.723 241.102 209.8 244.051C209.838 245.786 208.759 247.79 207.14 248.484C204.672 249.545 202.841 246.807 199.16 246.711C196.268 246.653 194.225 248.253 190.582 251.144C184.376 256.06 185.301 258.257 180.54 261.187C176.222 263.827 174.41 262.671 171.384 265.62C168.724 268.203 167.818 271.306 167.24 273.311C165.274 280.077 167.818 282.949 165.158 287.497C163.635 290.119 162.517 289.637 161.014 291.931C157.564 297.193 160.474 304.209 161.997 310.069C165.158 322.212 160.069 323.87 162.787 335.281C163.404 337.864 163.462 337.285 166.045 346.326C168.184 353.862 169.264 357.698 169.591 360.512C170.478 368.241 168.146 369.899 168.107 376.472C168.069 384.741 171.712 390.736 178.15 401.299C184.973 412.497 189.194 414.733 190.563 423.176C191.45 428.573 189.927 428.997 190.563 434.413C191.797 444.957 198.408 451.048 204.75 459.24C208.682 464.329 213.578 471.634 218.069 481.618C219.649 485.146 222.945 487.536 226.627 488.654C228.67 489.271 230.251 489.984 236.033 493.087C243.165 496.923 244.071 497.617 246.731 498.369C250.413 499.39 251.126 498.754 253.689 499.41C260.783 501.26 264.638 508.797 266.835 512.748C271.384 520.901 268.416 523.812 273.928 533.141C275.933 536.514 278.034 540.1 282.217 543.184C285.956 545.959 287.787 545.709 290.1 548.504C291.18 549.814 292.471 551.915 293.647 559.934C294.881 568.261 293.878 568.743 294.823 573.735C296.307 581.541 298.813 580.79 300.74 589.097C301.762 593.511 303.092 599.294 301.145 605.655C300.2 608.719 299.14 609.837 298.639 613.538C298.099 617.451 299.025 618.203 298.639 622.848C298.369 626.086 298.119 629.132 296.268 632.158C294.244 635.473 292.568 635.088 291.103 638.076C289.271 641.796 290.235 645.786 290.524 646.942C292.009 653.11 296.249 653.496 296.731 658.623C297.039 661.9 295.343 662.15 295.112 666.757C295.035 668.203 294.765 673.234 297.483 677.397C300.355 681.83 303.381 680.346 310.05 686.553C313.79 690.042 314.811 692.355 315.081 694.379C315.428 696.942 314.618 699.024 314.329 699.699C313.057 702.84 311.361 703.766 306.426 709.259C302.957 713.133 302.379 714.329 302.745 715.254C303.169 716.295 304.653 716.642 306.581 717.046C308.739 717.528 310.956 718.029 312.652 716.854C314.483 715.601 314.194 713.442 316.064 712.825C316.989 712.517 317.837 712.787 318.184 712.902C322.521 714.271 321.153 723.041 325.547 725.18C328.612 726.684 333.527 724.487 335.975 722.733C338.115 721.191 338.77 719.726 340.794 719.475C342.78 719.244 344.032 720.458 346.403 721.769C349.468 723.484 351.955 724.024 356.022 724.949C362.093 726.318 363.732 724.159 368.435 725.238C371.133 725.855 373.427 726.857 383.508 734.047C395.459 742.586 397.02 744.61 402.205 746.133C407.082 747.578 413.038 747.983 413.635 748.022C416.604 748.214 418.088 748.311 419.321 747.925C425.335 746.094 426.762 738.731 429.364 739.251C430.424 739.463 430.251 740.736 432.506 743.588C434.144 745.67 435.455 747.347 437.402 748.06C441.527 749.583 445.035 745.497 447.386 747.289C448.427 748.079 447.772 748.908 449.352 751.568C450.374 753.284 451.357 754.922 453.072 755.423C455.328 756.079 456.542 754.036 458.373 754.807C458.682 754.941 459.106 755.192 461.072 759.259C462.71 762.652 462.845 763.403 462.517 764.059C462.074 764.984 461.187 764.733 460.146 765.832C458.682 767.374 458.778 769.61 458.778 769.899C458.932 772.867 461.611 775.431 464.136 775.682C465.698 775.855 466.141 775.026 470.208 773.407C472.83 772.366 475.682 771.248 476.261 772.019C476.8 772.713 474.853 774.043 474.044 777.224C473.254 780.308 474.622 780.847 473.928 783.7C473.022 787.44 470.247 788.288 470.729 790.562C471.018 791.969 472.367 793.068 473.639 793.434C474.275 793.627 476.511 794.07 482.062 789.02C488.404 783.257 487.999 780.346 493.069 777.551C495.17 776.395 496.075 776.414 498.562 774.737C500.49 773.446 502.841 771.865 504.518 769.089C506.253 766.198 507.93 760.936 505.694 757.177C504.036 754.402 501.877 755.173 500.432 752.185C499.873 751.009 500.085 750.643 499.988 743.974C499.931 739.81 499.815 738.808 500.605 738.288C501.82 737.478 504.345 738.48 505.636 740.061C506.715 741.372 506.272 742.355 507.371 743.665C508.701 745.265 510.705 745.651 511.284 745.747C511.284 745.747 511.341 745.747 511.399 745.766C514.117 746.152 518.338 743.068 521.018 742.085C523.909 741.025 526.608 741.873 529.981 742.914C535.648 744.687 535.937 747.405 540.389 748.889C544.823 750.373 550.663 749.718 554.595 746.846C559.163 743.492 558.103 739.367 562.922 730.886C566.16 725.18 567.317 725.874 571.712 719.61C579.73 708.16 578.072 702.763 585.281 692.413C585.975 691.41 586.072 691.352 596.442 680.597C611.091 665.408 618.473 657.64 620.478 649.467C620.941 647.54 621.924 643.453 621.268 638.288C620.382 631.291 617.548 630.385 616.334 624.641C614.772 617.143 617.818 610.088 621.557 601.395C624.256 595.15 626.338 592.721 626.376 587.401C626.415 582.968 624.969 582.428 625.586 578.342C626.318 573.465 628.67 572.193 629.479 566.275C629.904 563.288 630.096 561.784 629.325 560.127C627.725 556.657 624.179 557.139 620.266 553.13C618.377 551.202 617.509 549.352 616.122 546.422C613.057 539.907 614.368 537.806 612.556 534.645C610.224 530.597 604.055 529.363 591.777 527.012C579.402 524.641 577.282 525.393 572.174 522.675C567.702 520.285 564.56 517.066 561.631 514.097C560.204 512.652 559.626 511.823 559.202 511.033C557.429 507.64 558.701 505.481 558.335 500.74C557.853 494.398 555.231 493.627 556.291 490.254C557.371 486.861 560.262 486.861 561.592 483.585C562.961 480.192 560.493 478.149 559.414 472.694C558.103 466.083 559.838 460.512 561.052 456.638C562.537 451.857 563.982 447.27 568.126 443.569C571.596 440.466 573.658 440.967 575.74 437.575C577.552 434.625 576.916 432.775 579.518 429.286C581.291 426.915 582.178 426.992 582.544 425.431C583.18 422.79 580.829 421.865 580.27 417.355C579.942 414.695 580.597 413.77 579.672 412.208C578.728 410.608 577.166 410.088 575.875 409.49C573.446 408.373 573.87 407.91 566.835 401.665C559.896 395.516 559.375 395.863 558.469 393.916C556.696 390.1 558.585 388.635 556.696 384.799C555.887 383.161 555.173 382.659 549.217 377.725C541.642 371.46 540.91 370.689 539.291 370.786C535.301 371.017 534.51 375.894 530.578 375.682C528.824 375.585 528.651 374.602 523.639 372.135C521.789 371.229 519.88 370.42 518.608 369.957C513.096 367.991 511.515 370.285 507.313 368.723C502.899 367.085 502.918 364.136 499.834 364.097C496.23 364.039 495.343 367.991 491.816 367.914C489.734 367.856 487.961 366.121 484.453 362.632C481.002 359.221 481.099 358.411 478.612 356.079C474.372 352.108 472.81 353.226 469.495 350.084C466.102 346.865 463.809 341.757 463.789 336.881C463.77 331.676 466.353 330.289 465.968 323.542C465.736 319.437 464.676 317.875 464.194 317.278C462.286 314.83 460.05 315.196 457.255 313.326C454.981 311.804 455.173 310.724 451.318 304.036C446.365 295.439 444.341 294.282 444.244 290.235C444.187 287.729 445.748 286.399 444.958 283.893C444.341 281.908 443.242 281.811 442.24 279.171C441.18 276.395 441.931 275.316 440.794 274.275C439.58 273.157 438.442 274.14 435.705 273.195C434.954 272.925 432.371 272.039 431.253 269.803C430.713 268.704 431.118 268.492 430.713 265.678C430.212 262.17 429.46 261.572 429.981 260.416C430.79 258.604 433.045 259.221 433.701 257.794C434.684 255.655 430.173 253.38 428.265 247.636C427.841 246.383 427.706 243.935 427.456 239.059C427.07 231.792 427.417 231.117 427.051 228.862C425.991 222.289 421.153 222.636 420.112 216.622C419.456 212.825 420.574 212.016 419.572 207.737C418.666 203.862 416.43 201.8 413.867 198.851C405.752 189.521 408.45 187.401 401.627 180.443C399.082 177.841 394.283 172.945 387.209 170.921C384.356 170.111 379.364 169.244 375.509 168.743C373.35 168.454 373.003 168.492 370.844 168.222C370.844 168.222 364.83 167.471 358.894 166.025C348.89 163.596 349.314 161.033 340.929 159.221C338.963 158.797 332.583 157.582 324.642 158.797C323.832 158.912 319.823 159.568 314.811 161.399C311.978 162.44 309.78 163.558 305.405 165.794C297.444 169.861 296.577 170.786 293.281 171.345C289.657 171.962 289.387 170.747 286.631 171.75C282.814 173.137 282.39 175.913 278.728 176.26C277.745 176.356 275.721 176.549 273.774 175.451C272.29 174.622 272.232 173.774 271.268 173.523C269.379 173.022 267.548 175.643 264.503 178.804C258.508 185.011 256.311 184.51 255.752 187.42C255.174 190.389 257.429 191.025 258.123 196.73C258.47 199.602 258.12 204.053 256 206C254.94 206.983 254.287 206.349 248.774 205.655C238.443 204.344 235.879 202.86 231.369 204.171Z" stroke="#E73348" stroke-width="1.5" stroke-miterlimit="10"/>
</g>
<defs>
<clipPath id="clip0_8144_2276">
<rect width="852.66" height="748.13" fill="white" transform="translate(30 47)"/>
</clipPath>
</defs>
</svg>
