<svg width="529" height="460" viewBox="0 0 529 460" fill="none" xmlns="http://www.w3.org/2000/svg">
<g clip-path="url(#clip0_8144_2231)">
<path d="M32.42 130.101C31.5032 130.651 32.6263 132.588 31.3657 134.548C30.8155 135.396 29.658 136.519 28.4317 136.416C27.0794 136.313 26.8158 134.823 25.3832 134.777C24.5351 134.743 23.6183 135.247 23.1598 135.946C22.369 137.161 23.5266 138.261 22.816 139.465C22.3117 140.301 21.2688 140.588 19.9623 140.943C18.4151 141.367 17.9682 141.046 17.0169 141.562C16.8565 141.654 15.699 142.295 15.2176 143.545C14.3581 145.745 16.421 147.59 15.4354 148.965C14.9425 149.665 14.3466 149.24 13.636 150.054C13.0515 150.696 13.1432 151.292 12.8452 154.409C12.6275 156.713 12.5244 157.022 12.3983 157.309C11.9742 158.34 11.47 158.65 11.1605 159.681C10.9084 160.552 11.0001 161.297 11.0688 161.962C11.1949 163.177 11.5387 163.979 11.7679 164.644C13.0859 168.357 12.5129 171.233 14.0142 172.013C14.232 172.127 14.4383 172.196 14.4383 172.196C15.6187 172.609 16.3407 172.104 16.8565 172.506C17.0971 172.689 17.1545 172.964 17.2461 173.503C17.4754 174.752 17.1201 175.485 17.0742 176.276C17.0169 177.25 17.4639 177.949 18.3464 179.313C19.0569 180.413 21.1084 183.577 24.3174 183.966C25.3947 184.092 25.4061 183.783 26.5636 183.966C28.214 184.23 28.7641 184.998 30.8728 186.293C33.8755 188.138 35.4571 188.241 35.6176 189.456C35.7207 190.201 35.2164 190.934 35.0904 191.129C34.3225 192.264 33.2681 192.092 33.0618 192.802C32.7982 193.777 34.6892 194.453 34.6434 196.011C34.6205 196.882 34.0016 197.524 33.7609 197.765C32.8097 198.75 31.4344 198.911 30.4259 199.037C29.0964 199.197 28.5578 198.98 27.9275 199.484C27.4003 199.897 27.2169 200.492 27.1252 200.802C26.6783 202.303 27.6868 202.934 27.4003 204.183C27.1252 205.386 26.0594 205.375 25.0738 206.91C24.3861 207.976 24.2486 208.996 24.1111 210.119C22.7931 220.721 23.2515 221.683 23.8475 221.935C24.4549 222.187 24.7414 221.534 26.4261 221.443C28.1338 221.351 29.4403 221.935 29.8758 222.142C31.6866 222.978 32.6722 224.319 33.2108 225.076C34.2881 226.565 33.8182 226.76 34.7924 227.826C35.6405 228.754 36.3969 229.052 37.4856 230.462C38.0816 231.23 38.1618 231.539 38.1274 231.803C38.0243 232.743 36.6719 232.823 36.374 233.671C36.0416 234.634 37.394 235.447 38.8953 237.533C39.7778 238.76 40.5227 240.318 42.0011 243.458C42.8492 245.258 43.1701 246.094 44.1672 246.679C45.2101 247.298 46.0926 247.103 46.4479 247.791C46.8719 248.616 45.8405 249.303 45.9207 250.61C46.0467 252.707 48.9119 254.025 49.2557 254.186C49.6339 254.357 51.8229 255.332 53.9431 254.358C54.1265 254.266 55.8112 253.498 55.7654 252.535C55.7081 251.55 53.8629 251.412 53.6566 250.197C53.5306 249.418 54.1265 248.524 54.8256 248.203C55.5591 247.871 55.9373 248.375 57.4616 248.547C59.3755 248.776 59.9829 248.134 60.9112 248.719C61.4842 249.074 61.2779 249.338 62.149 250.129C62.4469 250.392 63.1804 251.057 64.2577 251.412C65.5872 251.859 66.2175 251.435 66.5384 251.882C66.9166 252.398 66.1831 253.108 65.782 254.747C65.3809 256.375 65.3809 258.541 66.1946 258.907C66.5728 259.079 67.0197 258.804 67.5355 258.495C69.1629 257.521 69.1399 256.203 70.4694 255.802C70.6298 255.756 71.1799 255.595 71.753 255.802C72.3833 256.031 72.5094 256.512 72.9907 257.039C73.4835 257.566 74.515 257.864 76.5665 258.449C77.6208 258.747 78.1595 258.896 78.8471 259.033C80.1995 259.297 80.337 259.194 83.0646 259.503C84.7608 259.687 84.8983 259.755 85.288 259.618C86.3768 259.24 86.3538 258.403 87.626 257.246C88.0615 256.856 89.2648 255.767 90.9037 255.607C91.7518 255.526 91.5684 255.802 94.2388 256.34C95.7859 256.65 96.485 256.684 96.783 257.246C97.0122 257.67 96.8174 258.025 96.7486 258.77C96.657 259.836 96.932 260.615 97.3675 261.841C97.5967 262.472 98.7313 265.715 99.9576 265.635C100.519 265.6 100.519 264.901 101.539 264.443C101.734 264.351 102.731 263.939 103.648 264.317C104.313 264.58 104.359 265.039 105.493 266.563C106.742 268.236 107.247 268.431 107.43 268.5C108.129 268.741 108.461 268.443 109.63 268.282C112.232 267.915 112.965 269.05 114.238 268.374C115.521 267.698 115.418 266.196 116.266 266.173C116.828 266.151 117.011 266.838 118.421 268.282C119.395 269.291 119.888 269.795 120.529 270.036C121.744 270.506 122.443 269.898 124.22 269.864C125.423 269.841 126.237 270.093 127.864 270.609C129.194 271.021 130.099 271.457 133.457 273.245C138.007 275.674 137.996 275.766 138.844 275.995C141.732 276.786 143.646 276.179 143.944 276.992C144.173 277.634 143.05 278.264 141.663 280.133C140.551 281.622 140.024 282.895 139.268 284.717C138.293 287.078 138.316 287.926 136.941 291.387C136.242 293.129 135.784 294.046 134.832 294.435C133.927 294.814 133.285 294.401 132.426 295.02C132.105 295.261 132.105 295.375 131.085 296.842C130.122 298.217 129.985 298.309 129.847 298.366C128.804 298.848 127.876 297.759 127.154 298.194C126.5 298.584 126.856 299.707 126.569 301.128C126.203 302.882 125.068 303.971 123.876 305.117C121.446 307.443 120.289 306.698 118.134 308.566C117.55 309.082 114.707 311.672 114.616 315.133C114.536 318.262 116.736 320.806 115.498 322.227C115.487 322.239 115.498 322.227 114.558 323.053C112.874 324.531 112.736 324.657 112.622 324.921C112.243 325.849 113.08 326.239 113.034 327.557C113 328.542 112.507 328.623 111.097 331.132C109.974 333.115 109.779 333.963 109.688 334.467C109.596 335.006 109.481 335.682 109.63 336.519C109.997 338.582 111.533 339.212 111.212 340.095C111.052 340.553 110.616 340.438 109.046 341.332C107.9 341.974 107.327 342.307 106.994 342.857C106.502 343.693 106.88 344.278 106.823 345.962C106.823 345.962 106.777 347.464 106.181 349.298C105.585 351.12 104.634 352.289 103.843 353.286C100.68 357.251 99.0981 359.234 98.4563 360.793C98.0093 361.847 96.2329 366.156 98.1125 368.815C99.0752 370.179 100.45 370.362 101.253 372.333C101.814 373.732 101.642 374.969 101.597 375.233C101.276 377.307 99.7743 378.602 99.4877 378.843C98.101 379.978 97.0581 379.771 96.6684 380.78C96.4048 381.479 96.8747 381.662 96.7601 382.98C96.7143 383.508 96.5882 384.906 95.614 385.708C94.892 386.304 94.3419 386.052 94.1242 386.499C93.6887 387.381 95.8203 388.47 95.614 389.926C95.4536 391.083 94.021 391.037 93.15 392.917C92.9552 393.329 92.5655 394.166 92.703 395.174C92.8291 396.091 93.2646 396.275 93.872 397.833C94.2617 398.83 94.4565 399.335 94.3648 399.942C94.2388 400.836 93.6543 401.088 92.9552 402.051C92.0612 403.3 91.4538 405.065 91.7174 406.532C91.8206 407.094 92.3478 407.804 93.4136 409.225C95.6828 412.262 96.7143 412.641 97.1383 414.36C97.2071 414.669 97.2529 414.956 97.4821 415.093C98.399 415.609 100.462 412.744 101.677 413.305C101.906 413.408 102.043 413.603 102.296 413.947C102.422 414.119 102.972 414.875 102.914 415.471C102.777 416.675 100.072 416.732 99.9576 417.729C99.8659 418.497 101.379 419.356 102.479 419.689C102.731 419.758 105.023 420.422 106.926 419.162C108.209 418.314 108.106 417.408 109.791 416.354C110.456 415.941 110.96 415.62 111.659 415.529C113.779 415.254 115.796 417.19 117.286 418.634C118.444 419.746 118.616 420.216 119.509 420.571C120.633 421.018 121.515 420.743 122.959 420.514C126.913 419.895 127.096 420.881 129.171 420.17C130.214 419.803 129.973 419.632 133.801 416.766C137.388 414.085 138.041 413.913 138.729 413.901C139.978 413.878 140.219 414.451 142.889 414.726C144.093 414.852 144.402 414.772 144.883 415.07C146.121 415.85 145.686 417.385 146.637 418.348C147.84 419.563 150.293 418.955 151.084 418.761C154.178 417.993 155.943 415.689 160.046 413.661C160.527 413.42 161.192 413.11 161.799 413.363C162.991 413.867 162.624 416.021 163.793 416.526C164.458 416.801 165.215 416.388 165.902 415.999C166.315 415.769 168.389 414.6 168.538 412.308C168.618 411.128 168.183 409.535 166.957 408.79C165.765 408.068 164.355 408.48 162.922 408.904C161.18 409.42 161.306 409.879 160.103 410.142C157.456 410.715 155.015 408.824 154.075 408.091C153.605 407.724 151.76 406.303 152.081 405.512C152.402 404.721 154.499 405.512 155.484 404.343C156.252 403.415 155.347 402.463 156.126 401.18C156.745 400.16 157.914 399.747 159.347 399.243C161.043 398.647 161.261 399.002 161.868 398.487C163.083 397.444 162.487 395.77 163.736 395.083C163.771 395.06 164.412 394.716 165.146 394.911C165.765 395.071 166.131 395.53 166.555 396.08C168.607 398.785 168.699 398.899 168.962 398.945C170.062 399.174 170.578 397.352 172.24 397.363C173.18 397.363 173.913 397.948 174.349 398.303C174.796 398.67 175.793 399.449 175.816 400.527C175.816 400.859 175.735 401.191 174.532 402.933C173.294 404.698 172.939 404.996 173.065 405.42C173.26 406.074 174.36 406.303 175.701 406.566C177.076 406.841 177.764 406.979 178.452 406.681C179.919 406.051 179.689 404.343 180.973 403.988C181.947 403.713 183.024 404.435 183.552 404.996C184.067 405.546 184.136 406.039 184.514 407.323C185.168 409.5 185.5 410.578 185.97 410.967C187.368 412.136 190.325 411.196 191.987 410.268C193.958 409.168 194.199 408.045 195.677 407.942C196.812 407.861 197.396 408.469 199.012 409.305C199.367 409.489 201.969 410.807 204.731 411.196C208.032 411.655 209.063 410.417 212.112 411.368C212.971 411.632 213.59 411.953 214.358 412.377C218.358 414.589 221.567 416.95 223.274 418.176C228.271 421.763 230.815 423.574 233.382 424.147C233.417 424.147 233.382 424.147 238.563 424.846C240.992 425.178 241.772 425.282 242.7 424.846C243.17 424.617 243.411 424.388 245.336 422.164C247.307 419.895 247.559 419.551 248.018 419.586C248.854 419.643 248.935 420.858 250.871 423.093C251.834 424.204 252.327 424.754 253.118 424.938C254 425.144 254.31 424.72 256.327 424.422C257.782 424.216 258.527 424.113 259.054 424.479C259.593 424.858 259.444 425.27 260.223 427.024C260.762 428.216 261.037 428.823 261.564 429.098C262.172 429.419 262.871 429.327 263.73 429.213C264.865 429.075 265.094 428.766 265.575 428.949C266.114 429.144 266.229 429.671 266.744 430.771C267.856 433.109 268.509 433.201 268.383 433.992C268.211 435.046 267.042 434.931 266.275 436.398C266.217 436.513 265.3 438.312 266.16 439.802C266.756 440.822 267.971 441.338 269.002 441.384C270.607 441.453 271.18 440.352 274.446 439.355C275.5 439.034 276.039 438.966 276.199 439.206C276.463 439.573 275.638 440.307 275.111 441.579C274.343 443.47 275.306 443.985 274.813 446.151C274.263 448.558 272.761 449.257 273.231 450.598C273.46 451.263 274.056 451.756 274.641 451.939C275.615 452.26 276.841 451.802 279.214 449.716C282.984 446.404 282.663 445.131 285.425 443.034C287.775 441.258 288.382 441.9 290.663 439.894C292.027 438.702 293.711 437.189 294.181 434.714C294.284 434.164 294.743 431.722 293.39 429.877C292.37 428.514 291.328 428.789 290.571 427.413C290.193 426.714 290.319 426.37 290.308 423.379C290.296 420.17 290.147 419.494 290.651 419.162C291.385 418.703 292.829 419.345 293.643 420.216C294.64 421.282 294.25 422.256 295.224 423.035C296.152 423.78 297.436 423.608 297.768 423.563C299.831 423.287 299.992 421.637 302.078 420.835C304.175 420.033 306.307 420.835 307.258 421.179C309.332 421.947 309.149 422.749 311.303 423.906C312.037 424.296 315.292 425.935 319.039 425.316C321.48 424.915 322.993 423.734 323.692 424.434C324.139 424.88 323.99 425.82 323.784 426.37C323.131 428.067 321.079 428.021 320.885 429.362C320.804 429.912 321.056 430.576 321.503 430.851C322.317 431.367 323.245 430.256 324.667 430.508C325.136 430.588 325.687 431.035 326.775 431.917C328.873 433.625 329.916 434.484 329.767 435.252C329.629 435.986 328.643 436.055 328.62 436.662C328.586 437.464 330.236 438.267 331.52 438.599C334.66 439.413 337.502 437.911 337.846 437.716C338.087 437.59 339.325 436.628 341.8 434.725C343.531 433.396 344.127 432.937 344.608 433.144C345.605 433.579 344.642 436.123 346.098 437.281C346.797 437.831 347.863 437.911 348.642 437.625C350.373 436.994 349.891 434.909 351.714 433.843C352.241 433.533 352.264 433.717 355.851 433.224C358.292 432.891 358.487 432.777 358.67 432.605C359.897 431.447 358.384 429.465 359.633 427.505C360.527 426.107 362.2 425.717 362.441 425.66C363.954 425.327 364.504 426.072 367.094 426.107C368.561 426.13 369.329 426.118 369.913 425.58C370.693 424.846 370.165 423.998 370.704 422.153C371.185 420.503 372.354 419.081 373.523 418.371C374.922 417.523 376.01 417.878 380.617 418.256C384.147 418.543 385.924 418.692 386.978 418.554C390.668 418.084 391.241 416.583 394.978 416.09C396.364 415.907 396.376 416.102 400.364 416.331C410.725 416.904 411.687 415.655 411.939 415.127C412.363 414.245 411.916 413.042 411.813 412.755C411.573 412.125 411.252 411.781 409.659 410.165C407.951 408.434 407.71 408.205 407.722 407.793C407.745 407.036 408.604 406.83 410.312 405.546C412.914 403.61 413.28 402.349 414.885 402.257C415.561 402.211 416.558 402.372 416.73 402.876C417.051 403.804 414.117 404.905 414.266 406.521C414.346 407.403 415.309 408.182 416.157 408.297C416.489 408.343 416.696 408.274 418.403 407.563C420.122 406.864 420.26 406.796 420.558 406.819C421.75 406.91 421.796 408.091 422.884 408.228C423.457 408.297 424.431 407.712 426.403 406.555C426.884 406.268 427.331 405.993 427.893 406.074C428.42 406.142 428.913 406.509 429.165 406.956C429.543 407.621 429.245 408.228 429.211 408.893C429.119 410.75 431.147 412.961 433.073 413.202C434.024 413.317 434.884 412.812 436.545 411.792C439.686 409.879 439.64 408.813 441.645 408.228C442.551 407.965 442.138 408.308 445.863 407.965C447.41 407.827 448.029 407.712 448.591 408.137C449.484 408.824 448.831 409.833 449.737 410.818C450.573 411.735 451.502 411.265 453.14 412.526C454.034 413.225 454.046 413.592 454.046 413.729C454.011 414.268 453.347 414.383 452.59 415.116C452.292 415.391 451.33 416.423 451.226 417.844C451.215 418.038 451.123 419.7 452.189 420.571C453.186 421.374 454.172 420.652 455.708 421.27C456.544 421.614 456.831 422.05 458.08 423.471C460.349 426.015 461.484 427.299 462.825 427.952C463.352 428.204 465.976 429.419 467.397 428.296C468.521 427.413 468.406 425.431 468.28 423.196C468.119 420.571 467.501 420.078 467.936 418.623C468.177 417.798 468.864 416.996 470.217 415.425C472.566 412.709 473.093 412.721 473.265 411.792C473.609 409.901 471.73 408.022 470.331 406.635C469.266 405.569 468.268 404.584 466.698 404.056C463.226 402.899 460.017 405.019 459.547 404.171C459.192 403.541 461.243 402.67 461.415 400.538C461.541 399.014 460.567 398.406 460.716 396.206C460.75 395.587 460.785 394.991 461.117 394.315C461.839 392.768 463.088 392.722 463.891 391.519C464.739 390.246 464.418 388.653 464.234 387.771C463.524 384.195 460.04 381.96 459.134 381.387C456.819 379.897 455.1 379.771 454.688 378.224C454.516 377.605 454.722 377.342 454.573 375.646C454.55 375.416 454.413 373.881 454.16 373.01C453.427 370.534 450.929 370.878 449.06 368.208C447.777 366.362 447.192 363.635 448.235 362.202C448.407 361.973 448.499 361.939 450.08 360.964C452.338 359.589 453.473 358.89 453.679 358.592C454.894 356.839 453.438 354.959 454.642 353.939C455.18 353.481 455.902 353.515 457.369 353.595C460.017 353.721 460.395 354.581 461.323 354.214C462.974 353.538 462.103 350.661 464.486 348.77C465.369 348.071 466.297 347.808 466.687 347.716C468.314 347.326 468.887 347.98 470.114 347.888C472.841 347.693 473.025 344.255 476.268 343.407C477.586 343.063 477.643 343.602 480.13 343.315C480.245 343.304 482.48 343.04 484.439 342.261C484.749 342.146 490.812 339.625 492.531 333.734C493.081 331.854 492.92 329.849 492.622 325.826C492.324 321.884 491.728 320.485 492.714 318.617C493.493 317.139 495.132 315.58 497.023 315.454C498.123 315.374 499.613 315.775 500.805 316.417C501.779 316.944 502.158 317.425 502.742 317.299C503.785 317.07 503.693 315.305 504.587 315.099C505.298 314.939 505.951 315.901 507.75 317.827C509.538 319.741 510.432 320.703 511.005 320.726C512.999 320.818 514.696 316.36 515.933 313.082C517.331 309.392 518.031 307.558 517.343 305.644C516.667 303.764 515.337 303.375 514.879 300.956C514.764 300.361 514.489 298.882 515.12 297.323C515.922 295.329 517.4 295.249 517.813 293.92C518.558 291.524 514.822 288.384 514.294 287.949C509.561 283.96 507.051 286.528 501.871 282.917C498.467 280.545 497.275 277.829 493.665 277.531C492.015 277.393 491.545 277.898 490.617 277.382C488.176 276.018 490.227 271.778 487.454 267.331C486.972 266.563 485.345 263.973 482.468 263.113C481.013 262.689 480.44 263.056 478.251 262.414C476.417 261.876 474.95 261.452 474.148 260.191C473.197 258.69 474.217 257.589 473.208 256.145C472.486 255.102 471.638 255.217 469.93 254.277C467.673 253.04 466.389 251.32 465.541 250.174C463.982 248.089 464.567 247.756 462.492 244.318C460.544 241.086 459.467 240.456 458.802 240.158C458.412 239.986 456.865 239.298 455.169 239.745C453.84 240.089 453.691 240.8 452.178 241.155C451.616 241.281 450.482 241.453 449.244 241.04C447.891 240.582 447.112 239.642 446.424 238.817C444.809 236.823 445.382 236.078 443.96 234.485C442.86 233.247 441.531 232.571 440.557 232.078C438.597 231.092 438.081 231.39 437.336 230.554C436.351 229.442 436.144 227.689 436.396 226.394C436.649 225.11 437.21 224.927 437.096 223.987C437.05 223.586 436.866 222.967 435.227 221.408C433.417 219.689 433.268 220.079 432.706 219.299C431.755 217.981 432.374 217.099 431.365 213.672C431.17 212.996 430.872 212.114 430.082 211.621C429.531 211.277 429.291 211.46 428.97 211.151C428.385 210.578 428.855 209.592 428.97 207.346C429.085 205.237 428.741 204.87 428.626 204.767C428.087 204.286 427.434 204.687 426.105 204.653C423.996 204.607 422.46 203.53 421.887 203.128C420.73 202.326 419.034 200.687 419.423 199.793C419.744 199.083 421.051 199.644 422.357 198.624C423.538 197.696 423.824 196.149 423.904 195.645C424.283 193.513 423.194 192.699 423.87 191.461C424.317 190.648 424.833 190.934 426.231 189.662C427.056 188.906 427.503 188.23 428.168 187.244C429.302 185.548 429.864 184.7 429.658 183.989C429.474 183.37 428.958 183.256 426.93 182.098C423.744 180.276 423.709 179.806 423.721 179.634C423.813 178.82 425.876 178.946 426.403 177.571C426.655 176.906 426.506 176.013 426.002 175.588C425.337 175.027 424.42 175.646 423.102 175.68C421.933 175.715 421.543 175.268 418.403 173.48C415.584 171.875 414.174 171.084 412.856 170.477C410.633 169.457 409.693 169.274 409.338 168.311C408.914 167.142 409.934 166.431 409.452 165.033C409.109 164.013 408.238 163.383 407.344 162.753C405.819 161.664 404.914 161.721 404.765 161.056C404.593 160.289 405.705 159.933 406.175 158.718C406.794 157.08 405.808 155.04 404.914 153.939C402.736 151.269 399.103 151.624 399.023 150.329C398.977 149.55 400.307 149.447 400.96 147.865C401.453 146.662 401.384 145.034 400.513 144.003C400.353 143.82 399.952 143.384 397.969 142.765C395.001 141.86 394.473 142.387 393.66 141.711C392.342 140.599 393.499 139.018 392.17 136.347C391.86 135.728 390.714 133.471 388.835 133.184C387.769 133.024 387.482 133.643 384.972 134.067C383.803 134.261 383.162 134.376 382.291 134.284C380.09 134.067 379.712 132.909 377.981 132.92C377.729 132.92 377.523 132.955 374.99 134.021C371.632 135.442 371.529 135.602 370.635 135.774C370.016 135.9 370.119 135.809 366.773 135.9C363.862 135.98 363.747 136.049 363.209 135.9C361.673 135.453 361.616 134.559 359.599 132.909C356.837 130.651 354.934 130.697 354.808 129.391C354.728 128.508 355.599 128.394 356.218 126.354C356.493 125.448 356.802 124.382 356.264 123.454C356.218 123.362 355.679 122.491 354.808 122.4C354.029 122.319 353.467 122.927 352.562 123.718C350.843 125.242 349.972 125.998 348.952 126.354C346.797 127.11 345.284 125.746 344.344 126.755C343.84 127.282 343.875 128.096 343.898 128.818C343.955 130.319 344.665 131.007 345.135 132.29C345.571 133.505 345.491 134.422 345.353 136.427C345.158 139.189 344.963 142.57 344.688 146.582H339.107C338.969 144.691 338.866 143.155 338.798 141.745C338.798 141.711 338.74 140.576 338.224 139.247C337.835 138.25 337.525 137.975 337.216 137.883C336.735 137.745 336.253 138.02 336.116 138.101C335.199 138.639 335.417 139.568 334.66 139.946C334.11 140.221 333.308 140.083 332.861 139.682C332.15 139.04 332.655 138.043 332.024 137.619C331.497 137.253 330.523 137.551 329.961 138.066C329.216 138.742 329.457 139.568 328.953 139.74C328.391 139.923 327.612 139.04 326.924 138.261C325.847 137.046 325.927 136.657 325.4 136.21C324.38 135.327 322.844 135.648 320.128 136.244C317.779 136.76 316.22 137.39 314.031 138.296C310.238 139.866 309.951 140.393 309.894 140.783C309.802 141.55 310.639 141.768 312.53 144.037C314.237 146.089 314.214 146.696 315.166 146.994C316.415 147.384 317.217 146.547 318.489 147.2C318.661 147.292 319.555 147.751 319.612 148.461C319.693 149.401 318.283 150.409 316.976 150.662C316.037 150.845 315.796 150.501 313.756 150.318C312.14 150.157 311.338 150.089 310.948 150.49C310.1 151.372 311.647 153.24 310.868 154.169C310.031 155.177 307.155 154.169 305.596 153.332C304.393 152.69 302.731 151.785 302.261 150.077C301.837 148.53 302.903 148.083 302.834 145.642C302.811 144.782 302.754 142.834 301.379 141.424C300.381 140.404 299.052 140.038 298.651 139.934C297.184 139.533 296.817 139.98 296.187 139.533C294.823 138.571 295.958 136.003 294.731 135.27C294.273 134.995 293.356 135.178 291.534 135.545C290.376 135.786 289.952 135.98 289.505 135.717C288.829 135.327 288.841 134.25 288.772 133.494C288.508 130.617 286.697 128.118 285.402 126.961C285.242 126.823 285.402 126.961 280.6 124.21C279.42 123.534 278.629 123.064 278.377 122.159C278.079 121.116 278.767 120.405 278.262 119.638C277.896 119.087 277.07 118.744 276.44 118.939C275.466 119.236 275.42 120.681 274.744 120.692C274.446 120.692 274.148 120.325 273.575 119.58C272.727 118.48 272.773 118.182 272.463 118.113C272.097 118.033 271.718 118.377 269.472 120.635C269.082 121.024 268.819 121.299 268.578 121.219C268.177 121.093 268.372 120.176 268.051 118.961C267.535 117.002 266.297 116.75 266.424 115.489C266.504 114.721 267.02 114.171 267.524 113.644C268.59 112.521 269.289 112.75 269.77 111.936C270.309 111.019 270.068 109.564 269.243 108.681C268.406 107.799 267.237 107.799 266.561 107.799C265.346 107.799 264.452 108.246 263.306 108.807C261.06 109.93 260.785 110.756 259.742 110.652C258.676 110.549 257.794 109.575 257.461 108.67C256.991 107.409 257.542 106.206 257.988 105.243C259.157 102.699 260.67 102.596 260.716 101.106C260.762 99.6044 259.203 99.3179 259.306 97.5873C259.375 96.4871 260.04 96.1089 259.925 94.8597C259.834 93.8741 259.375 93.7824 259.398 93.1062C259.444 91.6392 261.576 89.9431 263.535 90.0348C265.071 90.1035 265.977 91.2496 266.527 90.8255C266.79 90.6192 266.767 90.0462 266.699 88.8887C266.618 87.3186 266.378 86.8258 266.699 86.5163C267.168 86.0579 268.166 86.7226 268.452 86.3444C268.727 85.9891 268.2 84.9348 267.398 84.2357C266.297 83.273 265.438 83.6053 264.063 82.9177C262.412 82.0925 261.094 80.362 261.427 79.7545C261.977 78.7231 267.272 80.9579 267.845 79.8462C268.12 79.2961 266.939 78.6199 266.527 76.6831C266.424 76.1903 266.034 74.3451 266.974 73.4283C268.017 72.4083 270.194 73.0501 271.191 73.3366C273.518 74.0242 273.976 75.113 275.5 74.9182C276.406 74.8035 277.483 74.2534 277.701 73.4283C277.804 73.0271 277.701 72.5458 276.463 70.884C274.859 68.695 274.641 68.9701 274.263 68.1564C273.346 66.1851 274.904 65.211 274.091 62.7928C273.552 61.2112 272.475 60.409 272.853 59.8016C273.105 59.4119 273.816 59.3661 274.263 59.4577C275.672 59.7099 275.97 61.3373 276.807 61.3029C277.552 61.2685 278.205 59.9735 278.388 58.9305C278.721 57.0281 277.655 54.9308 276.108 53.716C274.068 52.1115 272.784 53.2804 270.836 51.7218C269.071 50.3121 269.782 49.0744 267.787 47.2751C266.32 45.9571 265.793 46.4957 263.684 44.9371C262.71 44.2151 261.209 43.1034 260.166 41.1895C259.203 39.4131 259.513 38.565 258.298 37.2012C257.45 36.2499 257.14 36.4791 256.189 35.4477C254.653 33.7744 254.951 32.6169 253.966 32.2845C252.854 31.9063 251.135 32.892 250.688 34.1526C250.275 35.2987 251.078 36.2041 250.573 36.7313C249.897 37.4304 248.144 36.1812 247.525 36.8459C247.055 37.3387 247.41 38.7483 248.224 39.5391C249.198 40.4904 250.264 40.0205 250.688 40.8227C251.146 41.6708 250.356 42.9544 249.932 43.642C249.485 44.3526 249.198 44.8225 248.694 44.9256C247.811 45.1205 247.215 44.0088 245.794 42.9315C244.247 41.751 244.373 41.8313 241.21 40.2726C238.723 39.6537 237.451 38.8056 237.165 37.7857C236.809 36.4906 237.531 34.9893 238.735 34.3704C239.984 33.74 241.05 34.6454 242.012 33.9005C242.883 33.2358 242.86 31.872 242.849 31.5854C242.757 29.1902 240.259 28.8693 239.434 26.0499C238.907 24.2277 239.434 22.5888 239.674 21.8324C240.007 20.7781 240.58 19.0017 242.104 18.2338C243.731 17.4086 244.969 18.4859 245.714 17.7066C246.62 16.7324 245.588 14.1538 244.396 12.6983C243.789 11.9419 242.769 10.6927 241.325 10.5895C240.511 10.5322 239.755 10.8417 239.044 10.3259C238.586 9.99358 238.586 9.6383 238.196 9.53516C237.508 9.36325 237.153 10.3489 236.328 10.3259C235.709 10.3145 235.549 9.75291 234.483 9.00797C234.265 8.84752 233.451 8.28595 232.615 8.06819C230.896 7.62123 229.199 8.69853 228.42 9.17988C226.701 10.2572 226.621 11.1626 225.349 11.3459C224.271 11.5064 223.698 10.9677 223.24 11.3459C222.621 11.8617 223.16 13.2599 223.354 14.4518C223.778 17.0992 222.518 19.3225 221.36 21.3625C220.432 23.0014 218.323 26.7261 214.094 27.7461C213.212 27.9524 210.415 28.6401 208.123 27.2189C206.003 25.9124 206.244 24.0214 203.963 23.0014C203.401 22.7493 201.35 21.947 199.574 23.0587C198.301 23.8495 197.408 25.454 197.637 26.8637C197.912 28.5713 199.631 28.7317 199.86 30.554C199.998 31.6427 199.528 32.7659 198.806 33.4191C197.774 34.3475 196.307 34.2672 195.7 34.2443C190.027 34.0151 184.09 36.3875 183.46 36.651C181.431 37.4648 178.635 38.6337 177.191 41.4531C175.965 43.8713 175.953 47.0344 177.076 47.6074C178.417 48.2951 180.686 44.834 182.933 45.6706C183.517 45.8883 183.804 46.278 184.4 47.0802C184.801 47.6189 186.738 50.358 185.924 53.1085C185.328 55.1371 183.884 54.9881 183.345 57.2688C183.036 58.6096 183.46 58.9764 183.001 60.4892C182.761 61.2914 182.325 62.7126 181.156 63.3887C180.354 63.8472 179.884 63.5721 177.466 63.4804C174.75 63.3773 173.375 63.3429 172.458 64.0993C172.125 64.3744 172.377 64.2827 170.784 66.6436C170.074 67.6979 169.787 68.0647 169.902 68.4887C170.108 69.2451 171.289 69.1191 171.655 69.8984C172.068 70.7465 171.174 71.9957 170.773 72.5343C166.429 78.5053 167.702 77.6687 165.146 80.4422C161.788 84.0981 160.539 84.568 159.782 84.7514C159.083 84.9233 157.272 85.3817 155.737 84.4878C154.877 83.9721 154.866 83.4907 154.247 83.3417C153.009 83.0667 151.989 84.7514 149.594 87.1237C146.408 90.264 145.353 90.092 145.021 91.6049C144.654 93.2552 145.915 93.4959 146.431 97.1404C146.923 100.624 145.972 101.793 145.64 102.149C145.514 102.286 145.113 102.699 144.494 102.939C142.202 103.833 139.279 101.53 137.56 99.1001C137.331 96.5444 136.345 94.8597 136.311 94.4356C136.105 91.5132 136.276 89.519 135.291 88.2698C134.569 87.353 133.744 87.8916 131.772 86.9862C131.555 86.8831 127.681 85.0494 127.326 82.0581C127.131 80.4537 128.116 79.8348 127.566 78.7804C126.959 77.6458 125.091 77.0154 123.704 77.6114C122.707 78.0354 122.249 78.9752 122.065 79.3649C120.976 81.7029 122.753 83.0781 121.825 85.1067C120.999 86.9289 118.604 87.8687 118.192 88.0406C117 88.5105 116.45 88.3615 115.854 88.9804C114.891 89.966 115.372 91.2725 115.028 92.4988C114.421 94.7107 111.418 95.6619 108.553 96.5329C101.39 98.7219 96.8518 97.4612 95.637 99.9597C95.1556 100.945 95.7516 101.392 95.0983 102.802C93.9408 105.289 91.0298 106.206 90.6516 106.32C87.4426 107.272 86.0788 105.461 83.3282 106.733C81.8613 107.409 82.1822 107.948 80.5089 108.67C78.4575 109.552 77.4718 108.933 75.3287 109.724C73.6211 110.343 73.9076 110.847 72.0739 111.753C68.6013 113.449 66.7561 112.028 65.484 113.506C64.4525 114.71 65.5298 115.821 64.6015 119.477C64.2119 121.036 63.7191 122.973 62.6647 123.167C61.4499 123.385 60.8883 120.99 58.2753 120.096C57.0834 119.683 55.2267 119.5 54.5849 120.36C54.1036 121.001 54.5735 121.895 55.8227 125.288C57.3011 129.31 57.4386 130.285 57.0604 131.259C56.7281 132.095 55.9602 133.047 54.9517 133.287C54.0577 133.494 53.7139 132.978 51.6166 132.405C50.0007 131.969 48.9348 131.694 48.1899 132.233C47.422 132.783 47.5825 133.746 47.1355 133.814C46.3333 133.94 45.8978 130.892 44.3162 130.56C43.2847 130.342 42.9065 131.545 40.9811 132.049C39.4913 132.451 38.2077 132.141 37.1189 131.878C34.1277 131.167 33.1421 129.62 32.3169 130.124V130.067L32.42 130.101Z" fill="#323232"/>
<path d="M163.576 223.116C165.111 217.924 167.014 216.354 168.584 215.999C170.246 215.609 171.3 216.549 173.031 215.758C175.013 214.864 175.231 212.618 176.778 212.595C177.603 212.584 178.211 213.214 178.303 213.294C179.93 214.99 177.443 218.005 178.772 219.976C179.494 221.042 180.491 220.537 185.213 221.97C189.534 223.265 189.958 224.079 190.015 224.549C190.061 224.973 189.809 225.19 188.812 226.417C187.322 228.25 186.382 229.419 185.74 230.726C185.431 231.356 184.285 233.671 185.041 234.416C185.786 235.15 188.227 234.233 189.866 232.835C191.505 231.436 191.253 230.508 193.557 227.471C194.943 225.649 195.654 224.743 196.72 224.48C198.072 224.159 198.485 225.007 201.293 225.179C203.631 225.316 204.479 224.801 204.811 224.56C204.937 224.468 206.221 223.54 206.049 222.623C205.797 221.363 203.069 221.729 202.358 220.079C201.969 219.174 202.301 217.97 202.977 217.351C203.848 216.549 205.166 216.847 206.931 217.088C211.275 217.684 214.61 218.131 216.157 216.561C216.879 215.827 217.246 214.601 217.83 212.698C218.289 211.174 218.243 210.635 218.793 210.234C219.698 209.604 220.615 210.509 222.93 210.498C223.916 210.498 225.933 210.475 226.621 209.352C227.217 208.366 226.139 207.61 226.357 205.398C226.529 203.656 227.331 202.785 226.884 202.326C226.472 201.891 225.417 202.281 224.775 202.498C222.781 203.209 222.586 204.286 221.521 204.252C220.237 204.217 219.297 202.59 218.885 201.879C218.415 201.066 218.094 200.516 218.266 199.943C218.518 199.106 219.79 198.751 222.3 198.097C224.455 197.536 225.177 197.57 226.082 196.779C226.735 196.195 227.079 195.542 227.32 195.633C227.744 195.805 226.861 198.063 227.492 198.453C227.767 198.613 228.122 198.327 230.036 197.307C231.308 196.642 231.514 196.573 231.789 196.608C232.637 196.699 232.786 197.513 233.818 198.281C234.712 198.946 236.305 199.61 237.6 199.163C238.952 198.693 238.872 197.375 240.419 196.883C241.21 196.63 242.356 196.608 242.7 197.146C243.055 197.708 242.276 198.441 241.382 200.481C240.683 202.097 240.098 203.461 240.499 204.882C240.752 205.788 241.462 206.888 242.173 206.865C242.86 206.842 243.009 205.742 244.637 204.366C245.107 203.965 245.817 203.369 246.172 203.576C246.642 203.839 246.035 205.18 246.505 205.512C247.021 205.856 248.063 204.619 250.367 203.874C251.261 203.576 251.937 203.369 252.224 203.667C252.808 204.275 250.883 205.925 251.169 208.194C251.376 209.868 252.694 211.105 253.232 211.61C254.825 213.099 256.212 213.077 256.51 214.303C256.739 215.243 256.143 216.137 256.04 216.297C255.203 217.546 254 217.202 253.106 218.291C252.121 219.483 252.292 221.477 252.808 221.695C253.358 221.924 254.195 220.09 256.556 219.174C257.049 218.99 257.519 218.864 257.965 219.059C258.504 219.288 258.802 219.896 259.02 220.812C259.708 223.689 258.493 224.847 259.364 226.325C259.891 227.208 260.876 227.7 261.702 227.792C263.031 227.941 264.074 227.081 264.567 226.68C266.137 225.397 265.988 224.159 267.902 222.52C268.509 221.993 268.842 221.729 269.185 221.821C270.148 222.085 270.251 224.927 270.354 227.505C270.469 230.497 270.183 230.898 270.698 231.723C271.798 233.442 274.033 233.259 274.217 234.531C274.24 234.714 274.24 235.001 273.162 236.525C271.466 238.92 271.054 238.806 270.824 239.688C270.435 241.132 271.134 242.954 272.108 244.02C272.784 244.754 273.3 244.823 273.518 245.545C273.838 246.622 273.059 247.768 272.818 248.123C272.005 249.315 271.317 249.178 270.95 249.877C270.332 251.057 271.581 252.788 274.114 256.203C277.196 260.363 278.343 260.787 279.145 260.89C280.188 261.028 280.887 260.673 281.311 261.165C281.849 261.784 281.357 263.091 280.52 265.188C279.557 267.641 279.156 267.801 279.282 268.443C279.603 269.898 281.827 269.853 285.001 271.606C286.388 272.374 288.795 273.715 290.273 276.179C291.625 278.437 291.74 280.843 291.855 283.56C292.015 287.227 291.27 288.786 292.554 290.413C293.299 291.353 294.181 291.651 294.491 292.877C294.789 294.046 294.33 295.146 294.078 295.742C293.436 297.324 292.726 297.312 292.21 298.791C291.981 299.421 291.58 300.579 292.038 301.656C292.6 302.974 293.849 302.722 294.559 304.12C295.201 305.369 294.777 306.71 294.674 307.054C294.399 307.948 293.642 309.312 292.978 309.22C292.027 309.094 292.049 306.183 291.156 306.114C291.018 306.103 290.743 306.148 289.287 308.28C288.29 309.747 288.187 310.045 287.82 310.102C286.995 310.228 286.663 308.853 284.955 307.879C284.692 307.73 282.698 306.63 281.735 307.409C280.91 308.074 281.299 309.701 281.322 309.816C281.666 311.226 282.698 311.535 283.603 312.864C284.577 314.286 284.68 315.787 284.749 316.795C285.013 320.83 281.746 323.993 279.741 325.93C277.265 328.325 274.996 330.525 272.532 330.067C270.068 329.608 269.988 326.961 266.378 325.586C265.873 325.391 262.664 324.176 261.197 325.586C259.834 326.892 260.498 329.941 261.025 331.385C261.759 333.39 262.859 334.09 262.607 335.602C262.424 336.714 261.736 336.863 261.553 337.975C261.301 339.442 262.229 340.668 262.962 341.757C263.868 343.12 264.681 344.92 266.297 348.518C267.398 350.96 267.833 352.816 268.578 356.071C269.094 358.317 269.403 360.449 270.011 364.712C270.446 367.772 270.664 369.308 270.595 369.87C270.194 373.17 268.452 373.938 267.902 378.075C267.718 379.405 267.592 380.505 268.016 381.823C268.567 383.531 269.472 383.737 269.655 385.227C269.713 385.72 269.644 385.915 268.83 388.86C268.062 391.633 268.039 391.805 268.131 392.138C268.555 393.685 270.24 393.857 270.354 395.415C270.366 395.587 270.423 396.275 270.011 396.825C269.529 397.455 268.887 397.284 268.143 397.879C267.615 398.292 267.18 398.968 267.088 399.633C266.951 400.607 267.547 401.409 268.612 402.796C269.919 404.492 270.584 404.71 270.721 405.73C270.801 406.28 270.618 406.807 270.251 407.839C269.575 409.753 269.243 410.704 268.498 411.002C267.168 411.529 266.229 409.443 264.166 409.718C262.894 409.89 262.802 410.727 261.232 410.887C260.498 410.968 260.235 410.807 258.539 410.543C257.828 410.429 257.083 410.349 255.605 410.2C251.972 409.81 250.161 409.615 249.038 410.2C247.445 411.036 248.018 412.159 246.344 413.833C245.462 414.715 244.786 414.921 238.024 416.652C233.348 417.844 232.397 418.062 231.228 417.477C230.036 416.87 229.52 415.861 228.179 415.838C226.655 415.804 225.738 417.076 225.371 416.778C224.741 416.262 227.744 412.664 226.655 411.151C226.426 410.83 226.036 410.658 224.317 410.452C221.784 410.154 219.939 410.223 219.332 410.211C215.848 410.211 213.086 407.919 211.538 406.635C210.713 405.959 210.851 405.925 206.438 400.194C203.814 396.779 202.805 395.553 200.926 394.682C199.035 393.822 196.64 393.49 196.238 394.212C195.986 394.67 196.662 395.335 198.702 398.017C201.098 401.157 200.571 400.802 201.866 402.349C204.353 405.34 205.888 406.223 205.556 407.208C205.315 407.942 204.192 408.286 203.39 408.32C201.293 408.4 200.639 406.315 197.533 404.687C195.184 403.472 192.582 403.106 192.319 403.633C192.204 403.862 192.548 404.183 194.072 405.971C194.783 406.807 195.356 407.506 195.711 407.93" stroke="#1E1E1C" stroke-width="2.4" stroke-miterlimit="10"/>
<path d="M142.969 102.882C142.511 104.888 144.402 106.401 144.7 107.341C145.25 109.06 146.144 109.61 146.545 111.65C146.843 113.14 146.602 114.286 146.545 114.549C146.511 114.698 145.754 117.919 143.909 118.24C142.935 118.412 142.717 117.598 141.01 117.185C140.517 117.071 138.442 116.566 136.872 117.632C136.219 118.079 135.738 119.099 134.763 121.151C134.168 122.4 133.87 123.042 133.973 123.431C134.374 125.127 137.755 125.231 137.755 126.251C137.755 126.72 137.033 126.824 135.726 127.832C135.039 128.359 133.044 129.907 133.354 130.995C133.4 131.179 133.549 131.454 135.463 132.313C136.723 132.875 137.686 133.23 137.835 133.276C141.181 134.514 142.316 141.459 141.617 145.058C141.491 145.745 141.262 146.421 140.734 146.639C139.818 147.017 138.992 145.539 137.743 145.676C136.494 145.814 136.551 147.373 134.672 148.931C134.053 149.447 132.827 149.974 130.363 151.04C128.174 151.991 127.727 152.06 127.291 152.713C126.294 154.192 126.97 156.323 127.028 156.495C127.578 158.134 128.724 158.73 128.437 159.395C128.346 159.59 128.128 159.796 126.592 160.094C124.621 160.484 124.334 160.289 123.521 160.541C121.526 161.148 120.552 163.119 120.449 163.36C119.635 165.068 119.991 166.707 120.105 167.142C120.621 169.205 121.916 169.366 126.787 173.732C128.426 175.199 128.873 175.715 129.778 175.761C131.451 175.818 132.082 174.145 134.431 172.597C135.531 171.875 137.411 171.406 141.113 170.489C145.64 169.366 147.932 168.815 148.849 169.343C150.957 170.546 150.167 173.136 153.238 175.669C154.694 176.872 155.072 176.448 155.874 177.422C157.398 179.256 156.424 181.193 156.573 186.213C156.688 189.731 156.745 191.496 157.811 193.238C159.587 196.161 161.925 195.587 162.739 197.811C163.621 200.229 161.066 201.559 159.461 207.243C158.739 209.787 157.742 213.329 159.221 216.618C160.16 218.692 160.963 218.188 162.498 220.835C164.573 224.4 164.676 227.998 164.607 229.626C164.55 231.116 164.481 232.651 163.667 234.428C162.349 237.304 160.458 237.774 160.619 239.459C160.779 241.063 162.544 241.419 162.842 243.791C162.899 244.261 162.98 244.926 162.727 245.659C161.971 247.779 159.347 247.573 157.456 249.464C157.066 249.865 156.55 250.495 155.519 255.091C154.155 261.165 154.716 261.486 153.765 264.225C152.642 267.446 150.934 269.635 149.548 271.434C147.565 273.99 145.548 275.812 144.012 277.027" stroke="#1E1E1C" stroke-width="2.4" stroke-miterlimit="10"/>
<path d="M249.416 142.101C248.946 143.041 247.41 144.267 245.508 145.402C243.754 146.445 243.605 146.227 243.044 146.811C241.577 148.324 242.505 149.883 241.29 151.029C240.018 152.221 237.703 151.797 236.362 151.556C233.646 151.063 232.832 149.826 231.973 150.318C230.472 151.201 231.537 155.797 231.629 156.117C232.294 158.879 233.325 159.372 233.039 160.862C232.683 162.65 230.701 164.381 228.821 164.381C226.655 164.369 226.483 162.077 223.194 160.69C222.69 160.484 219.137 159.04 216.169 160.518C214.805 161.195 214.885 161.836 213.005 162.799C211.722 163.464 210.198 164.243 208.616 163.853C206.61 163.361 206.507 161.481 204.926 161.389C203.848 161.332 203.573 162.169 201.063 164.025C198.336 166.031 197.075 166.203 197.018 167.188C196.995 167.498 197.11 167.842 199.482 170.18C201.579 172.243 201.82 172.3 201.946 172.816C202.381 174.649 199.768 175.383 199.482 178.088C199.287 179.91 200.422 180.162 200.892 183.531C201.235 186.03 200.639 185.995 201.063 187.222C202.118 190.259 205.602 189.869 206.691 193.021C206.817 193.387 207.344 194.923 206.691 196.356C206.083 197.674 204.994 197.765 204.937 198.636C204.834 200.046 207.642 200.459 207.928 202.327C208.146 203.748 206.782 205.192 206.175 205.845C204.868 207.232 203.837 207.243 203.711 208.126C203.539 209.272 205.189 209.753 205.121 211.117C205.063 212.183 204.009 212.424 203.539 213.753C203.115 214.945 203.47 216.148 203.791 216.939" stroke="#1E1E1C" stroke-width="2.4" stroke-miterlimit="10"/>
<path d="M23.5495 215.185C27.4117 214.841 30.5175 215.059 32.7294 215.346C36.4656 215.827 40.2018 216.836 41.7834 215.002C42.2991 214.394 42.2762 213.833 43.0211 213.42C44.213 212.744 45.3591 213.604 47.3303 213.684C48.9463 213.753 50.1496 213.271 51.2842 212.801C53.542 211.896 53.7139 210.933 56.9114 208.492C59.3411 206.636 61.3123 205.134 62.5386 205.765C63.7993 206.418 63.3638 208.87 64.6474 209.191C65.2089 209.329 65.9309 209.019 66.3206 208.572C66.8822 207.931 66.63 207.117 67.0197 206.991C67.2948 206.899 67.5011 207.277 68.5096 207.873C69.0482 208.194 69.3233 208.355 69.6557 208.401C70.4808 208.515 70.8476 207.965 71.3289 208.137C71.879 208.332 71.8561 209.18 72.1197 209.89C72.9449 212.125 76.5664 213.111 78.8012 213.145C80.486 213.168 81.8727 212.882 81.8727 212.882C83.3053 212.584 83.8439 212.217 84.2451 212.538C84.7952 212.95 84.1648 213.879 84.2451 215.965C84.3024 217.535 84.7149 219.013 85.1275 220.446C85.5172 221.809 85.6203 221.787 85.5745 222.119C85.3109 223.872 82.5603 224.01 81.9644 225.901C81.6435 226.944 82.1592 227.964 82.4114 228.445C83.6376 230.852 86.1017 230.267 88.5657 233.018C89.1273 233.648 90.388 235.058 90.0556 236.445C89.8149 237.465 88.9783 237.327 88.474 238.473C87.7062 240.215 89.1846 241.579 88.3021 243.573C88.1188 243.974 87.9239 244.215 87.603 244.628C85.7006 247 83.6262 246.702 83.2938 247.963C82.9844 249.109 84.6233 249.567 84.8754 251.825C85.0244 253.154 84.5201 253.544 84.7837 254.553C85.1504 255.916 86.4913 256.753 87.6833 257.28" stroke="#1E1E1C" stroke-width="2.4" stroke-miterlimit="10"/>
<path d="M162.384 228.617C164.217 228.617 165.719 227.127 165.719 225.282C165.719 223.437 164.229 221.947 162.384 221.947C160.539 221.947 159.049 223.437 159.049 225.282C159.049 227.127 160.539 228.617 162.384 228.617Z" fill="#1E1E1C"/>
<path d="M176.297 188.298C178.131 188.298 179.632 186.808 179.632 184.963C179.632 183.118 178.142 181.628 176.297 181.628C174.452 181.628 172.962 183.118 172.962 184.963C172.962 186.808 174.452 188.298 176.297 188.298Z" fill="#1E1E1C"/>
<path d="M176.297 164.907C178.131 164.907 179.632 163.417 179.632 161.572C179.632 159.727 178.142 158.237 176.297 158.237C174.452 158.237 172.962 159.727 172.962 161.572C172.962 163.417 174.452 164.907 176.297 164.907Z" fill="#1E1E1C"/>
<path d="M179.632 103.994C181.466 103.994 182.967 102.504 182.967 100.659C182.967 98.8139 181.477 97.324 179.632 97.324C177.787 97.324 176.297 98.8139 176.297 100.659C176.297 102.504 177.787 103.994 179.632 103.994Z" fill="#1E1E1C"/>
<path d="M210.759 301.346C212.593 301.346 214.094 299.856 214.094 298.011C214.094 296.166 212.604 294.676 210.759 294.676C208.914 294.676 207.424 296.166 207.424 298.011C207.424 299.856 208.914 301.346 210.759 301.346Z" fill="#1E1E1C"/>
<path d="M261.163 339.327C262.997 339.327 264.498 337.837 264.498 335.992C264.498 334.147 263.008 332.657 261.163 332.657C259.318 332.657 257.828 334.147 257.828 335.992C257.828 337.837 259.318 339.327 261.163 339.327Z" fill="#1E1E1C"/>
<path d="M134.672 101.37C133.95 101.198 132.46 100.945 130.729 101.45C129.835 101.713 128.082 102.241 127.211 103.73C126.214 105.438 127.52 106.974 126.512 108.12C125.629 109.117 124.357 108.292 122.478 109.002C120.931 109.587 119.968 111.157 118.088 114.274C115.876 117.942 114.776 119.775 115.269 121.3C115.876 123.156 117.859 123.408 117.905 125.162C117.928 126.193 117.286 127.385 116.323 127.798C114.856 128.428 113.768 126.801 111.579 126.743C109.86 126.709 108.645 127.66 106.479 129.379C102.788 132.302 103.338 133.608 100.508 135.35C97.9405 136.92 96.8632 136.233 95.0639 137.986C93.4823 139.522 92.9437 141.367 92.5998 142.559C91.4308 146.582 92.9437 148.289 91.3621 150.994C90.4567 152.553 89.792 152.266 88.898 153.63C86.8466 156.759 88.5772 160.931 89.4825 164.415C91.3621 171.635 88.3365 172.62 89.9524 179.405C90.3192 180.941 90.3536 180.597 91.8893 185.961C93.1614 190.442 93.8032 192.722 93.998 194.396C94.5252 198.991 93.1385 199.977 93.1156 203.885C93.0926 208.802 95.2587 212.366 99.0866 218.646C103.144 225.305 105.654 226.634 106.467 231.654C106.994 234.863 106.089 235.115 106.467 238.336C107.201 244.616 111.132 248.226 114.902 253.097C118.363 256.593 119.613 261.578 124.896 269.36C125.767 269.463 126.42 270.139 127.91 270.586C129.125 270.953 130.065 271.377 133.503 273.222C137.743 275.503 138.282 275.915 139.864 276.362C142.053 276.97 142.477 276.591 144.001 276.981C148.218 278.081 150.51 282.562 151.817 284.923C154.522 289.771 152.757 291.502 156.035 297.049C157.226 299.054 158.476 301.186 160.963 303.02C163.186 304.67 164.275 304.521 165.65 306.183C166.292 306.962 167.06 308.211 167.759 312.979C168.492 317.93 167.896 318.216 168.458 321.185C169.34 325.826 170.83 325.379 171.976 330.319C172.584 332.943 173.374 336.37 172.217 340.164C171.655 341.986 171.025 342.651 170.727 344.851C170.406 347.177 170.956 347.624 170.727 350.386C170.567 352.312 170.418 354.123 169.317 355.922C168.114 357.893 167.117 357.664 166.246 359.44C165.157 361.652 165.73 364.025 165.902 364.712C166.785 368.38 169.306 368.609 169.592 371.657C169.776 373.606 168.767 373.755 168.63 376.494C168.584 377.353 168.423 380.345 170.039 382.82C171.747 385.456 173.546 384.574 177.512 388.264C179.735 390.338 180.343 391.714 180.503 392.917C180.709 394.441 180.228 395.679 180.056 396.08C179.3 397.948 178.291 398.498 175.357 401.765C173.294 404.068 172.95 404.779 173.168 405.329C173.42 405.948 174.303 406.154 175.449 406.395C176.732 406.681 178.05 406.979 179.059 406.28C180.148 405.535 179.976 404.251 181.088 403.885C181.638 403.701 182.142 403.862 182.348 403.931C184.927 404.744 184.113 409.959 186.726 411.231C188.548 412.125 191.471 410.818 192.926 409.776C194.198 408.859 194.588 407.988 195.792 407.839C196.972 407.701 197.717 408.423 199.127 409.202C200.949 410.223 202.427 410.543 204.845 411.094C208.456 411.907 209.43 410.624 212.226 411.265C213.831 411.632 215.194 412.228 221.188 416.503C228.294 421.58 229.222 422.783 232.305 423.689C235.205 424.548 238.746 424.789 239.101 424.812C240.866 424.927 241.749 424.984 242.482 424.755C246.058 423.666 246.906 419.288 248.453 419.597C249.084 419.723 248.98 420.48 250.321 422.176C251.295 423.414 252.075 424.411 253.232 424.835C255.685 425.74 257.771 423.311 259.169 424.376C259.788 424.846 259.398 425.339 260.338 426.921C260.945 427.941 261.53 428.915 262.55 429.213C263.891 429.602 264.613 428.388 265.701 428.846C265.885 428.926 266.137 429.075 267.306 431.493C268.28 433.51 268.36 433.957 268.165 434.347C267.902 434.897 267.375 434.748 266.756 435.402C265.885 436.318 265.942 437.648 265.942 437.82C266.034 439.585 267.627 441.109 269.128 441.258C270.056 441.361 270.32 440.868 272.738 439.906C274.297 439.287 275.993 438.622 276.337 439.08C276.658 439.493 275.5 440.284 275.019 442.175C274.549 444.008 275.363 444.329 274.95 446.026C274.412 448.249 272.761 448.753 273.048 450.106C273.22 450.942 274.022 451.595 274.778 451.813C275.156 451.928 276.486 452.191 279.787 449.189C283.557 445.762 283.316 444.031 286.331 442.37C287.58 441.682 288.118 441.693 289.597 440.696C290.743 439.928 292.141 438.989 293.138 437.338C294.17 435.619 295.167 432.491 293.837 430.256C292.852 428.594 291.568 429.064 290.709 427.287C290.376 426.588 290.502 426.371 290.445 422.405C290.411 419.93 290.342 419.334 290.812 419.024C291.534 418.543 293.035 419.139 293.803 420.079C294.445 420.858 294.181 421.442 294.834 422.222C295.705 423.253 297.023 423.437 297.23 423.471C299.029 423.735 301.848 421.133 304.244 420.892C305.218 420.801 306.089 420.422 309.229 422.142C312.667 424.021 314.02 425.488 316.392 425.568C319.555 425.683 321.011 425.396 321.996 424.629C326.351 422.142 325.984 415.552 331.337 410.005C333.319 407.942 333.686 406.865 335.073 404.71C337.101 401.581 337.537 399.53 338.202 397.02C339.428 392.39 342.396 389.914 346.591 386.029C352.195 379.187 362.911 371.486 362.773 361.755C362.693 355.876 360.286 356.151 359.346 349C359.782 342.192 363.701 335.614 363.701 335.614C364.641 333.688 365.26 331.878 365.615 329.299C365.615 327.213 364.32 325.345 365.73 322.033C367.117 317.873 368.16 316.795 367.426 313.827C367.312 313.38 367.449 312.853 366.486 311.959C364.618 310.71 363.69 310.4 361.971 308.91C360.47 307.833 359.919 306.183 359.507 304.922C358.521 301.931 357.799 299.146 356.825 297.324C356.206 296.074 357.455 297.003 353.089 295.146C348.103 294.218 346.19 293.622 343.439 292.969C339.393 292.35 339.898 292.854 336.906 292.04C334.282 291.318 331.806 289.015 327.096 285.714C326.294 285.152 326.099 285.026 325.847 284.694C324.621 283.112 325.709 281.623 325.148 277.795C324.919 276.236 324.804 275.457 324.46 274.654C324.151 273.944 323.83 273.474 323.807 272.672C323.784 271.812 324.105 271.148 324.265 270.838C325.068 269.268 326.145 269.428 326.833 268.122C327.406 267.045 327.222 265.899 327.108 265.165C326.878 263.721 326.294 263.423 325.847 261.773C325.572 260.73 325.549 259.939 325.538 259.022C325.515 258.014 325.537 255.343 326.764 251.584C327.841 248.249 328.483 246.301 330.282 244.49C332.448 242.313 333.537 243.092 334.924 241.029C336.391 238.851 335.6 237.339 337.491 235.241C338.545 234.072 339.233 234.049 339.542 233.029C339.898 231.86 339.164 231.345 338.465 228.766C337.766 226.176 338.179 225.5 337.33 224.457C336.563 223.506 335.864 223.62 334.305 222.841C332.517 221.947 332.609 221.374 328.804 217.718C325.973 215.002 325.549 214.956 325.033 213.776C324.128 211.713 325.01 210.865 324.174 208.87C323.944 208.32 323.486 207.484 319.727 204.664C315.968 201.856 314.065 200.458 312.724 200.848C310.891 201.375 310.856 203.679 309.08 203.862C307.98 203.977 307.544 203.129 305.516 201.925C303.189 200.539 301.058 200.046 299.636 199.713C296.233 198.923 295.946 199.748 293.7 198.819C291.305 197.822 290.892 196.573 289.333 196.688C287.477 196.825 287.293 198.682 285.586 198.842C283.981 198.991 282.56 197.433 279.729 194.315C277.907 192.31 277.907 191.92 276.589 190.843C274.561 189.181 273.816 189.513 272.314 188.241C269.564 185.915 269.082 182.293 269.025 181.8C268.716 179.187 269.781 178.866 269.965 174.729C270.091 171.944 270.171 170.271 269.151 168.747C267.799 166.707 266.194 167.475 263.81 165.354C262.573 164.243 263.1 164.117 260.006 158.478C257.897 154.627 257.083 153.642 257.335 151.922C257.496 150.834 257.988 150.158 257.713 148.897C257.507 147.957 257.129 147.854 256.097 146.089C254.848 143.946 255.089 143.545 254.31 142.96C253.106 142.055 252.281 142.857 251.055 142.009C249.977 141.264 249.691 140.003 249.244 138.055C248.935 136.737 248.728 135.763 249.198 134.846C249.702 133.86 250.745 134.101 251.02 133.368C251.364 132.416 250.035 131.442 249.072 129.872C248.808 129.437 248.293 128.497 247.777 124.417C246.917 117.644 247.983 117.437 246.963 115.145C245.668 112.188 243.869 112.441 242.883 109.369C242.666 108.704 242.585 108.166 242.562 107.696C242.482 105.816 242.597 104.246 242.608 103.604C242.631 101.404 240.706 99.7994 239.216 98.321C233.142 92.3156 234.735 88.9118 229.211 84.8433C226.815 83.0898 224.684 82.3792 222.334 81.5999C215.469 79.3192 213.269 81.1988 206.53 78.7921C203.665 77.7721 203.218 77.1303 199.39 75.8925C196.983 75.1132 194.668 74.3912 191.585 74.2078C188.182 74.0015 185.592 74.5631 183.93 74.9413C178.36 76.1905 173.89 78.7347 173.512 78.9525C170.91 80.4538 167.438 82.8377 164.664 82.15C164.332 82.0698 164.126 81.9781 163.736 81.9667C161.639 81.9323 161.192 84.6255 158.854 84.8547C158.269 84.912 157.066 85.0266 155.908 84.3734C155.026 83.8806 154.992 83.3763 154.419 83.2273C153.295 82.9293 152.207 84.488 150.396 86.3675C146.832 90.0579 145.525 89.7599 145.193 91.4904C144.849 93.2554 146.19 93.6336 146.602 97.0259C146.809 98.7336 147.072 100.877 145.812 102.034C145.284 102.516 144.551 102.722 141.044 102.332C139.394 102.149 137.228 101.839 134.695 101.301L134.672 101.37Z" fill="#F32C40" fill-opacity="0.3"/>
<path d="M130.729 101.45C129.732 101.736 128.059 102.286 127.211 103.73C126.214 105.438 127.52 106.974 126.512 108.12C125.629 109.117 124.357 108.292 122.478 109.002C120.931 109.575 119.968 111.157 118.088 114.274C115.876 117.942 114.776 119.775 115.269 121.3C115.876 123.156 117.859 123.408 117.905 125.162C117.928 126.193 117.286 127.385 116.323 127.798C114.856 128.428 113.768 126.801 111.579 126.743C109.86 126.709 108.645 127.66 106.479 129.379C102.788 132.302 103.338 133.608 100.508 135.35C97.9405 136.921 96.8632 136.233 95.0639 137.986C93.4823 139.522 92.9437 141.367 92.5998 142.559C91.4308 146.582 92.9437 148.289 91.3621 150.994C90.4567 152.553 89.792 152.266 88.898 153.63C86.8466 156.759 88.5772 160.931 89.4825 164.415C91.3621 171.635 88.3365 172.62 89.9524 179.405C90.3192 180.941 90.3536 180.597 91.8893 185.972C93.1614 190.453 93.8032 192.734 93.998 194.407C94.5252 199.003 93.1385 199.988 93.1156 203.897C93.0926 208.813 95.2587 212.377 99.0866 218.658C103.144 225.317 105.654 226.646 106.467 231.666C106.994 234.875 106.089 235.127 106.467 238.347C107.201 244.616 111.132 248.238 114.902 253.109C117.24 256.134 120.151 260.478 122.822 266.414C123.761 268.512 125.721 269.933 127.91 270.598C129.125 270.964 130.065 271.388 133.503 273.233C137.743 275.514 138.282 275.927 139.864 276.374C142.053 276.981 142.477 276.603 144.001 276.993C148.218 278.093 150.51 282.574 151.817 284.923C154.522 289.771 152.757 291.502 156.035 297.049C157.226 299.054 158.476 301.186 160.963 303.02C163.186 304.67 164.275 304.521 165.65 306.183C166.292 306.962 167.06 308.211 167.759 312.979C168.492 317.93 167.896 318.216 168.458 321.185C169.34 325.826 170.83 325.379 171.976 330.319C172.584 332.943 173.374 336.382 172.217 340.164C171.655 341.986 171.025 342.651 170.727 344.851C170.406 347.178 170.956 347.625 170.727 350.387C170.567 352.312 170.418 354.123 169.317 355.922C168.114 357.893 167.117 357.664 166.246 359.44C165.157 361.652 165.73 364.025 165.902 364.712C166.785 368.38 169.306 368.609 169.592 371.658C169.776 373.606 168.767 373.755 168.63 376.494C168.584 377.353 168.423 380.345 170.039 382.82C171.747 385.456 173.546 384.574 177.512 388.264C179.735 390.338 180.343 391.714 180.503 392.917C180.709 394.441 180.228 395.679 180.056 396.08C179.3 397.948 178.291 398.498 175.357 401.765C173.294 404.068 172.95 404.779 173.168 405.329C173.42 405.948 174.303 406.154 175.449 406.395C176.732 406.681 178.05 406.979 179.059 406.28C180.148 405.535 179.976 404.252 181.088 403.885C181.638 403.701 182.142 403.862 182.348 403.931C184.927 404.744 184.113 409.959 186.726 411.231C188.548 412.125 191.471 410.819 192.926 409.776C194.198 408.859 194.588 407.988 195.792 407.839C196.972 407.701 197.717 408.423 199.127 409.203C200.949 410.223 202.427 410.544 204.845 411.094C208.456 411.907 209.43 410.624 212.226 411.266C213.831 411.632 215.194 412.228 221.188 416.503C228.294 421.58 229.222 422.783 232.305 423.689C235.205 424.548 238.746 424.789 239.101 424.812C240.866 424.927 241.749 424.984 242.482 424.755C246.058 423.666 246.906 419.288 248.453 419.597C249.084 419.723 248.98 420.48 250.321 422.176C251.295 423.414 252.075 424.411 253.232 424.835C255.685 425.74 257.771 423.311 259.169 424.377C259.788 424.846 259.398 425.339 260.338 426.921C260.945 427.941 261.53 428.915 262.55 429.213C263.891 429.603 264.613 428.388 265.701 428.846C265.885 428.926 266.137 429.075 267.306 431.494C268.28 433.511 268.36 433.958 268.165 434.347C267.902 434.897 267.375 434.748 266.756 435.402C265.885 436.318 265.942 437.648 265.942 437.82C266.034 439.585 267.627 441.109 269.128 441.258C270.056 441.361 270.32 440.868 272.738 439.906C274.297 439.287 275.993 438.622 276.337 439.081C276.658 439.493 275.5 440.284 275.019 442.175C274.549 444.009 275.363 444.33 274.95 446.026C274.412 448.249 272.761 448.753 273.048 450.106C273.22 450.942 274.022 451.596 274.778 451.813C275.156 451.928 276.486 452.191 279.787 449.189C283.557 445.762 283.316 444.032 286.331 442.37C287.58 441.682 288.118 441.694 289.597 440.696C290.743 439.929 292.141 438.989 293.138 437.338C294.17 435.619 295.167 432.491 293.837 430.256C292.852 428.605 291.568 429.064 290.709 427.288C290.376 426.588 290.502 426.371 290.445 422.405C290.411 419.93 290.342 419.334 290.812 419.024C291.534 418.543 293.035 419.139 293.803 420.079C294.445 420.858 294.181 421.443 294.834 422.222C295.625 423.173 296.817 423.402 297.161 423.46C297.161 423.46 297.195 423.46 297.23 423.471C298.846 423.7 301.356 421.867 302.949 421.282C304.668 420.652 306.272 421.156 308.278 421.775C311.647 422.829 311.819 424.445 314.467 425.328C317.102 426.21 320.575 425.821 322.913 424.113C325.629 422.119 324.999 419.666 327.864 414.623C329.789 411.231 330.477 411.644 333.09 407.919C337.858 401.111 336.872 397.902 341.158 391.748C341.571 391.152 341.628 391.118 347.794 384.723C356.504 375.692 360.894 371.073 362.085 366.214C362.361 365.068 362.945 362.638 362.555 359.567C362.028 355.406 360.343 354.868 359.621 351.452C358.693 346.994 360.504 342.8 362.727 337.631C364.332 333.918 365.57 332.474 365.592 329.31C365.615 326.674 364.756 326.354 365.123 323.924C365.558 321.024 366.956 320.268 367.438 316.75C367.69 314.973 367.804 314.079 367.346 313.094C366.395 311.031 364.286 311.317 361.959 308.933C360.836 307.787 360.321 306.687 359.495 304.945C357.673 301.071 358.452 299.822 357.375 297.943C355.988 295.536 352.321 294.802 345.021 293.404C337.663 291.995 336.402 292.442 333.365 290.826C330.706 289.404 328.838 287.491 327.096 285.726C326.248 284.866 325.904 284.373 325.652 283.903C324.598 281.886 325.354 280.603 325.136 277.783C324.85 274.013 323.291 273.554 323.922 271.549C324.563 269.532 326.282 269.532 327.073 267.583C327.887 265.566 326.42 264.351 325.778 261.108C324.999 257.177 326.03 253.865 326.752 251.561C327.635 248.719 328.494 245.992 330.958 243.791C333.021 241.946 334.248 242.244 335.485 240.227C336.563 238.473 336.184 237.373 337.732 235.299C338.786 233.889 339.313 233.935 339.531 233.007C339.909 231.436 338.511 230.886 338.179 228.205C337.984 226.623 338.373 226.073 337.823 225.145C337.262 224.193 336.333 223.884 335.566 223.529C334.122 222.864 334.374 222.589 330.191 218.876C326.065 215.22 325.755 215.426 325.217 214.268C324.162 211.999 325.285 211.128 324.162 208.848C323.681 207.873 323.257 207.575 319.715 204.642C315.211 200.917 314.776 200.458 313.813 200.516C311.441 200.653 310.971 203.553 308.633 203.427C307.59 203.369 307.487 202.785 304.507 201.318C303.407 200.779 302.272 200.298 301.516 200.023C298.238 198.854 297.298 200.218 294.8 199.289C292.176 198.315 292.187 196.562 290.353 196.539C288.21 196.504 287.683 198.854 285.586 198.808C284.348 198.774 283.294 197.742 281.208 195.668C279.156 193.639 279.214 193.158 277.735 191.771C275.214 189.41 274.285 190.075 272.314 188.207C270.297 186.293 268.933 183.256 268.922 180.356C268.91 177.262 270.446 176.437 270.217 172.426C270.079 169.985 269.449 169.056 269.163 168.701C268.028 167.245 266.699 167.463 265.037 166.351C263.684 165.446 263.799 164.804 261.507 160.827C258.561 155.716 257.358 155.028 257.301 152.622C257.266 151.132 258.195 150.341 257.725 148.851C257.358 147.671 256.705 147.613 256.109 146.043C255.479 144.393 255.926 143.751 255.249 143.132C254.527 142.467 253.851 143.052 252.224 142.49C251.777 142.33 250.241 141.803 249.576 140.473C249.255 139.82 249.496 139.694 249.255 138.021C248.957 135.935 248.51 135.58 248.82 134.892C249.301 133.815 250.642 134.181 251.032 133.333C251.616 132.061 248.935 130.709 247.8 127.294C247.548 126.549 247.468 125.093 247.319 122.194C247.089 117.873 247.296 117.472 247.078 116.131C246.448 112.223 243.571 112.429 242.952 108.853C242.562 106.596 243.227 106.114 242.631 103.57C242.093 101.266 240.763 100.04 239.239 98.2867C234.414 92.7397 236.018 91.4791 231.961 87.3418C230.449 85.7946 227.595 82.8836 223.389 81.6802C221.693 81.1989 218.724 80.6831 216.432 80.3852C215.149 80.2132 214.942 80.2362 213.659 80.0757C213.659 80.0757 210.083 79.6288 206.553 78.7692C200.605 77.3252 200.857 75.8009 195.872 74.7236C194.703 74.4715 190.909 73.7494 186.187 74.4715C185.706 74.5402 183.322 74.9299 180.343 76.0186C178.658 76.6375 177.351 77.3022 174.75 78.6317C170.017 81.0499 169.501 81.6 167.541 81.9323C165.386 82.2991 165.226 81.5771 163.587 82.173C161.318 82.9982 161.066 84.6485 158.888 84.8548C158.304 84.9121 157.1 85.0267 155.943 84.3735C155.06 83.8807 155.026 83.3764 154.453 83.2274C153.33 82.9294 152.241 84.4881 150.43 86.3676C146.866 90.0579 145.559 89.76 145.227 91.4905C144.883 93.2555 146.224 93.6337 146.637 97.026C146.843 98.7337 147.107 100.877 145.846 102.034C145.216 102.619 144.356 102.745 141.078 102.332C134.935 101.553 133.469 100.579 130.787 101.358L130.729 101.45Z" stroke="#E73348" stroke-width="1.5" stroke-miterlimit="10"/>
</g>
<defs>
<clipPath id="clip0_8144_2231">
<rect width="506.973" height="444.822" fill="white" transform="translate(11 8)"/>
</clipPath>
</defs>
</svg>
