<svg width="" height="" viewBox="0 0 856 636" fill="none" xmlns="http://www.w3.org/2000/svg">
<g clip-path="url(#clip0_7160_990)">
<path d="M853.559 385.167C853.906 386.751 854.853 391.388 853.018 396.063C851.182 400.757 848.575 400.236 846.469 405.336C844.692 409.682 845.232 413.256 844.015 413.43C843.243 413.546 842.76 412.116 840.886 409.624C839.302 407.499 835.767 402.766 833.12 403.346C830.976 403.809 830.589 407.441 829.024 407.306C827.827 407.19 827.827 405.065 826.03 404.428C824.929 404.061 824.465 404.698 821.935 405.123C818.998 405.606 818.593 404.93 817.028 405.529C814.497 406.475 813.338 409.025 813.203 409.354C812.16 411.73 813.203 413.179 813.744 417.39C814.516 423.263 813.512 428.092 812.932 430.894C812.372 433.579 812.082 434.912 811.29 436.612C808.876 441.77 804.625 444.474 801.341 446.58C799.12 447.99 797.13 449.265 794.116 449.98C790.369 450.869 789.963 449.748 786.891 450.656C784.786 451.294 784.805 451.873 777.889 456.123C774.875 457.958 774.238 458.248 773.253 458.306C770.432 458.441 769.099 456.432 766.974 457.07C765.622 457.495 764.927 458.693 763.98 460.354C761.72 464.256 762.84 466.671 760.696 468.39C759.344 469.491 757.624 469.511 757.025 469.472C753.683 469.337 752.35 466.169 750.747 466.748C749.8 467.096 750.032 468.274 748.564 471.945C747.598 474.34 747.134 475.538 746.111 476.716C744.778 478.223 744.063 478.011 740.663 480.252C737.977 482.01 736.625 482.937 736.104 484.347C735.331 486.491 736.393 488.674 737.031 489.988C738.383 492.77 741.204 495.784 744.662 497.445C745.55 497.87 746.767 498.334 747.753 499.609C748.332 500.401 748.718 501.309 749.028 502.989C749.723 506.776 748.854 507.645 749.395 509.345C750.109 511.721 752.273 511.509 757.199 514.889C761.198 517.632 763.497 520.318 764.927 522.443C766.491 524.742 767.631 526.48 767.206 528.431C766.8 530.286 765.158 531.542 762.473 533.609C759.807 535.676 758.474 536.004 758.107 537.53C757.914 538.361 758.242 539.346 758.938 541.259C760.232 544.929 761.101 545.238 760.908 546.397C760.425 549.141 754.978 550.087 755.19 550.899C755.267 551.227 756.214 551.188 758.049 551.227C759.768 551.266 761.99 551.439 766.433 551.768C768.906 551.961 770.142 552.058 770.587 552.251C772.306 553.004 772.577 554.009 775.629 557.853C778.295 561.195 778.758 561.253 779.106 562.547C779.995 565.774 778.14 568.71 778.024 568.884C776.498 571.221 774.953 570.7 773.195 572.883C771.398 575.162 771.301 577.905 771.205 580.61C771.031 585.439 772.596 586.657 771.475 589.979C771.128 591.042 770.452 592.935 768.558 593.978C766.028 595.388 763.284 594.152 763.111 594.075C761.778 593.437 761.063 592.471 760.483 591.718C757.489 587.835 754.9 584.454 751.384 582.716C749.53 581.788 748.448 581.827 745.84 580.262C744.082 579.2 743.136 578.601 742.749 577.442C742.112 575.491 743.387 572.883 745.106 571.53C746.497 570.449 747.772 570.468 748.023 569.444C748.293 568.381 747.231 567.28 747.018 567.068C745.299 565.291 743.445 566.43 741.745 564.981C740.006 563.494 741.184 561.601 739.426 560.171C738.538 559.437 737.05 559.341 734.114 559.205C731.815 559.109 730.675 559.051 729.613 559.205C725.942 559.766 725.343 562.142 720.34 565.349C717.017 567.474 714.622 569 712.014 568.343C708.962 567.57 707.165 564.189 706.701 563.301C704.866 559.843 705.523 557.003 703.977 556.481C703.475 556.308 703.147 556.539 700.558 557.853C696.212 560.055 695.555 560.229 694.84 560.036C693.101 559.534 693.333 557.467 691.846 557.158C690.01 556.791 689.141 559.766 685.702 560.577C685.258 560.673 682.843 561.253 681.742 560.036C680.699 558.838 681.452 556.578 681.742 555.67C682.689 552.83 684.485 551.942 684.06 550.763C683.751 549.875 682.418 549.372 681.336 549.392C679.134 549.45 678.593 551.71 675.058 554.839C671.928 557.641 669.977 557.93 670.016 559.341C670.055 560.77 672.102 561.06 674.111 563.166C676.777 565.928 678.381 570.816 676.835 572.979C675.908 574.293 674.034 574.274 663.757 573.25C653.19 572.206 652.224 571.936 649.558 572.168C642.951 572.747 644.11 574.853 636.209 576.263C631.109 577.152 621.836 578.813 615.751 576.534C615.171 576.302 613.703 575.722 612.196 576.263C610.67 576.804 609.82 578.253 608.468 581.344C605.551 588.047 606.15 588.936 604.662 590.076C603.638 590.849 603.078 590.636 596.104 591.158C589.826 591.641 589.324 591.872 588.841 592.259C585.576 594.886 587.855 600.855 585.209 602.073C583.374 602.903 581.635 600.373 579.027 601.338C578.061 601.705 577.907 602.188 575.743 604.796C571.551 609.896 570.276 610.341 569.387 610.437C567.629 610.63 566.219 609.607 566.103 609.529C563.186 607.327 564.963 602.768 563.205 601.899C561.119 600.855 557.989 606.921 549.741 610.07C548.678 610.476 546.437 611.249 543.559 611.171C542.863 611.133 537.551 610.978 536.662 608.428C536.218 607.192 537.319 606.67 537.377 604.623C537.493 601.59 535.233 598.248 532.663 597.707C531.408 597.436 531.195 598.074 529.012 598.132C528.606 598.151 524.221 598.305 523.39 596.625C522.154 594.152 529.244 589.226 528.297 587.7C527.583 586.56 523.429 589.38 517.015 589.168C511.896 588.994 507.859 586.966 506.835 586.444C501.426 583.585 501.097 580.591 497.388 580.34C494.857 580.166 492.539 581.383 489.893 582.793C486.068 584.821 485.082 586.599 483.209 586.212C481.798 585.922 481.663 584.783 479.113 581.982C477.722 580.455 474.264 576.65 472.835 577.345C472.487 577.519 472.101 578.06 472.699 584.435C473.144 589.226 473.395 591.66 474.264 593.36C475.655 596.103 476.756 595.755 478.012 598.479C478.282 599.04 479.905 602.71 478.843 606.245C477.973 609.104 475.868 610.205 472.294 612.929C467.271 616.793 463.6 620.657 458.867 625.621C455.39 629.273 453.748 631.436 450.058 632.982C447.837 633.928 444.186 634.914 443.181 633.6C442.486 632.673 443.625 631.398 445.364 626.298C446.349 623.4 446.002 623.806 447.199 620.077C448.977 614.552 450 612.929 449.286 612.253C448.822 611.809 447.914 612.079 443.741 613.799C437.308 616.465 435.744 617.373 434.121 616.619C432.633 615.943 431.822 614.243 431.378 613.354C430.798 612.118 430.257 610.998 430.566 609.8C431.204 607.443 434.526 607.559 435.106 605.163C435.299 604.371 435.067 603.618 434.565 602.073C434.082 600.546 433.657 600.218 432.575 597.977C431.184 595.176 431.494 594.963 430.933 594.616C429.117 593.495 426.896 596.238 424.288 595.157C423.071 594.654 422.395 593.572 421.931 592.8C420.444 590.346 421.39 588.646 420.115 587.352C419.536 586.753 418.859 586.599 415.923 586.444C408.775 586.038 408.041 586.676 406.843 585.71C405.53 584.647 405.935 583.469 403.385 580.436C402.651 579.567 402.304 579.142 401.937 578.987C398.904 577.635 392.509 585.922 391.022 587.893C387.931 588.646 383.372 589.303 378.33 587.989C372.341 586.405 372.187 583.739 361.561 577.48C352.501 572.149 351.593 573.501 346.3 569.444C345.083 568.497 342.881 566.701 339.481 565.889C337.085 565.31 336.486 565.793 332.584 565.619C329.744 565.484 326.113 565.329 322.017 563.919C319.853 563.166 318.578 562.412 314.309 560.983C311.682 560.094 311.199 560.055 310.754 560.075C307.47 560.152 306.814 562.876 303.201 563.9C302.776 564.016 299.028 565.02 296.208 563.069C293.445 561.176 292.364 556.984 292.209 556.346C291.745 554.53 291.823 553.352 290.934 552.888C289.698 552.251 287.785 553.642 287.302 553.989C284.965 555.651 285.061 557.505 283.381 557.988C282.337 558.278 282.067 557.641 279.923 557.158C276.136 556.308 273.799 557.621 273.2 556.617C272.717 555.805 273.837 554.318 274.301 553.7C276.619 550.609 279.942 550.589 280.116 548.793C280.154 548.329 279.787 547.692 279.015 546.436C278.435 545.451 277.875 544.543 277.025 543.886C275.595 542.804 273.895 542.881 271.925 542.978C268.351 543.171 267.81 544.311 266.477 543.712C264.275 542.727 264.99 539.269 263.019 538.612C261.628 538.148 259.967 539.462 258.286 540.795C255.504 543.017 255.91 544.156 253.94 545.354C250.907 547.17 248.782 545.258 247.024 546.977C245.072 548.889 247.024 551.942 245.015 553.893C243.025 555.825 239.547 554.337 239.2 555.342C238.794 556.539 243.527 559.283 246.83 560.809C249.979 562.219 251.544 562.934 253.746 562.972C258.499 563.069 260.179 560.055 262.478 561.156C264.7 562.238 265.318 566.179 264.661 568.98C264.178 570.951 262.652 574.1 260.469 574.254C257.842 574.447 257.146 570.139 253.746 569.714C251.911 569.483 251.39 570.642 246.483 573.346C242.484 575.529 240.32 576.727 237.384 576.978C233.907 577.287 231.144 576.128 229.753 575.529C224.325 573.192 224.209 570.062 220.113 569.347C216.095 568.633 212.637 571.047 212.483 571.163C209.585 573.23 210.203 575.375 207.209 577.345C205.721 578.311 203.983 578.601 200.467 579.161C196.777 579.76 196.429 579.393 191.754 579.895C186.094 580.494 185.514 581.151 183.756 580.436C182.617 579.972 182.868 579.721 178.482 575.896C175.681 573.462 174.831 572.921 173.653 572.612C173.035 572.458 171.026 572.033 168.939 572.883C166.37 573.945 166.621 575.722 163.839 577.519C161.347 579.142 158.817 579.238 157.754 579.258C155.977 579.296 152.171 578.987 151.649 577.249C151.495 576.727 151.707 576.244 152.751 574.525C155.359 570.197 156.595 568.98 156.209 568.343C155.648 567.454 152.403 568.497 152.016 568.613C149.177 569.541 148.539 570.893 147.303 570.622C146.028 570.333 146.086 568.826 144.386 565.986C142.299 562.489 140.986 562.721 139.286 559.437C138.262 557.409 137.489 555.902 137.837 554.067C138.32 551.633 140.29 551.439 141.739 547.981C142.319 546.629 142.918 545.2 142.57 543.519C142.126 541.355 140.619 541.297 139.479 538.535C139.112 537.646 138.049 535.077 139.208 533.338C139.846 532.392 140.986 531.928 141.739 531.619C143.459 530.923 144.482 531.213 144.83 530.518C145.101 530.015 144.753 529.359 144.115 528.2C142.802 525.843 141.739 525.514 141.739 524.297C141.758 523.138 142.724 522.23 142.879 522.076C143.883 521.129 144.714 521.496 145.429 520.665C145.893 520.125 145.912 519.564 146.028 517.845C146.182 515.237 146.26 513.943 146.298 513.846C147.032 511.354 149.93 511.856 152.596 508.823C153.098 508.244 154.914 506.196 154.972 503.569C155.049 500.903 153.253 499.802 151.012 496.073C149.486 493.504 147.38 490.007 147.341 485.989C147.303 482.241 149.061 479.421 151.707 475.21C154.335 470.998 155.088 471.423 158.121 466.748C160.69 462.788 162.274 460.335 163.202 456.625C164.264 452.337 163.376 450.772 165.211 448.435C167.065 446.058 169.326 445.981 169.751 443.895C170.06 442.33 168.901 441.886 168.109 439.162C167.954 438.64 166.737 434.216 168.649 430.256C169.924 427.629 171.161 428.112 172.107 425.523C173.112 422.78 171.876 421.795 173.209 419.341C174.097 417.699 175.778 416.038 176.106 415.709C177.285 414.55 177.613 414.512 177.922 413.893C178.792 412.136 177.246 410.165 176.473 408.079C174.754 403.423 176.937 398.555 177.575 397.164C179.719 392.373 183.988 389.746 186.113 388.432C187.948 387.292 189.88 386.442 193.203 384.066C195.965 382.096 196.7 381.207 197.028 380.067C197.685 377.71 196.023 376.088 197.028 374.793C197.781 373.789 198.96 374.523 201.201 373.712C203.789 372.765 203.403 371.355 206.475 369.52C208.986 368.032 210.106 368.476 211.748 366.796C212.772 365.752 213.236 364.671 213.564 363.898C215.863 358.354 216.771 354.606 218.471 350.433C219.959 346.782 220.712 344.966 222.47 342.976C224.827 340.33 227.319 339.228 227.029 338.436C226.739 337.664 224.305 338.417 221.195 338.263C216.559 337.992 213.12 335.809 207.576 332.255C201.877 328.623 202.205 327.618 199.481 327.077C196.023 326.363 194.555 327.773 189.571 326.71C187.697 326.305 186.113 325.976 184.394 324.798C181.825 323.059 181.825 321.378 180.028 320.895C178 320.335 177.092 322.19 173.479 323.426C172.262 323.851 166.93 325.686 163.298 323.349C160.884 321.784 160.806 319.408 157.831 318.519C156.46 318.114 155.146 318.23 154.972 318.249C152.171 318.539 151.031 320.316 149.93 319.756C149.177 319.369 149.602 318.442 148.694 316.472C147.786 314.463 146.974 314.675 145.97 312.666C145.622 311.951 145.332 310.676 144.753 308.165C143.999 304.9 144.115 304.803 143.787 304.34C142.396 302.369 138.745 302.099 136.021 302.852C132.215 303.876 132.408 306.31 128.525 308.435C123.599 311.12 118.132 310.039 115.563 309.517C111.738 308.764 108.647 308.145 106.561 305.576C105.556 304.32 104.803 302.64 103.566 302.659C103.025 302.678 102.6 303.007 101.209 304.707C98.5242 307.972 97.9833 309.305 96.8436 309.343C95.7231 309.401 94.8731 308.184 94.7572 308.03C94.2549 307.334 93.8492 306.214 94.7572 301.21C95.3367 297.907 95.7038 297.404 95.2401 296.709C94.2549 295.222 91.8595 296.574 89.5219 294.797C87.9572 293.618 88.3049 292.459 86.6628 291.532C85.4651 290.856 84.8083 291.165 82.5674 290.972C78.1049 290.604 77.3708 289.04 75.2071 289.754C73.4105 290.334 71.8264 292.073 72.0583 293.29C72.3094 294.545 74.3185 294.352 75.3424 296.168C76.0378 297.424 76.1151 299.336 75.2071 300.399C74.8401 300.805 74.1253 301.326 68.3878 300.805C64.9878 300.476 63.2685 300.322 62.3798 299.568C60.0423 297.617 59.9264 293.695 59.9264 293.444C59.9071 291.59 60.4673 290.45 59.6559 289.214C59.0957 288.344 58.323 288.093 57.6082 287.707C56.2173 286.953 55.348 285.852 52.8366 281.023C49.6491 274.879 50.3832 275.324 49.0116 273.257C46.2298 268.987 43.9116 268.215 44.24 266.302C44.665 263.829 48.7991 263.443 48.7411 261.666C48.7025 260.082 45.4377 260.14 42.2116 257.3C38.9081 254.402 40.0672 252.374 36.3775 248.896C35.2184 247.776 33.0934 245.786 29.9252 245.168C26.2354 244.453 24.8058 246.327 23.299 245.245C21.174 243.758 23.8785 239.991 23.3763 231.259C23.1638 227.279 22.4104 224.71 24.1104 222.971C25.2695 221.812 26.6217 221.967 27.9354 220.247C28.8433 219.05 29.0558 217.794 29.2877 216.249C29.9638 211.863 28.4763 210.511 29.5581 209.062C30.6013 207.691 32.1661 208.676 36.0297 207.246C38.2513 206.435 40.4343 205.624 41.0138 203.885C41.8831 201.374 38.5604 199.519 39.3911 196.892C40.1252 194.535 43.2741 194.419 43.2934 192.7C43.3127 191.598 41.9991 190.864 39.565 189.261C34.4263 185.842 35.6047 186.035 32.5718 184.258C29.1331 182.229 28.6502 182.577 21.7535 179.525C14.1228 176.163 13.1183 175.023 12.6546 173.71C12.1717 172.319 12.0944 170.233 12.0171 167.528C11.9399 165.017 12.1331 164.379 11.5728 163.626C10.2785 161.887 7.8444 163.181 5.8353 161.52C4.69553 160.573 4.38644 158.97 3.84553 155.802C3.01484 151.03 3.9228 150.818 3.11143 147.707C2.1262 143.902 0.368241 142.685 1.16029 140.714C1.7012 139.343 2.64779 139.613 3.61371 137.971C4.61826 136.271 4.46371 134.455 4.15462 131.441C3.7103 127.018 2.70575 125.491 3.61371 124.622C4.69553 123.56 6.7819 125.124 8.25009 123.927C9.11941 123.212 9.11941 122.034 9.19668 119.851C9.4285 114.519 9.54441 111.872 10.2978 111.119C12.5774 108.858 17.8513 112.799 20.1115 110.443C21.2513 109.245 20.2274 107.912 21.8888 104.164C23.0479 101.537 24.0524 101.054 24.3808 100.919C25.5786 100.436 26.4286 101.035 28.4377 101.44C30.1763 101.788 33.5763 102.483 35.257 101.17C37.7297 99.2187 35.2763 93.8096 37.1502 92.8436C38.5025 92.1482 39.8741 94.8914 43.2934 95.1618C45.4184 95.3164 45.8048 94.3311 50.3832 92.9789C54.1696 91.8584 56.0627 91.2982 57.473 92.1675C59.8298 93.597 58.6321 97.1902 60.7571 98.1562C62.6116 99.0255 64.0025 96.4368 67.8469 96.5334C70.4742 96.5914 70.9185 97.8277 73.0242 97.6152C75.381 97.3834 78.0855 95.4709 79.0128 92.9789C80.8867 88.0527 74.6083 84.1891 76.1537 77.1572C76.3276 76.3459 76.8299 74.1629 78.2015 73.7572C79.5731 73.3515 80.481 75.0902 84.4799 76.7515C86.3924 77.5436 87.5515 77.7175 88.7106 77.4277C89.0197 77.3504 89.9856 77.1186 90.739 76.3459C92.5742 74.5106 91.9367 71.0913 91.5697 69.1208C90.8935 65.5276 89.6765 64.4845 90.3333 63.5186C91.2026 62.2822 93.4822 63.7117 97.0174 62.9776C100.688 62.2049 100.591 60.1765 104.648 58.6117C108.55 57.1242 109.323 58.7276 114.075 57.3947C118.557 56.1197 118.016 54.6322 122.112 53.5697C124.604 52.9322 124.256 53.6083 133.297 53.164C133.877 53.1253 136.485 52.9901 139.846 52.3526C142.435 51.8503 143.748 51.5799 144.212 50.981C146.395 48.1219 139.537 41.3026 141.469 38.7139C142.493 37.3617 144.637 38.8105 149.389 38.4435C151.707 38.2503 151.978 37.8446 163.298 33.5173C167.722 31.8366 169.944 30.9866 170.659 30.7934C175.198 29.5764 177.188 29.8662 178.019 28.34C179.255 26.0798 175.836 23.4718 177.207 20.9798C177.671 20.1298 178.154 20.265 182.385 17.715C184.22 16.6139 185.128 16.0536 185.379 15.8025C186.712 14.4889 187.002 13.1173 188.393 7.07065C189.069 4.07632 189.436 2.55018 190.286 1.89336C192.005 0.560401 195.096 0.695629 196.294 2.16382C197.202 3.26495 196.39 4.36609 196.564 7.88201C196.642 9.58202 196.738 11.6684 197.666 13.6195C198.96 16.4014 201.413 17.7923 203.654 19.0673C208.194 21.6559 210.087 20.748 211.575 22.8923C212.966 24.9207 211.555 26.1571 212.386 29.9821C213.468 34.9662 217.061 38.1923 218.394 39.2548C221.929 42.1139 226.759 43.5049 226.836 43.3503C227.416 41.7662 228.014 39.4867 227.667 36.8014C227.454 35.198 227.087 34.6571 227.435 34.1355C228.671 32.3389 237.017 33.498 240.475 38.4435C243.74 43.0992 239.683 46.7696 242.928 52.0628C245.594 56.4094 251.138 58.4379 254.654 59.7129C257.938 60.8913 259.89 60.9685 263.386 62.9776C264.487 63.6151 265.395 64.2333 268.834 67.0731C275.808 72.8106 279.749 76.3459 279.749 76.3459C285.312 81.33 285.969 82.2572 287.379 82.0641C290.161 81.7163 290.316 77.7368 294.469 71.7095C298.99 65.1606 304.573 61.4708 306.466 60.2538C313.034 56.0231 314.657 57.7231 318.752 53.9753C324.316 48.8946 322.635 44.548 327.194 42.2492C331.947 39.8537 334.381 44.2776 341.393 42.2492C346.88 40.6844 347.15 37.4582 353.119 36.531C356.925 35.9321 357.717 37.0912 361.194 36.0673C364.884 34.9855 365.773 33.1503 369.559 30.9866C372.032 29.5764 374.64 28.9389 379.74 27.7025C398.15 23.298 397.918 23.4332 399.02 22.9889C402.96 21.3468 404.062 20.1877 407.693 17.8695C409.278 16.865 409.181 16.9809 413.933 14.257C421.931 9.65929 422.762 8.78997 424.578 9.1377C426.625 9.52406 426.258 10.7411 429.89 12.6536C433.754 14.682 437.115 14.8945 437.115 15.8025C437.115 16.4786 435.647 16.5559 433.831 18.5264C433.174 19.2605 433.309 19.3184 432.479 20.3036C430.779 22.2934 429.6 22.7377 429.755 23.298C429.948 24.1093 432.344 23.5105 432.884 24.5343C433.522 25.7514 431.416 29.248 428.519 29.8469C425.119 30.5616 422.897 26.8139 420.347 27.9343C418.512 28.7457 418.067 31.3537 418.029 31.6241C417.546 34.6957 420.115 35.6616 421.293 40.6264C421.776 42.6548 422.317 44.8764 421.216 46.8855C420.289 48.6242 419.072 48.5083 418.164 50.4401C418.009 50.7299 416.773 53.4731 418.222 55.8878C418.917 57.0469 420.366 58.3799 422.105 58.4379C424.867 58.5344 425.466 55.3856 430.103 53.3378C430.953 52.9708 434.43 51.4446 435.937 52.7969C436.439 53.2606 436.342 53.7049 436.845 56.0231C437.637 59.7515 438.1 59.6742 437.927 60.6208C437.463 63.3833 433.619 63.364 433.194 65.8947C432.884 67.7686 434.932 68.2708 435.57 71.3424C436.246 74.6845 434.488 77.2345 435.203 77.6209C435.879 77.9686 437.675 75.9015 438.023 75.5345C439.53 73.8731 439.588 72.5595 440.747 72.2504C441.79 71.9799 443.162 72.6561 443.664 73.622C444.224 74.6845 443.432 75.5925 444.012 76.2493C444.611 76.9061 446.156 76.8868 447.025 76.172C448.049 75.3027 447.392 74.047 448.474 73.0811C449.131 72.4822 450.213 72.1924 451.024 72.5208C451.72 72.8106 452.048 73.4868 452.937 75.9402C454.038 79.0311 453.883 78.9538 454.154 79.4754C455.158 81.4652 456.82 81.6391 460.297 83.5709C463.91 85.58 465.725 86.6038 466.981 88.6129C468.72 91.4527 468.855 95.2971 468.894 96.1084C468.971 98.5618 468.507 100.088 469.57 101.035C470.362 101.73 471.695 101.827 472.699 101.44C474.535 100.725 474.399 98.7357 475.694 98.4266C477.162 98.0982 479.48 100.146 480.06 102.522C480.794 105.42 478.688 107.661 479.654 108.53C480.156 108.974 481.354 108.685 483.749 108.124C485.507 107.699 485.662 107.468 486.338 107.564C487.285 107.719 487.999 108.298 489.603 110.307C491.438 112.568 492.365 113.707 492.616 114.383C493.756 117.571 491.457 119.039 492.346 123.521C492.597 124.815 492.945 126.612 494.239 127.211C495.746 127.887 497.272 126.399 498.335 127.211C499.243 127.887 498.412 129.162 499.301 130.707C500.151 132.234 502.334 133.431 504.381 132.89C505.424 132.62 506.873 131.789 507.202 130.437C507.704 128.331 505.135 126.689 505.753 125.704C505.849 125.549 506.255 125.047 510.467 125.704C513.963 126.264 514.408 126.709 516.301 126.709C516.861 126.709 520.937 126.709 521.575 124.893C521.961 123.772 520.86 122.439 520.106 121.531C518.793 119.947 517.286 118.943 513.48 117.069C508.767 114.77 507.627 114.596 506.835 113.07C506.12 111.66 506.062 109.844 506.757 108.433C507.144 107.603 507.878 106.772 510.467 105.516C514.968 103.353 516.185 104.164 520.57 102.252C523.023 101.189 523.642 100.494 525.206 100.61C527.08 100.783 528.529 101.981 529.843 103.063C532.026 104.898 531.948 105.787 533.938 106.985C534.518 107.332 536.817 108.704 537.937 107.893C538.729 107.313 538.15 106.173 539.116 104.975C539.888 104.048 541.337 103.43 542.11 103.894C543.018 104.415 542.245 105.941 543.288 107.062C544.119 107.95 545.742 108.26 546.843 107.699C548.35 106.946 547.847 105.014 549.393 104.261C550.417 103.739 551.827 104.029 552.658 104.705C553.314 105.246 553.546 105.98 553.836 109.438C554.145 112.993 554.28 114.77 554.3 116.335C554.3 119.058 554.126 119.947 554.744 120.353C555.652 120.932 556.772 119.522 559.303 119.252C561.872 118.981 562.529 120.256 563.65 119.793C566.914 118.498 565.427 106.463 564.345 100.822C563.824 98.1561 563.514 95.4709 562.838 92.8436C561.93 89.3084 561.003 87.1061 561.892 86.372C562.761 85.6379 564.171 87.3186 566.721 86.9129C568.131 86.6811 569.117 85.8698 571.087 84.247C573.676 82.122 575.318 79.9777 575.588 79.6106C577.501 77.08 578.332 75.0709 578.93 75.2447C579.471 75.4186 578.872 77.0606 579.954 78.2584C580.746 79.1277 581.558 78.78 582.678 79.6106C583.567 80.2868 584.455 81.5811 584.455 82.8947C584.455 85.1163 581.963 85.6379 581.519 88.4198C581.287 89.8493 581.751 91.047 581.925 91.472C582.717 93.4039 584.108 93.9061 587.855 96.5334C591.449 99.0255 590.966 99.1027 592.666 99.9721C595.428 101.402 597.959 101.827 599.388 101.981C600.509 102.097 603.31 102.348 606.575 101.344C609.067 100.571 608.932 99.9334 612.293 98.7937C615.036 97.8664 615.21 98.2527 617.296 97.3448C619.904 96.205 620.407 95.2584 621.836 95.4323C623.208 95.6062 623.208 96.5334 625.294 97.5187C625.951 97.8471 627.902 98.7743 630.201 98.4266C632.365 98.1368 634.007 96.8425 634.664 96.3402C636.17 95.1811 636.479 94.3118 637.194 94.4277C638.141 94.5823 637.967 96.1277 639.667 97.7891C640.536 98.6584 640.826 98.5039 642.024 99.6243C642.642 100.204 643.434 100.938 643.936 101.885C645.134 104.183 643.492 105.594 644.477 107.796C644.96 108.878 645.849 109.477 647.665 110.713C649.249 111.795 650.659 112.374 652.649 113.166C655.547 114.326 655.566 114.016 656.474 114.615C658.328 115.852 660.299 118.479 659.758 120.623C659.024 123.386 654.523 123.424 654.484 125.163C654.426 126.805 658.367 127.095 662.849 130.804C664.8 132.427 668.297 135.305 667.93 138.435C667.64 140.888 665.225 141.506 665.38 144.076C665.495 145.756 666.655 147.553 667.93 147.707C669.321 147.881 670.074 145.988 671.117 146.297C672.18 146.626 672.527 149.021 672.469 150.528C672.411 152.498 671.658 153.175 672.064 154.623C672.334 155.551 672.914 156.207 673.571 156.806C676.449 159.414 679.308 159.511 682.843 161.578C686.958 163.973 686.746 165.982 690.339 166.89C691.382 167.161 692.618 167.258 695.11 167.431C698.839 167.721 700.925 167.547 701.466 168.668C701.679 169.131 701.543 169.576 701.389 170.155C700.597 172.86 698.027 173.111 697.834 174.656C697.699 175.97 699.36 177.168 702.471 179.428C705.639 181.727 707.126 182.191 707.107 183.253C707.107 184.412 705.33 184.335 703.572 186.518C701.717 188.836 702.471 190.401 700.713 191.579C699.302 192.506 698.105 192.004 697.429 193.067C697.004 193.743 697.235 194.361 697.429 195.926C697.467 196.216 697.796 199.017 697.429 201.663C697.158 203.614 696.984 204.928 696.076 206.164C694.202 208.676 691.421 207.922 690.88 209.564C690.281 211.438 693.14 214.452 695.922 215.572C697.834 216.326 700.017 216.384 700.017 216.384C702.161 216.442 703.108 215.901 703.977 216.519C704.287 216.751 704.808 217.292 704.924 220.074C705.117 224.536 703.919 226.275 705.059 227.84C705.735 228.747 706.257 228.322 707.513 229.346C708.44 230.1 709.444 231.355 710.526 236.03C711.743 241.401 710.913 241.903 712.014 243.255C713.965 245.632 716.882 244.415 718.292 246.791C719.026 248.046 718.872 249.399 718.563 251.852C718.118 255.445 716.901 256.604 717.616 258.382C717.964 259.29 718.717 259.811 720.205 260.835C723.315 262.999 724.899 262.863 727.565 264.525C730.057 266.09 731.506 267.963 731.796 268.35C734.384 271.808 733.225 273.662 735.756 276.251C736.104 276.618 737.958 278.473 740.933 278.975C742.034 279.168 744.005 279.497 745.57 278.434C747.25 277.294 746.883 275.633 748.293 275.034C749.337 274.57 750.38 275.111 752.93 276.386C759.807 279.806 759.807 279.593 760.29 280.211C762.319 282.819 760.445 284.635 762.608 288.518C762.917 289.078 763.033 289.175 766.704 293.154C771.437 298.312 771.533 298.448 772.152 298.892C775.88 301.577 777.696 300.495 779.241 302.717C781.077 305.306 779.087 307.527 780.748 310.212C782.12 312.395 784.264 312.241 788.939 313.883C792.185 315.042 797.632 316.974 801.612 321.263C803.969 323.793 805.05 326.343 807.021 330.98C809.764 337.432 808.818 338.34 810.653 340.986C812.334 343.401 814.458 344.541 825.566 348.25C837.795 352.346 838.819 352.133 842.663 354.258C847.357 356.827 853.694 360.343 854.119 365.521C854.467 369.906 850.255 371.451 850.661 376.976C850.912 380.434 852.593 380.473 853.559 385.167Z" fill="#313131" stroke="#181818" stroke-width="2.79715" stroke-miterlimit="10"/>
<path d="M280.058 156.246C283.6 156.246 286.472 153.375 286.472 149.833C286.472 146.29 283.6 143.419 280.058 143.419C276.516 143.419 273.645 146.29 273.645 149.833C273.645 153.375 276.516 156.246 280.058 156.246Z" fill="#181818"/>
<path d="M256.41 258.555C259.952 258.555 262.823 255.683 262.823 252.141C262.823 248.599 259.952 245.728 256.41 245.728C252.868 245.728 249.996 248.599 249.996 252.141C249.996 255.683 252.868 258.555 256.41 258.555Z" fill="#181818"/>
<path d="M423.261 445.228C426.803 445.228 429.675 442.356 429.675 438.814C429.675 435.272 426.803 432.4 423.261 432.4C419.719 432.4 416.848 435.272 416.848 438.814C416.848 442.356 419.719 445.228 423.261 445.228Z" fill="#181818"/>
<path d="M226.832 43.3301C225.712 47.4062 226.156 50.2653 226.832 52.1972C227.451 53.9551 230.541 61.4506 230.522 63.112C230.503 64.6961 229.865 64.3097 228.61 68.6949C228.03 70.7233 227.895 71.612 227.026 72.2495C225.384 73.4279 222.911 72.5199 222.66 72.4234C221.288 71.9018 221.404 71.3415 219.936 70.6074C219.337 70.3177 216.748 69.1199 214.758 70.1438C213.657 70.7233 213.966 71.3415 212.402 72.9643C210.489 74.9347 209.407 74.6836 208.944 75.9586C208.287 77.7938 209.91 79.9961 210.219 80.4211C211.281 81.87 211.957 81.6188 212.769 82.9711C213.503 84.2075 213.986 86.1586 213.136 87.4336C212.595 88.2257 212.073 87.9359 210.856 88.8825C209.678 89.8098 208.364 91.5484 208.673 93.1518C208.751 93.5382 208.944 93.9825 209.678 94.7939C212.363 97.7109 214.971 97.2859 216.033 99.4303C216.594 100.551 215.86 100.609 216.401 102.521C216.961 104.511 217.888 104.839 219.395 107.621C220.11 108.935 220.612 109.823 220.94 111.176C221.365 112.856 221.249 114.112 221.037 116.546C220.805 119.174 220.689 120.487 220.032 120.816C218.699 121.492 217.096 118.633 214.488 119C212.807 119.231 211.629 120.68 211.223 121.183C209.658 123.095 210.161 124.66 208.866 125.278C208.326 125.529 208.268 125.239 205.505 125.104C203.399 124.988 202.704 125.124 202.144 125.568C201.699 125.916 201.815 126.089 201.236 126.939C199.864 128.949 197.874 130.069 197.604 130.204C196.793 130.629 196.58 130.61 196.425 130.938C196.058 131.692 196.947 132.658 198.512 134.937C200.811 138.26 200.927 139.091 200.869 139.67C200.791 140.636 200.25 141.757 199.323 142.394C197.758 143.457 196.213 142.394 192.098 142.124C189.085 141.93 187.578 141.834 186.786 142.664C184.835 144.693 188.215 149.638 186.245 151.396C185.163 152.362 183.424 151.532 183.115 152.208C182.729 153.077 185.433 154.719 187.887 156.979C193.914 162.504 193.702 167.43 197.565 168.029C198.55 168.184 199.864 167.759 202.472 166.948C205.138 166.098 206.239 165.383 208.751 164.224C213.001 162.273 215.435 161.152 218.835 160.669C222.099 160.225 223.548 160.746 226.06 159.433C227.644 158.621 228.03 157.907 229.189 157.926C231.14 157.984 231.469 160.051 234.367 161.616C236.723 162.871 237.168 161.867 239.138 163.123C240.432 163.934 241.418 165.402 243.369 168.3C244.567 170.096 245.185 171.004 245.417 171.565C246.595 174.404 245.784 176.336 245.687 180.026C245.61 183.233 246.131 185.551 246.769 188.487C247.851 193.375 248.392 195.809 250.323 198.166C251.521 199.653 254.206 202.3 256.872 204.579C258.263 205.758 258.939 206.26 258.92 207.033C258.862 208.733 255.462 209.254 250.729 212.21C247.329 214.335 245.648 215.378 245.146 216.847C243.736 220.961 250.15 223.473 251.83 231.992C252.68 236.261 251.753 239.178 253.337 239.893C255.365 240.82 257.529 236.281 261.103 236.764C264.233 237.189 264.484 240.936 269.429 242.636C270.936 243.158 273.254 243.602 273.795 242.772C274.162 242.192 273.467 241.361 272.423 239.372C270.723 236.068 269.719 234.136 270.376 232.687C271.206 230.852 274.452 230.447 276.094 230.505C277.253 230.543 277.214 230.814 279.088 231.045C282.295 231.451 283.184 230.794 283.86 231.451C285.019 232.61 282.566 234.813 283.454 237.594C283.763 238.58 284.246 238.811 289.868 243.313C292.128 245.128 292.089 245.128 292.456 245.36C295.335 247.234 299.025 248.413 299.276 248.49C301.014 249.05 301.768 249.127 302.135 249.861C302.734 251.04 301.671 252.701 301.324 253.261C300.029 255.29 298.909 255 297.499 256.661C295.142 259.463 295.76 263.346 295.856 264.022C296.088 265.432 296.339 267.055 297.363 267.422C298.561 267.866 299.739 266.224 303.777 262.785C308.317 258.922 308.645 259.463 309.785 257.743C311.755 254.749 311.021 252.759 313.339 251.059C313.726 250.789 315.31 249.688 317.3 249.823C319.019 249.958 319.096 250.885 321.395 251.6C322.187 251.851 324.737 252.605 327.268 251.465C327.867 251.194 328.504 250.905 329.045 250.228C330.61 248.258 329.915 244.549 327.963 243.139C326.572 242.153 325.607 243.061 324.409 242.192C322.071 240.473 322.245 234.291 325.22 231.837C326.862 230.466 328.157 231.258 329.045 229.925C330.378 227.916 327.79 225.598 328.91 221.464C329.103 220.768 329.432 219.57 330.417 218.469C331.769 216.924 332.89 217.194 333.276 216.286C334.165 214.277 329.18 211.92 329.316 208.385C329.432 205.623 332.484 205.352 332.716 202.802C333.044 199.209 327.094 198.108 323.578 192.023C321.627 188.642 321.434 185.474 321.125 180.026C320.835 175.119 321.511 172.511 320.99 164.88C320.777 161.886 320.526 160.012 319.212 158.196C317.242 155.472 314.653 155.395 314.576 153.83C314.499 152.42 316.585 151.744 321.801 148.383C327.21 144.886 327.712 143.824 329.432 144.017C332.967 144.403 333.643 149.194 336.792 149.194C338.936 149.194 339.11 146.972 342.51 144.828C345.949 142.664 349.387 142.664 355.337 142.645C359.317 142.645 361.345 142.645 362.698 144.017C364.533 145.852 363.412 147.958 365.421 150.025C367.044 151.686 369.903 152.517 372.241 151.667C374.965 150.662 376.298 147.649 376.607 145.388C377.341 139.825 371.893 137.371 373.052 132.851C373.728 130.262 376.24 128.272 378.5 127.674C382.248 126.688 383.832 129.895 387.232 129.045C390.342 128.253 389.898 125.355 394.862 120.854C398.707 117.377 400.291 117.918 401.141 115.677C402.474 112.122 398.803 109.939 399.769 105.033C399.827 104.704 400.6 101.111 403.594 99.0246C406.144 97.2473 408.617 97.7496 413.138 97.653C415.378 97.6143 422.43 97.4598 426.235 95.7405C429.558 94.2337 433.596 90.0609 435.238 77.6586" stroke="#181818" stroke-width="2.79715" stroke-miterlimit="10"/>
<path d="M252.798 239.45C252.373 240.165 251.755 241.401 251.658 242.985C251.291 249.457 260.39 252.123 261.201 260.159C261.298 261.106 261.53 263.443 260.39 265.878C259.154 268.486 257.589 268.563 255.754 271.596C254.846 273.103 253.146 275.904 254.112 278.145C254.962 280.096 257.009 279.671 258.207 281.97C259.057 283.592 258.999 285.679 258.207 287.147C257.415 288.596 256.333 288.692 253.841 290.141C251.89 291.281 247.852 293.619 246.21 297.502C245.766 298.564 246.094 298.294 245.399 301.867C244.53 306.253 243.892 307.335 242.946 311.411C241.883 316.008 242.501 315.448 241.574 319.041C240.608 322.808 239.835 325.822 237.479 328.585C235.972 330.343 235.392 330.188 232.301 332.951C229.906 335.076 228.167 337.046 227.027 338.398" stroke="#181818" stroke-width="2.79715" stroke-miterlimit="10"/>
<path d="M325.435 236.436C326.42 235.837 327.849 235.2 329.26 235.625C330.226 235.914 330.399 236.475 331.172 236.996C333.452 238.542 335.615 236.146 340.039 236.455C342.918 236.648 343.478 237.769 345.912 237.267C346.55 237.131 348.501 236.726 349.312 235.219C349.892 234.156 349.389 233.519 349.583 231.819C349.64 231.317 350.046 228.303 351.901 227.047C353.485 225.966 354.625 227.202 358.855 226.912C361.115 226.758 363.298 226.603 364.303 225.135C364.902 224.285 364.535 223.763 364.573 220.904C364.631 216.519 365.501 215.205 364.438 213.95C363.762 213.158 362.584 212.694 361.714 213.003C360.98 213.254 360.826 213.911 360.208 214.78C359.261 216.113 357.348 217.736 355.842 217.504C353.639 217.176 352.789 212.984 352.577 211.921C352.287 210.472 351.746 207.845 353.118 206.609C354.084 205.739 354.934 206.531 357.213 205.932C357.658 205.817 358.45 205.565 362.661 202.668C365.095 200.987 365.926 200.33 366.351 200.62C367.162 201.18 365.076 204.426 366.216 205.527C366.911 206.222 368.65 205.894 369.77 205.121C371.489 203.943 371.219 202.05 372.359 201.721C373.305 201.431 374.271 202.513 376.049 204.175C379.854 207.748 381.767 209.545 383.409 209.487C383.872 209.487 385.553 208.386 388.856 206.222C391.387 204.561 392.218 204.001 392.682 204.31C393.493 204.87 392.372 207.787 392.141 208.405C391.31 210.55 390.653 210.743 389.958 212.365C389.011 214.568 388.451 218.315 390.228 219.59C391.252 220.325 392.952 220.17 394.053 219.455C396.062 218.142 396.062 215.051 396.507 215.089C397.009 215.147 396.526 218.953 397.588 219.32C398.593 219.668 399.752 216.558 403.307 215.225C404.987 214.606 405.683 214.954 405.895 215.089C406.629 215.553 406.784 216.558 406.977 217.948C407.17 219.281 407.054 219.726 407.112 221.213C407.209 223.647 407.247 224.864 407.924 225.85C408.716 227.009 409.334 226.603 410.647 228.033C411.459 228.921 411.382 229.23 412.695 231.433C414.337 234.195 414.666 234.041 414.743 234.833C414.859 236.011 414.163 236.629 411.884 240.01C409.372 243.738 409.411 244.183 409.566 244.376C409.894 244.781 410.976 244.337 415.284 243.004C418.645 241.961 419.186 241.864 419.65 242.193C420.809 243.004 419.592 245.206 419.92 249.012C420.249 252.876 422.084 257.184 424.151 257.338C424.46 257.358 424.808 257.28 425.928 256.527C428.13 255.02 429.232 253.687 430.97 251.891C433.366 249.399 434.679 248.413 436.012 247.66C437.461 246.849 438.273 246.385 438.871 246.713C440.301 247.486 438.002 251.214 439.007 256.392C440.031 261.724 443.102 265.665 443.102 265.665C444.087 266.92 445.44 268.35 445.15 270.03C445.034 270.687 444.725 271.016 443.566 272.387C440.185 276.367 439.934 276.83 439.741 277.294C439.142 278.801 438.852 281.216 440.011 282.298C440.861 283.109 441.731 282.433 443.199 283.302C444.454 284.036 445.633 285.562 445.478 287.03C445.401 287.784 444.841 288.441 443.759 289.754C442.774 290.952 442.542 290.913 441.904 291.783C441.267 292.633 440.301 293.888 440.34 295.337C440.359 296.709 441.267 296.883 442.523 299.22C443.798 301.596 443.16 301.944 444.3 303.721C445.575 305.711 447.429 306.89 448.048 307.276C449.902 308.416 450.849 308.338 451.737 309.594C452.529 310.715 452.22 311.41 452.974 311.912C454.384 312.878 456.644 311.178 457.069 311.777C457.417 312.241 455.987 313.361 455.021 315.737C454.461 317.109 454.326 318.229 454.21 319.137C453.94 321.32 453.65 323.581 454.616 325.281C456.277 328.178 459.928 326.536 464.294 330.187C464.565 330.4 465.511 331.52 467.424 333.742C471.172 338.089 473.045 340.252 473.142 340.426C476.368 345.893 471.848 349.293 474.784 356.248C476.368 360.015 478.01 359.764 478.686 363.241C479.247 366.1 478.86 369.925 477.044 373.248C475.46 376.146 473.992 376.455 474.127 378.155C474.301 380.376 476.909 380.647 478.493 384.336C479.208 385.998 479.324 387.427 479.401 388.509C479.556 390.634 479.73 392.779 478.493 393.609C477.469 394.305 475.75 393.88 474.668 393.068C472.62 391.523 472.852 388.529 472.118 388.529C471.403 388.529 471.5 391.349 469.394 392.894C469.182 393.049 468.177 393.783 466.844 393.802C463.773 393.822 462.672 389.919 460.295 390.171C459.02 390.306 457.765 391.619 457.571 392.894C457.243 395.193 460.546 396.217 461.937 399.443C463.135 402.225 462.208 404.949 460.856 408.89C459.87 411.749 457.803 417.738 451.757 422.335C449.535 424.035 445.246 427.281 439.76 427.068C436.263 426.933 435.684 425.523 433.211 425.987C428.459 426.856 424.209 433.25 424.305 439.026C424.344 441.016 426.005 444.571 429.348 451.699C431.588 456.49 431.685 456.297 432.342 458.113C433.829 462.208 433.598 464.024 434.66 470.94C435.568 476.852 436.012 479.827 437.113 483.478C438.813 489.157 440.108 490.51 439.837 494.122C439.721 495.706 438.929 497.773 437.384 501.888C434.66 509.094 433.868 509.441 434.119 511.431C434.583 515.14 437.5 515.449 437.944 519.622C438.06 520.646 437.867 520.472 436.862 525.978C435.684 532.43 435.761 533.647 436.321 534.884C437.345 537.163 438.968 537.144 439.045 538.709C439.181 541.51 434.042 542.456 433.945 545.431C433.887 547.189 435.645 547.402 437.577 551.072C438.311 552.444 439.354 554.434 439.393 556.887C439.451 560.248 437.654 564.595 434.853 565.252C432.323 565.831 431.511 562.856 427.763 562.528C424.112 562.2 423.707 564.923 418.317 565.793C416.482 566.083 412.676 566.701 409.044 564.885C407.093 563.9 406.668 562.972 405.045 562.876C402.437 562.74 400.293 565.02 399.23 566.14C396.97 568.536 397.511 569.502 395.966 571.241C394.439 572.941 392.894 573.134 382.52 574.872C376.454 575.896 375.604 576.051 374.329 575.413C371.509 574.003 371.992 571.356 368.688 568.15C366.158 565.696 363.376 564.808 360.69 563.977C355.108 562.2 353.659 563.726 348.694 561.794C346.067 560.77 344.328 559.514 341.971 557.795C340.967 557.061 337.972 554.82 333.432 549.797C327.676 543.442 327.83 541.877 323.986 539.076C320.567 536.584 315.988 534.555 315.08 535.618C314.307 536.526 316.316 539.501 317.997 541.973C318.519 542.727 320.296 545.315 323.638 548.889C326.111 551.517 327.27 552.386 328.004 554.53C328.139 554.936 329.221 558.065 328.004 559.07C326.806 560.055 324.044 558.51 321.455 557.061C316.857 554.492 316.432 553.004 312.723 551.246C308.976 549.45 305.46 549.102 305.266 549.604C305.035 550.203 309.536 551.401 310.907 555.052C311.641 557.003 311.197 558.954 310.811 560.152" stroke="#181818" stroke-width="2.79715" stroke-miterlimit="10"/>
<path d="M23.4141 234.794C30.5039 234.678 36.0868 235.084 40.105 235.528C44.838 236.03 49.6482 236.842 52.6426 234.079C53.5505 233.248 53.8789 232.456 55.1926 231.896C57.4142 230.95 59.1142 232.109 62.6494 232.263C64.6199 232.341 66.0688 232.051 67.7494 231.722C71.0915 231.046 73.2165 229.636 82.4699 223.184C86.0825 220.653 88.5938 218.895 89.7336 219.726C90.7961 220.498 89.7722 222.778 91.0086 223.551C91.9359 224.111 92.9791 223.126 96.4564 222.643C96.4564 222.643 97.3643 222.527 98.4655 222.469C101.692 222.295 104.454 224.555 107.912 226.835C113.302 230.37 115.987 232.147 119.001 232.109C122.188 232.07 124.062 230.486 125.183 231.568C126.052 232.398 125.241 233.616 125.183 237.576C125.125 240.763 125.125 243.487 126.825 245.206C127.964 246.385 129.201 246.366 129.181 247.022C129.181 248.066 126.091 248.066 123 250.287C122.633 250.558 118.595 253.513 119.175 255.928C119.58 257.57 121.725 257.164 125.183 259.56C128.583 261.936 127.926 263.327 131.731 266.109C134.359 268.021 135.769 268.157 135.904 269.374C136.136 271.247 132.91 271.634 131.731 274.821C130.63 277.758 132.775 279.071 131.558 283.012C131.249 283.998 130.708 285.659 129.201 286.837C127.733 287.958 126.941 287.436 125.376 288.479C123.405 289.793 121.956 292.498 122.652 294.294C123 295.202 123.618 295.125 125.202 296.477C126.883 297.907 127.791 299.356 128.834 301.017C130.051 302.949 130.843 304.765 131.364 306.271" stroke="#181818" stroke-width="2.79715" stroke-miterlimit="10"/>
<path d="M380.297 575.162C382.306 578.33 384.392 579.547 385.976 580.069C387.676 580.629 389.164 580.494 391.019 581.711C392.371 582.6 393.221 583.72 393.723 584.551" stroke="#181818" stroke-width="3.95824" stroke-miterlimit="10"/>
</g>
<defs>
<clipPath id="clip0_7160_990">
<rect width="855.103" height="635.203" fill="white"/>
</clipPath>
</defs>
</svg>
