<svg width="86" height="85" viewBox="0 0 86 85" fill="none" xmlns="http://www.w3.org/2000/svg">
<path d="M43.7556 9.72574C43.5562 9.52663 43.2859 9.41479 43.0042 9.41479C42.7224 9.41479 42.4521 9.52663 42.2528 9.72574L31.5861 20.3898V14.9498C31.5861 14.668 31.4742 14.3978 31.2749 14.1985C31.0756 13.9993 30.8054 13.8873 30.5236 13.8873H22.237C21.9552 13.8873 21.6849 13.9993 21.4857 14.1985C21.2864 14.3978 21.1745 14.668 21.1745 14.9498V30.7989L9.20645 42.7635C9.00734 42.9629 8.89551 43.2332 8.89551 43.5149C8.89551 43.7967 9.00734 44.067 9.20645 44.2663L13.5678 48.6268C13.6664 48.7256 13.7835 48.804 13.9125 48.8575C14.0414 48.911 14.1796 48.9385 14.3192 48.9385C14.4588 48.9385 14.597 48.911 14.7259 48.8575C14.8549 48.804 14.972 48.7256 15.0706 48.6268L19.1277 44.5689V74.5901C19.1283 74.8714 19.2406 75.141 19.4398 75.3397C19.6389 75.5384 19.9088 75.65 20.1902 75.65H65.8011C66.0829 75.65 66.3532 75.5381 66.5525 75.3388C66.7517 75.1396 66.8636 74.8693 66.8636 74.5875V44.5613L70.9292 48.6268C71.0278 48.7257 71.1449 48.8042 71.2738 48.8577C71.4027 48.9113 71.541 48.9388 71.6806 48.9388C71.8202 48.9388 71.9585 48.9113 72.0874 48.8577C72.2163 48.8042 72.3334 48.7257 72.432 48.6268L76.7934 44.2663C76.9925 44.067 77.1043 43.7967 77.1043 43.5149C77.1043 43.2332 76.9925 42.9629 76.7934 42.7635L43.7556 9.72574ZM23.2995 28.6722V16.0072H29.4611V22.5114L25.7755 26.1962L23.2995 28.6722ZM64.7386 73.525H21.2527V42.4456L42.9999 20.6941L64.7429 42.4371L64.7386 73.525ZM71.6806 46.3709L66.5526 41.2429L43.7471 18.4374C43.5477 18.2383 43.2774 18.1264 42.9957 18.1264C42.7139 18.1264 42.4436 18.2383 42.2443 18.4374L14.3192 46.3735L11.4649 43.5149L26.5337 28.4453L31.275 23.7091L31.2818 23.698L43.0042 11.9791L74.5392 43.5141L71.6806 46.3709Z" fill="#181818"/>
<path d="M31.9966 47.8754V63.642C31.9966 63.9238 32.1085 64.1941 32.3078 64.3933C32.507 64.5926 32.7773 64.7045 33.0591 64.7045H52.9448C53.2266 64.7045 53.4969 64.5926 53.6961 64.3933C53.8954 64.1941 54.0073 63.9238 54.0073 63.642V47.8754C54.0073 47.5936 53.8954 47.3233 53.6961 47.1241C53.4969 46.9248 53.2266 46.8129 52.9448 46.8129H33.0591C32.7773 46.8129 32.507 46.9248 32.3078 47.1241C32.1085 47.3233 31.9966 47.5936 31.9966 47.8754ZM34.1216 56.8208H41.9416V62.5795H34.1216V56.8208ZM44.0666 62.5795V56.8208H51.8866V62.5795H44.0666ZM51.8866 54.6958H44.0623V48.9379H51.8823L51.8866 54.6958ZM41.9373 48.9379V54.6958H34.1216V48.9379H41.9373Z" fill="#181818"/>
</svg>
