<svg width="613" height="388" viewBox="0 0 613 388" fill="none" xmlns="http://www.w3.org/2000/svg">
<g clip-path="url(#clip0_914_3641)">
<path d="M1.32953 187.979H479.359C479.639 187.979 479.919 188.189 479.919 188.539V383.473C479.919 383.753 479.709 384.033 479.359 384.033H1.32953C1.04965 384.033 0.769775 383.823 0.769775 383.473V188.539C0.769775 188.259 1.04965 187.979 1.32953 187.979Z" stroke="#2B2B31" stroke-width="1.53932"/>
<path d="M284.425 203.792H455.919C459.838 203.792 462.986 206.941 462.986 210.859V288.735C462.986 292.653 459.838 295.802 455.919 295.802H284.425C280.507 295.802 277.358 292.653 277.358 288.735V210.859C277.358 206.941 280.507 203.792 284.425 203.792Z" stroke="#2B2B31" stroke-width="1.39938"/>
<path d="M380.283 59.236L477.54 174.405H3.14862L100.686 59.236H380.283ZM380.283 57.6967H100.686C100.231 57.6967 99.804 57.8926 99.5102 58.2424L1.97314 173.412C1.58831 173.866 1.49735 174.51 1.74924 175.056C2.00112 175.602 2.54688 175.945 3.14862 175.945H477.54C478.141 175.945 478.68 175.595 478.939 175.056C479.191 174.51 479.107 173.873 478.722 173.412L381.465 58.2424C381.171 57.8996 380.744 57.6967 380.29 57.6967H380.283Z" fill="#2B2B31"/>
<path d="M213.686 116.681H192.485C183.459 116.681 176.182 124.027 176.182 132.983V343.171H188.777" stroke="#FF2842" stroke-width="9.79569"/>
<path d="M44.8503 298.531V326.868C44.8503 335.894 52.1971 343.171 61.1532 343.171H177.092" stroke="#FF2842" stroke-width="9.79569"/>
<path d="M176.147 247.558C183.374 247.558 189.232 241.7 189.232 234.474C189.232 227.248 183.374 221.39 176.147 221.39C168.921 221.39 163.063 227.248 163.063 234.474C163.063 241.7 168.921 247.558 176.147 247.558Z" fill="#FF2842"/>
<path d="M171.39 230.696C172.159 230.696 172.859 230.836 173.489 231.185C174.118 231.465 174.538 231.955 174.888 232.515C175.238 233.075 175.378 233.774 175.378 234.544C175.378 235.314 175.238 235.943 174.888 236.573C174.538 237.133 174.118 237.553 173.489 237.902C172.859 238.182 172.159 238.392 171.39 238.392H168.731V230.766H171.39V230.696ZM171.32 236.993C172.089 236.993 172.719 236.783 173.139 236.363C173.559 235.943 173.769 235.314 173.769 234.544C173.769 233.774 173.559 233.145 173.139 232.725C172.719 232.305 172.089 232.025 171.32 232.025H170.27V237.063H171.32V236.993ZM176.147 234.474C176.147 233.704 176.287 233.075 176.637 232.445C176.987 231.815 177.407 231.395 178.037 231.045C178.596 230.696 179.296 230.556 179.996 230.556C180.835 230.556 181.605 230.766 182.235 231.185C182.865 231.605 183.354 232.235 183.564 233.005H181.815C181.675 232.655 181.395 232.375 181.045 232.165C180.765 231.955 180.346 231.885 179.926 231.885C179.506 231.885 179.086 232.025 178.736 232.235C178.386 232.445 178.107 232.725 177.897 233.075C177.687 233.424 177.617 233.914 177.617 234.404C177.617 234.894 177.687 235.314 177.897 235.733C178.107 236.083 178.386 236.433 178.736 236.643C179.086 236.853 179.506 236.923 179.926 236.923C180.346 236.923 180.695 236.853 181.045 236.643C181.395 236.433 181.605 236.153 181.815 235.803H183.564C183.284 236.573 182.865 237.203 182.235 237.623C181.605 238.042 180.835 238.252 179.996 238.252C179.296 238.252 178.596 238.112 178.037 237.762C177.477 237.413 176.987 236.993 176.637 236.363C176.357 235.943 176.147 235.244 176.147 234.474Z" fill="white"/>
<path d="M111.356 354.814C118.582 354.814 124.44 348.956 124.44 341.729C124.44 334.503 118.582 328.645 111.356 328.645C104.13 328.645 98.2717 334.503 98.2717 341.729C98.2717 348.956 104.13 354.814 111.356 354.814Z" fill="#FF2842"/>
<path d="M106.598 337.951C107.368 337.951 108.067 338.091 108.697 338.441C109.327 338.721 109.747 339.211 110.096 339.77C110.446 340.33 110.586 341.03 110.586 341.799C110.586 342.569 110.446 343.199 110.096 343.829C109.747 344.388 109.327 344.808 108.697 345.158C108.067 345.438 107.368 345.648 106.598 345.648H103.939V338.021H106.598V337.951ZM106.528 344.248C107.298 344.248 107.927 344.038 108.347 343.619C108.767 343.199 108.977 342.569 108.977 341.799C108.977 341.03 108.767 340.4 108.347 339.98C107.927 339.56 107.298 339.281 106.528 339.281H105.479V344.318H106.528V344.248ZM111.356 341.729C111.356 340.96 111.496 340.33 111.846 339.7C112.196 339.141 112.615 338.651 113.245 338.301C113.805 337.951 114.505 337.811 115.204 337.811C116.044 337.811 116.814 338.021 117.443 338.441C118.073 338.861 118.563 339.49 118.773 340.26H117.023C116.884 339.91 116.604 339.63 116.254 339.42C115.974 339.211 115.554 339.141 115.134 339.141C114.714 339.141 114.295 339.281 113.945 339.49C113.595 339.7 113.315 339.98 113.105 340.33C112.895 340.68 112.825 341.17 112.825 341.659C112.825 342.149 112.895 342.569 113.105 342.989C113.315 343.339 113.595 343.689 113.945 343.898C114.295 344.108 114.714 344.178 115.134 344.178C115.554 344.178 115.904 344.108 116.254 343.898C116.604 343.689 116.814 343.409 117.023 343.059H118.773C118.493 343.829 118.073 344.458 117.443 344.878C116.814 345.298 116.044 345.508 115.204 345.508C114.505 345.508 113.805 345.368 113.245 345.018C112.685 344.668 112.196 344.248 111.846 343.619C111.566 343.129 111.356 342.499 111.356 341.729Z" fill="white"/>
<path d="M244.682 343.171H412.888C421.914 343.171 429.191 335.824 429.191 326.868V296.362" stroke="#0B80EF" stroke-width="9.79569"/>
<path d="M314.931 343.171H487.741C497.005 343.171 504.471 335.894 504.471 326.868V145.018C504.471 135.992 512.007 128.715 521.201 128.715H575.189" stroke="#0B80EF" stroke-width="9.79569"/>
<path d="M344.248 354.814C351.475 354.814 357.333 348.956 357.333 341.729C357.333 334.503 351.475 328.645 344.248 328.645C337.022 328.645 331.164 334.503 331.164 341.729C331.164 348.956 337.022 354.814 344.248 354.814Z" fill="#0B80EF"/>
<path d="M341.729 344.143H338.721L338.231 345.613H336.622L339.35 337.986H341.1L343.828 345.613H342.219L341.729 344.143ZM341.31 342.954L340.19 339.805L339.071 342.954H341.31ZM344.458 341.764C344.458 340.995 344.598 340.365 344.948 339.735C345.298 339.176 345.718 338.686 346.347 338.336C346.907 337.986 347.607 337.846 348.306 337.846C349.146 337.846 349.916 338.056 350.545 338.476C351.175 338.896 351.665 339.525 351.875 340.295H350.126C349.986 339.945 349.706 339.665 349.356 339.455C349.076 339.246 348.656 339.176 348.236 339.176C347.817 339.176 347.397 339.316 347.047 339.525C346.697 339.735 346.417 340.015 346.207 340.365C345.997 340.715 345.927 341.205 345.927 341.694C345.927 342.184 345.997 342.604 346.207 343.024C346.417 343.374 346.697 343.724 347.047 343.933C347.397 344.143 347.817 344.213 348.236 344.213C348.656 344.213 349.006 344.143 349.356 343.933C349.706 343.724 349.916 343.444 350.126 343.094H351.875C351.595 343.864 351.175 344.493 350.545 344.913C349.916 345.333 349.146 345.543 348.306 345.543C347.607 345.543 346.907 345.403 346.347 345.053C345.788 344.703 345.298 344.283 344.948 343.654C344.668 343.164 344.458 342.534 344.458 341.764Z" fill="white"/>
<path d="M516.792 315.16C517.95 308.027 513.106 301.306 505.974 300.148C498.841 298.99 492.12 303.834 490.962 310.967C489.804 318.1 494.648 324.821 501.781 325.978C508.914 327.136 515.634 322.293 516.792 315.16Z" fill="#0B80EF"/>
<path d="M501.308 315.428H498.3L497.81 316.897H496.2L498.929 309.271H500.678L503.407 316.897H501.798L501.308 315.428ZM500.888 314.239L499.769 311.09L498.649 314.239H500.888ZM504.107 313.119C504.107 312.349 504.247 311.72 504.597 311.09C504.947 310.53 505.366 310.04 505.996 309.691C506.556 309.341 507.256 309.201 507.955 309.201C508.795 309.201 509.565 309.411 510.194 309.83C510.824 310.25 511.244 310.88 511.524 311.65H509.774C509.635 311.3 509.355 311.02 509.005 310.81C508.655 310.6 508.305 310.53 507.885 310.53C507.465 310.53 507.046 310.67 506.696 310.88C506.346 311.09 506.066 311.37 505.926 311.72C505.716 312.069 505.646 312.559 505.646 313.049C505.646 313.539 505.716 313.959 505.926 314.378C506.136 314.728 506.416 315.078 506.696 315.288C507.046 315.498 507.465 315.568 507.885 315.568C508.305 315.568 508.655 315.498 509.005 315.288C509.355 315.078 509.565 314.798 509.774 314.448H511.524C511.244 315.218 510.824 315.848 510.194 316.268C509.565 316.687 508.795 316.897 507.955 316.897C507.256 316.897 506.556 316.757 505.996 316.408C505.436 316.058 504.947 315.638 504.597 315.008C504.247 314.518 504.107 313.819 504.107 313.119Z" fill="white"/>
<path d="M193.115 155.094L227.68 70.1512H369.647L413.938 155.094H193.115Z" fill="white" stroke="#4A5D6D" stroke-width="2.79877" stroke-linecap="round" stroke-linejoin="round"/>
<path d="M274.909 69.8714L264.553 155.864M322.838 69.8714L336.972 155.864" stroke="#4A5D6D" stroke-width="2.79877"/>
<path d="M387.629 103.317H214.176" stroke="#4A5D6D" stroke-width="2.79877" stroke-linecap="round" stroke-linejoin="round"/>
<path d="M417.849 288.735H433.102" stroke="#2B2B31" stroke-width="1.39938" stroke-linecap="round"/>
<path d="M446.592 252.351H404.009C402.688 252.351 401.616 253.422 401.616 254.744V283.193C401.616 284.515 402.688 285.586 404.009 285.586H446.592C447.914 285.586 448.985 284.515 448.985 283.193V254.744C448.985 253.422 447.914 252.351 446.592 252.351Z" stroke="#2B2B31" stroke-width="1.39938" stroke-linecap="round" stroke-linejoin="round"/>
<path d="M300.798 209.25H335.082C337.811 209.25 339.98 211.419 339.98 214.148V283.277C339.98 286.006 337.811 288.175 335.082 288.175H300.798C298.069 288.175 295.9 286.006 295.9 283.277V214.148C295.9 211.419 298.069 209.25 300.798 209.25Z" stroke="#2B2B31" stroke-width="1.39938"/>
<path d="M295.9 241.366H339.98V283.277C339.98 286.006 337.811 288.175 335.082 288.175H300.798C298.069 288.175 295.9 286.006 295.9 283.277V241.366Z" stroke="#2B2B31" stroke-width="1.39938"/>
<path d="M333.403 221.215V233.179" stroke="#2B2B31" stroke-width="1.39938" stroke-linecap="round"/>
<path d="M333.403 249.552V274.041" stroke="#2B2B31" stroke-width="1.39938" stroke-linecap="round"/>
<path d="M354.674 256.059H389.518V285.446C389.518 286.916 388.329 288.175 386.79 288.175H357.403C355.933 288.175 354.674 286.986 354.674 285.446V256.059Z" stroke="#2B2B31" stroke-width="1.39938"/>
<path d="M357.403 245.144H386.79C388.259 245.144 389.518 246.333 389.518 247.873V285.446C389.518 286.916 388.329 288.175 386.79 288.175H357.403C355.933 288.175 354.674 286.986 354.674 285.446V247.873C354.674 246.403 355.863 245.144 357.403 245.144Z" stroke="#2B2B31" stroke-width="1.39938" stroke-linecap="round" stroke-linejoin="round"/>
<path d="M372.306 284.257C379.069 284.257 384.551 278.775 384.551 272.012C384.551 265.25 379.069 259.767 372.306 259.767C365.544 259.767 360.062 265.25 360.062 272.012C360.062 278.775 365.544 284.257 372.306 284.257Z" stroke="#2B2B31" stroke-width="1.39938"/>
<path d="M372.306 279.639C376.518 279.639 379.933 276.224 379.933 272.012C379.933 267.8 376.518 264.385 372.306 264.385C368.094 264.385 364.679 267.8 364.679 272.012C364.679 276.224 368.094 279.639 372.306 279.639Z" stroke="#2B2B31" stroke-width="1.39938"/>
<path d="M369.647 276.84C368.808 276.42 368.038 275.72 367.548 274.811C367.058 273.971 366.848 272.992 366.848 272.012C366.918 271.032 367.198 270.053 367.758 269.283C368.318 268.444 369.087 267.814 369.997 267.464" stroke="#2B2B31" stroke-width="0.699692" stroke-linecap="round"/>
<path d="M377.624 252.91C378.86 252.91 379.863 251.908 379.863 250.671C379.863 249.435 378.86 248.432 377.624 248.432C376.387 248.432 375.385 249.435 375.385 250.671C375.385 251.908 376.387 252.91 377.624 252.91Z" stroke="#2B2B31" stroke-width="0.699692"/>
<path d="M384.201 252.91C385.437 252.91 386.44 251.908 386.44 250.671C386.44 249.435 385.437 248.432 384.201 248.432C382.964 248.432 381.962 249.435 381.962 250.671C381.962 251.908 382.964 252.91 384.201 252.91Z" stroke="#2B2B31" stroke-width="0.699692"/>
<path d="M367.317 248.432H358.655C358.4 248.432 358.193 248.639 358.193 248.894V252.987C358.193 253.242 358.4 253.449 358.655 253.449H367.317C367.572 253.449 367.779 253.242 367.779 252.987V248.894C367.779 248.639 367.572 248.432 367.317 248.432Z" stroke="#2B2B31" stroke-width="0.699692"/>
<path d="M425.301 213.189V222.362" stroke="#2B2B31" stroke-width="1.39938" stroke-linecap="round" stroke-linejoin="round"/>
<path d="M425.161 237.86C427.688 237.86 429.737 235.811 429.737 233.284C429.737 230.757 427.688 228.708 425.161 228.708C422.633 228.708 420.585 230.757 420.585 233.284C420.585 235.811 422.633 237.86 425.161 237.86Z" stroke="#2B2B31" stroke-width="1.25945" stroke-linecap="round" stroke-linejoin="round"/>
<path d="M436.013 233.683C436.013 234.033 435.999 234.383 435.964 234.719H414.358C414.323 234.383 414.309 234.033 414.309 233.683C414.309 227.687 419.171 222.831 425.161 222.831C431.15 222.831 436.013 227.687 436.013 233.683Z" fill="white" stroke="#2B2B31" stroke-width="1.39938" stroke-linecap="round" stroke-linejoin="round"/>
<path d="M418.052 237.72L415.162 238" stroke="#0B80EF" stroke-width="1.04954" stroke-linecap="round" stroke-linejoin="round"/>
<path d="M422.11 240.778L421.096 243.073" stroke="#0B80EF" stroke-width="1.04954" stroke-linecap="round" stroke-linejoin="round"/>
<path d="M428.47 240.813L429.576 243.066" stroke="#0B80EF" stroke-width="1.04954" stroke-linecap="round" stroke-linejoin="round"/>
<path d="M432.836 237.496L435.229 238.224" stroke="#0B80EF" stroke-width="1.04954" stroke-linecap="round" stroke-linejoin="round"/>
<path d="M45.7948 305.08C64.9385 305.08 80.4576 289.561 80.4576 270.417C80.4576 251.273 64.9385 235.754 45.7948 235.754C26.6511 235.754 11.1321 251.273 11.1321 270.417C11.1321 289.561 26.6511 305.08 45.7948 305.08Z" fill="white" stroke="#2B2B31" stroke-width="2.79877" stroke-linecap="round" stroke-linejoin="round"/>
<path d="M63.4061 248.013H28.1766C27.8338 248.013 27.6099 248.286 27.6099 248.692V292.149C27.6099 292.555 27.8408 292.828 28.1766 292.828H63.4061C63.7489 292.828 63.9728 292.555 63.9728 292.149V248.692C63.9728 248.286 63.686 248.013 63.4061 248.013Z" stroke="#2B2B31" stroke-width="1.39938" stroke-linecap="round" stroke-linejoin="round"/>
<path d="M63.9728 282.333H27.6099V292.821H63.9728V282.333Z" stroke="#2B2B31" stroke-width="1.39938" stroke-linecap="round" stroke-linejoin="round"/>
<path d="M49.8041 255.786H41.5687C40.2703 255.786 39.2178 256.839 39.2178 258.137V259.229C39.2178 260.527 40.2703 261.58 41.5687 261.58H49.8041C51.1025 261.58 52.1551 260.527 52.1551 259.229V258.137C52.1551 256.839 51.1025 255.786 49.8041 255.786Z" fill="#4A5D6D" stroke="#2B2B31" stroke-width="1.39938" stroke-linecap="round" stroke-linejoin="round"/>
<path d="M47.1243 284.586H46.1447C45.8936 284.586 45.6899 284.789 45.6899 285.041V287.126C45.6899 287.377 45.8936 287.58 46.1447 287.58H47.1243C47.3755 287.58 47.5791 287.377 47.5791 287.126V285.041C47.5791 284.789 47.3755 284.586 47.1243 284.586Z" fill="#0081FB"/>
<path d="M50.0699 284.586H49.0903C48.8391 284.586 48.6355 284.789 48.6355 285.041V287.126C48.6355 287.377 48.8391 287.58 49.0903 287.58H50.0699C50.321 287.58 50.5247 287.377 50.5247 287.126V285.041C50.5247 284.789 50.321 284.586 50.0699 284.586Z" fill="#0081FB"/>
<path d="M53.0227 284.586H52.0432C51.792 284.586 51.5884 284.789 51.5884 285.041V287.126C51.5884 287.377 51.792 287.58 52.0432 287.58H53.0227C53.2739 287.58 53.4775 287.377 53.4775 287.126V285.041C53.4775 284.789 53.2739 284.586 53.0227 284.586Z" fill="#0081FB"/>
<path d="M56.0523 284.586H55.0727C54.8215 284.586 54.6179 284.789 54.6179 285.041V287.126C54.6179 287.377 54.8215 287.58 55.0727 287.58H56.0523C56.3035 287.58 56.5071 287.377 56.5071 287.126V285.041C56.5071 284.789 56.3035 284.586 56.0523 284.586Z" fill="#0081FB"/>
<path d="M59.1519 284.586H58.1723C57.9212 284.586 57.7175 284.789 57.7175 285.041V287.126C57.7175 287.377 57.9212 287.58 58.1723 287.58H59.1519C59.4031 287.58 59.6067 287.377 59.6067 287.126V285.041C59.6067 284.789 59.4031 284.586 59.1519 284.586Z" fill="#0081FB"/>
<path d="M222.005 375.602C241.176 375.602 256.717 360.061 256.717 340.89C256.717 321.719 241.176 306.178 222.005 306.178C202.834 306.178 187.293 321.719 187.293 340.89C187.293 360.061 202.834 375.602 222.005 375.602Z" fill="white" stroke="#1D1D1B" stroke-width="2.79877" stroke-linecap="round" stroke-linejoin="round"/>
<path d="M237.657 333.704V318.787C237.657 318.605 237.538 318.479 237.35 318.479H225.903C225.784 318.479 225.658 318.542 225.595 318.661L222.978 324.503C222.859 324.811 222.369 324.685 222.369 324.384V313.238C222.369 312.93 221.942 312.811 221.823 313.119L218.899 318.353C218.836 318.472 218.717 318.535 218.654 318.535H206.899C206.717 318.535 206.591 318.654 206.591 318.843V333.76" stroke="#FF2842" stroke-width="1.39938" stroke-linecap="round" stroke-linejoin="round"/>
<path d="M213.784 351.42H207.088V353.365H213.784V351.42Z" fill="#1D1D1B"/>
<path d="M238.14 351.42H231.444V353.365H238.14V351.42Z" fill="#1D1D1B"/>
<path d="M235.705 348.985H233.76V355.744H235.705V348.985Z" fill="#1D1D1B"/>
<path d="M244.416 342.835H200.574V361.713C200.574 362.077 200.819 362.322 201.182 362.322H243.808C244.172 362.322 244.416 362.077 244.416 361.713V342.835Z" stroke="#1D1D1B" stroke-width="1.39938" stroke-linecap="round" stroke-linejoin="round"/>
<path d="M243.745 336.825H201.182C200.819 336.825 200.574 337.14 200.574 337.462V343.171H244.416V337.462C244.353 337.147 244.109 336.825 243.745 336.825Z" fill="#D5DEE5" stroke="#1D1D1B" stroke-width="1.39938" stroke-linecap="round" stroke-linejoin="round"/>
<path d="M209.642 333.704H203.554C203.19 333.704 202.946 333.949 202.946 334.313V336.748H210.25V334.313C210.25 333.949 210.005 333.704 209.642 333.704Z" fill="#D5DEE5" stroke="#1D1D1B" stroke-width="1.39938" stroke-miterlimit="10"/>
<path d="M227.911 333.704H216.338C215.974 333.704 215.729 333.949 215.729 334.313V336.748H228.519V334.313C228.519 333.949 228.274 333.704 227.911 333.704Z" fill="#D5DEE5" stroke="#1D1D1B" stroke-width="1.39938" stroke-miterlimit="10"/>
<path d="M240.701 333.704H234.614C234.25 333.704 234.005 333.949 234.005 334.313V336.748H241.31V334.313C241.31 333.949 241.065 333.704 240.701 333.704Z" fill="#D5DEE5" stroke="#1D1D1B" stroke-width="1.39938" stroke-linecap="round" stroke-linejoin="round"/>
<path d="M504.107 290.771C523.278 290.771 538.819 275.23 538.819 256.059C538.819 236.889 523.278 221.348 504.107 221.348C484.936 221.348 469.395 236.889 469.395 256.059C469.395 275.23 484.936 290.771 504.107 290.771Z" fill="white" stroke="#2B2B31" stroke-width="2.79877" stroke-linecap="round" stroke-linejoin="round"/>
<path d="M523.258 235.377H485.453C485.089 235.377 484.844 235.621 484.844 235.985V265.253C484.844 265.617 485.089 265.862 485.453 265.862H523.258C523.565 265.862 523.866 265.617 523.866 265.253V235.985C523.866 235.621 523.558 235.377 523.258 235.377Z" stroke="#2B2B31" stroke-width="1.39938" stroke-linecap="round" stroke-linejoin="round"/>
<path d="M523.258 235.377H485.453C485.089 235.377 484.844 235.621 484.844 235.985V250.623H523.873V235.985C523.873 235.677 523.565 235.377 523.265 235.377H523.258Z" stroke="#2B2B31" stroke-width="1.39938" stroke-miterlimit="10"/>
<path d="M520.214 265.862H489.113V269.522C489.113 269.885 489.357 270.13 489.721 270.13H519.598C519.906 270.13 520.207 269.822 520.207 269.522V265.862H520.214Z" fill="#D5DEE5" stroke="#2B2B31" stroke-width="1.39938" stroke-linecap="round" stroke-linejoin="round"/>
<path d="M493.381 270.13V277.449C493.381 277.813 493.626 278.058 493.989 278.058H496.431C496.795 278.058 497.04 277.813 497.04 277.449V270.13H493.381Z" fill="#D5DEE5" stroke="#2B2B31" stroke-width="1.39938" stroke-linecap="round" stroke-linejoin="round"/>
<path d="M502.526 270.13V277.449C502.526 277.813 502.771 278.058 503.134 278.058H505.576C505.94 278.058 506.185 277.813 506.185 277.449V270.13H502.526Z" fill="#D5DEE5" stroke="#2B2B31" stroke-width="1.39938" stroke-linecap="round" stroke-linejoin="round"/>
<path d="M511.678 270.13V277.449C511.678 277.757 511.986 278.058 512.286 278.058H514.728C515.036 278.058 515.337 277.75 515.337 277.449V270.13H511.678Z" fill="#D5DEE5" stroke="#2B2B31" stroke-width="1.39938" stroke-linecap="round" stroke-linejoin="round"/>
<path d="M504.086 263.868C507.023 263.868 509.404 261.443 509.404 258.452C509.404 255.461 507.023 253.037 504.086 253.037C501.149 253.037 498.768 255.461 498.768 258.452C498.768 261.443 501.149 263.868 504.086 263.868Z" fill="#EAEDEF"/>
<path d="M504.478 254.464V254.345C504.478 254.282 504.415 254.282 504.415 254.282H504.296C504.233 254.282 504.233 254.345 504.233 254.345L501.98 258.732V258.851L502.043 258.914H502.106L503.995 258.669H504.058C504.058 258.669 504.121 258.669 504.121 258.732C504.121 258.732 504.121 258.795 504.184 258.795V258.858L503.449 262.637V262.756C503.449 262.819 503.512 262.819 503.512 262.819H503.631C503.694 262.819 503.694 262.756 503.694 262.756L506.192 257.508V257.445C506.192 257.445 506.192 257.382 506.129 257.382L506.066 257.319H506.003L504.051 257.746H503.988C503.988 257.746 503.925 257.746 503.925 257.683C503.925 257.62 503.925 257.62 503.862 257.62V257.557L504.471 254.45L504.478 254.464Z" fill="#FF2842"/>
<path d="M490.33 240.862V246.348C490.33 246.712 490.575 246.956 490.939 246.956H492.765C493.129 246.956 493.374 246.712 493.374 246.348V240.862C493.374 240.498 493.129 240.253 492.765 240.253H490.939C490.575 240.253 490.33 240.498 490.33 240.862Z" fill="#D9D9D9" stroke="#2B2B31" stroke-width="0.699692" stroke-miterlimit="10" stroke-linecap="round"/>
<path d="M495.207 240.862V246.348C495.207 246.711 495.452 246.956 495.816 246.956H497.642C498.006 246.956 498.25 246.711 498.25 246.348V240.862C498.25 240.498 498.006 240.253 497.642 240.253H495.816C495.452 240.253 495.207 240.498 495.207 240.862Z" fill="#D9D9D9" stroke="#2B2B31" stroke-width="0.699692" stroke-linecap="round" stroke-linejoin="round"/>
<path d="M500.091 240.862V246.348C500.091 246.711 500.336 246.956 500.7 246.956H502.526C502.89 246.956 503.135 246.711 503.135 246.348V240.862C503.135 240.498 502.89 240.253 502.526 240.253H500.7C500.336 240.253 500.091 240.498 500.091 240.862Z" fill="#D9D9D9" stroke="#2B2B31" stroke-width="0.699692" stroke-linecap="round" stroke-linejoin="round"/>
<path d="M504.968 240.862V246.348C504.968 246.711 505.212 246.956 505.576 246.956H507.402C507.766 246.956 508.011 246.711 508.011 246.348V240.862C508.011 240.498 507.766 240.253 507.402 240.253H505.576C505.212 240.253 504.968 240.498 504.968 240.862Z" fill="#D9D9D9" stroke="#2B2B31" stroke-width="0.699692" stroke-linecap="round" stroke-linejoin="round"/>
<path d="M509.844 240.862V246.348C509.844 246.711 510.089 246.956 510.453 246.956H512.279C512.587 246.956 512.888 246.711 512.888 246.348V240.862C512.888 240.498 512.58 240.253 512.279 240.253H510.453C510.089 240.253 509.844 240.498 509.844 240.862Z" fill="#D9D9D9" stroke="#2B2B31" stroke-width="0.699692" stroke-linecap="round" stroke-linejoin="round"/>
<path d="M514.721 240.862V246.348C514.721 246.711 515.029 246.956 515.33 246.956H517.156C517.464 246.956 517.765 246.711 517.765 246.348V240.862C517.765 240.498 517.457 240.253 517.156 240.253H515.33C515.022 240.253 514.721 240.498 514.721 240.862Z" stroke="#2B2B31" stroke-width="0.699692" stroke-linecap="round" stroke-linejoin="round"/>
<path d="M516.247 244.864C516.079 244.864 515.932 244.815 515.806 244.717C515.68 244.619 515.589 244.479 515.526 244.291C515.463 244.102 515.428 243.878 515.428 243.612C515.428 243.346 515.463 243.122 515.526 242.933C515.589 242.744 515.68 242.604 515.806 242.499C515.932 242.394 516.072 242.352 516.24 242.352C516.408 242.352 516.554 242.401 516.68 242.499C516.806 242.597 516.897 242.744 516.96 242.933C517.023 243.122 517.058 243.346 517.058 243.612C517.058 243.878 517.023 244.102 516.96 244.291C516.897 244.479 516.806 244.619 516.68 244.717C516.554 244.815 516.415 244.864 516.24 244.864H516.247ZM516.247 244.549C516.352 244.549 516.436 244.514 516.512 244.437C516.589 244.36 516.638 244.256 516.673 244.116C516.708 243.976 516.729 243.808 516.729 243.605C516.729 243.402 516.708 243.234 516.673 243.094C516.638 242.954 516.582 242.849 516.512 242.772C516.443 242.695 516.352 242.66 516.247 242.66C516.093 242.66 515.974 242.744 515.89 242.905C515.806 243.066 515.764 243.304 515.764 243.598C515.764 243.794 515.785 243.969 515.82 244.109C515.855 244.249 515.911 244.353 515.981 244.43C516.051 244.507 516.142 244.542 516.24 244.542L516.247 244.549Z" fill="#2B2B31"/>
<path d="M511.37 244.864C511.202 244.864 511.055 244.815 510.929 244.717C510.803 244.619 510.712 244.479 510.649 244.291C510.586 244.102 510.551 243.878 510.551 243.612C510.551 243.346 510.586 243.122 510.649 242.933C510.712 242.744 510.803 242.604 510.929 242.499C511.055 242.394 511.195 242.352 511.363 242.352C511.531 242.352 511.678 242.401 511.803 242.499C511.929 242.597 512.02 242.744 512.083 242.933C512.146 243.122 512.181 243.346 512.181 243.612C512.181 243.878 512.146 244.102 512.083 244.291C512.02 244.479 511.929 244.619 511.803 244.717C511.678 244.815 511.538 244.864 511.363 244.864H511.37ZM511.37 244.549C511.475 244.549 511.559 244.514 511.636 244.437C511.713 244.36 511.762 244.256 511.796 244.116C511.831 243.976 511.852 243.808 511.852 243.605C511.852 243.402 511.831 243.234 511.796 243.094C511.762 242.954 511.706 242.849 511.636 242.772C511.566 242.695 511.475 242.66 511.37 242.66C511.216 242.66 511.097 242.744 511.013 242.905C510.929 243.066 510.887 243.304 510.887 243.598C510.887 243.794 510.908 243.969 510.943 244.109C510.978 244.249 511.034 244.353 511.104 244.43C511.174 244.507 511.265 244.542 511.363 244.542L511.37 244.549Z" fill="#2B2B31"/>
<path d="M506.493 244.864C506.325 244.864 506.178 244.815 506.052 244.717C505.926 244.619 505.835 244.479 505.772 244.291C505.709 244.102 505.674 243.878 505.674 243.612C505.674 243.346 505.709 243.122 505.772 242.933C505.835 242.744 505.926 242.604 506.052 242.499C506.178 242.394 506.318 242.352 506.486 242.352C506.654 242.352 506.801 242.401 506.927 242.499C507.053 242.597 507.144 242.744 507.207 242.933C507.27 243.122 507.305 243.346 507.305 243.612C507.305 243.878 507.27 244.102 507.207 244.291C507.144 244.479 507.053 244.619 506.927 244.717C506.801 244.815 506.661 244.864 506.486 244.864H506.493ZM506.493 244.549C506.598 244.549 506.682 244.514 506.759 244.437C506.836 244.36 506.885 244.256 506.92 244.116C506.955 243.976 506.976 243.808 506.976 243.605C506.976 243.402 506.955 243.234 506.92 243.094C506.885 242.954 506.829 242.849 506.759 242.772C506.689 242.695 506.598 242.66 506.493 242.66C506.339 242.66 506.22 242.744 506.136 242.905C506.052 243.066 506.01 243.304 506.01 243.598C506.01 243.794 506.031 243.969 506.066 244.109C506.101 244.249 506.157 244.353 506.227 244.43C506.297 244.507 506.388 244.542 506.486 244.542L506.493 244.549Z" fill="#2B2B31"/>
<path d="M501.616 244.864C501.448 244.864 501.301 244.815 501.175 244.717C501.049 244.619 500.958 244.479 500.895 244.291C500.832 244.102 500.797 243.878 500.797 243.612C500.797 243.346 500.832 243.122 500.895 242.933C500.958 242.744 501.049 242.604 501.175 242.499C501.301 242.394 501.441 242.352 501.609 242.352C501.777 242.352 501.924 242.401 502.05 242.499C502.176 242.597 502.267 242.744 502.33 242.933C502.393 243.122 502.428 243.346 502.428 243.612C502.428 243.878 502.393 244.102 502.33 244.291C502.267 244.479 502.176 244.619 502.05 244.717C501.924 244.815 501.784 244.864 501.609 244.864H501.616ZM501.616 244.549C501.721 244.549 501.805 244.514 501.882 244.437C501.959 244.36 502.008 244.256 502.043 244.116C502.078 243.976 502.099 243.808 502.099 243.605C502.099 243.402 502.078 243.234 502.043 243.094C502.008 242.954 501.952 242.849 501.882 242.772C501.812 242.695 501.721 242.66 501.616 242.66C501.462 242.66 501.343 242.744 501.259 242.905C501.175 243.066 501.133 243.304 501.133 243.598C501.133 243.794 501.154 243.969 501.189 244.109C501.224 244.249 501.28 244.353 501.35 244.43C501.42 244.507 501.511 244.542 501.609 244.542L501.616 244.549Z" fill="#2B2B31"/>
<path d="M496.732 244.864C496.564 244.864 496.417 244.815 496.291 244.717C496.165 244.619 496.075 244.479 496.012 244.291C495.949 244.102 495.914 243.878 495.914 243.612C495.914 243.346 495.949 243.122 496.012 242.933C496.075 242.744 496.165 242.604 496.291 242.499C496.417 242.394 496.557 242.352 496.725 242.352C496.893 242.352 497.04 242.401 497.166 242.499C497.292 242.597 497.383 242.744 497.446 242.933C497.509 243.122 497.544 243.346 497.544 243.612C497.544 243.878 497.509 244.102 497.446 244.291C497.383 244.479 497.292 244.619 497.166 244.717C497.04 244.815 496.9 244.864 496.725 244.864H496.732ZM496.732 244.549C496.837 244.549 496.921 244.514 496.998 244.437C497.075 244.36 497.124 244.256 497.159 244.116C497.194 243.976 497.215 243.808 497.215 243.605C497.215 243.402 497.194 243.234 497.159 243.094C497.124 242.954 497.068 242.849 496.998 242.772C496.928 242.695 496.837 242.66 496.732 242.66C496.578 242.66 496.459 242.744 496.375 242.905C496.291 243.066 496.249 243.304 496.249 243.598C496.249 243.794 496.27 243.969 496.305 244.109C496.34 244.249 496.396 244.353 496.466 244.43C496.536 244.507 496.627 244.542 496.725 244.542L496.732 244.549Z" fill="#2B2B31"/>
<path d="M491.855 244.864C491.687 244.864 491.54 244.815 491.414 244.717C491.289 244.619 491.198 244.479 491.135 244.291C491.072 244.102 491.037 243.878 491.037 243.612C491.037 243.346 491.072 243.122 491.135 242.933C491.198 242.744 491.289 242.604 491.414 242.499C491.54 242.394 491.68 242.352 491.848 242.352C492.016 242.352 492.163 242.401 492.289 242.499C492.415 242.597 492.506 242.744 492.569 242.933C492.632 243.122 492.667 243.346 492.667 243.612C492.667 243.878 492.632 244.102 492.569 244.291C492.506 244.479 492.415 244.619 492.289 244.717C492.163 244.815 492.023 244.864 491.848 244.864H491.855ZM491.855 244.549C491.96 244.549 492.044 244.514 492.121 244.437C492.198 244.36 492.247 244.256 492.282 244.116C492.317 243.976 492.338 243.808 492.338 243.605C492.338 243.402 492.317 243.234 492.282 243.094C492.247 242.954 492.191 242.849 492.121 242.772C492.051 242.695 491.96 242.66 491.855 242.66C491.701 242.66 491.582 242.744 491.498 242.905C491.414 243.066 491.373 243.304 491.373 243.598C491.373 243.794 491.393 243.969 491.428 244.109C491.463 244.249 491.519 244.353 491.589 244.43C491.659 244.507 491.75 244.542 491.848 244.542L491.855 244.549Z" fill="#2B2B31"/>
<path d="M598.936 85.7542V112.902" stroke="#2B2B31" stroke-width="2.09908" stroke-linecap="round" stroke-linejoin="round"/>
<path d="M592.149 91.4916H605.793" stroke="#2B2B31" stroke-width="2.09908" stroke-linecap="round" stroke-linejoin="round"/>
<path d="M592.149 97.8589H605.793" stroke="#2B2B31" stroke-width="2.09908" stroke-linecap="round" stroke-linejoin="round"/>
<path d="M592.149 104.226H605.793" stroke="#2B2B31" stroke-width="2.09908" stroke-linecap="round" stroke-linejoin="round"/>
<path d="M547.999 85.7542V112.902" stroke="#2B2B31" stroke-width="2.09908" stroke-linecap="round" stroke-linejoin="round"/>
<path d="M541.212 91.4916H554.786" stroke="#2B2B31" stroke-width="2.09908" stroke-linecap="round" stroke-linejoin="round"/>
<path d="M541.212 97.859H554.786" stroke="#2B2B31" stroke-width="2.09908" stroke-linecap="round" stroke-linejoin="round"/>
<path d="M541.212 104.226H554.786" stroke="#2B2B31" stroke-width="2.09908" stroke-linecap="round" stroke-linejoin="round"/>
<path d="M534.984 113.462H611.95" stroke="#2B2B31" stroke-width="2.09908" stroke-linecap="round" stroke-linejoin="round"/>
<path d="M580.254 386.412H566.68C566.96 295.403 567.24 204.471 567.52 113.462H579.555C579.835 204.471 580.045 295.473 580.254 386.412Z" fill="white" stroke="#2B2B31" stroke-width="2.09908" stroke-linecap="round" stroke-linejoin="round"/>
<path d="M468.549 69.6894C480.574 69.6894 490.323 59.9407 490.323 47.915C490.323 35.8894 480.574 26.1406 468.549 26.1406C456.523 26.1406 446.774 35.8894 446.774 47.915C446.774 59.9407 456.523 69.6894 468.549 69.6894Z" fill="#FF2842"/>
<path d="M467.639 0.769775V18.514" stroke="#FF2842" stroke-width="1.53932" stroke-linecap="round" stroke-linejoin="round"/>
<path d="M443.122 22.8871L449.433 29.1984" stroke="#FF2842" stroke-width="1.53932" stroke-linecap="round" stroke-linejoin="round"/>
<path d="M487.286 29.1984L493.598 22.8871" stroke="#FF2842" stroke-width="1.53932" stroke-linecap="round" stroke-linejoin="round"/>
<path d="M487.286 66.5338L493.598 72.845" stroke="#FF2842" stroke-width="1.53932" stroke-linecap="round" stroke-linejoin="round"/>
<path d="M443.122 72.845L449.433 66.5338" stroke="#FF2842" stroke-width="1.53932" stroke-linecap="round" stroke-linejoin="round"/>
<path d="M467.639 73.7477V91.4919" stroke="#FF2842" stroke-width="1.53932" stroke-linecap="round" stroke-linejoin="round"/>
<path d="M495.55 47.943H513.294" stroke="#FF2842" stroke-width="1.53932" stroke-linecap="round" stroke-linejoin="round"/>
<path d="M423.754 47.943H441.499" stroke="#FF2842" stroke-width="1.53932" stroke-linecap="round" stroke-linejoin="round"/>
</g>
<defs>
<clipPath id="clip0_914_3641">
<rect width="613" height="387.461" fill="white"/>
</clipPath>
</defs>
</svg>
