<svg width="86" height="85" viewBox="0 0 86 85" fill="none" xmlns="http://www.w3.org/2000/svg">
<path d="M17.6743 80C16.9113 80 16.1478 79.7883 15.4636 79.3644C14.0728 78.5028 13.3218 76.9572 13.5036 75.331L14.9008 62.8319C13.3815 60.9551 12.0547 58.9265 10.9534 56.7954C10.6748 56.2564 10.886 55.5935 11.4249 55.315C11.9637 55.0364 12.6268 55.2477 12.9053 55.7866C14.0054 57.9152 15.3458 59.9354 16.8889 61.7908C17.0799 62.0206 17.1693 62.3183 17.136 62.6154L15.6873 75.5751C15.5994 76.3616 15.9483 77.0798 16.6208 77.4965C17.2936 77.9134 18.0924 77.9061 18.7579 77.4771L28.4212 71.2398C28.7278 71.0419 29.1125 71.0092 29.4479 71.1523C33.4448 72.8567 37.6915 73.7497 42.0701 73.8067C50.6982 73.9179 58.987 70.5977 65.4093 64.462C71.8333 58.3245 75.5203 50.1971 75.791 41.5772C76.0799 32.3857 72.6978 23.7175 66.2674 17.1693C63.1484 13.993 59.4965 11.5109 55.4129 9.79204C51.1815 8.0109 46.6859 7.1396 42.0499 7.20024C33.2762 7.31743 24.995 10.9266 18.7317 17.3629C12.4694 23.7982 9.08436 32.1754 9.20023 40.951C9.2474 44.4733 9.84272 47.9393 10.9699 51.2525C11.1653 51.8269 10.858 52.4511 10.2836 52.6465C9.70941 52.8421 9.08509 52.5347 8.88967 51.9602C7.68804 48.4281 7.05331 44.7339 7.00307 40.9803C6.94067 36.2515 7.83013 31.6234 9.64716 27.2243C11.3977 22.9858 13.9243 19.1524 17.157 15.8305C20.3899 12.5082 24.153 9.87846 28.3414 8.01456C32.6897 6.07947 37.292 5.06637 42.0206 5.00323C46.9618 4.93775 51.7532 5.86765 56.2652 7.76685C60.6185 9.59926 64.5112 12.2447 67.835 15.6297C71.1572 19.0128 73.7298 22.9502 75.4815 27.3327C77.2995 31.8812 78.1425 36.697 77.987 41.6462C77.6981 50.8456 73.7702 59.5126 66.9271 66.0508C60.1969 72.4808 51.5314 76.0062 42.485 76.0066C42.3367 76.0066 42.1903 76.0057 42.0419 76.0038C37.5721 75.9458 33.2307 75.07 29.1276 73.3993L19.9491 79.3235C19.25 79.7743 18.4624 80 17.6743 80Z" fill="white"/>
<path d="M42.5022 51.6926C39.9182 51.6926 37.8161 49.5898 37.8161 47.0051V45.4831C37.8161 41.4768 40.3403 37.8928 44.0976 36.5648C46.1291 35.8463 47.4381 33.8359 47.2806 31.6759C47.1079 29.3153 45.1965 27.4183 42.8346 27.2636C40.3326 27.0981 38.1016 28.9016 37.7572 31.3699C37.7261 31.5902 37.7106 31.8167 37.7106 32.0443C37.7106 34.6282 35.6084 36.7305 33.0245 36.7305C30.4397 36.7305 28.3369 34.6282 28.3369 32.0443C28.3369 31.3872 28.3828 30.7245 28.4734 30.0747C29.4933 22.7694 36.0724 17.4271 43.4472 17.9107C45.8427 18.0679 48.1758 18.8453 50.1944 20.159C50.703 20.4899 50.847 21.1705 50.5159 21.6791C50.1849 22.1877 49.504 22.3315 48.9958 22.0006C47.2922 20.8918 45.3238 20.2359 43.3033 20.1033C37.0683 19.6942 31.5111 24.2074 30.6496 30.3783C30.573 30.9278 30.5342 31.4884 30.5342 32.0443C30.5342 33.4166 31.6513 34.5332 33.0245 34.5332C34.3969 34.5332 35.5133 33.4166 35.5133 32.0443C35.5133 31.7147 35.5362 31.3851 35.5811 31.0651C36.0837 27.463 39.3321 24.8299 42.979 25.071C46.4281 25.297 49.2199 28.0678 49.472 31.516C49.7012 34.6607 47.7924 37.5887 44.83 38.6364C41.9489 39.6548 40.0134 42.4062 40.0134 45.4831V47.0051C40.0134 48.3782 41.1299 49.4953 42.5022 49.4953C43.8754 49.4953 44.9925 48.3782 44.9925 47.0051V45.4831C44.9925 44.5136 45.5934 43.6485 46.4875 43.3303C51.5614 41.537 54.8298 36.5305 54.438 31.1544C54.2846 29.0485 53.5649 27.013 52.3568 25.2676C52.0116 24.7686 52.1361 24.0842 52.6348 23.739C53.1336 23.3936 53.818 23.5181 54.1636 24.017C55.5949 26.0847 56.4475 28.4976 56.6294 30.9948C57.093 37.3555 53.2246 43.2796 47.2219 45.4012C47.217 45.4029 47.1898 45.431 47.1898 45.4831V47.0051C47.1898 49.5898 45.087 51.6926 42.5022 51.6926Z" fill="white"/>
<path d="M42.5029 62.3685C39.9187 62.3685 37.8162 60.2662 37.8162 57.6818V57.6521C37.8162 55.0678 39.9187 52.9654 42.5029 52.9654C45.0872 52.9654 47.1896 55.0679 47.1896 57.6521V57.6818C47.1897 60.2662 45.0872 62.3685 42.5029 62.3685ZM42.5029 55.1627C41.1303 55.1627 40.0135 56.2795 40.0135 57.6521V57.6818C40.0135 59.0544 41.1303 60.1712 42.5029 60.1712C43.8756 60.1712 44.9923 59.0544 44.9923 57.6818V57.6521C44.9924 56.2795 43.8756 55.1627 42.5029 55.1627Z" fill="white"/>
</svg>
