<svg xmlns="http://www.w3.org/2000/svg" width="" height="" viewBox="0 0 18 20" fill="none">
<path d="M9 2C10.7902 2 12.5071 2.71116 13.773 3.97703C15.0388 5.2429 15.75 6.95979 15.75 8.75C15.75 11.0555 14.493 12.9425 13.1685 14.2963C12.5066 14.9652 11.7846 15.5717 11.0115 16.1083L10.692 16.3258L10.542 16.4255L10.2592 16.6055L10.0073 16.7593L9.69525 16.9408C9.48338 17.0613 9.24379 17.1248 9 17.1248C8.75621 17.1248 8.51662 17.0613 8.30475 16.9408L7.99275 16.7593L7.60275 16.5192L7.45875 16.4255L7.15125 16.2208C6.31723 15.6562 5.5403 15.0117 4.8315 14.2963C3.507 12.9418 2.25 11.0555 2.25 8.75C2.25 6.95979 2.96116 5.2429 4.22703 3.97703C5.4929 2.71116 7.20979 2 9 2ZM9 6.5C8.70453 6.5 8.41194 6.5582 8.13896 6.67127C7.86598 6.78434 7.61794 6.95008 7.40901 7.15901C7.20008 7.36794 7.03434 7.61598 6.92127 7.88896C6.8082 8.16194 6.75 8.45453 6.75 8.75C6.75 9.04547 6.8082 9.33806 6.92127 9.61104C7.03434 9.88402 7.20008 10.1321 7.40901 10.341C7.61794 10.5499 7.86598 10.7157 8.13896 10.8287C8.41194 10.9418 8.70453 11 9 11C9.59674 11 10.169 10.7629 10.591 10.341C11.0129 9.91903 11.25 9.34674 11.25 8.75C11.25 8.15326 11.0129 7.58097 10.591 7.15901C10.169 6.73705 9.59674 6.5 9 6.5Z" fill=""/>
</svg>