<svg xmlns="http://www.w3.org/2000/svg" width="17" height="16" viewBox="0 0 17 16" fill="none">
<path d="M12.0204 3.19333C11.4973 2.58637 11.209 1.80689 11.2092 1H8.84439V10.6444C8.82615 11.1664 8.60934 11.6607 8.23962 12.0234C7.86989 12.3861 7.37611 12.5888 6.86224 12.5889C5.77551 12.5889 4.87245 11.6867 4.87245 10.5667C4.87245 9.22889 6.14286 8.22556 7.45153 8.63778V6.18C4.81122 5.82222 2.5 7.90667 2.5 10.5667C2.5 13.1567 4.61225 15 6.85459 15C9.25765 15 11.2092 13.0167 11.2092 10.5667V5.67444C12.1681 6.37433 13.3194 6.74984 14.5 6.74778V4.34444C14.5 4.34444 13.0612 4.41444 12.0204 3.19333Z" fill=""/>
</svg>