<svg width="32" height="32" viewBox="0 0 32 32" fill="none" xmlns="http://www.w3.org/2000/svg">
<g clip-path="url(#clip0_1191_2724)">
<g filter="url(#filter0_d_1191_2724)">
<path d="M15.0034 5.1211L6.31957 14.8904C5.93741 15.3203 6.24261 16 6.81784 16H11.3333C11.7015 16 11.9999 16.2985 11.9999 16.6667V22.6667C11.9999 23.403 12.5969 24 13.3333 24H18.6666C19.403 24 19.9999 23.403 19.9999 22.6667V16.6667C19.9999 16.2985 20.2984 16 20.6666 16H25.1821C25.7573 16 26.0625 15.3203 25.6803 14.8904L16.9965 5.1211C16.4661 4.52441 15.5338 4.52441 15.0034 5.1211Z" fill="white"/>
<path d="M13.3333 26.6667C12.5969 26.6667 12 27.2636 12 28C12 28.7364 12.5969 29.3333 13.3333 29.3333H18.6667C19.403 29.3333 20 28.7364 20 28C20 27.2636 19.403 26.6667 18.6667 26.6667H13.3333Z" fill="white"/>
</g>
</g>
<defs>
<filter id="filter0_d_1191_2724" x="4.14987" y="3.67358" width="23.7002" height="28.6597" filterUnits="userSpaceOnUse" color-interpolation-filters="sRGB">
<feFlood flood-opacity="0" result="BackgroundImageFix"/>
<feColorMatrix in="SourceAlpha" type="matrix" values="0 0 0 0 0 0 0 0 0 0 0 0 0 0 0 0 0 0 127 0" result="hardAlpha"/>
<feOffset dy="1"/>
<feGaussianBlur stdDeviation="1"/>
<feComposite in2="hardAlpha" operator="out"/>
<feColorMatrix type="matrix" values="0 0 0 0 0.0627451 0 0 0 0 0.0941176 0 0 0 0 0.156863 0 0 0 0.04 0"/>
<feBlend mode="normal" in2="BackgroundImageFix" result="effect1_dropShadow_1191_2724"/>
<feBlend mode="normal" in="SourceGraphic" in2="effect1_dropShadow_1191_2724" result="shape"/>
</filter>
<clipPath id="clip0_1191_2724">
<rect width="32" height="32" fill="white"/>
</clipPath>
</defs>
</svg>
