<svg width="66" height="65" viewBox="0 0 66 65" fill="none" xmlns="http://www.w3.org/2000/svg">
<g clip-path="url(#clip0_349_2921)">
<path d="M27.5261 14.7096H17.894C17.0188 14.7096 16.3071 15.4212 16.3071 16.2965V32.0302C16.3071 32.905 17.0188 33.6172 17.894 33.6172H27.5261C28.4014 33.6172 29.113 32.905 29.113 32.0302V16.2965C29.113 15.4212 28.4014 14.7096 27.5261 14.7096ZM21.7577 31.7129H18.2114V27.819H21.7577V31.7129ZM21.7577 25.9147H18.2114V22.4116H21.7577V25.9147ZM21.7577 20.5073H18.2114V16.6139H21.7577V20.5073ZM27.2087 31.7129H23.662V27.819H27.2087V31.7129ZM27.2087 25.9147H23.662V22.4116H27.2087V25.9147ZM27.2087 20.5073H23.662V16.6139H27.2087V20.5073Z" fill="#323539"/>
<path d="M40.2964 52.7231C39.7702 52.7231 39.3442 53.1496 39.3442 53.6753V55.9614C39.3442 56.4871 39.7702 56.9136 40.2964 56.9136C40.8225 56.9136 41.2485 56.4871 41.2485 55.9614V53.6753C41.2485 53.1496 40.8225 52.7231 40.2964 52.7231Z" fill="#323539"/>
<path d="M65.4909 43.1074C65.4468 42.7731 65.2757 42.4751 65.0094 42.2688L44.8373 26.661C44.3899 26.3154 43.8554 26.1324 43.291 26.1324C42.7262 26.1324 42.1916 26.3154 41.7438 26.6615L38.6929 29.022V26.2876C38.6929 25.7614 38.2669 25.3354 37.7408 25.3354C37.2146 25.3354 36.7886 25.7614 36.7886 26.2876V30.4954L21.5731 42.2683C21.3083 42.4726 21.1323 42.7806 21.0906 43.1113C21.0475 43.4461 21.1372 43.7783 21.343 44.0466L22.8868 46.0546C23.1293 46.3685 23.4953 46.5485 23.8915 46.5485C24.1702 46.5485 24.4454 46.4548 24.6666 46.2837L43.291 31.8735L57.3684 42.7657V62.6041H49.6997V60.8188C49.6997 60.2926 49.2737 59.8667 48.7475 59.8667C48.2213 59.8667 47.7954 60.2926 47.7954 60.8188V62.6041H38.7852V48.0174H47.7954V56.3437C47.7954 56.8699 48.2213 57.2959 48.7475 57.2959C49.2737 57.2959 49.6997 56.8699 49.6997 56.3437V47.7C49.6997 46.8252 48.9875 46.1131 48.1127 46.1131H38.4683C37.593 46.1131 36.8809 46.8252 36.8809 47.7V62.6041H29.6455V60.007C29.6455 59.1317 28.9339 58.4201 28.0586 58.4201H27.1472C27.223 58.0412 27.2642 57.6499 27.2642 57.2492C27.2642 53.9539 24.5828 51.273 21.2875 51.273C19.4987 51.273 17.825 52.0938 16.7058 53.4248C16.2823 53.2909 15.832 53.218 15.3648 53.218C15.0216 53.218 14.6844 53.2562 14.3566 53.3325C13.3197 51.5562 11.3846 50.4136 9.29289 50.4136C9.07023 50.4136 8.85004 50.4275 8.63284 50.4528V18.5806L22.7107 7.68748L36.7891 18.5806V21.8437C36.7891 22.3699 37.2151 22.7959 37.7413 22.7959C38.2669 22.7959 38.6934 22.3699 38.6934 21.8437V20.054L41.3356 22.0981C41.5563 22.2692 41.8315 22.363 42.1102 22.363C42.5075 22.363 42.8739 22.1824 43.1155 21.868C43.1189 21.8636 43.1224 21.8586 43.1259 21.8541L44.6047 19.8566L44.6141 19.8447C44.7118 19.7222 44.9712 19.3974 44.9107 18.9218C44.8665 18.5861 44.6949 18.2881 44.4291 18.0832L24.2575 2.47546C23.8102 2.12981 23.2756 1.94682 22.7107 1.94682C22.1459 1.94682 21.6113 2.12981 21.1635 2.47596L15.6252 6.76112V5.56102C16.374 5.43406 16.9463 4.78244 16.9463 3.9984V2.0946C16.9463 1.21932 16.2341 0.50769 15.3594 0.50769H7.6435C6.76871 0.50769 6.05658 1.21932 6.05658 2.0946V3.99791C6.05658 4.78244 6.62886 5.43357 7.37769 5.56102V13.1425L0.994331 18.0818C0.728523 18.2861 0.552475 18.5945 0.510818 18.9243C0.467178 19.2595 0.556442 19.5918 0.762741 19.8606L2.30651 21.8685C2.54851 22.1829 2.9145 22.363 3.31122 22.363C3.58993 22.363 3.86466 22.2692 4.08683 22.0981L6.72854 20.054V51.0127C5.21701 51.7565 4.05311 53.1352 3.62067 54.8168C2.18501 55.3702 1.19865 56.7647 1.19865 58.3477C1.19865 58.5222 1.21104 58.6938 1.23386 58.8624C0.931846 59.1516 0.7434 59.5572 0.7434 60.007V62.922C0.7434 63.7967 1.45503 64.5089 2.33031 64.5089H62.0324C62.5586 64.5089 62.9846 64.0824 62.9846 63.5567C62.9846 63.0306 62.5586 62.6046 62.0324 62.6046H59.2727V44.239L61.9154 46.2837C62.1361 46.4543 62.4113 46.5485 62.69 46.5485C63.0872 46.5485 63.4537 46.368 63.6952 46.0531C63.6987 46.0486 63.7022 46.0442 63.7057 46.0397L65.185 44.0417L65.1949 44.0293C65.2921 43.9073 65.5509 43.5825 65.4909 43.1074ZM21.2875 53.1773C23.533 53.1773 25.3599 55.0043 25.3599 57.2492C25.3599 57.6564 25.2984 58.0491 25.1868 58.4201H19.7556C19.7968 58.1781 19.8196 57.9291 19.8196 57.6752C19.8196 56.3834 19.2666 55.219 18.3864 54.4037C19.1392 53.6395 20.1806 53.1773 21.2875 53.1773ZM7.96088 2.41199H15.042V3.68052H7.96088V2.41199ZM13.7209 5.58482V8.23447L9.28198 11.6691V5.58482H13.7209ZM3.42677 20.2013L2.65861 19.202L22.3284 3.98204C22.441 3.89525 22.5694 3.85112 22.7107 3.85112C22.8521 3.85112 22.9805 3.89525 23.0926 3.98154L42.7356 19.1807L41.9858 20.1938L23.2934 5.73062C22.9503 5.4653 22.4712 5.4653 22.128 5.73062L3.42677 20.2013ZM27.7413 62.6046H2.6477V60.3244H11.4184C11.944 60.3244 12.3705 59.8984 12.3705 59.3722C12.3705 58.8461 11.944 58.4201 11.4184 58.4201H3.10542C3.10443 58.3958 3.10294 58.372 3.10294 58.3477C3.10294 57.4496 3.74118 56.6735 4.62142 56.5029C5.01963 56.4255 5.32511 56.1047 5.38264 55.7035C5.66035 53.7739 7.34149 52.3184 9.29289 52.3184C10.9135 52.3184 12.3953 53.3355 12.98 54.849C13.0752 55.096 13.2686 55.2919 13.5146 55.3906C13.7605 55.4888 14.0358 55.4798 14.2753 55.3668C14.6175 55.2051 14.9845 55.1228 15.3648 55.1228C16.7712 55.1228 17.9153 56.2678 17.9153 57.6757C17.9153 57.9351 17.8746 58.1845 17.8022 58.4201H15.9887C15.4625 58.4201 15.0365 58.8466 15.0365 59.3722C15.0365 59.8984 15.4625 60.3244 15.9887 60.3244H27.7413V62.6046ZM62.566 44.3794L43.8737 29.9167C43.5305 29.6508 43.0515 29.6508 42.7083 29.9167L24.0065 44.3868L23.2384 43.3876L42.9087 28.1681C43.0212 28.0808 43.1497 28.0367 43.291 28.0367C43.4318 28.0367 43.5608 28.0808 43.6729 28.1676L63.3159 43.3662L62.566 44.3794Z" fill="#323539"/>
</g>
<defs>
<clipPath id="clip0_349_2921">
<rect width="65" height="64.9999" fill="white" transform="translate(0.5)"/>
</clipPath>
</defs>
</svg>
