<svg width="66" height="46" viewBox="0 0 66 46" fill="none" xmlns="http://www.w3.org/2000/svg">
<path d="M59.9101 13.2152C56.3055 9.61065 51.5279 7.62549 46.457 7.62549H18.2734V2.56059C18.2734 1.54155 17.6868 0.648307 16.7422 0.229491C15.7963 -0.190087 14.6964 -0.0250494 13.9283 0.648561L1.44942 10.7168C0.840426 11.2087 0.494481 11.9357 0.500067 12.7112C0.505653 13.4851 0.859596 14.2056 1.47163 14.6894L14.0092 24.8051C14.8048 25.4476 15.8749 25.5712 16.8027 25.1277C17.7103 24.6937 18.2739 23.8122 18.2733 22.8277V17.7818H26.0179C26.7189 17.7818 27.2874 17.2134 27.2874 16.5123C27.2874 15.8111 26.7189 15.2428 26.0179 15.2428H17.0039C16.3029 15.2428 15.7344 15.8111 15.7344 16.5123V22.8199C15.7224 22.8305 15.6974 22.8452 15.6673 22.8493C15.6426 22.8526 15.6275 22.8481 15.6044 22.8294L3.0607 12.7089C3.05613 12.7052 3.04915 12.696 3.04445 12.6924L15.5462 2.60579C15.565 2.59055 15.5834 2.57494 15.6014 2.55869C15.6155 2.54561 15.6285 2.53596 15.6624 2.53812C15.6939 2.54015 15.721 2.55285 15.7344 2.56262V8.89514C15.7344 9.5963 16.3029 10.1647 17.0039 10.1647H46.4571C50.8497 10.1647 54.9898 11.8858 58.1148 15.0107C61.2398 18.1359 62.9609 22.2761 62.9609 26.6685C62.9609 31.061 61.2398 35.2012 58.1148 38.3263C54.9897 41.4513 50.8495 43.1724 46.4571 43.1724H25.2561C24.912 43.1724 24.6213 42.8817 24.6213 42.5377V38.7291C24.6213 38.3851 24.912 38.0943 25.2561 38.0943H46.4571C49.4939 38.0943 52.359 36.9018 54.5247 34.7361C56.6903 32.5704 57.8828 29.7054 57.8828 26.6686C57.8828 23.6318 56.6901 20.7667 54.5247 18.601C52.359 16.4355 49.4939 15.2429 46.4571 15.2429H37.4437C36.7427 15.2429 36.1742 15.8113 36.1742 16.5124C36.1742 17.2136 36.7427 17.7819 37.4437 17.7819H46.4571C48.8156 17.7819 51.0432 18.7105 52.7292 20.3964C54.4151 22.0825 55.3438 24.31 55.3438 26.6686C55.3438 29.0273 54.4153 31.2548 52.7292 32.9407C51.0432 34.6266 48.8158 35.5553 46.4571 35.5553H25.2561C23.506 35.5553 22.0822 36.9791 22.0822 38.7291V42.5377C22.0822 44.2877 23.506 45.7115 25.2561 45.7115H46.4571C51.5277 45.7115 56.3055 43.7263 59.9103 40.1218C63.515 36.5171 65.5 31.7394 65.5 26.6686C65.5 21.5978 63.5148 16.8199 59.9101 13.2152Z" fill="white"/>
</svg>
