<svg width="73" height="43" viewBox="0 0 73 43" fill="none" xmlns="http://www.w3.org/2000/svg">
<path fill-rule="evenodd" clip-rule="evenodd" d="M61.4417 29.5756H62.7288V26.5284H61.4417V29.5756ZM61.4417 24.4969C61.5356 24.4969 61.6296 24.4969 61.7236 24.4969C62.537 24.5304 63.3488 24.3977 64.1101 24.1068C64.8715 23.8159 65.5667 23.3728 66.154 22.804C66.7413 22.2352 67.2086 21.5526 67.5278 20.7971C67.847 20.0416 68.0116 19.2288 68.0116 18.4075C68.0116 17.5862 67.847 16.7734 67.5278 16.0179C67.2086 15.2623 66.7413 14.5797 66.154 14.0109C65.5667 13.4422 64.8715 12.999 64.1101 12.7081C63.3488 12.4172 62.537 12.2845 61.7236 12.3181H61.4417V24.4969ZM61.4417 10.295H62.7288V7.24609H61.4417V10.295ZM69.772 19.4351H72.7927V17.4036H69.772V19.4351ZM70.2587 11.2448L68.8373 9.80917L66.7027 11.9524L68.1258 13.388L70.2587 11.2448ZM68.8373 27.0329L70.2604 25.5973L68.1258 23.4354L66.7027 24.871L68.8373 27.0329Z" fill="white"/>
<path d="M5.24551 35.0588V35.4329C5.24551 35.8754 5.33389 36.1874 5.51066 36.3691C5.68742 36.5508 5.99732 36.6406 6.44036 36.6383H7.17707C7.4782 36.6605 7.7798 36.6021 8.05139 36.469C8.14517 36.4045 8.22228 36.3183 8.27629 36.2175C8.3303 36.1168 8.35964 36.0045 8.36185 35.89C8.36312 35.8378 8.38207 35.7876 8.41555 35.7478C8.43491 35.7299 8.4577 35.7161 8.48252 35.7074C8.50733 35.6987 8.53366 35.6951 8.55987 35.697C8.58583 35.6947 8.61197 35.6985 8.63622 35.7081C8.66047 35.7177 8.68217 35.7329 8.6996 35.7525C8.71702 35.772 8.72969 35.7954 8.73661 35.8207C8.74352 35.8461 8.74449 35.8727 8.73944 35.8985C8.73638 36.0629 8.69643 36.2245 8.62261 36.3711C8.54878 36.5177 8.443 36.6455 8.31319 36.7449C8.05811 36.9255 7.6794 37.0158 7.17707 37.0158H6.44036C5.89104 37.0158 5.49108 36.8894 5.24047 36.6366C4.9921 36.381 4.86792 35.9764 4.86792 35.4262V34.4104C4.86792 33.8461 4.9921 33.4381 5.24047 33.1864C5.48884 32.9348 5.8888 32.8101 6.44036 32.8123H7.17707C7.72415 32.8123 8.12188 32.9398 8.37024 33.1949C8.62197 33.4472 8.74783 33.8535 8.74783 34.4104V34.8658C8.75196 34.8924 8.74975 34.9196 8.74137 34.9452C8.733 34.9707 8.7187 34.9939 8.69967 35.0128C8.68063 35.0317 8.65741 35.0457 8.63193 35.0537C8.60645 35.0617 8.57945 35.0634 8.55316 35.0588H5.24551ZM6.44036 33.1966C6.00068 33.1966 5.69078 33.2852 5.51066 33.4624C5.33053 33.6396 5.24215 33.9562 5.24551 34.4121V34.6694H8.37024V34.4053C8.37024 33.9539 8.28074 33.6401 8.10174 33.4641C7.92273 33.288 7.61451 33.1966 7.17707 33.1898L6.44036 33.1966ZM15.447 37.0243C15.4211 37.028 15.3947 37.0256 15.3699 37.0172C15.3451 37.0088 15.3226 36.9946 15.3041 36.9759C15.2857 36.9571 15.2719 36.9343 15.2638 36.9092C15.2557 36.8841 15.2535 36.8574 15.2574 36.8313V33.0053C15.2549 32.9788 15.258 32.952 15.2663 32.9268C15.2747 32.9015 15.2882 32.8783 15.306 32.8586C15.3237 32.8389 15.3454 32.8231 15.3695 32.8124C15.3937 32.8016 15.4198 32.796 15.4462 32.796C15.4726 32.796 15.4987 32.8016 15.5229 32.8124C15.547 32.8231 15.5687 32.8389 15.5865 32.8586C15.6042 32.8783 15.6177 32.9015 15.6261 32.9268C15.6344 32.952 15.6375 32.9788 15.635 33.0053V33.5352C15.9069 33.0544 16.4366 32.814 17.2242 32.814H17.4759C18.0241 32.814 18.4224 32.9415 18.6708 33.1966C18.9225 33.4488 19.0484 33.8551 19.0484 34.4121V36.8313C19.0509 36.8578 19.0478 36.8846 19.0395 36.9098C19.0311 36.9351 19.0176 36.9583 18.9998 36.978C18.9821 36.9977 18.9604 37.0135 18.9363 37.0242C18.9121 37.035 18.886 37.0406 18.8596 37.0406C18.8332 37.0406 18.8071 37.035 18.7829 37.0242C18.7588 37.0135 18.7371 36.9977 18.7193 36.978C18.7016 36.9583 18.6881 36.9351 18.6797 36.9098C18.6713 36.8846 18.6683 36.8578 18.6708 36.8313V34.4104C18.6708 33.959 18.5807 33.6452 18.4006 33.4692C18.2205 33.2931 17.9123 33.2017 17.4759 33.1949H17.2242C16.8259 33.1707 16.429 33.2611 16.0797 33.4556C15.9468 33.5423 15.8368 33.6604 15.7593 33.7996C15.6818 33.9388 15.6391 34.095 15.635 34.2547V36.8296C15.6389 36.8555 15.6367 36.882 15.6287 36.907C15.6207 36.9319 15.607 36.9547 15.5888 36.9734C15.5705 36.9921 15.5482 37.0063 15.5236 37.0148C15.4991 37.0234 15.4728 37.026 15.447 37.0226V37.0243ZM25.8516 35.0605V35.4346C25.8516 35.877 25.94 36.1891 26.1168 36.3708C26.2936 36.5525 26.6035 36.6422 27.0465 36.64H27.7832C28.0843 36.6622 28.3859 36.6038 28.6575 36.4707C28.7513 36.4062 28.8284 36.3199 28.8824 36.2192C28.9364 36.1185 28.9658 36.0062 28.968 35.8917C28.9693 35.8395 28.9882 35.7893 29.0217 35.7495C29.041 35.7316 29.0638 35.7178 29.0886 35.7091C29.1135 35.7004 29.1398 35.6968 29.166 35.6987C29.192 35.6964 29.2181 35.7002 29.2424 35.7098C29.2666 35.7194 29.2883 35.7346 29.3057 35.7542C29.3232 35.7737 29.3358 35.7971 29.3427 35.8224C29.3497 35.8478 29.3506 35.8744 29.3456 35.9002C29.3425 36.0646 29.3026 36.2262 29.2287 36.3728C29.1549 36.5194 29.0491 36.6472 28.9193 36.7466C28.6642 36.9272 28.2855 37.0175 27.7832 37.0175H27.0465C26.4983 37.0175 26.0983 36.8911 25.8466 36.6383C25.5982 36.3827 25.4741 35.9781 25.4741 35.4279V34.4121C25.4741 33.8478 25.5982 33.4398 25.8466 33.1881C26.095 32.9365 26.4949 32.8117 27.0465 32.814H27.7832C28.3303 32.814 28.728 32.9415 28.9764 33.1966C29.2281 33.4488 29.354 33.8551 29.354 34.4121V34.8675C29.3578 34.8935 29.3557 34.92 29.3476 34.9449C29.3396 34.9699 29.3259 34.9926 29.3077 35.0113C29.2895 35.03 29.2672 35.0442 29.2426 35.0527C29.218 35.0613 29.1918 35.0639 29.166 35.0605H25.8516ZM27.0465 33.1983C26.6068 33.1983 26.2969 33.2869 26.1168 33.4641C25.9367 33.6413 25.8483 33.9578 25.8516 34.4138V34.6694H28.9764V34.4053C28.9764 33.9539 28.8869 33.6401 28.7079 33.4641C28.5289 33.288 28.2206 33.1966 27.7832 33.1898L27.0465 33.1983ZM36.0532 37.026C36.0273 37.0297 36.0008 37.0273 35.976 37.0189C35.9512 37.0105 35.9287 36.9963 35.9103 36.9776C35.8919 36.9588 35.878 36.936 35.8699 36.9109C35.8618 36.8858 35.8596 36.8591 35.8635 36.833V33.007C35.8611 32.9805 35.8641 32.9537 35.8725 32.9285C35.8808 32.9032 35.8943 32.88 35.9121 32.8603C35.9299 32.8406 35.9515 32.8248 35.9757 32.8141C35.9998 32.8033 36.0259 32.7977 36.0523 32.7977C36.0787 32.7977 36.1049 32.8033 36.129 32.8141C36.1532 32.8248 36.1748 32.8406 36.1926 32.8603C36.2104 32.88 36.2239 32.9032 36.2322 32.9285C36.2406 32.9537 36.2436 32.9805 36.2411 33.007V33.823C36.3807 33.5077 36.6157 33.2452 36.9124 33.073C37.2464 32.8929 37.6212 32.8037 37.9998 32.814C38.0501 32.814 38.0984 32.8342 38.1339 32.87C38.1695 32.9059 38.1895 32.9546 38.1895 33.0053C38.1895 33.056 38.1695 33.1047 38.1339 33.1406C38.0984 33.1764 38.0501 33.1966 37.9998 33.1966C37.4606 33.1966 37.0416 33.3275 36.7429 33.5894C36.5868 33.7353 36.4617 33.9117 36.3752 34.1078C36.2886 34.3039 36.2425 34.5157 36.2395 34.7304V36.8313C36.2429 36.8568 36.2406 36.8828 36.2326 36.9072C36.2246 36.9317 36.2112 36.9539 36.1934 36.9724C36.1756 36.9908 36.1539 37.0049 36.1299 37.0136C36.1059 37.0223 36.0802 37.0254 36.0549 37.0226L36.0532 37.026ZM44.9239 38.8526C44.6424 38.8734 44.3627 38.7937 44.1335 38.6275C44.0382 38.5384 43.9619 38.4305 43.9093 38.3106C43.8568 38.1906 43.8292 38.0611 43.8281 37.93C43.8248 37.9031 43.8272 37.8758 43.835 37.8498C43.8428 37.8239 43.8559 37.7999 43.8734 37.7793C43.8911 37.762 43.9122 37.7486 43.9353 37.7398C43.9584 37.7311 43.983 37.7272 44.0077 37.7285C44.0598 37.7248 44.1113 37.7411 44.152 37.7742C44.1872 37.8143 44.2064 37.8662 44.2057 37.9198C44.2039 38.0012 44.22 38.0819 44.2528 38.1562C44.2856 38.2306 44.3342 38.2967 44.3953 38.3498C44.5558 38.4418 44.7399 38.483 44.9239 38.4683H46.5937C46.8723 38.4683 47.0636 38.4159 47.1643 38.3092C47.265 38.2025 47.322 38.0112 47.322 37.7285V36.3403C47.1883 36.5681 46.9852 36.7462 46.7431 36.8482C46.4226 36.974 46.0798 37.0316 45.7362 37.0175H45.4005C44.8523 37.0175 44.4524 36.8911 44.2006 36.6383C43.9523 36.3827 43.8281 35.9781 43.8281 35.4279V34.4121C43.8281 33.8478 43.9523 33.4409 44.2006 33.1915C44.449 32.9421 44.849 32.8163 45.4005 32.814H46.1356C46.396 32.8033 46.6559 32.8465 46.8991 32.941C47.0829 33.0212 47.2348 33.1613 47.3304 33.3388V33.0002C47.3279 32.9737 47.331 32.947 47.3393 32.9217C47.3477 32.8964 47.3612 32.8732 47.379 32.8535C47.3967 32.8338 47.4184 32.8181 47.4425 32.8073C47.4667 32.7965 47.4928 32.7909 47.5192 32.7909C47.5456 32.7909 47.5717 32.7965 47.5959 32.8073C47.62 32.8181 47.6417 32.8338 47.6595 32.8535C47.6772 32.8732 47.6907 32.8964 47.6991 32.9217C47.7074 32.947 47.7105 32.9737 47.708 33.0002V37.7218C47.708 38.1077 47.6191 38.3989 47.4429 38.5682C47.2666 38.7375 46.9864 38.8425 46.6038 38.8425L44.9239 38.8526ZM45.3921 36.6417H45.7278C46.13 36.6612 46.5305 36.5761 46.8907 36.3945C47.0242 36.3226 47.1348 36.2143 47.2102 36.082C47.2856 35.9497 47.3226 35.7987 47.317 35.6462V34.2208C47.317 33.8472 47.2197 33.5843 47.025 33.4319C46.8303 33.2796 46.5294 33.2017 46.1221 33.1983H45.3871C44.9458 33.1983 44.637 33.288 44.4557 33.4675C44.2745 33.6469 44.1923 33.9601 44.1923 34.4138V35.4296C44.1923 35.872 44.2801 36.184 44.4557 36.3657C44.6437 36.5486 44.9525 36.6383 45.3938 36.6383L45.3921 36.6417ZM55.2413 38.8526C54.862 38.8526 54.5823 38.7612 54.4022 38.5784C54.2243 38.3989 54.137 38.1128 54.137 37.7201C54.1346 37.6935 54.1376 37.6668 54.146 37.6415C54.1543 37.6163 54.1678 37.593 54.1856 37.5733C54.2034 37.5536 54.225 37.5379 54.2492 37.5271C54.2733 37.5164 54.2994 37.5108 54.3258 37.5108C54.3522 37.5108 54.3783 37.5164 54.4025 37.5271C54.4267 37.5379 54.4483 37.5536 54.4661 37.5733C54.4838 37.593 54.4973 37.6163 54.5057 37.6415C54.5141 37.6668 54.5171 37.6935 54.5146 37.7201C54.5146 38.0056 54.5667 38.202 54.6707 38.3092C54.8342 38.4329 55.038 38.4898 55.2413 38.4683H56.7332C56.936 38.4912 57.1398 38.4342 57.302 38.3092C57.4078 38.2025 57.4598 38.0062 57.4598 37.7201V36.4318C57.2943 36.6463 57.0695 36.8066 56.8137 36.8922C56.512 36.9943 56.1954 37.0441 55.8773 37.0395H55.6877C55.149 37.0395 54.758 36.9142 54.5129 36.6654C54.2679 36.4165 54.1454 36.0204 54.1454 35.4803V32.9935C54.1429 32.9669 54.146 32.9402 54.1543 32.9149C54.1627 32.8896 54.1762 32.8664 54.194 32.8467C54.2117 32.827 54.2334 32.8113 54.2575 32.8005C54.2817 32.7897 54.3078 32.7842 54.3342 32.7842C54.3606 32.7842 54.3867 32.7897 54.4109 32.8005C54.435 32.8113 54.4567 32.827 54.4745 32.8467C54.4922 32.8664 54.5057 32.8896 54.5141 32.9149C54.5225 32.9402 54.5255 32.9669 54.523 32.9935V35.4685C54.523 35.9064 54.608 36.2128 54.7781 36.3877C54.9482 36.5627 55.2519 36.649 55.6893 36.6468H55.8773C56.4121 36.6468 56.8098 36.5497 57.0705 36.3556C57.2033 36.2516 57.3089 36.1164 57.3779 35.9618C57.447 35.8071 57.4774 35.6377 57.4665 35.4685V32.9935C57.464 32.9669 57.4671 32.9402 57.4754 32.9149C57.4838 32.8896 57.4973 32.8664 57.5151 32.8467C57.5328 32.827 57.5545 32.8113 57.5786 32.8005C57.6028 32.7897 57.6289 32.7842 57.6553 32.7842C57.6817 32.7842 57.7078 32.7897 57.732 32.8005C57.7561 32.8113 57.7778 32.827 57.7956 32.8467C57.8133 32.8664 57.8268 32.8896 57.8352 32.9149C57.8435 32.9402 57.8466 32.9669 57.8441 32.9935V37.7167C57.8441 38.1094 57.7557 38.3955 57.5789 38.575C57.4022 38.7544 57.1225 38.8459 56.7399 38.8492L55.2413 38.8526Z" fill="white"/>
<path d="M15.1986 20.3353L12.98 12.1298L10.7632 20.3353H6.9806L3 6.22998H6.89501L9.1706 15.2938L11.1038 6.22998H14.8579L17.0395 15.2938L19.1791 6.22998H22.9852L18.9761 20.3438L15.1986 20.3353Z" fill="white"/>
<path d="M23.4404 17.9337C23.0201 17.306 22.6885 16.6222 22.4553 15.9022C22.1919 15.0684 22.0566 14.1989 22.0542 13.3239C22.0295 12.5796 22.0937 11.8349 22.2456 11.1061C22.3236 10.7482 22.4251 10.3959 22.5493 10.0515C22.8574 9.17323 23.347 8.37112 23.9858 7.69831C24.6245 7.04001 25.3952 6.52689 26.2463 6.19331C27.2038 5.8252 28.2222 5.64478 29.2468 5.66174C30.2572 5.64577 31.2611 5.82624 32.2038 6.19331C33.0436 6.52623 33.8042 7.03449 34.4357 7.68477C35.0682 8.35377 35.5527 9.15065 35.8571 10.0227C36.2126 11.0053 36.3834 12.0462 36.3606 13.0919C36.3422 13.8047 36.2431 14.513 36.0652 15.203C35.9079 15.8181 35.6915 16.4163 35.4191 16.989C35.1695 17.5146 34.8747 18.017 34.5381 18.4906L23.4404 17.9337ZM29.2468 17.3953C31.5023 17.3953 32.63 15.9609 32.63 13.0919C32.63 10.2422 31.5023 8.81733 29.2468 8.81733C26.9914 8.81733 25.8631 10.2422 25.862 13.0919C25.862 15.9597 26.9903 17.397 29.2468 17.4038V17.3953Z" fill="white"/>
<path d="M37.541 18.0144V6.04041H41.0098V7.73333C41.265 7.31092 41.5869 6.93349 41.963 6.616C42.2725 6.36074 42.6174 6.15257 42.9866 5.99809C43.3276 5.85774 43.6862 5.76601 44.0523 5.72553C44.4208 5.68726 44.7911 5.66805 45.1615 5.66797H45.6398V9.4838C45.3015 9.42654 44.9591 9.39766 44.6161 9.39746C42.3585 9.39746 41.2302 10.5357 41.2313 12.8121V17.1882L37.541 18.0144Z" fill="white"/>
<path d="M53.6166 17.8135L52.2019 15.049L50.4096 16.9298L50.3022 18.3705L46.6841 18.9613V2H50.4096V12.6146L55.0161 7.19725H59.5371L54.8383 12.4334C55.6539 14.0338 56.4683 15.6342 57.2817 17.2345L53.6166 17.8135Z" fill="white"/>
<path d="M39.1346 23.7875C39.1905 24.8439 39.4959 25.683 40.0509 26.3049C40.3249 26.612 40.6621 26.8551 41.0389 27.0171C41.4157 27.1791 41.8231 27.2561 42.2325 27.2427C42.7898 27.2543 43.3397 27.1127 43.8234 26.8331C44.04 26.7113 44.2306 26.5473 44.3839 26.3506C44.5389 26.1544 44.6531 25.9287 44.7195 25.687H48.4937C48.063 27.1203 47.3128 28.2229 46.2433 28.9949C45.1737 29.7669 43.8955 30.1523 42.4087 30.1512C37.7893 30.1512 35.479 27.6248 35.4779 22.572C35.4644 21.5821 35.617 20.597 35.9293 19.6585C36.207 18.8296 36.6534 18.0684 37.2399 17.4238C37.824 16.7941 38.5417 16.3056 39.3393 15.995C40.2482 15.6513 41.2133 15.4836 42.1838 15.5007C44.3251 15.5007 45.9474 16.1886 47.0505 17.5644C48.1536 18.9401 48.7029 21.0145 48.6984 23.7875H39.1346ZM44.9091 21.4682C44.9006 21.0077 44.8102 20.5524 44.6423 20.124C44.4988 19.7629 44.2828 19.4355 44.008 19.1625C43.751 18.9097 43.4439 18.7146 43.1068 18.5903C42.7726 18.4688 42.4199 18.4069 42.0647 18.4074C41.71 18.4039 41.3584 18.4736 41.0314 18.6121C40.7045 18.7507 40.409 18.9553 40.1633 19.2133C39.6285 19.7493 39.3214 20.4987 39.242 21.4614L44.9091 21.4682Z" fill="white"/>
<path d="M47.7458 18.5349L53.0522 13.5967V16.3883H57.5665V18.799H53.0522V25.4183C53.0522 26.9634 53.7296 27.7365 55.0844 27.7376C56.0981 27.7376 57.1682 27.4188 58.2948 26.7811V29.2815C57.1995 29.8613 55.979 30.1585 54.7421 30.1466C53.4499 30.1466 52.3742 29.7883 51.515 29.0716C51.2546 28.8675 51.028 28.6229 50.8437 28.347C50.6431 28.0194 50.4937 27.6625 50.4007 27.289C50.2888 26.8533 50.2295 26.0227 50.2228 24.797V18.799H47.7458V18.5349Z" fill="white"/>
<path d="M28.2179 18.2651C27.8545 18.2836 27.4971 18.3667 27.1623 18.5106C26.9892 18.5837 26.8423 18.7083 26.7411 18.8678C26.6403 19.0265 26.5905 19.2127 26.5985 19.401C26.5928 19.597 26.6435 19.7905 26.7445 19.958C26.8446 20.1257 26.9894 20.2618 27.1623 20.3508C27.7011 20.629 28.2706 20.8421 28.859 20.9856C29.6477 21.2113 30.3984 21.4145 31.1111 21.5951C31.751 21.7507 32.3814 21.944 32.999 22.174C33.6617 22.4245 34.2453 22.8502 34.6889 23.4065C35.0838 23.9256 35.2813 24.6372 35.2813 25.5412C35.2813 26.9915 34.7694 28.1201 33.7458 28.9271C32.7221 29.734 31.2157 30.1397 29.2265 30.1443C27.084 30.1443 25.4467 29.6928 24.3145 28.7899C23.7762 28.3848 23.3372 27.8605 23.0311 27.2574C22.7251 26.6543 22.5602 25.9884 22.5491 25.311H26.3233C26.3108 25.6093 26.3741 25.9058 26.5072 26.1724C26.6402 26.4391 26.8386 26.667 27.0835 26.8346C27.5903 27.1924 28.2951 27.3718 29.1979 27.373C29.7843 27.3866 30.3671 27.2776 30.9097 27.053C31.1331 26.9688 31.3243 26.8152 31.4557 26.6144C31.5872 26.4137 31.6522 26.176 31.6413 25.9357C31.6514 25.7133 31.5928 25.4932 31.4735 25.3059C31.3523 25.118 31.1765 24.9726 30.9701 24.8895C30.4668 24.6605 29.9431 24.4802 29.406 24.3511C28.2414 24.0701 27.3022 23.8162 26.5884 23.5893C25.9535 23.3985 25.3472 23.1217 24.7861 22.7665C24.1282 22.3546 23.6723 21.8834 23.4184 21.353C23.1636 20.8145 23.0339 20.2245 23.0391 19.6279C23.0331 19.0649 23.1374 18.5062 23.3462 17.9841C23.5599 17.4631 23.9075 17.009 24.3531 16.6687C24.8977 16.2648 25.515 15.9715 26.1705 15.8053C27.048 15.5825 27.951 15.4789 28.8556 15.4972C30.8694 15.4972 32.3484 15.8837 33.2927 16.6568C34.2369 17.4299 34.7583 18.5704 34.8567 20.0782H31.3326C31.2364 19.401 30.9919 18.9253 30.5992 18.6511C30.2065 18.3768 29.5867 18.2397 28.7398 18.2397C28.5451 18.2397 28.3605 18.2397 28.1894 18.2617" fill="white"/>
</svg>
