<svg xmlns="http://www.w3.org/2000/svg" width="74" height="43" viewBox="0 0 74 43" fill="none">
  <g clip-path="url(#clip0_3313_2897)">
    <path fill-rule="evenodd" clip-rule="evenodd" d="M61.9414 29.5756H63.2286V26.5284H61.9414V29.5756ZM61.9414 24.4969C62.0354 24.4969 62.1294 24.4969 62.2233 24.4969C63.0368 24.5304 63.8486 24.3977 64.6099 24.1068C65.3712 23.8159 66.0664 23.3728 66.6537 22.804C67.241 22.2352 67.7083 21.5526 68.0275 20.7971C68.3468 20.0416 68.5113 19.2288 68.5113 18.4075C68.5113 17.5862 68.3468 16.7734 68.0275 16.0179C67.7083 15.2623 67.241 14.5797 66.6537 14.0109C66.0664 13.4422 65.3712 12.999 64.6099 12.7081C63.8486 12.4172 63.0368 12.2845 62.2233 12.3181H61.9414V24.4969ZM61.9414 10.295H63.2286V7.24609H61.9414V10.295ZM70.2718 19.4351H73.2925V17.4036H70.2718V19.4351ZM70.7585 11.2448L69.3371 9.80917L67.2024 11.9524L68.6255 13.388L70.7585 11.2448ZM69.3371 27.0329L70.7601 25.5973L68.6255 23.4354L67.2024 24.871L69.3371 27.0329Z" fill="#F32C40"/>
    <path d="M5.74575 35.0588V35.4329C5.74575 35.8754 5.83413 36.1874 6.0109 36.3691C6.18767 36.5508 6.49757 36.6406 6.9406 36.6383H7.67731C7.97845 36.6605 8.28005 36.6021 8.55163 36.469C8.64541 36.4045 8.72252 36.3183 8.77653 36.2175C8.83054 36.1168 8.85988 36.0045 8.8621 35.89C8.86337 35.8378 8.88232 35.7876 8.9158 35.7478C8.93516 35.7299 8.95794 35.7161 8.98276 35.7074C9.00758 35.6987 9.0339 35.6951 9.06012 35.697C9.08607 35.6947 9.11221 35.6985 9.13647 35.7081C9.16072 35.7177 9.18242 35.7329 9.19984 35.7525C9.21727 35.772 9.22994 35.7954 9.23685 35.8207C9.24377 35.8461 9.24474 35.8727 9.23968 35.8985C9.23662 36.0629 9.19668 36.2245 9.12285 36.3711C9.04903 36.5177 8.94324 36.6455 8.81343 36.7449C8.55835 36.9255 8.17964 37.0158 7.67731 37.0158H6.9406C6.39128 37.0158 5.99132 36.8894 5.74072 36.6366C5.49235 36.381 5.36816 35.9764 5.36816 35.4262V34.4104C5.36816 33.8461 5.49235 33.4381 5.74072 33.1864C5.98908 32.9348 6.38905 32.8101 6.9406 32.8123H7.67731C8.2244 32.8123 8.62212 32.9398 8.87049 33.1949C9.12221 33.4472 9.24807 33.8535 9.24807 34.4104V34.8658C9.25221 34.8924 9.24999 34.9196 9.24162 34.9452C9.23324 34.9707 9.21894 34.9939 9.19991 35.0128C9.18088 35.0317 9.15766 35.0457 9.13218 35.0537C9.1067 35.0617 9.07969 35.0634 9.05341 35.0588H5.74575ZM6.9406 33.1966C6.50092 33.1966 6.19102 33.2852 6.0109 33.4624C5.83078 33.6396 5.74239 33.9562 5.74575 34.4121V34.6694H8.87049V34.4053C8.87049 33.9539 8.78098 33.6401 8.60198 33.4641C8.42298 33.288 8.11476 33.1966 7.67731 33.1898L6.9406 33.1966ZM15.9473 37.0243C15.9214 37.028 15.895 37.0256 15.8701 37.0172C15.8453 37.0088 15.8228 36.9946 15.8044 36.9759C15.786 36.9571 15.7721 36.9343 15.764 36.9092C15.7559 36.8841 15.7537 36.8574 15.7577 36.8313V33.0053C15.7552 32.9788 15.7582 32.952 15.7666 32.9268C15.7749 32.9015 15.7884 32.8783 15.8062 32.8586C15.824 32.8389 15.8456 32.8231 15.8698 32.8124C15.8939 32.8016 15.92 32.796 15.9465 32.796C15.9729 32.796 15.999 32.8016 16.0231 32.8124C16.0473 32.8231 16.0689 32.8389 16.0867 32.8586C16.1045 32.8783 16.118 32.9015 16.1263 32.9268C16.1347 32.952 16.1377 32.9788 16.1352 33.0053V33.5352C16.4071 33.0544 16.9368 32.814 17.7245 32.814H17.9762C18.5244 32.814 18.9227 32.9415 19.171 33.1966C19.4228 33.4488 19.5486 33.8551 19.5486 34.4121V36.8313C19.5511 36.8578 19.5481 36.8846 19.5397 36.9098C19.5313 36.9351 19.5179 36.9583 19.5001 36.978C19.4823 36.9977 19.4606 37.0135 19.4365 37.0242C19.4123 37.035 19.3862 37.0406 19.3598 37.0406C19.3334 37.0406 19.3073 37.035 19.2832 37.0242C19.259 37.0135 19.2374 36.9977 19.2196 36.978C19.2018 36.9583 19.1883 36.9351 19.1799 36.9098C19.1716 36.8846 19.1686 36.8578 19.171 36.8313V34.4104C19.171 33.959 19.081 33.6452 18.9009 33.4692C18.7207 33.2931 18.4125 33.2017 17.9762 33.1949H17.7245C17.3262 33.1707 16.9293 33.2611 16.58 33.4556C16.447 33.5423 16.337 33.6604 16.2595 33.7996C16.182 33.9388 16.1394 34.095 16.1352 34.2547V36.8296C16.1391 36.8555 16.1369 36.882 16.1289 36.907C16.1209 36.9319 16.1072 36.9547 16.089 36.9734C16.0708 36.9921 16.0485 37.0063 16.0239 37.0148C15.9993 37.0234 15.9731 37.026 15.9473 37.0226V37.0243ZM26.3519 35.0605V35.4346C26.3519 35.877 26.4403 36.1891 26.617 36.3708C26.7938 36.5525 27.1037 36.6422 27.5467 36.64H28.2834C28.5846 36.6622 28.8862 36.6038 29.1578 36.4707C29.2515 36.4062 29.3287 36.3199 29.3827 36.2192C29.4367 36.1185 29.466 36.0062 29.4682 35.8917C29.4695 35.8395 29.4885 35.7893 29.5219 35.7495C29.5413 35.7316 29.5641 35.7178 29.5889 35.7091C29.6137 35.7004 29.64 35.6968 29.6663 35.6987C29.6922 35.6964 29.7183 35.7002 29.7426 35.7098C29.7669 35.7194 29.7886 35.7346 29.806 35.7542C29.8234 35.7737 29.8361 35.7971 29.843 35.8224C29.8499 35.8478 29.8509 35.8744 29.8458 35.9002C29.8428 36.0646 29.8028 36.2262 29.729 36.3728C29.6552 36.5194 29.5494 36.6472 29.4196 36.7466C29.1645 36.9272 28.7858 37.0175 28.2834 37.0175H27.5467C26.9985 37.0175 26.5986 36.8911 26.3468 36.6383C26.0985 36.3827 25.9743 35.9781 25.9743 35.4279V34.4121C25.9743 33.8478 26.0985 33.4398 26.3468 33.1881C26.5952 32.9365 26.9952 32.8117 27.5467 32.814H28.2834C28.8305 32.814 29.2283 32.9415 29.4766 33.1966C29.7283 33.4488 29.8542 33.8551 29.8542 34.4121V34.8675C29.8581 34.8935 29.8559 34.92 29.8479 34.9449C29.8399 34.9699 29.8262 34.9926 29.808 35.0113C29.7897 35.03 29.7674 35.0442 29.7429 35.0527C29.7183 35.0613 29.692 35.0639 29.6663 35.0605H26.3519ZM27.5467 33.1983C27.1071 33.1983 26.7972 33.2869 26.617 33.4641C26.4369 33.6413 26.3485 33.9578 26.3519 34.4138V34.6694H29.4766V34.4053C29.4766 33.9539 29.3871 33.6401 29.2081 33.4641C29.0291 33.288 28.7209 33.1966 28.2834 33.1898L27.5467 33.1983ZM36.5534 37.026C36.5275 37.0297 36.5011 37.0273 36.4763 37.0189C36.4515 37.0105 36.4289 36.9963 36.4105 36.9776C36.3921 36.9588 36.3783 36.936 36.3702 36.9109C36.362 36.8858 36.3599 36.8591 36.3638 36.833V33.007C36.3613 32.9805 36.3643 32.9537 36.3727 32.9285C36.3811 32.9032 36.3946 32.88 36.4123 32.8603C36.4301 32.8406 36.4518 32.8248 36.4759 32.8141C36.5001 32.8033 36.5262 32.7977 36.5526 32.7977C36.579 32.7977 36.6051 32.8033 36.6293 32.8141C36.6534 32.8248 36.6751 32.8406 36.6928 32.8603C36.7106 32.88 36.7241 32.9032 36.7325 32.9285C36.7408 32.9537 36.7439 32.9805 36.7414 33.007V33.823C36.8809 33.5077 37.1159 33.2452 37.4126 33.073C37.7467 32.8929 38.1215 32.8037 38.5001 32.814C38.5504 32.814 38.5986 32.8342 38.6342 32.87C38.6697 32.9059 38.6897 32.9546 38.6897 33.0053C38.6897 33.056 38.6697 33.1047 38.6342 33.1406C38.5986 33.1764 38.5504 33.1966 38.5001 33.1966C37.9608 33.1966 37.5419 33.3275 37.2431 33.5894C37.0871 33.7353 36.962 33.9117 36.8754 34.1078C36.7889 34.3039 36.7427 34.5157 36.7397 34.7304V36.8313C36.7432 36.8568 36.7408 36.8828 36.7329 36.9072C36.7249 36.9317 36.7115 36.9539 36.6937 36.9724C36.6759 36.9908 36.6542 37.0049 36.6301 37.0136C36.6061 37.0223 36.5805 37.0254 36.5551 37.0226L36.5534 37.026ZM45.4242 38.8526C45.1427 38.8734 44.8629 38.7937 44.6338 38.6275C44.5384 38.5384 44.4621 38.4305 44.4096 38.3106C44.3571 38.1906 44.3294 38.0611 44.3283 37.93C44.3251 37.9031 44.3274 37.8758 44.3352 37.8498C44.343 37.8239 44.3561 37.7999 44.3737 37.7793C44.3914 37.762 44.4124 37.7486 44.4355 37.7398C44.4586 37.7311 44.4833 37.7272 44.5079 37.7285C44.56 37.7248 44.6116 37.7411 44.6522 37.7742C44.6875 37.8143 44.7066 37.8662 44.7059 37.9198C44.7042 38.0012 44.7202 38.0819 44.753 38.1562C44.7858 38.2306 44.8345 38.2967 44.8956 38.3498C45.0561 38.4418 45.2402 38.483 45.4242 38.4683H47.0939C47.3725 38.4683 47.5638 38.4159 47.6645 38.3092C47.7652 38.2025 47.8223 38.0112 47.8223 37.7285V36.3403C47.6885 36.5681 47.4855 36.7462 47.2433 36.8482C46.9228 36.974 46.58 37.0316 46.2364 37.0175H45.9008C45.3526 37.0175 44.9526 36.8911 44.7009 36.6383C44.4525 36.3827 44.3283 35.9781 44.3283 35.4279V34.4121C44.3283 33.8478 44.4525 33.4409 44.7009 33.1915C44.9493 32.9421 45.3492 32.8163 45.9008 32.814H46.6358C46.8963 32.8033 47.1561 32.8465 47.3994 32.941C47.5832 33.0212 47.735 33.1613 47.8307 33.3388V33.0002C47.8282 32.9737 47.8312 32.947 47.8396 32.9217C47.8479 32.8964 47.8614 32.8732 47.8792 32.8535C47.897 32.8338 47.9186 32.8181 47.9428 32.8073C47.9669 32.7965 47.993 32.7909 48.0195 32.7909C48.0459 32.7909 48.072 32.7965 48.0961 32.8073C48.1203 32.8181 48.1419 32.8338 48.1597 32.8535C48.1775 32.8732 48.191 32.8964 48.1993 32.9217C48.2077 32.947 48.2107 32.9737 48.2082 33.0002V37.7218C48.2082 38.1077 48.1193 38.3989 47.9431 38.5682C47.7669 38.7375 47.4866 38.8425 47.104 38.8425L45.4242 38.8526ZM45.8924 36.6417H46.228C46.6303 36.6612 47.0307 36.5761 47.391 36.3945C47.5244 36.3226 47.6351 36.2143 47.7105 36.082C47.7858 35.9497 47.8228 35.7987 47.8172 35.6462V34.2208C47.8172 33.8472 47.7199 33.5843 47.5252 33.4319C47.3306 33.2796 47.0296 33.2017 46.6224 33.1983H45.8874C45.446 33.1983 45.1372 33.288 44.956 33.4675C44.7747 33.6469 44.6925 33.9601 44.6925 34.4138V35.4296C44.6925 35.872 44.7803 36.184 44.956 36.3657C45.1439 36.5486 45.4527 36.6383 45.8941 36.6383L45.8924 36.6417ZM55.7415 38.8526C55.3622 38.8526 55.0826 38.7612 54.9024 38.5784C54.7245 38.3989 54.6373 38.1128 54.6373 37.7201C54.6348 37.6935 54.6378 37.6668 54.6462 37.6415C54.6546 37.6163 54.6681 37.593 54.6858 37.5733C54.7036 37.5536 54.7253 37.5379 54.7494 37.5271C54.7736 37.5164 54.7997 37.5108 54.8261 37.5108C54.8525 37.5108 54.8786 37.5164 54.9027 37.5271C54.9269 37.5379 54.9485 37.5536 54.9663 37.5733C54.9841 37.593 54.9976 37.6163 55.006 37.6415C55.0143 37.6668 55.0174 37.6935 55.0149 37.7201C55.0149 38.0056 55.0669 38.202 55.1709 38.3092C55.3344 38.4329 55.5382 38.4898 55.7415 38.4683H57.2334C57.4363 38.4912 57.6401 38.4342 57.8023 38.3092C57.908 38.2025 57.96 38.0062 57.96 37.7201V36.4318C57.7946 36.6463 57.5697 36.8066 57.3139 36.8922C57.0123 36.9943 56.6957 37.0441 56.3775 37.0395H56.1879C55.6492 37.0395 55.2582 36.9142 55.0132 36.6654C54.7682 36.4165 54.6457 36.0204 54.6457 35.4803V32.9935C54.6432 32.9669 54.6462 32.9402 54.6546 32.9149C54.6629 32.8896 54.6764 32.8664 54.6942 32.8467C54.712 32.827 54.7336 32.8113 54.7578 32.8005C54.7819 32.7897 54.8081 32.7842 54.8345 32.7842C54.8609 32.7842 54.887 32.7897 54.9111 32.8005C54.9353 32.8113 54.9569 32.827 54.9747 32.8467C54.9925 32.8664 55.006 32.8896 55.0143 32.9149C55.0227 32.9402 55.0257 32.9669 55.0233 32.9935V35.4685C55.0233 35.9064 55.1083 36.2128 55.2783 36.3877C55.4484 36.5627 55.7521 36.649 56.1896 36.6468H56.3775C56.9123 36.6468 57.31 36.5497 57.5707 36.3556C57.7036 36.2516 57.8091 36.1164 57.8782 35.9618C57.9472 35.8071 57.9776 35.6377 57.9668 35.4685V32.9935C57.9643 32.9669 57.9673 32.9402 57.9757 32.9149C57.984 32.8896 57.9975 32.8664 58.0153 32.8467C58.0331 32.827 58.0547 32.8113 58.0789 32.8005C58.103 32.7897 58.1291 32.7842 58.1555 32.7842C58.1819 32.7842 58.2081 32.7897 58.2322 32.8005C58.2564 32.8113 58.278 32.827 58.2958 32.8467C58.3136 32.8664 58.3271 32.8896 58.3354 32.9149C58.3438 32.9402 58.3468 32.9669 58.3443 32.9935V37.7167C58.3443 38.1094 58.256 38.3955 58.0792 38.575C57.9024 38.7544 57.6227 38.8459 57.2401 38.8492L55.7415 38.8526Z" fill="#181818"/>
    <path d="M15.6986 20.3353L13.48 12.1298L11.2632 20.3353H7.4806L3.5 6.22998H7.39501L9.6706 15.2938L11.6038 6.22998H15.3579L17.5395 15.2938L19.6791 6.22998H23.4852L19.4761 20.3438L15.6986 20.3353Z" fill="#F32C40"/>
    <path d="M23.9402 17.9342C23.5198 17.3065 23.1883 16.6227 22.9551 15.9027C22.6916 15.0689 22.5564 14.1994 22.554 13.3243C22.5292 12.58 22.5935 11.8354 22.7453 11.1066C22.8233 10.7487 22.9248 10.3964 23.0491 10.0519C23.3571 9.17372 23.8468 8.37161 24.4856 7.6988C25.1242 7.0405 25.8949 6.52738 26.746 6.1938C27.7036 5.82569 28.722 5.64527 29.7466 5.66223C30.7569 5.64625 31.7608 5.82673 32.7035 6.1938C33.5434 6.52672 34.304 7.03498 34.9355 7.68525C35.568 8.35426 36.0525 9.15114 36.3569 10.0232C36.7124 11.0058 36.8831 12.0467 36.8603 13.0924C36.842 13.8052 36.7429 14.5135 36.565 15.2035C36.4077 15.8186 36.1913 16.4168 35.9189 16.9895C35.6693 17.5151 35.3745 18.0175 35.0378 18.4911L23.9402 17.9342ZM29.7466 17.3958C32.002 17.3958 33.1298 15.9613 33.1298 13.0924C33.1298 10.2427 32.002 8.81781 29.7466 8.81781C27.4911 8.81781 26.3629 10.2427 26.3617 13.0924C26.3617 15.9602 27.49 17.3975 29.7466 17.4043V17.3958Z" fill="#F32C40"/>
    <path d="M38.041 18.0144V6.04041H41.5097V7.73333C41.7649 7.31092 42.0869 6.93349 42.4629 6.616C42.7724 6.36074 43.1173 6.15257 43.4866 5.99809C43.8275 5.85774 44.1862 5.76601 44.5522 5.72553C44.9208 5.68726 45.291 5.66805 45.6615 5.66797H46.1398V9.4838C45.8015 9.42654 45.4591 9.39766 45.1161 9.39746C42.8584 9.39746 41.7301 10.5357 41.7312 12.8121V17.1882L38.041 18.0144Z" fill="#F32C40"/>
    <path d="M54.1161 17.8135L52.7014 15.049L50.9091 16.9298L50.8017 18.3705L47.1836 18.9613V2H50.9091V12.6146L55.5157 7.19725H60.0366L55.3378 12.4334C56.1534 14.0338 56.9678 15.6342 57.7812 17.2345L54.1161 17.8135Z" fill="#F32C40"/>
    <path d="M39.6341 23.7875C39.69 24.8439 39.9955 25.683 40.5504 26.3049C40.8244 26.612 41.1616 26.8551 41.5384 27.0171C41.9152 27.1791 42.3226 27.2561 42.732 27.2427C43.2893 27.2543 43.8392 27.1127 44.3229 26.8331C44.5395 26.7113 44.7301 26.5473 44.8834 26.3506C45.0384 26.1544 45.1526 25.9287 45.219 25.687H48.9932C48.5625 27.1203 47.8123 28.2229 46.7428 28.9949C45.6732 29.7669 44.395 30.1523 42.9082 30.1512C38.2888 30.1512 35.9785 27.6248 35.9774 22.572C35.9639 21.5821 36.1165 20.597 36.4288 19.6585C36.7065 18.8296 37.1529 18.0684 37.7395 17.4238C38.3236 16.7941 39.0412 16.3056 39.8388 15.995C40.7478 15.6513 41.7128 15.4836 42.6833 15.5007C44.8246 15.5007 46.4469 16.1886 47.55 17.5644C48.6531 18.9401 49.2024 21.0145 49.1979 23.7875H39.6341ZM45.4086 21.4682C45.4001 21.0077 45.3098 20.5524 45.1418 20.124C44.9983 19.7629 44.7823 19.4355 44.5075 19.1625C44.2505 18.9097 43.9434 18.7146 43.6063 18.5903C43.2721 18.4688 42.9194 18.4069 42.5642 18.4074C42.2095 18.4039 41.8579 18.4736 41.5309 18.6121C41.204 18.7507 40.9085 18.9553 40.6628 19.2133C40.128 19.7493 39.8209 20.4987 39.7415 21.4614L45.4086 21.4682Z" fill="#181818"/>
    <path d="M48.2461 18.5349L53.5524 13.5967V16.3883H58.0667V18.799H53.5524V25.4183C53.5524 26.9634 54.2299 27.7365 55.5847 27.7376C56.5983 27.7376 57.6684 27.4188 58.795 26.7811V29.2815C57.6997 29.8613 56.4792 30.1585 55.2423 30.1466C53.9502 30.1466 52.8745 29.7883 52.0152 29.0716C51.7548 28.8675 51.5283 28.6229 51.344 28.347C51.1434 28.0194 50.9939 27.6625 50.9009 27.289C50.7891 26.8533 50.7298 26.0227 50.7231 24.797V18.799H48.2461V18.5349Z" fill="#181818"/>
    <path d="M28.7177 18.2651C28.3542 18.2836 27.9969 18.3667 27.6621 18.5106C27.489 18.5837 27.342 18.7083 27.2409 18.8678C27.1401 19.0265 27.0902 19.2127 27.0982 19.401C27.0926 19.597 27.1433 19.7905 27.2442 19.958C27.3444 20.1257 27.4892 20.2618 27.6621 20.3508C28.2009 20.629 28.7704 20.8421 29.3587 20.9856C30.1474 21.2113 30.8981 21.4145 31.6108 21.5951C32.2508 21.7507 32.8812 21.944 33.4987 22.174C34.1614 22.4245 34.7451 22.8502 35.1886 23.4065C35.5836 23.9256 35.781 24.6372 35.781 25.5412C35.781 26.9915 35.2692 28.1201 34.2455 28.9271C33.2218 29.734 31.7154 30.1397 29.7262 30.1443C27.5838 30.1443 25.9465 29.6928 24.8143 28.7899C24.276 28.3848 23.8369 27.8605 23.5309 27.2574C23.2248 26.6543 23.0599 25.9884 23.0488 25.311H26.823C26.8106 25.6093 26.8739 25.9058 27.0069 26.1724C27.14 26.4391 27.3383 26.667 27.5832 26.8346C28.09 27.1924 28.7948 27.3718 29.6977 27.373C30.284 27.3866 30.8668 27.2776 31.4094 27.053C31.6328 26.9688 31.824 26.8152 31.9555 26.6144C32.087 26.4137 32.1519 26.176 32.1411 25.9357C32.1512 25.7133 32.0925 25.4932 31.9733 25.3059C31.8521 25.118 31.6762 24.9726 31.4698 24.8895C30.9665 24.6605 30.4429 24.4802 29.9058 24.3511C28.7412 24.0701 27.8019 23.8162 27.0882 23.5893C26.4533 23.3985 25.847 23.1217 25.2858 22.7665C24.628 22.3546 24.1721 21.8834 23.9181 21.353C23.6633 20.8145 23.5336 20.2245 23.5389 19.6279C23.5328 19.0649 23.6372 18.5062 23.846 17.9841C24.0597 17.4631 24.4073 17.009 24.8529 16.6687C25.3975 16.2648 26.0147 15.9715 26.6703 15.8053C27.5477 15.5825 28.4507 15.4789 29.3554 15.4972C31.3692 15.4972 32.8482 15.8837 33.7924 16.6568C34.7367 17.4299 35.258 18.5704 35.3565 20.0782H31.8323C31.7361 19.401 31.4917 18.9253 31.099 18.6511C30.7063 18.3768 30.0865 18.2397 29.2396 18.2397C29.0449 18.2397 28.8603 18.2397 28.6891 18.2617" fill="#181818"/>
  </g>
  <defs>
    <clipPath id="clip0_3313_2897">
      <rect width="73" height="43" fill="white" transform="translate(0.5)"/>
    </clipPath>
  </defs>
</svg>