 <svg
            width="16"
            height="16"
            viewBox="0 0 16 16"
            fill=""
            xmlns="http://www.w3.org/2000/svg"
          >
            <path
              d="M8.16252 2.66675C8.51859 2.66871 9.40945 2.67732 10.356 2.71523L10.6916 2.72987C11.6446 2.77499 12.5968 2.85207 13.0691 2.98375C13.699 3.16071 14.1941 3.67708 14.3615 4.33163C14.6279 5.37102 14.6613 7.39968 14.6654 7.89061L14.666 7.99235V7.99948C14.666 7.99948 14.666 8.00195 14.666 8.00668L14.6654 8.10841C14.6613 8.59935 14.6279 10.628 14.3615 11.6674C14.1918 12.3243 13.6967 12.8407 13.0691 13.0153C12.5968 13.1469 11.6446 13.224 10.6916 13.2691L10.356 13.2837C9.40945 13.3217 8.51859 13.3303 8.16252 13.3323L8.00625 13.3328H7.99932C7.99932 13.3328 7.99699 13.3328 7.99239 13.3328L7.83625 13.3323C7.08265 13.3281 3.93173 13.2941 2.92959 13.0153C2.29965 12.8383 1.80453 12.3219 1.63717 11.6674C1.37072 10.628 1.33741 8.59935 1.33325 8.10841V7.89061C1.33741 7.39968 1.37072 5.37102 1.63717 4.33163C1.80685 3.67465 2.30197 3.15829 2.92959 2.98375C3.93173 2.7049 7.08265 2.67089 7.83625 2.66675H8.16252ZM6.66599 5.66617V10.3328L10.666 7.99948L6.66599 5.66617Z"
              fill=""
            />
          </svg>