<svg width="16" height="16" viewBox="0 0 16 16" fill="none" xmlns="http://www.w3.org/2000/svg">
<path d="M8.16276 2.66675C8.51883 2.66871 9.4097 2.67732 10.3562 2.71523L10.6918 2.72987C11.6448 2.77499 12.597 2.85207 13.0693 2.98375C13.6992 3.16071 14.1944 3.67708 14.3617 4.33163C14.6282 5.37102 14.6615 7.39968 14.6656 7.89061L14.6662 7.99235V7.99948C14.6662 7.99948 14.6662 8.00195 14.6662 8.00668L14.6656 8.10841C14.6615 8.59935 14.6282 10.628 14.3617 11.6674C14.192 12.3243 13.6969 12.8407 13.0693 13.0153C12.597 13.1469 11.6448 13.224 10.6918 13.2691L10.3562 13.2837C9.4097 13.3217 8.51883 13.3303 8.16276 13.3323L8.0065 13.3328H7.99956C7.99956 13.3328 7.99723 13.3328 7.99263 13.3328L7.8365 13.3323C7.0829 13.3281 3.93198 13.2941 2.92984 13.0153C2.2999 12.8383 1.80478 12.3219 1.63741 11.6674C1.37096 10.628 1.33766 8.59935 1.3335 8.10841V7.89061C1.33766 7.39968 1.37096 5.37102 1.63741 4.33163C1.8071 3.67465 2.30222 3.15829 2.92984 2.98375C3.93198 2.7049 7.0829 2.67089 7.8365 2.66675H8.16276ZM6.66624 5.66617V10.3328L10.6662 7.99948L6.66624 5.66617Z" fill="#F32C40"/>
</svg>
