<svg xmlns="http://www.w3.org/2000/svg" width="" height="" viewBox="0 0 24 24" fill="none">
<path d="M5.09202 19.7816L5.54601 18.8905H5.54601L5.09202 19.7816ZM4.21799 18.9075L5.10899 18.4535L5.10899 18.4535L4.21799 18.9075ZM18.908 19.7816L18.454 18.8905H18.454L18.908 19.7816ZM19.782 18.9075L18.891 18.4535V18.4535L19.782 18.9075ZM18.908 6.21753L18.454 7.10853L18.454 7.10853L18.908 6.21753ZM19.782 7.09156L18.891 7.54555L19.782 7.09156ZM5.09202 6.21753L4.63803 5.32652H4.63803L5.09202 6.21753ZM4.21799 7.09156L3.32698 6.63757H3.32698L4.21799 7.09156ZM15.546 14.8905L16 13.9995L15.546 14.8905ZM15.109 14.4535L16 13.9995L15.109 14.4535ZM21.891 14.4535L21 13.9995L21.891 14.4535ZM21.454 14.8905L21 13.9995L21.454 14.8905ZM21.454 11.1085L21 11.9995L21.454 11.1085ZM21.891 11.5455L21 11.9995L21.891 11.5455ZM15.546 11.1085L16 11.9995L15.546 11.1085ZM15.109 11.5455L16 11.9995L15.109 11.5455ZM5.62861 5.07106C5.11583 5.27618 4.86641 5.85815 5.07152 6.37093C5.27664 6.88371 5.85861 7.13313 6.37139 6.92802L5.62861 5.07106ZM14.6286 2.5481L14.2572 1.61962V1.61962L14.6286 2.5481ZM15 5.99954C15 6.55182 15.4477 6.99954 16 6.99954C16.5523 6.99954 17 6.55182 17 5.99954H15ZM7.2 6.99954H16.8V4.99954H7.2V6.99954ZM16.8 18.9995H7.2V20.9995H16.8V18.9995ZM5 16.7995V9.19954H3V16.7995H5ZM19 9.19954V11.2495H21V9.19954H19ZM19 15.187V16.7995H21V15.187H19ZM7.2 18.9995C6.62345 18.9995 6.25117 18.9988 5.96784 18.9756C5.69617 18.9534 5.59545 18.9157 5.54601 18.8905L4.63803 20.6726C5.01641 20.8654 5.40963 20.9367 5.80497 20.969C6.18864 21.0003 6.65645 20.9995 7.2 20.9995V18.9995ZM3 16.7995C3 17.3431 2.99922 17.8109 3.03057 18.1946C3.06287 18.5899 3.13419 18.9831 3.32698 19.3615L5.10899 18.4535C5.0838 18.4041 5.04612 18.3034 5.02393 18.0317C5.00078 17.7484 5 17.3761 5 16.7995H3ZM5.54601 18.8905C5.35785 18.7947 5.20487 18.6417 5.10899 18.4535L3.32698 19.3615C3.6146 19.926 4.07354 20.3849 4.63803 20.6726L5.54601 18.8905ZM16.8 20.9995C17.3436 20.9995 17.8114 21.0003 18.195 20.969C18.5904 20.9367 18.9836 20.8654 19.362 20.6726L18.454 18.8905C18.4045 18.9157 18.3038 18.9534 18.0322 18.9756C17.7488 18.9988 17.3766 18.9995 16.8 18.9995V20.9995ZM19 16.7995C19 17.3761 18.9992 17.7484 18.9761 18.0317C18.9539 18.3034 18.9162 18.4041 18.891 18.4535L20.673 19.3615C20.8658 18.9831 20.9371 18.5899 20.9694 18.1946C21.0008 17.8109 21 17.3431 21 16.7995H19ZM19.362 20.6726C19.9265 20.3849 20.3854 19.926 20.673 19.3615L18.891 18.4535C18.7951 18.6417 18.6422 18.7947 18.454 18.8905L19.362 20.6726ZM16.8 6.99954C17.3766 6.99954 17.7488 7.00032 18.0322 7.02347C18.3038 7.04566 18.4045 7.08334 18.454 7.10853L19.362 5.32652C18.9836 5.13373 18.5904 5.06241 18.195 5.03011C17.8114 4.99876 17.3436 4.99954 16.8 4.99954V6.99954ZM21 9.19954C21 8.65599 21.0008 8.18818 20.9694 7.80451C20.9371 7.40917 20.8658 7.01595 20.673 6.63757L18.891 7.54555C18.9162 7.59499 18.9539 7.69571 18.9761 7.96737C18.9992 8.25071 19 8.62299 19 9.19954H21ZM18.454 7.10853C18.6422 7.20441 18.7951 7.35739 18.891 7.54555L20.673 6.63757C20.3854 6.07308 19.9265 5.61414 19.362 5.32652L18.454 7.10853ZM7.2 4.99954C6.65645 4.99954 6.18864 4.99876 5.80497 5.03011C5.40963 5.06241 5.01641 5.13373 4.63803 5.32652L5.54601 7.10853C5.59545 7.08334 5.69617 7.04566 5.96784 7.02347C6.25117 7.00032 6.62345 6.99954 7.2 6.99954V4.99954ZM5 9.19954C5 8.62299 5.00078 8.25071 5.02393 7.96737C5.04612 7.69571 5.0838 7.59499 5.10899 7.54555L3.32698 6.63757C3.13419 7.01595 3.06287 7.40917 3.03057 7.80451C2.99922 8.18818 3 8.65599 3 9.19954H5ZM4.63803 5.32652C4.07354 5.61414 3.6146 6.07308 3.32698 6.63757L5.10899 7.54555C5.20487 7.35739 5.35785 7.20441 5.54601 7.10853L4.63803 5.32652ZM16.6 11.9995H20.4V9.99954H16.6V11.9995ZM21 12.5995V13.3995H23V12.5995H21ZM20.4 13.9995H16.6V15.9995H20.4V13.9995ZM16 13.3995V12.5995H14V13.3995H16ZM16.6 13.9995C16.3035 13.9995 16.1412 13.9988 16.0246 13.9892C15.9197 13.9807 15.9425 13.9702 16 13.9995L15.092 15.7816C15.3634 15.9198 15.6332 15.9639 15.8618 15.9826C16.0787 16.0003 16.3365 15.9995 16.6 15.9995V13.9995ZM14 13.3995C14 13.6631 13.9992 13.9208 14.0169 14.1378C14.0356 14.3664 14.0797 14.6361 14.218 14.9075L16 13.9995C16.0293 14.0571 16.0189 14.0798 16.0103 13.9749C16.0008 13.8583 16 13.6961 16 13.3995H14ZM16 13.9995V13.9995L14.218 14.9075C14.4097 15.2838 14.7157 15.5898 15.092 15.7816L16 13.9995ZM21 13.3995C21 13.6961 20.9992 13.8583 20.9897 13.9749C20.9811 14.0798 20.9707 14.0571 21 13.9995L22.782 14.9075C22.9203 14.6361 22.9644 14.3664 22.9831 14.1378C23.0008 13.9208 23 13.6631 23 13.3995H21ZM20.4 15.9995C20.6635 15.9995 20.9213 16.0003 21.1382 15.9826C21.3668 15.9639 21.6366 15.9198 21.908 15.7816L21 13.9995C21.0575 13.9702 21.0803 13.9807 20.9754 13.9892C20.8588 13.9988 20.6965 13.9995 20.4 13.9995V15.9995ZM21 13.9995V13.9995L21.908 15.7816C22.2843 15.5898 22.5903 15.2838 22.782 14.9075L21 13.9995ZM20.4 11.9995C20.6965 11.9995 20.8588 12.0003 20.9754 12.0098C21.0803 12.0184 21.0575 12.0288 21 11.9995L21.908 10.2175C21.6366 10.0792 21.3668 10.0352 21.1382 10.0165C20.9213 9.99876 20.6635 9.99954 20.4 9.99954V11.9995ZM23 12.5995C23 12.336 23.0008 12.0782 22.9831 11.8613C22.9644 11.6327 22.9203 11.363 22.782 11.0916L21 11.9995C20.9707 11.942 20.9811 11.9193 20.9897 12.0242C20.9992 12.1408 21 12.303 21 12.5995H23ZM21 11.9995L22.782 11.0916C22.5903 10.7152 22.2843 10.4093 21.908 10.2175L21 11.9995ZM16.6 9.99954C16.3365 9.99954 16.0787 9.99876 15.8618 10.0165C15.6332 10.0352 15.3634 10.0792 15.092 10.2175L16 11.9995C15.9425 12.0288 15.9197 12.0184 16.0246 12.0098C16.1412 12.0003 16.3035 11.9995 16.6 11.9995V9.99954ZM16 12.5995C16 12.303 16.0008 12.1408 16.0103 12.0242C16.0189 11.9193 16.0293 11.942 16 11.9995L14.218 11.0916C14.0797 11.363 14.0356 11.6327 14.0169 11.8613C13.9992 12.0782 14 12.336 14 12.5995H16ZM15.092 10.2175C14.7157 10.4093 14.4097 10.7152 14.218 11.0916L16 11.9995L15.092 10.2175ZM6.37139 6.92802L15 3.47657L14.2572 1.61962L5.62861 5.07106L6.37139 6.92802ZM15 3.47657V5.99954H17V3.47657H15ZM15 3.47657L15 3.47657H17C17 2.06164 15.5709 1.09413 14.2572 1.61962L15 3.47657Z" fill="#F32C40"/>
</svg>