<svg xmlns="http://www.w3.org/2000/svg" width="" height="" viewBox="0 0 24 24" fill="none">
<path d="M15.6364 6.06926L13.0989 1.62172C12.6277 0.795931 11.4459 0.791979 10.9693 1.6146L8.29167 6.2364C7.93702 6.84857 7.33898 7.27851 6.64878 7.4175L2.99011 8.15426C2.04253 8.34508 1.6733 9.5109 2.33623 10.2188L4.98246 13.0448C5.54832 13.649 5.77584 14.4986 5.5884 15.3074L4.39063 20.476C4.14441 21.5385 5.28382 22.3795 6.21601 21.8232L10.7857 19.0966C11.5592 18.6351 12.5211 18.6351 13.2946 19.0966L17.8644 21.8232C18.7966 22.3795 19.936 21.5385 19.6897 20.476L18.4815 15.2621C18.2999 14.4784 18.5076 13.6547 19.0387 13.0531L21.6882 10.0519C22.3194 9.33687 21.9416 8.20183 21.0099 8.0142L17.2875 7.26459C16.5917 7.12447 15.9898 6.68876 15.6364 6.06926Z" stroke="#F32C40" stroke-width="2" stroke-miterlimit="10"/>
</svg>