<svg xmlns="http://www.w3.org/2000/svg" width="24" height="26" viewBox="0 0 24 26" fill="none">
  <g filter="url(#filter0_d_7770_12750)">
    <path d="M12 6C13.1046 6 14 5.10457 14 4C14 2.89543 13.1046 2 12 2C10.8954 2 10 2.89543 10 4C10 5.10457 10.8954 6 12 6Z" fill="#F32C40"/>
    <path d="M3.33565 5.2526C3.74843 4.88568 4.3805 4.92286 4.74742 5.33565C5.4563 6.13314 8.03335 8.00001 12 8.00001C15.9667 8.00001 18.5437 6.13314 19.2526 5.33565C19.6195 4.92286 20.2516 4.88568 20.6644 5.2526C21.0772 5.61952 21.1143 6.25159 20.7474 6.66437C19.9375 7.57558 17.9544 9.02115 15.0543 9.66803L15.9965 21.9163C16.0305 22.3588 15.7764 22.7212 15.4509 22.8862C15.2795 22.9731 15.0052 23.046 14.695 22.9473C14.3537 22.8388 14.1494 22.5805 14.061 22.3442C13.9665 22.0914 13.8447 21.7265 13.7094 21.3209C13.6544 21.1563 13.5971 20.9846 13.5386 20.8113C13.3293 20.1911 13.09 19.5059 12.8326 18.8681C12.5712 18.2201 12.3097 17.6686 12.0655 17.2941C12.0425 17.2588 12.0207 17.2266 11.9999 17.1973C11.9792 17.2266 11.9573 17.2588 11.9343 17.2941C11.6902 17.6686 11.4287 18.2201 11.1673 18.8681C10.9099 19.5059 10.6706 20.1911 10.4613 20.8113C10.4027 20.9846 10.3455 21.156 10.2906 21.3207C10.1552 21.7263 10.0334 22.0914 9.9389 22.3442C9.85053 22.5804 9.64622 22.8387 9.30501 22.9473C8.99488 23.046 8.72053 22.9731 8.54915 22.8863C8.22352 22.7213 7.96939 22.3588 8.00343 21.9163L8.94561 9.668C6.04551 9.0211 4.06255 7.57557 3.2526 6.66437C2.88568 6.25159 2.92286 5.61952 3.33565 5.2526Z" fill="#F32C40"/>
  </g>
  <defs>
    <filter id="filter0_d_7770_12750" x="1.5" y="1.25" width="21" height="23.9951" filterUnits="userSpaceOnUse" color-interpolation-filters="sRGB">
      <feFlood flood-opacity="0" result="BackgroundImageFix"/>
      <feColorMatrix in="SourceAlpha" type="matrix" values="0 0 0 0 0 0 0 0 0 0 0 0 0 0 0 0 0 0 127 0" result="hardAlpha"/>
      <feOffset dy="0.75"/>
      <feGaussianBlur stdDeviation="0.75"/>
      <feComposite in2="hardAlpha" operator="out"/>
      <feColorMatrix type="matrix" values="0 0 0 0 0.0627451 0 0 0 0 0.0941176 0 0 0 0 0.156863 0 0 0 0.04 0"/>
      <feBlend mode="normal" in2="BackgroundImageFix" result="effect1_dropShadow_7770_12750"/>
      <feBlend mode="normal" in="SourceGraphic" in2="effect1_dropShadow_7770_12750" result="shape"/>
    </filter>
  </defs>
</svg>