<svg xmlns="http://www.w3.org/2000/svg" width="" height="" viewBox="0 0 24 24" fill="none">
<path d="M11 5H13M9.2 22H14.8C15.9201 22 16.4802 22 16.908 21.782C17.2843 21.5903 17.5903 21.2843 17.782 20.908C18 20.4802 18 19.9201 18 18.8V5.2C18 4.07989 18 3.51984 17.782 3.09202C17.5903 2.71569 17.2843 2.40973 16.908 2.21799C16.4802 2 15.9201 2 14.8 2H9.2C8.0799 2 7.51984 2 7.09202 2.21799C6.71569 2.40973 6.40973 2.71569 6.21799 3.09202C6 3.51984 6 4.0799 6 5.2V18.8C6 19.9201 6 20.4802 6.21799 20.908C6.40973 21.2843 6.71569 21.5903 7.09202 21.782C7.51984 22 8.07989 22 9.2 22Z" stroke="#F32C40" stroke-width="2" stroke-linecap="round"/>
</svg>