<svg width="56" height="56" viewBox="0 0 56 56" fill="none" xmlns="http://www.w3.org/2000/svg">
<path class="stepTwoPath" d="M44.9355 23.6796C45.3078 23.6796 45.6094 23.3714 45.6094 22.9911C45.6094 22.6109 45.3078 22.3027 44.9355 22.3027H40.6231C40.2508 22.3027 39.9492 22.6109 39.9492 22.9911C39.9492 23.3714 40.2508 23.6796 40.6231 23.6796H44.9355ZM13.2207 20.0995C12.8485 20.0995 12.5469 20.4078 12.5469 20.788V22.3027H11.0645C10.6922 22.3027 10.3906 22.6109 10.3906 22.9911C10.3906 23.3714 10.6922 23.6796 11.0645 23.6796H12.5469V25.1943C12.5469 25.5745 12.8485 25.8827 13.2207 25.8827C13.5929 25.8827 13.8945 25.5745 13.8945 25.1943V23.6796H15.377C15.7492 23.6796 16.0508 23.3714 16.0508 22.9911C16.0508 22.6109 15.7492 22.3027 15.377 22.3027H13.8945V20.788C13.8945 20.4078 13.5929 20.0995 13.2207 20.0995ZM48.9785 18.7226C50.0931 18.7226 51 17.7961 51 16.6572V15.0189C51 13.88 50.0931 12.9535 48.9785 12.9535H45.6094V10.9197C45.6094 10.0339 44.904 9.31322 44.0371 9.31322H40.3165C39.4496 9.31322 38.7442 10.0339 38.7442 10.9197V12.9535H34.8302V10.4414C34.8302 9.55566 34.1248 8.83496 33.2579 8.83496H22.7422C21.8753 8.83496 21.1699 9.55566 21.1699 10.4414V12.9535H17.2559V10.9197C17.2559 10.0339 16.5505 9.31322 15.6836 9.31322H11.9629C11.096 9.31322 10.3906 10.0339 10.3906 10.9197V12.9535H7.02148C5.90688 12.9535 5 13.88 5 15.0189V16.6572C5 17.7961 5.90688 18.7226 7.02148 18.7226H7.69531V36.6565C7.69531 37.0367 7.99692 37.345 8.36914 37.345C8.74136 37.345 9.04297 37.0367 9.04297 36.6565V18.7226H30.3412C30.7134 18.7226 31.015 18.4143 31.015 18.0341C31.015 17.6539 30.7134 17.3456 30.3412 17.3456H7.02148C6.64989 17.3456 6.34766 17.0367 6.34766 16.6572V15.0189C6.34766 14.6394 6.64989 14.3305 7.02148 14.3305H48.9785C49.3501 14.3305 49.6523 14.6394 49.6523 15.0189V16.6572C49.6523 17.0367 49.3501 17.3456 48.9785 17.3456H33.4857C33.1135 17.3456 32.8119 17.6539 32.8119 18.0341C32.8119 18.4143 33.1135 18.7226 33.4857 18.7226H46.957V42.392H9.04297V39.8694C9.04297 39.4891 8.74136 39.1809 8.36914 39.1809C7.99692 39.1809 7.69531 39.4891 7.69531 39.8694V42.392H7.02148C5.90688 42.392 5 43.3185 5 44.4575V46.0957C5 47.2346 5.90688 48.1611 7.02148 48.1611H48.9785C50.0931 48.1611 51 47.2346 51 46.0957V44.4575C51 43.3185 50.0931 42.392 48.9785 42.392H48.3047V18.7226H48.9785ZM15.9081 12.9535H11.7383V10.9197C11.7383 10.7932 11.839 10.6902 11.9629 10.6902H15.6835C15.8074 10.6902 15.9081 10.7932 15.9081 10.9197V12.9535ZM33.4824 12.9535H22.5176V10.4414C22.5176 10.3149 22.6183 10.2119 22.7422 10.2119H33.2579C33.3818 10.2119 33.4825 10.3149 33.4825 10.4414L33.4824 12.9535ZM44.2617 12.9535H40.0919V10.9197C40.0919 10.7932 40.1926 10.6902 40.3165 10.6902H44.0371C44.161 10.6902 44.2617 10.7932 44.2617 10.9197V12.9535ZM48.9785 43.769C49.3501 43.769 49.6523 44.0779 49.6523 44.4575V46.0957C49.6523 46.4753 49.3501 46.7842 48.9785 46.7842H7.02148C6.64989 46.7842 6.34766 46.4753 6.34766 46.0957V44.4575C6.34766 44.0779 6.64989 43.769 7.02148 43.769H48.9785Z" fill=""/>
<path class="stepTwoPath" d="M28.2963 24.9998L29.3306 23.4626C29.4655 23.2621 29.7786 23.3576 29.7786 23.5993V28.8853C29.7786 29.0205 29.8882 29.1302 30.0234 29.1302H34.1757C34.3705 29.1302 34.4873 29.3466 34.3803 29.5095L28.7458 38.0838C28.6123 38.2869 28.2963 38.1924 28.2963 37.9493V32.6793C28.2963 32.5441 28.1867 32.4345 28.0515 32.4345H23.7735C23.5768 32.4345 23.4604 32.2144 23.5711 32.0518L25.4666 29.2678L26.5446 27.6845" stroke="" stroke-width="1.4" stroke-linecap="round"/>
</svg>
