<svg xmlns="http://www.w3.org/2000/svg" width="" height="" viewBox="0 0 34 34" fill="none">
<path class="stepOnePath" fill-rule="evenodd" clip-rule="evenodd" d="M29.1359 6.46939C29.2413 6.36402 29.3249 6.23892 29.3819 6.10125C29.4389 5.96357 29.4683 5.81601 29.4683 5.66699C29.4683 5.51797 29.4389 5.37041 29.3819 5.23274C29.3249 5.09506 29.2413 4.96996 29.1359 4.86459C29.0306 4.75922 28.9055 4.67563 28.7678 4.61861C28.6301 4.56158 28.4826 4.53223 28.3335 4.53223C28.1845 4.53223 28.037 4.56158 27.8993 4.61861C27.7616 4.67563 27.6365 4.75922 27.5311 4.86459L17.0002 15.3978L6.46927 4.86459C6.3639 4.75922 6.2388 4.67563 6.10113 4.61861C5.96345 4.56158 5.81589 4.53223 5.66687 4.53223C5.51785 4.53223 5.37029 4.56158 5.23261 4.61861C5.09494 4.67563 4.96984 4.75922 4.86447 4.86459C4.7591 4.96996 4.67551 5.09506 4.61848 5.23274C4.56146 5.37041 4.5321 5.51797 4.5321 5.66699C4.5321 5.81601 4.56146 5.96357 4.61848 6.10125C4.67551 6.23892 4.7591 6.36402 4.86447 6.46939L15.3977 17.0003L4.86447 27.5313C4.65166 27.7441 4.5321 28.0327 4.5321 28.3337C4.5321 28.6346 4.65166 28.9232 4.86447 29.1361C5.07728 29.3489 5.36591 29.4684 5.66687 29.4684C5.96783 29.4684 6.25646 29.3489 6.46927 29.1361L17.0002 18.6029L27.5311 29.1361C27.7439 29.3489 28.0326 29.4684 28.3335 29.4684C28.6345 29.4684 28.9231 29.3489 29.1359 29.1361C29.3487 28.9232 29.4683 28.6346 29.4683 28.3337C29.4683 28.0327 29.3487 27.7441 29.1359 27.5313L18.6027 17.0003L29.1359 6.46939Z" fill=""/>
</svg>