<svg width="56" height="56" viewBox="0 0 56 56" fill="none" xmlns="http://www.w3.org/2000/svg">
<path class="stepOnePath" d="M2.52111 31.9857C2.52111 25.1919 5.21992 18.6764 10.0238 13.8725C14.8277 9.06856 21.3433 6.36975 28.137 6.36975C34.9308 6.36975 41.4463 9.06856 46.2502 13.8725C51.0541 18.6764 53.7529 25.1919 53.7529 31.9857L28.137 31.9857L2.52111 31.9857Z" stroke="" stroke-width="1.62909"/>
<path class="stepOnePath" d="M10.1818 31.5635C10.1818 26.9728 12.059 22.5702 15.4006 19.3241C18.7421 16.078 23.2743 14.2544 27.9999 14.2544C32.7256 14.2544 37.2577 16.078 40.5993 19.3241C43.9408 22.5702 45.8181 26.9728 45.8181 31.5635" stroke="" stroke-width="1.62909"/>
<line class="stepOnePath" x1="28.7074" y1="5.88184" x2="28.7074" y2="14.1765" stroke="" stroke-width="1.62909"/>
<line class="stepOnePath" x1="8.95219" y1="14.5764" x2="14.8174" y2="20.4416" stroke="" stroke-width="1.62909"/>
<line class="stepOnePath" x1="48.3285" y1="15.8196" x2="41.5339" y2="20.5772" stroke="" stroke-width="1.62909"/>
<path class="stepOnePath" d="M28.8744 33.6046L40.6186 28.5345C40.9591 28.3875 40.8221 27.8762 40.4538 27.9191L27.7479 29.4003C27.5528 29.4231 27.4234 29.6137 27.4742 29.8034L28.4359 33.3924C28.4867 33.5821 28.6941 33.6825 28.8744 33.6046Z" fill="white" stroke="" stroke-width="1.62909" stroke-linecap="round"/>
<circle class="stepOnePath" cx="28.3805" cy="31.7423" r="2.43961" fill="white" stroke="" stroke-width="1.62909"/>
<path class="stepOnePath" d="M27.5028 38.1611L28.4348 36.8055C28.5758 36.6003 28.8973 36.7001 28.8973 36.9491V41.7107C28.8973 41.8508 29.0108 41.9643 29.1508 41.9643H32.9854C33.1883 41.9643 33.309 42.1907 33.1959 42.3592L27.9668 50.1471C27.8272 50.355 27.5028 50.2562 27.5028 50.0058V45.2603C27.5028 45.1203 27.3893 45.0068 27.2492 45.0068H23.2975C23.0927 45.0068 22.9724 44.7766 23.0894 44.6084L24.8406 42.091L25.8548 40.6332" stroke="" stroke-width="1.62909" stroke-linecap="round"/>
</svg>
