<svg width="" height="" viewBox="0 0 134 134" fill="none" xmlns="http://www.w3.org/2000/svg">
<path class="stepTwoPath" d="M41.5825 93.0391V106.191C41.5825 106.241 41.5741 106.292 41.5576 106.34L37.8279 117.155C37.8114 117.203 37.803 117.254 37.803 117.304V126.676" stroke="url(#paint0_linear_7956_591)" stroke-width="2.625" stroke-linecap="round"/>
<path class="stepTwoPath" d="M89.204 93.0391V106.191C89.204 106.241 89.1956 106.292 89.1791 106.34L85.4494 117.155C85.4329 117.203 85.4245 117.254 85.4245 117.304V126.676" stroke="url(#paint1_linear_7956_591)" stroke-width="2.625" stroke-linecap="round"/>
<path class="stepTwoPath" d="M45.7399 92.6602V105.798C45.7399 105.858 45.7517 105.917 45.7746 105.972L50.2406 116.765C50.2635 116.82 50.2753 116.88 50.2753 116.939V126.298" stroke="url(#paint2_linear_7956_591)" stroke-width="2.625" stroke-linecap="round"/>
<path class="stepTwoPath" d="M93.3614 92.6602V105.798C93.3614 105.858 93.3732 105.917 93.3961 105.972L97.8621 116.765C97.885 116.82 97.8968 116.88 97.8968 116.939V126.298" stroke="url(#paint3_linear_7956_591)" stroke-width="2.625" stroke-linecap="round"/>
<rect class="stepTwoPath" x="30.9999" y="28.4102" width="71.8102" height="49.1333" rx="3.02359" stroke="url(#paint4_linear_7956_591)" stroke-width="2.625"/>
<path class="stepTwoPath" d="M40.8266 11.0236C40.8266 9.3537 42.1803 8 43.8502 8H91.4717C93.1416 8 94.4953 9.35371 94.4953 11.0236V28.4092H40.8266V11.0236Z" stroke="url(#paint5_linear_7956_591)" stroke-width="2.625"/>
<path class="stepTwoPath" d="M74.842 8V14.8039C74.842 15.2213 74.5035 15.559 74.0861 15.559H68.7948" stroke="url(#paint6_linear_7956_591)" stroke-width="2.625"/>
<rect class="stepTwoPath" x="66.5271" y="11.0244" width="2.26769" height="15.1179" rx="1.13385" fill="url(#paint7_linear_7956_591)"/>
<circle class="stepTwoPath" cx="60.925" cy="21.1258" r="1.575" fill="#FF99A5"/>
<circle class="stepTwoPath" cx="75.6249" cy="21.1258" r="1.575" fill="#FF99A5"/>
<rect class="stepTwoPath" x="38.5589" y="77.542" width="9.07076" height="15.1179" rx="0.755897" stroke="url(#paint8_linear_7956_591)" stroke-width="2.625"/>
<rect class="stepTwoPath" x="86.9363" y="77.542" width="9.07076" height="15.1179" rx="0.755897" stroke="url(#paint9_linear_7956_591)" stroke-width="2.625"/>
<rect class="stepTwoPath" x="53.6768" y="77.542" width="27.2123" height="3.77948" rx="0.755897" stroke="url(#paint10_linear_7956_591)" stroke-width="2.625"/>
<defs>
<linearGradient id="paint0_linear_7956_591" x1="39.6927" y1="93.0391" x2="39.6927" y2="126.676" gradientUnits="userSpaceOnUse">
<stop class="stepTwoPath" stop-color="#F64153"/>
<stop class="stepTwoPath" offset="1" stop-color="#F52E42"/>
</linearGradient>
<linearGradient id="paint1_linear_7956_591" x1="87.3142" y1="93.0391" x2="87.3142" y2="126.676" gradientUnits="userSpaceOnUse">
<stop class="stepTwoPath" stop-color="#F64153"/>
<stop class="stepTwoPath" offset="1" stop-color="#F52E42"/>
</linearGradient>
<linearGradient id="paint2_linear_7956_591" x1="48.0076" y1="92.6602" x2="48.0076" y2="126.298" gradientUnits="userSpaceOnUse">
<stop class="stepTwoPath" stop-color="#F64153"/>
<stop class="stepTwoPath" offset="1" stop-color="#F52E42"/>
</linearGradient>
<linearGradient id="paint3_linear_7956_591" x1="95.6291" y1="92.6602" x2="95.6291" y2="126.298" gradientUnits="userSpaceOnUse">
<stop class="stepTwoPath" stop-color="#F64153"/>
<stop class="stepTwoPath" offset="1" stop-color="#F52E42"/>
</linearGradient>
<linearGradient id="paint4_linear_7956_591" x1="66.905" y1="28.4102" x2="66.905" y2="77.5434" gradientUnits="userSpaceOnUse">
<stop class="stepTwoPath" stop-color="#FF7A89"/>
<stop class="stepTwoPath" offset="1" stop-color="#FF5569"/>
</linearGradient>
<linearGradient id="paint5_linear_7956_591" x1="67.6609" y1="8" x2="67.6609" y2="28.4092" gradientUnits="userSpaceOnUse">
<stop class="stepTwoPath" stop-color="#FFADB5"/>
<stop class="stepTwoPath" offset="1" stop-color="#FF7B8A"/>
</linearGradient>
<linearGradient id="paint6_linear_7956_591" x1="71.8184" y1="8" x2="71.8184" y2="15.559" gradientUnits="userSpaceOnUse">
<stop class="stepTwoPath" stop-color="#FFAEB6"/>
<stop class="stepTwoPath" offset="1" stop-color="#FF99A4"/>
</linearGradient>
<linearGradient id="paint7_linear_7956_591" x1="67.6609" y1="11.0244" x2="67.6609" y2="26.1423" gradientUnits="userSpaceOnUse">
<stop class="stepTwoPath" stop-color="#FFA1AB"/>
<stop class="stepTwoPath" offset="1" stop-color="#FF8491"/>
</linearGradient>
<linearGradient id="paint8_linear_7956_591" x1="43.0943" y1="77.542" x2="43.0943" y2="92.6599" gradientUnits="userSpaceOnUse">
<stop class="stepTwoPath" stop-color="#FF5569"/>
<stop class="stepTwoPath" offset="1" stop-color="#F74053"/>
</linearGradient>
<linearGradient id="paint9_linear_7956_591" x1="91.4717" y1="77.542" x2="91.4717" y2="92.6599" gradientUnits="userSpaceOnUse">
<stop stop-color="#FF5569"/>
<stop offset="1" stop-color="#F74053"/>
</linearGradient>
<linearGradient id="paint10_linear_7956_591" x1="67.283" y1="77.542" x2="67.283" y2="81.3215" gradientUnits="userSpaceOnUse">
<stop class="stepTwoPath" stop-color="#FF566A"/>
<stop class="stepTwoPath" offset="1" stop-color="#FD4F63"/>
</linearGradient>
</defs>
</svg>
