<svg width="" height="" viewBox="0 0 134 134" fill="none" xmlns="http://www.w3.org/2000/svg">
<path class="stepTwoPath" d="M103.816 56.7475C104.626 56.7475 105.281 56.0916 105.281 55.2826C105.281 54.4736 104.626 53.8178 103.816 53.8178H94.4414C93.6322 53.8178 92.9766 54.4736 92.9766 55.2826C92.9766 56.0916 93.6322 56.7475 94.4414 56.7475H103.816ZM34.8711 49.1303C34.0619 49.1303 33.4062 49.7861 33.4062 50.5951V53.8178H30.1836C29.3744 53.8178 28.7188 54.4736 28.7188 55.2826C28.7188 56.0916 29.3744 56.7475 30.1836 56.7475H33.4062V59.9701C33.4062 60.7791 34.0619 61.435 34.8711 61.435C35.6803 61.435 36.3359 60.7791 36.3359 59.9701V56.7475H39.5586C40.3678 56.7475 41.0234 56.0916 41.0234 55.2826C41.0234 54.4736 40.3678 53.8178 39.5586 53.8178H36.3359V50.5951C36.3359 49.7861 35.6803 49.1303 34.8711 49.1303ZM112.605 46.2006C115.029 46.2006 117 44.2293 117 41.8061V38.3205C117 35.8973 115.029 33.926 112.605 33.926H105.281V29.5986C105.281 27.7141 103.748 26.1807 101.863 26.1807H93.775C91.8904 26.1807 90.357 27.7141 90.357 29.5986V33.926H81.8482V28.5811C81.8482 26.6965 80.3148 25.1631 78.4303 25.1631H55.5699C53.6854 25.1631 52.152 26.6965 52.152 28.5811V33.926H43.6432V29.5986C43.6432 27.7141 42.1098 26.1807 40.2252 26.1807H32.1367C30.2521 26.1807 28.7188 27.7141 28.7188 29.5986V33.926H21.3945C18.9715 33.926 17 35.8973 17 38.3205V41.8061C17 44.2293 18.9715 46.2006 21.3945 46.2006H22.8594V84.3578C22.8594 85.1668 23.515 85.8227 24.3242 85.8227C25.1334 85.8227 25.7891 85.1668 25.7891 84.3578V46.2006H72.0895C72.8986 46.2006 73.5543 45.5447 73.5543 44.7357C73.5543 43.9268 72.8986 43.2709 72.0895 43.2709H21.3945C20.5867 43.2709 19.9297 42.6137 19.9297 41.8061V38.3205C19.9297 37.5129 20.5867 36.8557 21.3945 36.8557H112.605C113.413 36.8557 114.07 37.5129 114.07 38.3205V41.8061C114.07 42.6137 113.413 43.2709 112.605 43.2709H78.9254C78.1162 43.2709 77.4605 43.9268 77.4605 44.7357C77.4605 45.5447 78.1162 46.2006 78.9254 46.2006H108.211V96.5611H25.7891V91.1937C25.7891 90.3848 25.1334 89.7289 24.3242 89.7289C23.515 89.7289 22.8594 90.3848 22.8594 91.1937V96.5611H21.3945C18.9715 96.5611 17 98.5324 17 100.956V104.441C17 106.864 18.9715 108.836 21.3945 108.836H112.605C115.029 108.836 117 106.864 117 104.441V100.956C117 98.5324 115.029 96.5611 112.605 96.5611H111.141V46.2006H112.605ZM40.7133 33.926H31.6484V29.5986C31.6484 29.3295 31.8674 29.1104 32.1367 29.1104H40.225C40.4943 29.1104 40.7133 29.3295 40.7133 29.5986V33.926ZM78.9184 33.926H55.0816V28.5811C55.0816 28.3119 55.3006 28.0928 55.5699 28.0928H78.4303C78.6996 28.0928 78.9186 28.3119 78.9186 28.5811L78.9184 33.926ZM102.352 33.926H93.2867V29.5986C93.2867 29.3295 93.5057 29.1104 93.775 29.1104H101.863C102.133 29.1104 102.352 29.3295 102.352 29.5986V33.926ZM112.605 99.4908C113.413 99.4908 114.07 100.148 114.07 100.956V104.441C114.07 105.249 113.413 105.906 112.605 105.906H21.3945C20.5867 105.906 19.9297 105.249 19.9297 104.441V100.956C19.9297 100.148 20.5867 99.4908 21.3945 99.4908H112.605Z" fill="url(#paint0_linear_7956_255)"/>
<path class="stepTwoPath" d="M67.6445 59.5512L69.7981 56.4187C70.1241 55.9446 70.8668 56.1752 70.8668 56.7506V67.7534C70.8668 68.077 71.1291 68.3393 71.4526 68.3393H80.3134C80.7822 68.3393 81.0612 68.8626 80.7998 69.2518L68.7168 87.2478C68.3942 87.7283 67.6445 87.4999 67.6445 86.9213V75.9557C67.6445 75.6321 67.3822 75.3698 67.0586 75.3698H57.9271C57.4539 75.3698 57.1759 74.8378 57.4462 74.4493L61.4928 68.6323L63.8363 65.2635" stroke="url(#paint1_linear_7956_255)" stroke-width="2.42718" stroke-linecap="round"/>
<defs>
<linearGradient  id="paint0_linear_7956_255" x1="67" y1="25.1631" x2="67" y2="108.836" gradientUnits="userSpaceOnUse">
<stop class="stepTwoPath" stop-color="#FF8A97"/>
<stop class="stepTwoPath" offset="1" stop-color="#FF2842"/>
</linearGradient>
<linearGradient id="paint1_linear_7956_255" x1="69.1092" y1="54.8643" x2="69.1092" y2="88.8448" gradientUnits="userSpaceOnUse">
<stop class="stepTwoPath" stop-color="#FF8A97"/>
<stop class="stepTwoPath" offset="1" stop-color="#FF2842"/>
</linearGradient>
</defs>
</svg>
