<svg  width="56" height="56" viewBox="0 0 56 56" fill="none" xmlns="http://www.w3.org/2000/svg">
<path class="stepOnePath" d="M2.52112 31.9857C2.52112 25.1919 5.21993 18.6764 10.0238 13.8725C14.8278 9.06857 21.3433 6.36975 28.137 6.36975C34.9308 6.36975 41.4463 9.06856 46.2502 13.8725C51.0541 18.6764 53.7529 25.1919 53.7529 31.9857L28.137 31.9857L2.52112 31.9857Z" stroke="" stroke-width="1.62909"/>
<path class="stepOnePath" d="M10.182 32.0723C10.182 27.3466 12.0593 22.8145 15.4008 19.4729C18.7424 16.1314 23.2745 14.2541 28.0002 14.2541C32.7259 14.2541 37.258 16.1314 40.5995 19.4729C43.9411 22.8145 45.8184 27.3466 45.8184 32.0723" stroke="" stroke-width="1.62909"/>
<line  class="stepOnePath" x1="28.7076" y1="5.88281" x2="28.7076" y2="14.1775" stroke="" stroke-width="1.62909"/>
<line class="stepOnePath" x1="8.95244" y1="14.5764" x2="14.8177" y2="20.4416" stroke="" stroke-width="1.62909"/>
<line class="stepOnePath" x1="48.3288" y1="15.8196" x2="41.5342" y2="20.5772" stroke="" stroke-width="1.62909"/>
<path  class="stepOnePath" d="M28.5909 29.387L16.3378 25.7135C15.9826 25.607 15.7585 26.0866 16.0682 26.2907L26.7487 33.3306C26.9127 33.4386 27.1344 33.376 27.2175 33.198L28.7901 29.8316C28.8733 29.6537 28.779 29.4434 28.5909 29.387Z" fill="" stroke="" stroke-width="1.62909" stroke-linecap="round"/>
<circle class="stepOnePath" cx="28.3808" cy="31.7423" r="2.43961" fill="" stroke="" stroke-width="1.62909"/>
<path class="stepOnePath" d="M27.503 38.1621L28.435 36.8065C28.5761 36.6013 28.8975 36.7011 28.8975 36.9501V41.7117C28.8975 41.8517 29.011 41.9653 29.151 41.9653H32.9856C33.1885 41.9653 33.3092 42.1917 33.1961 42.3601L27.9671 50.1481C27.8275 50.356 27.503 50.2572 27.503 50.0068V45.2613C27.503 45.1213 27.3895 45.0078 27.2495 45.0078H23.2977C23.093 45.0078 22.9727 44.7775 23.0896 44.6094L24.8408 42.092L25.855 40.6342" stroke="" stroke-width="1.62909" stroke-linecap="round"/>
</svg>
