<svg width="" height="" viewBox="0 0 134 134" fill="none" xmlns="http://www.w3.org/2000/svg">
<rect class="stepTwoPath" x="48.1166" y="22.7139" width="61.0134" height="90.4681" rx="12.6235" stroke="url(#paint0_linear_7956_412)" stroke-width="2.38074"/>
<path class="stepTwoPath" d="M62.844 39.5447C62.844 37.2208 64.7279 35.3369 67.0518 35.3369H90.1948C92.5187 35.3369 94.4026 37.2208 94.4026 39.5447V46.9084C94.4026 49.2323 92.5187 51.1162 90.1948 51.1162H67.0518C64.7279 51.1162 62.844 49.2323 62.844 46.9084V39.5447Z" stroke="url(#paint1_linear_7956_412)" stroke-width="2.38074"/>
<path class="stepTwoPath" d="M19.7138 50.0648C19.7138 48.9029 20.6557 47.9609 21.8177 47.9609H37.597C38.759 47.9609 39.7009 48.9029 39.7009 50.0648V58.4805C39.7009 63.1283 35.9331 66.8961 31.2853 66.8961H28.1294C23.4816 66.8961 19.7138 63.1283 19.7138 58.4805V50.0648Z" stroke="url(#paint2_linear_7956_412)" stroke-width="2.38074"/>
<path class="stepTwoPath" d="M21.8177 38.4926C21.8177 37.3306 22.7596 36.3887 23.9216 36.3887V36.3887C25.0836 36.3887 26.0255 37.3306 26.0255 38.4926V47.9602H21.8177V38.4926Z" stroke="url(#paint3_linear_7956_412)" stroke-width="2.38074"/>
<path class="stepTwoPath" d="M33.3892 38.4926C33.3892 37.3306 34.3311 36.3887 35.4931 36.3887V36.3887C36.6551 36.3887 37.597 37.3306 37.597 38.4926V47.9602H33.3892V38.4926Z" stroke="url(#paint4_linear_7956_412)" stroke-width="2.38074"/>
<path class="stepTwoPath" d="M48.2827 67.4717L55.5446 76.8085C55.6113 76.8942 55.6549 76.9957 55.6712 77.1031L60.9061 111.654" stroke="url(#paint5_linear_7956_412)" stroke-width="2.38074" stroke-linecap="round"/>
<path class="stepTwoPath" d="M108.521 68.4238L101.259 77.7606C101.192 77.8464 101.149 77.9478 101.132 78.0553L95.8974 112.606" stroke="url(#paint6_linear_7956_412)" stroke-width="2.38074" stroke-linecap="round"/>
<path class="stepTwoPath" d="M29.7074 67.4229V87.41C29.7074 90.3149 32.0622 92.6698 34.9671 92.6698H47.0646" stroke="url(#paint7_linear_7956_412)" stroke-width="2.38074" stroke-linecap="round"/>
<path class="stepTwoPath" d="M70.7336 79.5188L75.3648 62.0231C75.4275 61.7864 75.6207 61.6068 75.8615 61.5617L82.9268 60.2369C83.3773 60.1524 83.7661 60.5587 83.6619 61.0051L80.4209 74.8951C80.3171 75.3401 80.7032 75.7457 81.1527 75.6639L84.6909 75.0206C85.214 74.9255 85.6152 75.4771 85.3637 75.9455L72.6371 99.6433C72.2949 100.281 71.3239 99.941 71.4533 99.2294L74.8053 80.7931C74.8762 80.4034 74.5768 80.0448 74.1808 80.0448H70.7336" stroke="url(#paint8_linear_7956_412)" stroke-width="2.38074" stroke-linecap="round"/>
<defs>
<linearGradient id="paint0_linear_7956_412" x1="78.6233" y1="22.7139" x2="78.6233" y2="113.182" gradientUnits="userSpaceOnUse">
<stop class="stepTwoPath" stop-color="#FFACB4"/>
<stop class="stepTwoPath" offset="1" stop-color="#FF324B"/>
</linearGradient>
<linearGradient id="paint1_linear_7956_412" x1="78.6233" y1="35.3369" x2="78.6233" y2="51.1162" gradientUnits="userSpaceOnUse">
<stop class="stepTwoPath" stop-color="#FFABB4"/>
<stop  class="stepTwoPath" offset="1" stop-color="#FF8492"/>
</linearGradient>
<linearGradient id="paint2_linear_7956_412" x1="29.7073" y1="47.9609" x2="29.7073" y2="66.8961" gradientUnits="userSpaceOnUse">
<stop class="stepTwoPath" stop-color="#FF8996"/>
<stop class="stepTwoPath" offset="1" stop-color="#FF7383"/>
</linearGradient>
<linearGradient id="paint3_linear_7956_412" x1="23.9216" y1="36.3887" x2="23.9216" y2="47.9602" gradientUnits="userSpaceOnUse">
<stop class="stepTwoPath" stop-color="#FF9AA5"/>
<stop class="stepTwoPath" offset="1" stop-color="#FF8A97"/>
</linearGradient>
<linearGradient id="paint4_linear_7956_412" x1="35.4931" y1="36.3887" x2="35.4931" y2="47.9602" gradientUnits="userSpaceOnUse">
<stop class="stepTwoPath" stop-color="#FF9AA5"/>
<stop class="stepTwoPath" offset="1" stop-color="#FF8A97"/>
</linearGradient>
<linearGradient id="paint5_linear_7956_412" x1="54.5944" y1="67.4717" x2="54.5944" y2="111.654" gradientUnits="userSpaceOnUse">
<stop class="stepTwoPath" stop-color="#FF7383"/>
<stop class="stepTwoPath" offset="1" stop-color="#FF334C"/>
</linearGradient>
<linearGradient id="paint6_linear_7956_412" x1="102.209" y1="68.4238" x2="102.209" y2="112.606" gradientUnits="userSpaceOnUse">
<stop class="stepTwoPath" stop-color="#FF7282"/>
<stop class="stepTwoPath" offset="1" stop-color="#FF334C"/>
</linearGradient>
<linearGradient id="paint7_linear_7956_412" x1="38.386" y1="67.4229" x2="38.386" y2="92.6698" gradientUnits="userSpaceOnUse">
<stop class="stepTwoPath" stop-color="#FF7484"/>
<stop class="stepTwoPath" offset="1" stop-color="#FF4F64"/>
</linearGradient>
<linearGradient id="paint8_linear_7956_412" x1="78.3603" y1="60.0576" x2="78.3603" y2="103.188" gradientUnits="userSpaceOnUse">
<stop class="stepTwoPath" stop-color="#FF5D71"/>
<stop class="stepTwoPath" offset="1" stop-color="#FF334C"/>
</linearGradient>
</defs>
</svg>
