<svg xmlns="http://www.w3.org/2000/svg" width="" height="" viewBox="0 0 40 40" fill="none">
  <path d="M28.1081 14.0458C29.5231 14.0441 30.8797 13.4812 31.8802 12.4806C32.8807 11.48 33.4435 10.1234 33.445 8.70834C33.1652 1.63334 23.0499 1.6353 22.7712 8.7084C22.7727 10.1234 23.3355 11.48 24.336 12.4806C25.3365 13.4813 26.6931 14.0442 28.1081 14.0458ZM28.1081 4.62183C29.1916 4.62296 30.2303 5.05386 30.9965 5.81998C31.7626 6.5861 32.1935 7.62486 32.1946 8.70831C32.0029 14.1177 24.2126 14.1163 24.0216 8.70825C24.0228 7.6248 24.4537 6.58606 25.2198 5.81996C25.9859 5.05385 27.0247 4.62296 28.1081 4.62183ZM19.3292 8.08308H20.4681C20.6319 8.08622 20.7878 8.15347 20.9025 8.27037C21.0172 8.38728 21.0815 8.5445 21.0815 8.70827C21.0815 8.87203 21.0172 9.02927 20.9026 9.14618C20.7879 9.26309 20.6319 9.33036 20.4682 9.33351H19.3292C19.1655 9.33024 19.0097 9.26293 18.8951 9.14604C18.7805 9.02915 18.7164 8.87199 18.7164 8.70831C18.7164 8.54462 18.7805 8.38747 18.8951 8.27057C19.0097 8.15368 19.1655 8.08636 19.3292 8.08308ZM21.2888 12.2099C20.8726 12.4065 20.4407 12.5682 19.9978 12.6934C19.8544 12.6911 19.7162 12.6397 19.6061 12.5479C19.496 12.4561 19.4207 12.3293 19.3927 12.1887C19.3647 12.0481 19.3857 11.9022 19.4522 11.7752C19.5186 11.6481 19.6266 11.5477 19.7581 11.4906L20.8101 11.0547C20.9626 10.9951 21.1323 10.9976 21.2829 11.0617C21.4335 11.1258 21.553 11.2465 21.6156 11.3977C21.6783 11.5489 21.6792 11.7187 21.6181 11.8705C21.5569 12.0224 21.4387 12.1442 21.2888 12.2099ZM21.4585 14.4738L22.2638 13.6685C22.3219 13.6103 22.3908 13.564 22.4667 13.5325C22.5426 13.5009 22.624 13.4846 22.7062 13.4845C22.7884 13.4844 22.8698 13.5006 22.9457 13.532C23.0217 13.5634 23.0907 13.6095 23.1488 13.6676C23.207 13.7257 23.2531 13.7948 23.2845 13.8707C23.3159 13.9467 23.332 14.0281 23.3319 14.1103C23.3319 14.1925 23.3156 14.2739 23.284 14.3498C23.2524 14.4257 23.2062 14.4946 23.1479 14.5526L22.3426 15.3579C22.2254 15.4752 22.0664 15.541 21.9006 15.541C21.7348 15.541 21.5758 15.4752 21.4585 15.3579C21.3413 15.2407 21.2754 15.0817 21.2754 14.9159C21.2754 14.7501 21.3413 14.5911 21.4585 14.4738ZM25.7617 16.0063L25.3258 17.0583C25.2944 17.1342 25.2483 17.2031 25.1902 17.2611C25.1322 17.3192 25.0632 17.3652 24.9874 17.3966C24.9115 17.428 24.8302 17.4442 24.7481 17.4442C24.666 17.4442 24.5847 17.428 24.5089 17.3966C24.433 17.3651 24.3641 17.3191 24.3061 17.261C24.248 17.2029 24.202 17.134 24.1706 17.0582C24.1391 16.9823 24.123 16.901 24.123 16.8189C24.123 16.7368 24.1392 16.6555 24.1706 16.5796L24.6066 15.5276C24.67 15.3745 24.7918 15.2528 24.945 15.1893C25.0982 15.1259 25.2703 15.1259 25.4235 15.1894C25.5767 15.2529 25.6984 15.3746 25.7618 15.5278C25.8252 15.681 25.8252 15.8531 25.7617 16.0063ZM28.7333 16.3482V17.4875C28.7333 17.6534 28.6675 17.8124 28.5502 17.9296C28.433 18.0469 28.2739 18.1128 28.1081 18.1128C27.9423 18.1128 27.7833 18.0469 27.666 17.9296C27.5488 17.8124 27.4829 17.6534 27.4829 17.4875V16.3483C27.4829 16.1824 27.5488 16.0234 27.666 15.9062C27.7833 15.7889 27.9423 15.723 28.1081 15.723C28.2739 15.723 28.433 15.7889 28.5502 15.9062C28.6675 16.0234 28.7333 16.1824 28.7333 16.3482ZM32.045 16.5796C32.0766 16.6555 32.093 16.7369 32.0931 16.8191C32.0932 16.9013 32.0772 16.9827 32.0458 17.0587C32.0144 17.1347 31.9684 17.2038 31.9103 17.2619C31.8522 17.3201 31.7832 17.3662 31.7072 17.3977C31.6313 17.4292 31.5499 17.4454 31.4677 17.4453C31.3855 17.4453 31.3041 17.4291 31.2282 17.3975C31.1522 17.366 31.0833 17.3198 31.0252 17.2616C30.9672 17.2034 30.9212 17.1343 30.8898 17.0583L30.4539 16.0064C30.3941 15.8539 30.3965 15.684 30.4606 15.5333C30.5247 15.3826 30.6454 15.263 30.7967 15.2003C30.948 15.1376 31.1178 15.1368 31.2697 15.198C31.4216 15.2592 31.5435 15.3775 31.6091 15.5276L32.045 16.5796ZM34.7577 14.4738C34.8712 14.5918 34.934 14.7496 34.9324 14.9133C34.9308 15.0771 34.8651 15.2337 34.7493 15.3494C34.6335 15.4652 34.4769 15.531 34.3132 15.5326C34.1495 15.5341 33.9916 15.4714 33.8737 15.3579L33.0683 14.5526C32.955 14.4346 32.8924 14.2768 32.894 14.1132C32.8956 13.9495 32.9614 13.793 33.0771 13.6773C33.1928 13.5615 33.3493 13.4958 33.513 13.4942C33.6766 13.4925 33.8344 13.5551 33.9524 13.6685L34.7577 14.4738ZM36.2188 12.6934C35.7755 12.5684 35.3434 12.4066 34.9269 12.2099C34.777 12.1442 34.6587 12.0224 34.5976 11.8705C34.5365 11.7187 34.5373 11.5489 34.6 11.3977C34.6627 11.2464 34.7821 11.1258 34.9327 11.0617C35.0834 10.9975 35.2531 10.995 35.4056 11.0547L36.4582 11.4906C36.5896 11.5477 36.6976 11.6481 36.7641 11.7751C36.8306 11.9021 36.8516 12.048 36.8236 12.1886C36.7956 12.3291 36.7203 12.4559 36.6103 12.5478C36.5003 12.6396 36.3621 12.691 36.2188 12.6934ZM36.8868 9.33351H35.7481C35.5826 9.33299 35.4241 9.26689 35.3073 9.14969C35.1904 9.0325 35.1248 8.87377 35.1248 8.7083C35.1248 8.54282 35.1904 8.3841 35.3073 8.2669C35.4241 8.14971 35.5826 8.08361 35.7481 8.08308H36.8868C37.0505 8.08623 37.2065 8.15349 37.3212 8.27039C37.4358 8.3873 37.5001 8.54453 37.5001 8.7083C37.5001 8.87206 37.4358 9.02929 37.3212 9.1462C37.2065 9.26311 37.0505 9.33036 36.8868 9.33351ZM13.6327 14.3884C10.6811 14.3918 7.85138 15.5658 5.76433 17.6529C3.67728 19.74 2.50332 22.5697 2.5 25.5213C3.11164 40.2907 24.1559 40.2864 24.7653 25.5212C24.762 22.5697 23.588 19.74 21.501 17.6529C19.4139 15.5658 16.5842 14.3918 13.6327 14.3884ZM13.6327 35.4039C11.0126 35.4008 8.50073 34.3587 6.6481 32.506C4.79546 30.6533 3.75337 28.1414 3.75042 25.5213C4.29334 12.4108 22.974 12.4146 23.5149 25.5214C23.5119 28.1414 22.4698 30.6533 20.6172 32.506C18.7646 34.3587 16.2527 35.4008 13.6327 35.4039ZM17.3962 27.8763C16.8116 28.122 16.2144 28.3362 15.6069 28.5179C15.4623 28.5154 15.3229 28.463 15.2125 28.3695C15.102 28.276 15.0273 28.1472 15.001 28.005C14.9746 27.8627 14.9983 27.7157 15.0679 27.5888C15.1376 27.462 15.2489 27.3632 15.3831 27.309L15.693 27.1902L13.3411 25.9505C13.2404 25.8974 13.1561 25.8179 13.0973 25.7204C13.0385 25.6229 13.0074 25.5112 13.0075 25.3974V20.309L12.8906 20.4213C12.7704 20.5326 12.6114 20.5922 12.4477 20.5875C12.284 20.5827 12.1287 20.5139 12.0151 20.3959C11.9016 20.2778 11.839 20.1199 11.8407 19.9562C11.8424 19.7924 11.9082 19.6358 12.0242 19.5201L13.2144 18.3759C13.3297 18.2649 13.4832 18.2023 13.6432 18.2011C13.8033 18.2 13.9577 18.2604 14.0744 18.3698L15.2998 19.514C15.4174 19.628 15.4856 19.7837 15.4897 19.9474C15.4937 20.1112 15.4333 20.27 15.3215 20.3897C15.2096 20.5094 15.0552 20.5805 14.8916 20.5875C14.7279 20.5945 14.568 20.5371 14.4462 20.4274L14.2579 20.2517V25.0201L16.0939 25.9878C16.0596 25.9105 16.0412 25.8269 16.0399 25.7423C16.0387 25.6576 16.0546 25.5736 16.0867 25.4953C16.1188 25.4169 16.1664 25.3459 16.2267 25.2865C16.287 25.2271 16.3587 25.1804 16.4375 25.1495C16.5163 25.1185 16.6005 25.1038 16.6851 25.1062C16.7697 25.1087 16.853 25.1282 16.9298 25.1637C17.0067 25.1992 17.0756 25.2499 17.1323 25.3127C17.1891 25.3755 17.2325 25.4492 17.26 25.5293L17.7584 27.0725C17.8159 27.2272 17.8101 27.3983 17.7423 27.5487C17.6745 27.6992 17.5501 27.8169 17.3962 27.8763Z" fill=""/>
</svg>