<svg width="" height="" viewBox="0 0 134 134" fill="none" xmlns="http://www.w3.org/2000/svg">
<path class="stepTwoPath" d="M41.5827 93.0391V106.191C41.5827 106.241 41.5743 106.292 41.5578 106.34L37.8281 117.155C37.8116 117.203 37.8032 117.254 37.8032 117.304V126.676" stroke="white" stroke-width="2.625" stroke-linecap="round"/>
<path class="stepTwoPath" d="M89.2038 93.0391V106.191C89.2038 106.241 89.1954 106.292 89.1789 106.34L85.4492 117.155C85.4327 117.203 85.4243 117.254 85.4243 117.304V126.676" stroke="white" stroke-width="2.625" stroke-linecap="round"/>
<path class="stepTwoPath" d="M45.7397 92.6602V105.798C45.7397 105.858 45.7515 105.917 45.7744 105.972L50.2405 116.765C50.2634 116.82 50.2751 116.88 50.2751 116.939V126.298" stroke="white" stroke-width="2.625" stroke-linecap="round"/>
<path class="stepTwoPath" d="M93.3613 92.6602V105.798C93.3613 105.858 93.3731 105.917 93.396 105.972L97.862 116.765C97.8849 116.82 97.8967 116.88 97.8967 116.939V126.298" stroke="white" stroke-width="2.625" stroke-linecap="round"/>
<rect class="stepTwoPath" x="31" y="28.4102" width="71.8102" height="49.1333" rx="3.02359" stroke="white" stroke-width="2.625"/>
<path class="stepTwoPath" d="M40.8267 11.0236C40.8267 9.3537 42.1804 8 43.8502 8H91.4718C93.1416 8 94.4953 9.35371 94.4953 11.0236V28.4092H40.8267V11.0236Z" stroke="white" stroke-width="2.625"/>
<path class="stepTwoPath" d="M74.8421 8V14.8039C74.8421 15.2213 74.5037 15.559 74.0862 15.559H68.7949" stroke="white" stroke-width="2.625"/>
<rect class="stepTwoPath" x="66.5269" y="11.0244" width="2.26769" height="15.1179" rx="1.13385" fill="white"/>
<circle class="stepTwoPath" cx="60.9251" cy="21.1258" r="1.575" fill="white"/>
<circle class="stepTwoPath" cx="75.6248" cy="21.1258" r="1.575" fill="white"/>
<rect class="stepTwoPath" x="38.5591" y="77.542" width="9.07076" height="15.1179" rx="0.755897" stroke="white" stroke-width="2.625"/>
<rect class="stepTwoPath" x="86.9365" y="77.542" width="9.07076" height="15.1179" rx="0.755897" stroke="white" stroke-width="2.625"/>
<rect class="stepTwoPath" x="53.6768" y="77.542" width="27.2123" height="3.77948" rx="0.755897" stroke="white" stroke-width="2.625"/>
</svg>
