<svg width="56" height="56" viewBox="0 0 56 56" fill="none" xmlns="http://www.w3.org/2000/svg">
<path class="stepTwoPath" d="M17.3773 38.8818V44.3781C17.3773 44.3992 17.3738 44.4202 17.3669 44.4402L15.8083 48.9603C15.8014 48.9803 15.7979 49.0013 15.7979 49.0225V52.9393" stroke="" stroke-width="1.4" stroke-linecap="round"/>
<path class="stepTwoPath" d="M37.2792 38.8818V44.3781C37.2792 44.3992 37.2757 44.4202 37.2688 44.4402L35.7101 48.9603C35.7032 48.9803 35.6997 49.0013 35.6997 49.0225V52.9393" stroke="" stroke-width="1.4" stroke-linecap="round"/>
<path class="stepTwoPath" d="M19.1152 38.7236V44.214C19.1152 44.239 19.1202 44.2637 19.1297 44.2868L20.9961 48.7973C21.0057 48.8204 21.0106 48.8452 21.0106 48.8702V52.7811" stroke="" stroke-width="1.4" stroke-linecap="round"/>
<path class="stepTwoPath" d="M39.0166 38.7236V44.214C39.0166 44.239 39.0215 44.2637 39.0311 44.2868L40.8975 48.7973C40.9071 48.8204 40.912 48.8452 40.912 48.8702V52.7811" stroke="" stroke-width="1.4" stroke-linecap="round"/>
<rect class="stepTwoPath" x="12.9551" y="11.874" width="30.0102" height="20.5333" rx="1.2636" stroke="" stroke-width="1.4"/>
<path class="stepTwoPath" d="M17.0615 4.60735C17.0615 3.90948 17.6273 3.34375 18.3251 3.34375H38.2266C38.9245 3.34375 39.4902 3.90948 39.4902 4.60735V11.873H17.0615V4.60735Z" stroke="" stroke-width="1.4"/>
<path class="stepTwoPath" d="M31.2772 3.34375V6.18716C31.2772 6.36162 31.1357 6.50272 30.9613 6.50272H28.75" stroke="" stroke-width="1.4"/>
<rect class="stepTwoPath" x="27" y="5" width="2" height="6" rx="1" fill=""/>
<circle class="stepTwoPath" cx="24" cy="9" r="1" fill=""/>
<circle class="stepTwoPath" cx="33" cy="9" r="1" fill=""/>
<rect class="stepTwoPath" x="16.1138" y="32.4053" width="3.79077" height="6.31794" rx="0.3159" stroke="" stroke-width="1.4"/>
<rect class="stepTwoPath" x="36.3315" y="32.4053" width="3.79077" height="6.31794" rx="0.3159" stroke="" stroke-width="1.4"/>
<rect class="stepTwoPath" x="22.4316" y="32.4053" width="11.3723" height="1.57949" rx="0.3159" stroke="" stroke-width="1.4"/>
</svg>
