<svg width="" height="" viewBox="0 0 134 134" fill="none" xmlns="http://www.w3.org/2000/svg">
<rect class="stepTwoPath" x="48.1167" y="22.7139" width="61.0134" height="90.4681" rx="12.6235" stroke="white" stroke-width="2.38074"/>
<path class="stepTwoPath" d="M62.8442 39.5447C62.8442 37.2208 64.7281 35.3369 67.0521 35.3369H90.1951C92.519 35.3369 94.4029 37.2208 94.4029 39.5447V46.9084C94.4029 49.2323 92.519 51.1162 90.1951 51.1162H67.0521C64.7281 51.1162 62.8442 49.2323 62.8442 46.9084V39.5447Z" stroke="white" stroke-width="2.38074"/>
<path class="stepTwoPath" d="M19.7139 50.0648C19.7139 48.9029 20.6558 47.9609 21.8178 47.9609H37.5971C38.7591 47.9609 39.701 48.9029 39.701 50.0648V58.4805C39.701 63.1283 35.9332 66.8961 31.2854 66.8961H28.1295C23.4817 66.8961 19.7139 63.1283 19.7139 58.4805V50.0648Z" stroke="white" stroke-width="2.38074"/>
<path class="stepTwoPath" d="M21.8179 38.4926C21.8179 37.3306 22.7598 36.3887 23.9218 36.3887V36.3887C25.0837 36.3887 26.0257 37.3306 26.0257 38.4926V47.9602H21.8179V38.4926Z" stroke="white" stroke-width="2.38074"/>
<path class="stepTwoPath" d="M33.3892 38.4926C33.3892 37.3306 34.3311 36.3887 35.4931 36.3887V36.3887C36.655 36.3887 37.597 37.3306 37.597 38.4926V47.9602H33.3892V38.4926Z" stroke="white" stroke-width="2.38074"/>
<path class="stepTwoPath" d="M48.2827 67.4717L55.5447 76.8085C55.6114 76.8942 55.6549 76.9957 55.6712 77.1031L60.9062 111.654" stroke="white" stroke-width="2.38074" stroke-linecap="round"/>
<path  class="stepTwoPath" d="M108.521 68.4238L101.259 77.7606C101.192 77.8464 101.149 77.9478 101.132 78.0553L95.8975 112.606" stroke="white" stroke-width="2.38074" stroke-linecap="round"/>
<path class="stepTwoPath" d="M29.7075 67.4229V87.41C29.7075 90.3149 32.0624 92.6698 34.9673 92.6698H47.0648" stroke="white" stroke-width="2.38074" stroke-linecap="round"/>
<path class="stepTwoPath" d="M70.7339 79.5188L75.3651 62.0231C75.4278 61.7864 75.621 61.6068 75.8618 61.5617L82.9271 60.2369C83.3776 60.1524 83.7664 60.5587 83.6622 61.0051L80.4212 74.8951C80.3174 75.3401 80.7035 75.7457 81.153 75.6639L84.6912 75.0206C85.2143 74.9255 85.6155 75.4771 85.364 75.9455L72.6374 99.6433C72.2952 100.281 71.3242 99.941 71.4536 99.2294L74.8056 80.7931C74.8765 80.4034 74.5771 80.0448 74.1811 80.0448H70.7339" stroke="white" stroke-width="2.38074" stroke-linecap="round"/>
</svg>
