<svg xmlns="http://www.w3.org/2000/svg" width="" height="" viewBox="0 0 40 40" fill="none">
  <path class="stepFourPath" d="M18.6754 19.2994C18.5154 19.2994 18.3554 19.2381 18.2335 19.1163L13.3722 14.255C13.1279 14.0106 13.1279 13.6156 13.3722 13.3713C13.6166 13.1269 14.0116 13.1269 14.256 13.3713L19.1172 18.2325C19.3616 18.4769 19.3616 18.8719 19.1172 19.1163C18.9954 19.2381 18.8354 19.2994 18.6754 19.2994Z" fill=""/>
  <path class="stepFourPath" d="M21.3273 19.2994C21.1673 19.2994 21.0073 19.2381 20.8854 19.1163C20.6411 18.8719 20.6411 18.4769 20.8854 18.2325L25.7467 13.3713C25.9911 13.1269 26.3861 13.1269 26.6304 13.3713C26.8748 13.6156 26.8748 14.0106 26.6304 14.255L21.7692 19.1163C21.6473 19.2381 21.4873 19.2994 21.3273 19.2994Z" fill=""/>
  <path class="stepFourPath" d="M20.0015 22.439C18.759 22.439 17.5015 21.6015 17.5015 20.0003C17.5015 18.399 18.759 17.5615 20.0015 17.5615C21.2433 17.5615 22.5015 18.399 22.5015 20.0003C22.5015 21.6015 21.2433 22.439 20.0015 22.439ZM20.0015 18.8115C19.4246 18.8115 18.7515 19.1228 18.7515 20.0003C18.7515 20.8778 19.4252 21.189 20.0015 21.189C20.5777 21.189 21.2515 20.8778 21.2515 20.0003C21.2515 19.1228 20.5777 18.8115 20.0015 18.8115Z" fill=""/>
  <path d="M24.2027 11.5507C24.1146 11.5507 24.0259 11.5319 23.9409 11.4925C23.6271 11.3475 23.4909 10.9757 23.6365 10.6625L24.1621 9.52817C24.3065 9.21504 24.6777 9.07817 24.9915 9.22379C25.3052 9.36879 25.4415 9.74067 25.2959 10.0538L24.7702 11.1882C24.6646 11.4163 24.439 11.5507 24.2027 11.5507Z" fill=""/>
  <path class="stepFourPath" d="M26.3044 7.0134C26.2163 7.0134 26.1276 6.99527 26.0426 6.95589C25.7294 6.81089 25.5926 6.43902 25.7382 6.12589L26.2632 4.99152C26.4076 4.67839 26.7794 4.54214 27.0926 4.68652C27.4057 4.83152 27.5426 5.20339 27.3969 5.51652L26.8719 6.6509C26.7663 6.87902 26.5407 7.0134 26.3044 7.0134Z" fill=""/>
  <path class="stepFourPath" d="M24.2027 11.5504C23.9027 11.5504 23.6377 11.3336 23.5871 11.0273C23.5308 10.6867 23.7608 10.3648 24.1015 10.3086L27.8521 9.6892L26.2458 5.4767C26.1233 5.1542 26.2852 4.79295 26.6071 4.66982C26.9296 4.54732 27.2908 4.7092 27.414 5.03107L29.2927 9.95795C29.359 10.1336 29.344 10.3292 29.2508 10.4917C29.1577 10.6542 28.9958 10.7661 28.8108 10.7973L24.3058 11.5417C24.2702 11.5479 24.2358 11.5504 24.2027 11.5504Z" fill=""/>
  <path class="stepFourPath" d="M19.9807 31.8488C17.6901 31.8488 15.3919 31.2007 13.4051 29.8769C8.27944 26.4632 6.62944 19.5694 9.64694 14.1844C12.6576 8.81318 19.3994 6.63443 24.9907 9.22505C25.3038 9.37005 25.4407 9.7413 25.2951 10.0551C25.1501 10.3676 24.7782 10.5038 24.4657 10.3594C19.4588 8.04193 13.4301 9.99068 10.7376 14.7957C8.03694 19.6151 9.51256 25.7832 14.0976 28.8376C18.1801 31.5569 23.7288 31.0932 27.2926 27.7338C31.3319 23.9276 31.7007 17.3807 28.1132 13.1394C27.8907 12.8757 27.9232 12.4813 28.1869 12.2582C28.4501 12.0351 28.8444 12.0688 29.0676 12.3319C33.0763 17.0719 32.6644 24.3894 28.1488 28.6438C25.9019 30.7607 22.9482 31.8488 19.9807 31.8488Z" fill=""/>
  <path class="stepFourPath" d="M19.958 35.625C18.9255 35.625 17.888 35.5219 16.8592 35.31C10.9917 34.1006 6.27049 29.5619 4.83049 23.7463C3.38174 17.8944 5.46986 11.6613 10.1505 7.8669C14.7517 4.13815 21.1955 3.3344 26.5661 5.82252C26.8792 5.96752 27.0161 6.33877 26.8705 6.6519C26.7261 6.96502 26.353 7.10065 26.0411 6.95627C21.0992 4.66815 15.1705 5.40627 10.9374 8.83815C6.63174 12.3281 4.71049 18.0625 6.04299 23.4463C7.36736 28.7975 11.7117 32.9738 17.1105 34.0863C22.4067 35.1775 27.9811 33.1313 31.3149 28.8731C35.4449 23.5963 35.2849 15.7738 30.9411 10.6769C30.7174 10.4144 30.748 10.02 31.0111 9.79565C31.2736 9.57252 31.668 9.60252 31.8917 9.86627C36.6905 15.4963 36.8611 23.8138 32.298 29.6438C29.3242 33.445 24.7036 35.625 19.958 35.625Z" fill=""/>
</svg>