<svg xmlns="http://www.w3.org/2000/svg" width="" height="" viewBox="0 0 40 40" fill="none">
  <path class="stepFivePath" d="M35.4168 12.51V23.5217C35.4172 24.3895 35.2466 25.2488 34.9148 26.0507C34.583 26.8525 34.0964 27.5811 33.4828 28.1948C32.8693 28.8085 32.1408 29.2953 31.339 29.6274C30.5373 29.9594 29.6779 30.1302 28.8101 30.13H24.4051L20.7718 33.7633C20.6727 33.8683 20.5532 33.9519 20.4207 34.0091C20.2881 34.0662 20.1453 34.0957 20.001 34.0957C19.8566 34.0957 19.7138 34.0662 19.5812 34.0091C19.4487 33.9519 19.3292 33.8683 19.2301 33.7633L15.5968 30.13H11.1885C10.3207 30.13 9.46147 29.959 8.65981 29.6269C7.85814 29.2948 7.12975 28.808 6.51625 28.1944C5.90274 27.5807 5.41613 26.8522 5.08421 26.0504C4.75229 25.2487 4.58157 24.3894 4.58179 23.5217V12.51C4.58179 10.7578 5.27784 9.07736 6.51684 7.83837C7.75583 6.59938 9.43626 5.90332 11.1885 5.90332H28.8085C30.5607 5.90332 32.2411 6.59938 33.4801 7.83837C34.7191 9.07736 35.4168 10.7578 35.4168 12.51Z" stroke="" stroke-width="1.5" stroke-linecap="round" stroke-linejoin="round"/>
  <path class="stepFivePath" d="M15.8987 13.6415C16.3028 12.76 16.9894 12.0385 17.8497 11.5912C18.71 11.1438 19.695 10.9961 20.6487 11.1715C21.3021 11.2717 21.9228 11.5236 22.4612 11.9071C22.9996 12.2906 23.4405 12.795 23.7487 13.3798C23.9708 13.8477 24.0914 14.3573 24.1024 14.875C24.1135 15.3928 24.0147 15.9071 23.8127 16.384C23.6107 16.8609 23.31 17.2896 22.9304 17.6419C22.5509 17.9942 22.1009 18.2622 21.6103 18.4282C21.1104 18.6181 20.6779 18.9518 20.3674 19.3873C20.0568 19.8227 19.8821 20.3403 19.8653 20.8748V21.8848" stroke="" stroke-width="1.5" stroke-miterlimit="10" stroke-linecap="round"/>
  <path class="stepFivePath" d="M19.8301 26.2769H19.8403" stroke="" stroke-width="1.5" stroke-linecap="round" stroke-linejoin="round"/>
</svg>