<svg width="" height="" viewBox="0 0 134 134" fill="none" xmlns="http://www.w3.org/2000/svg">
<path class="stepOnePath" d="M6.00006 76.1289C6.00005 59.9593 12.4234 44.4519 23.8571 33.0182C35.2908 21.5846 50.7981 15.1612 66.9678 15.1612C83.1374 15.1612 98.6448 21.5846 110.078 33.0182C121.512 44.4519 127.936 59.9593 127.936 76.1289L66.9678 76.1289L6.00006 76.1289Z" stroke="white" stroke-width="3"/>
<path class="stepOnePath" d="M24.5805 75.548C24.5805 64.4603 28.9851 53.8266 36.8253 45.9864C44.6655 38.1462 55.2991 33.7416 66.3869 33.7416C77.4747 33.7416 88.1083 38.1462 95.9485 45.9864C103.789 53.8266 108.193 64.4603 108.193 75.548L66.3869 75.548L24.5805 75.548Z" stroke="white" stroke-width="3"/>
<line class="stepOnePath" x1="67.8872" y1="14" x2="67.8872" y2="33.7419" stroke="white" stroke-width="3"/>
<line class="stepOnePath" x1="20.9962" y1="35.0038" x2="34.9559" y2="48.9634" stroke="white" stroke-width="3"/>
<line class="stepOnePath" x1="114.774" y1="37.2932" x2="98.6023" y2="48.6167" stroke="white" stroke-width="3"/>
<path class="stepOnePath" d="M67.6654 70.1619L38.0412 63.137C37.1824 62.9333 36.7167 64.104 37.4808 64.5458L63.8364 79.7879C64.2411 80.0219 64.7592 79.8422 64.932 79.4078L68.2005 71.1907C68.3733 70.7563 68.1202 70.2698 67.6654 70.1619Z" fill="#F32C40" stroke="white" stroke-width="3" stroke-linecap="round"/>
<circle class="stepOnePath" cx="67.5486" cy="75.5486" r="5.80645" fill="#F32C40" stroke="white" stroke-width="3"/>
<path class="stepOnePath" d="M65.4592 90.8276L67.6775 87.601C68.0132 87.1127 68.7782 87.3503 68.7782 87.9429V99.2759C68.7782 99.6091 69.0483 99.8793 69.3816 99.8793H78.5082C78.9911 99.8793 79.2784 100.418 79.0092 100.819L66.5636 119.355C66.2314 119.85 65.4592 119.615 65.4592 119.019V107.724C65.4592 107.391 65.189 107.121 64.8558 107.121H55.4503C54.9629 107.121 54.6766 106.573 54.9549 106.173L59.123 100.181L61.5368 96.7112" stroke="white" stroke-width="3" stroke-linecap="round"/>
</svg>
