<svg width="56" height="56" viewBox="0 0 56 56" fill="none" xmlns="http://www.w3.org/2000/svg">
<path class="stepOnePath" d="M2.52112 31.9847C2.52112 25.1909 5.21993 18.6754 10.0238 13.8715C14.8278 9.06759 21.3433 6.36878 28.137 6.36878C34.9308 6.36878 41.4463 9.06759 46.2502 13.8715C51.0541 18.6754 53.7529 25.1909 53.7529 31.9847L28.137 31.9847L2.52112 31.9847Z" stroke="" stroke-width="1.62909"/>
<path class="stepOnePath" d="M10.3276 31.7422C10.3276 27.0836 12.1782 22.6158 15.4724 19.3217C18.7665 16.0276 23.2342 14.177 27.8928 14.177C32.5514 14.177 37.0192 16.0276 40.3133 19.3217C43.6074 22.6158 45.458 27.0836 45.458 31.7422" stroke="" stroke-width="1.62909"/>
<line class="stepOnePath" x1="28.3053" y1="6.10938" x2="28.3053" y2="14.404" stroke="" stroke-width="1.62909"/>
<path class="stepOnePath" d="M9.16357 13.7451L14.817 19.5435" stroke="" stroke-width="1.62909"/>
<path class="stepOnePath" d="M47.8545 15.2725L41.527 19.6792" stroke="" stroke-width="1.62909"/>
<path class="stepOnePath" d="M30.5985 31.1779L22.6392 21.1638C22.4085 20.8735 21.9507 21.1392 22.0882 21.4836L26.8339 33.3626C26.9068 33.545 27.1246 33.6202 27.2945 33.5216L30.5081 31.6567C30.678 31.5581 30.7208 31.3317 30.5985 31.1779Z" fill="white" stroke="" stroke-width="1.62909" stroke-linecap="round"/>
<circle class="stepOnePath" cx="28.3805" cy="31.7414" r="2.43961" fill="white" stroke="" stroke-width="1.62909"/>
<path class="stepOnePath" d="M27.503 38.1621L28.435 36.8065C28.5761 36.6013 28.8975 36.7011 28.8975 36.9501V41.7117C28.8975 41.8517 29.011 41.9653 29.151 41.9653H32.9856C33.1885 41.9653 33.3092 42.1917 33.1961 42.3601L27.9671 50.1481C27.8275 50.356 27.503 50.2572 27.503 50.0068V45.2613C27.503 45.1213 27.3895 45.0078 27.2495 45.0078H23.2977C23.093 45.0078 22.9727 44.7775 23.0896 44.6094L24.8408 42.092L25.855 40.6342" stroke="" stroke-width="1.62909" stroke-linecap="round"/>
</svg>
