<svg xmlns="http://www.w3.org/2000/svg" width="" height="" viewBox="0 0 40 40" fill="none">
  <g clip-path="url(#clip0_6729_368)">
    <path d="M27.4652 6.87746C27.7888 6.87746 28.0511 6.6152 28.0511 6.29152V3.6123C28.0511 3.28863 27.7888 3.02637 27.4652 3.02637C27.1415 3.02637 26.8792 3.28863 26.8792 3.6123V6.29152C26.8792 6.6152 27.1415 6.87746 27.4652 6.87746ZM32.6493 7.21543L35.2902 4.57441C35.5191 4.34551 35.5191 3.97457 35.2902 3.74574C35.0613 3.51699 34.6904 3.51699 34.4616 3.74574L31.8206 6.38676C31.5918 6.61566 31.5918 6.9866 31.8206 7.21543C32.0495 7.44426 32.4204 7.44418 32.6493 7.21543ZM4.73492 11.0015H29.729C30.0526 11.0015 30.3149 10.7393 30.3149 10.4156C30.3149 10.0919 30.0526 9.82965 29.729 9.82965H21.7301V8.64465C21.7301 7.78934 21.0342 7.09348 20.1788 7.09348H16.925C16.0696 7.09348 15.3737 7.78934 15.3737 8.64465V9.82965H13.1223V8.64465C13.1223 7.78934 12.4265 7.09348 11.5711 7.09348H8.31719C7.4618 7.09348 6.76594 7.78934 6.76594 8.64465V9.82965H4.73492C2.12406 9.82965 0 11.9538 0 14.5646V29.3461C0 30.1761 0.217969 30.9929 0.630469 31.7082C0.790937 31.9867 1.14859 32.0858 1.4307 31.9232C1.71102 31.7616 1.80727 31.4033 1.64562 31.1229C1.33578 30.5853 1.17188 29.9709 1.17188 29.3461V14.5646C1.17188 12.5999 2.77023 11.0015 4.73492 11.0015ZM16.5455 8.64465C16.5455 8.43543 16.7158 8.26535 16.9249 8.26535H20.1787C20.3879 8.26535 20.558 8.43551 20.558 8.64465V9.82965H16.5455V8.64465H16.5455ZM7.93781 8.64465C7.93781 8.43543 8.10805 8.26535 8.31719 8.26535H11.5709C11.7802 8.26535 11.9503 8.43551 11.9503 8.64465V9.82965H7.93773L7.93781 8.64465ZM12.2699 16.1147H7.10453C6.78086 16.1147 6.51859 16.377 6.51859 16.7007C6.51859 17.0243 6.78086 17.2866 7.10453 17.2866H11.3723L7.60594 25.8544C7.4757 26.1507 7.61031 26.4964 7.90656 26.6267C8.20164 26.7563 8.54805 26.6236 8.67883 26.3261L12.8063 16.9365C12.9763 16.5499 12.6927 16.1147 12.2699 16.1147ZM30.1803 16.0143C28.3601 16.0143 26.8792 17.4952 26.8792 19.3154V23.6578C26.8792 25.4781 28.3601 26.9589 30.1803 26.9589C32.0006 26.9589 33.4815 25.4781 33.4815 23.6578V19.3154C33.4815 17.4952 32.0005 16.0143 30.1803 16.0143ZM32.3096 23.6578C32.3096 24.8318 31.3544 25.7871 30.1803 25.7871C29.0063 25.7871 28.0511 24.8318 28.0511 23.6578V19.3154C28.0511 18.1414 29.0063 17.1862 30.1803 17.1862C31.3544 17.1862 32.3096 18.1414 32.3096 19.3154V23.6578ZM21.2366 31.424H18.7634C18.4397 31.424 18.1774 31.6863 18.1774 32.01C18.1774 32.3336 18.4397 32.5959 18.7634 32.5959H21.2366C21.5603 32.5959 21.8226 32.3336 21.8226 32.01C21.8226 31.6864 21.5603 31.424 21.2366 31.424ZM21.5123 16.0143C19.692 16.0143 18.2111 17.4952 18.2111 19.3154V23.6578C18.2111 25.4781 19.692 26.9589 21.5123 26.9589C23.3326 26.9589 24.8134 25.4781 24.8134 23.6578V19.3154C24.8134 17.4952 23.3326 16.0143 21.5123 16.0143ZM23.6416 23.6578C23.6416 24.8318 22.6863 25.7871 21.5123 25.7871C20.3382 25.7871 19.383 24.8318 19.383 23.6578V19.3154C19.383 18.1414 20.3382 17.1862 21.5123 17.1862C22.6863 17.1862 23.6416 18.1414 23.6416 19.3154V23.6578ZM35.2651 9.82965H32.5799C32.2563 9.82965 31.994 10.0919 31.994 10.4156C31.994 10.7393 32.2563 11.0015 32.5799 11.0015H35.2651C37.2298 11.0015 38.8281 12.5999 38.8281 14.5646V29.3461C38.8281 31.3107 37.2298 32.9091 35.2651 32.9091H25.2281V31.1107H34.878C36.0645 31.1107 37.0298 30.1454 37.0298 28.9589V14.9518C37.0298 13.7652 36.0645 12.8 34.878 12.8H5.12211C3.93555 12.8 2.97031 13.7652 2.97031 14.9518V28.959C2.97031 30.1456 3.93555 31.1108 5.12211 31.1108H14.7719V32.9093H4.73492C4.28445 32.9093 3.84562 32.8264 3.4307 32.6632C3.12984 32.5449 2.78945 32.6927 2.67086 32.9939C2.55234 33.295 2.70047 33.6351 3.00156 33.7537C3.49344 33.9472 4.01 34.0553 4.53961 34.0767V35.1032C4.53961 36.1345 5.37859 36.9735 6.40984 36.9735H9.00383C10.0352 36.9735 10.8741 36.1345 10.8741 35.1032V34.0812H14.9488C15.2307 34.6533 15.8197 35.048 16.4993 35.048H23.5005C24.1802 35.048 24.7691 34.6533 25.051 34.0812H29.1256V35.1032C29.1256 36.1345 29.9646 36.9735 30.9959 36.9735H33.5899C34.6212 36.9735 35.4602 36.1345 35.4602 35.1032V34.0763C37.9809 33.9732 40 31.8914 40 29.3461V14.5646C40 11.9538 37.8759 9.82965 35.2651 9.82965ZM9.70234 35.1031C9.70234 35.4882 9.38898 35.8014 9.00391 35.8014H6.40992C6.02477 35.8014 5.71156 35.4882 5.71156 35.1031V34.0811H9.70242L9.70234 35.1031ZM24.0471 33.4181C24.0007 33.6779 23.7736 33.876 23.5006 33.876H16.4995C16.193 33.876 15.9438 33.6267 15.9438 33.3203V30.6997C15.9438 30.3933 16.193 30.144 16.4995 30.144H23.5006C23.8084 30.144 24.0563 30.3959 24.0563 30.6997C24.0552 33.6334 24.0615 33.3086 24.0471 33.4181ZM23.5006 28.9721H16.4995C15.8198 28.9721 15.2308 29.3668 14.949 29.9389H5.12211C4.5818 29.9389 4.14219 29.4993 4.14219 28.959V14.9518C4.14219 14.4114 4.5818 13.9718 5.12211 13.9718H34.878C35.4184 13.9718 35.8579 14.4114 35.8579 14.9518V28.959C35.8579 29.4993 35.4184 29.9389 34.878 29.9389H25.0511C24.7692 29.3668 24.1802 28.9721 23.5006 28.9721ZM34.2885 35.1031C34.2885 35.4882 33.9752 35.8014 33.5901 35.8014H30.996C30.6109 35.8014 30.2977 35.4882 30.2977 35.1031V34.0811H34.2885V35.1031ZM15.5595 18.8913C15.2359 18.8913 14.9736 19.1536 14.9736 19.4772V19.8734C14.9736 20.1971 15.2359 20.4593 15.5595 20.4593C15.8832 20.4593 16.1455 20.1971 16.1455 19.8734V19.4772C16.1455 19.1536 15.8832 18.8913 15.5595 18.8913ZM15.5595 22.514C15.2359 22.514 14.9736 22.7763 14.9736 23.1V23.4961C14.9736 23.8197 15.2359 24.082 15.5595 24.082C15.8832 24.082 16.1455 23.8197 16.1455 23.4961V23.1C16.1455 22.7763 15.8832 22.514 15.5595 22.514Z" fill=""/>
  </g>
  <defs>
    <clipPath id="clip0_6729_368">
      <rect width="40" height="40" fill="white"/>
    </clipPath>
  </defs>
</svg>