<svg xmlns="http://www.w3.org/2000/svg" width="" height="" viewBox="0 0 40 40" fill="none">
  <path class="stepFourPath" d="M35.5145 7.96404H29.8184V7.16265C29.7362 4.19009 25.0604 4.18656 24.978 7.16273V7.96404H15.022V7.16265C14.9278 4.18703 10.2792 4.17848 10.1816 7.16271V7.96404H4.48548C3.95907 7.96463 3.4544 8.174 3.08218 8.54623C2.70996 8.91845 2.50059 9.42312 2.5 9.94952V33.0867C2.50059 33.6131 2.70996 34.1178 3.08218 34.49C3.4544 34.8622 3.95907 35.0716 4.48548 35.0722H35.5145C36.0409 35.0716 36.5456 34.8622 36.9178 34.49C37.29 34.1178 37.4994 33.6131 37.5 33.0867V9.94952C37.4994 9.42312 37.29 8.91845 36.9178 8.54623C36.5456 8.174 36.0409 7.96463 35.5145 7.96404ZM26.228 7.16265C26.2789 5.83995 28.5177 5.83991 28.5684 7.16269V7.96404H26.228V7.16265ZM11.4316 7.16265C11.4826 5.83965 13.7213 5.84021 13.772 7.16269V7.96404H11.4316V7.16265ZM4.48548 9.21404H10.1816V11.0903C10.1816 11.256 10.2474 11.415 10.3646 11.5322C10.4819 11.6494 10.6408 11.7153 10.8066 11.7153C10.9723 11.7153 11.1313 11.6494 11.2485 11.5322C11.3657 11.415 11.4316 11.256 11.4316 11.0903V9.21404H24.978V11.0903C24.9805 11.2544 25.0474 11.411 25.1643 11.5262C25.2813 11.6415 25.4389 11.7061 25.603 11.7061C25.7672 11.7061 25.9248 11.6415 26.0417 11.5262C26.1587 11.411 26.2256 11.2544 26.228 11.0903V9.21404H35.5145C35.7095 9.2143 35.8964 9.29188 36.0343 9.42975C36.1722 9.56762 36.2497 9.75454 36.25 9.94952V13.9064H3.75V9.94952C3.75026 9.75454 3.82783 9.56762 3.9657 9.42975C4.10357 9.29188 4.29049 9.2143 4.48548 9.21404ZM35.5145 33.8222H4.48548C4.29049 33.8219 4.10357 33.7444 3.9657 33.6065C3.82783 33.4686 3.75026 33.2817 3.75 33.0867V15.1564H36.25V33.0867C36.2497 33.2817 36.1722 33.4686 36.0343 33.6065C35.8964 33.7444 35.7095 33.8219 35.5145 33.8222ZM10.072 20.3047H6.2537C6.09005 20.3016 5.93418 20.2343 5.81957 20.1175C5.70496 20.0006 5.64075 19.8434 5.64075 19.6798C5.64074 19.5161 5.70494 19.3589 5.81954 19.2421C5.93414 19.1252 6.09001 19.0579 6.25366 19.0547H10.072C10.2357 19.0579 10.3915 19.1252 10.5061 19.242C10.6208 19.3589 10.685 19.5161 10.685 19.6797C10.685 19.8434 10.6208 20.0006 10.5061 20.1174C10.3915 20.2343 10.2357 20.3016 10.072 20.3047ZM17.9636 20.3047H14.1449C13.9813 20.3016 13.8254 20.2343 13.7108 20.1175C13.5962 20.0006 13.532 19.8434 13.532 19.6798C13.532 19.5161 13.5962 19.3589 13.7108 19.2421C13.8254 19.1252 13.9812 19.0579 14.1449 19.0547H17.9636C18.1272 19.0579 18.2831 19.1252 18.3977 19.242C18.5123 19.3589 18.5765 19.5161 18.5765 19.6797C18.5765 19.8434 18.5123 20.0006 18.3977 20.1174C18.2831 20.2343 18.1272 20.3016 17.9636 20.3047ZM25.8551 20.3047H22.0365C21.8728 20.3016 21.717 20.2343 21.6023 20.1175C21.4877 20.0006 21.4235 19.8434 21.4235 19.6798C21.4235 19.5161 21.4877 19.3589 21.6023 19.2421C21.7169 19.1252 21.8728 19.0579 22.0364 19.0547H25.8551C26.0188 19.0579 26.1746 19.1252 26.2892 19.2421C26.4038 19.3589 26.468 19.5161 26.468 19.6797C26.468 19.8434 26.4038 20.0006 26.2892 20.1174C26.1746 20.2343 26.0188 20.3016 25.8551 20.3047ZM29.928 19.0547H33.7463C33.91 19.0579 34.0658 19.1252 34.1804 19.242C34.2951 19.3589 34.3593 19.516 34.3593 19.6797C34.3593 19.8434 34.2951 20.0006 34.1805 20.1174C34.0659 20.2343 33.91 20.3016 33.7463 20.3047H29.928C29.7643 20.3016 29.6085 20.2343 29.4939 20.1174C29.3792 20.0006 29.315 19.8434 29.315 19.6797C29.315 19.5161 29.3792 19.3589 29.4939 19.242C29.6085 19.1252 29.7643 19.0579 29.928 19.0547ZM10.072 25.237H6.2537C6.09005 25.2338 5.93418 25.1666 5.81957 25.0497C5.70496 24.9328 5.64075 24.7757 5.64075 24.612C5.64074 24.4483 5.70494 24.2912 5.81954 24.1743C5.93414 24.0574 6.09001 23.9902 6.25366 23.987H10.072C10.2357 23.9902 10.3915 24.0574 10.5061 24.1743C10.6208 24.2912 10.685 24.4483 10.685 24.612C10.685 24.7757 10.6208 24.9328 10.5061 25.0497C10.3915 25.1666 10.2357 25.2338 10.072 25.237ZM17.9636 25.237H14.1449C13.9813 25.2338 13.8254 25.1666 13.7108 25.0497C13.5962 24.9328 13.532 24.7757 13.532 24.612C13.532 24.4483 13.5962 24.2912 13.7108 24.1743C13.8254 24.0574 13.9812 23.9902 14.1449 23.987H17.9636C18.1272 23.9902 18.2831 24.0574 18.3977 24.1743C18.5123 24.2912 18.5765 24.4483 18.5765 24.612C18.5765 24.7757 18.5123 24.9328 18.3977 25.0497C18.2831 25.1666 18.1272 25.2338 17.9636 25.237ZM25.8551 25.237H22.0365C21.8728 25.2338 21.717 25.1666 21.6023 25.0497C21.4877 24.9328 21.4235 24.7757 21.4235 24.612C21.4235 24.4483 21.4877 24.2912 21.6023 24.1743C21.7169 24.0574 21.8728 23.9902 22.0364 23.987H25.8551C26.0188 23.9902 26.1746 24.0574 26.2892 24.1743C26.4038 24.2912 26.468 24.4483 26.468 24.612C26.468 24.7757 26.4038 24.9328 26.2892 25.0497C26.1746 25.1666 26.0188 25.2338 25.8551 25.237ZM29.928 23.987H33.7463C33.91 23.9902 34.0658 24.0574 34.1804 24.1743C34.2951 24.2911 34.3593 24.4483 34.3593 24.612C34.3593 24.7757 34.2951 24.9328 34.1805 25.0497C34.0659 25.1665 33.91 25.2338 33.7463 25.237H29.928C29.7643 25.2338 29.6085 25.1666 29.4939 25.0497C29.3792 24.9328 29.315 24.7757 29.315 24.612C29.315 24.4483 29.3792 24.2912 29.4939 24.1743C29.6085 24.0574 29.7643 23.9902 29.928 23.987ZM10.072 30.1692H6.2537C6.09005 30.1661 5.93418 30.0988 5.81957 29.982C5.70496 29.8651 5.64075 29.7079 5.64075 29.5443C5.64074 29.3806 5.70494 29.2234 5.81954 29.1066C5.93414 28.9897 6.09001 28.9224 6.25366 28.9192H10.072C10.2357 28.9224 10.3915 28.9897 10.5061 29.1065C10.6208 29.2234 10.685 29.3806 10.685 29.5442C10.685 29.7079 10.6208 29.8651 10.5061 29.9819C10.3915 30.0988 10.2357 30.1661 10.072 30.1692ZM17.9636 30.1692H14.1449C13.9813 30.1661 13.8254 30.0988 13.7108 29.982C13.5962 29.8651 13.532 29.7079 13.532 29.5443C13.532 29.3806 13.5962 29.2234 13.7108 29.1066C13.8254 28.9897 13.9812 28.9224 14.1449 28.9192H17.9636C18.1272 28.9224 18.2831 28.9897 18.3977 29.1065C18.5123 29.2234 18.5765 29.3806 18.5765 29.5442C18.5765 29.7079 18.5123 29.8651 18.3977 29.9819C18.2831 30.0988 18.1272 30.1661 17.9636 30.1692ZM25.8551 30.1692H22.0365C21.8728 30.1661 21.717 30.0988 21.6023 29.982C21.4877 29.8651 21.4235 29.7079 21.4235 29.5443C21.4235 29.3806 21.4877 29.2234 21.6023 29.1066C21.7169 28.9897 21.8728 28.9224 22.0364 28.9192H25.8551C26.0188 28.9224 26.1746 28.9897 26.2892 29.1065C26.4038 29.2234 26.468 29.3806 26.468 29.5442C26.468 29.7079 26.4038 29.8651 26.2892 29.9819C26.1746 30.0988 26.0188 30.1661 25.8551 30.1692ZM34.3817 28.2582L31.0104 30.4775C30.9409 30.5228 30.863 30.5538 30.7813 30.5688C30.6997 30.5838 30.6159 30.5825 30.5347 30.5649C30.4536 30.5473 30.3767 30.5138 30.3086 30.4663C30.2405 30.4188 30.1825 30.3583 30.1379 30.2883L29.1071 28.6501C29.0222 28.5099 28.9958 28.3419 29.0335 28.1824C29.0713 28.0229 29.1702 27.8846 29.309 27.7973C29.4478 27.7101 29.6153 27.6808 29.7754 27.7159C29.9356 27.751 30.0755 27.8475 30.1651 27.9848L30.856 29.0828L33.6945 27.2146C33.8328 27.1273 33.9999 27.0978 34.1599 27.1324C34.3198 27.1669 34.4597 27.2628 34.5497 27.3995C34.6397 27.5361 34.6725 27.7026 34.6411 27.8632C34.6097 28.0237 34.5166 28.1656 34.3817 28.2582Z" fill=""/>
</svg>