<svg width="56" height="56" viewBox="0 0 56 56" fill="none" xmlns="http://www.w3.org/2000/svg">
<path class="stepOnePath" d="M2.52111 31.9847C2.52111 25.1909 5.21992 18.6754 10.0238 13.8715C14.8277 9.06759 21.3433 6.36877 28.137 6.36877C34.9308 6.36877 41.4463 9.06758 46.2502 13.8715C51.0541 18.6754 53.7529 25.1909 53.7529 31.9847L28.137 31.9847L2.52111 31.9847Z" stroke="" stroke-width="1.62909"/>
<path class="stepOnePath" d="M10.3276 31.7412C10.3276 27.0826 12.1782 22.6149 15.4724 19.3207C18.7665 16.0266 23.2342 14.176 27.8928 14.176C32.5514 14.176 37.0192 16.0266 40.3133 19.3207C43.6074 22.6149 45.458 27.0826 45.458 31.7412" stroke="" stroke-width="1.62909"/>
<line class="stepOnePath" x1="28.7076" y1="5.88184" x2="28.7076" y2="14.1765" stroke="" stroke-width="1.62909"/>
<line class="stepOnePath" x1="8.95219" y1="14.5764" x2="14.8174" y2="20.4416" stroke="" stroke-width="1.62909"/>
<line class="stepOnePath" x1="48.3285" y1="15.8196" x2="41.5339" y2="20.5772" stroke="" stroke-width="1.62909"/>
<path class="stepOnePath" d="M30.2916 32.7349L33.8877 20.4588C33.992 20.103 33.511 19.882 33.3088 20.1929L26.3365 30.9176C26.2295 31.0823 26.2935 31.3036 26.472 31.3856L29.8482 32.9369C30.0267 33.0189 30.2364 32.9234 30.2916 32.7349Z" fill="white" stroke="" stroke-width="1.62909" stroke-linecap="round"/>
<circle class="stepOnePath" cx="28.3808" cy="31.7423" r="2.43961" fill="white" stroke="" stroke-width="1.62909"/>
<path class="stepOnePath" d="M27.503 38.1611L28.435 36.8055C28.5761 36.6003 28.8975 36.7001 28.8975 36.9491V41.7107C28.8975 41.8508 29.011 41.9643 29.151 41.9643H32.9856C33.1885 41.9643 33.3092 42.1907 33.1961 42.3592L27.9671 50.1471C27.8275 50.355 27.503 50.2562 27.503 50.0058V45.2603C27.503 45.1203 27.3895 45.0068 27.2495 45.0068H23.2977C23.093 45.0068 22.9727 44.7766 23.0896 44.6084L24.8408 42.091L25.855 40.6332" stroke="" stroke-width="1.62909" stroke-linecap="round"/>
</svg>
