<svg width="" height="" viewBox="0 0 126 109" fill="none" xmlns="http://www.w3.org/2000/svg">
<path class="stepOnePath" d="M2.00006 63.1289C2.00005 46.9593 8.42342 31.4519 19.8571 20.0182C31.2908 8.58457 46.7981 2.1612 62.9678 2.1612C79.1374 2.1612 94.6448 8.58456 106.078 20.0182C117.512 31.4519 123.936 46.9593 123.936 63.1289L62.9678 63.1289L2.00006 63.1289Z" stroke="white" stroke-width="3"/>
<path class="stepOnePath" d="M20.5807 62.548C20.5807 51.4603 24.9853 40.8266 32.8255 32.9864C40.6658 25.1462 51.2994 20.7416 62.3871 20.7416C73.4749 20.7416 84.1085 25.1462 91.9488 32.9864C99.789 40.8266 104.194 51.4603 104.194 62.548L62.3872 62.548L20.5807 62.548Z" stroke="white" stroke-width="3"/>
<line class="stepOnePath" x1="63.8872" y1="1" x2="63.8872" y2="20.7419" stroke="white" stroke-width="3"/>
<line class="stepOnePath" x1="16.9962" y1="22.0038" x2="30.9559" y2="35.9634" stroke="white" stroke-width="3"/>
<line  class="stepOnePath" x1="110.774" y1="24.2932" x2="94.6023" y2="35.6167" stroke="white" stroke-width="3"/>
<path class="stepOnePath" d="M64.5623 67.2641L92.5144 55.1967C93.3247 54.8468 92.9986 53.6299 92.122 53.7321L61.881 57.2575C61.4167 57.3116 61.1087 57.7653 61.2297 58.2169L63.5185 66.7589C63.6395 67.2104 64.1331 67.4493 64.5623 67.2641Z" fill="#FC3A4E" stroke="white" stroke-width="3" stroke-linecap="round"/>
<circle class="stepOnePath" cx="63.5484" cy="62.5486" r="5.80645" fill="#FC3A4E" stroke="white" stroke-width="3"/>
<path class="stepOnePath" d="M61.4592 77.8276L63.6775 74.601C64.0132 74.1127 64.7782 74.3503 64.7782 74.9429V86.2759C64.7782 86.6091 65.0483 86.8793 65.3816 86.8793H74.5082C74.9911 86.8793 75.2784 87.4183 75.0092 87.8191L62.5636 106.355C62.2314 106.85 61.4592 106.615 61.4592 106.019V94.7241C61.4592 94.3909 61.189 94.1207 60.8558 94.1207H51.4503C50.9629 94.1207 50.6766 93.5727 50.9549 93.1726L55.123 87.181L57.5368 83.7112" stroke="white" stroke-width="3" stroke-linecap="round"/>
</svg>
