<svg width="56" height="56" viewBox="0 0 56 56" fill="none" xmlns="http://www.w3.org/2000/svg">
<rect class="stepTwoPath" x="20.658" y="7.62207" width="28.0024" height="41.5208" rx="5.7936" stroke="" stroke-width="1.4"/>
<path class="stepTwoPath" d="M27.417 15.3472C27.417 14.2806 28.2816 13.416 29.3482 13.416H39.9698C41.0364 13.416 41.901 14.2806 41.901 15.3472V18.7268C41.901 19.7934 41.0364 20.658 39.9698 20.658H29.3482C28.2816 20.658 27.417 19.7934 27.417 18.7268V15.3472Z" stroke="" stroke-width="1.4"/>
<path class="stepTwoPath" d="M7.62256 20.1756C7.62256 19.6423 8.05487 19.21 8.58816 19.21H15.8302C16.3635 19.21 16.7958 19.6423 16.7958 20.1756V24.038C16.7958 26.1711 15.0665 27.9004 12.9334 27.9004H11.485C9.35181 27.9004 7.62256 26.1711 7.62256 24.038V20.1756Z" stroke="" stroke-width="1.4"/>
<path class="stepTwoPath" d="M8.58789 14.864C8.58789 14.3308 9.0202 13.8984 9.55349 13.8984V13.8984C10.0868 13.8984 10.5191 14.3308 10.5191 14.864V19.2092H8.58789V14.864Z" stroke="" stroke-width="1.4"/>
<path class="stepTwoPath" d="M13.8989 14.864C13.8989 14.3308 14.3312 13.8984 14.8645 13.8984V13.8984C15.3978 13.8984 15.8301 14.3308 15.8301 14.864V19.2092H13.8989V14.864Z" stroke="" stroke-width="1.4"/>
<path class="stepTwoPath" d="M20.7344 28.1641L24.0673 32.4492C24.0979 32.4886 24.1179 32.5352 24.1254 32.5845L26.528 48.4417" stroke="" stroke-width="1.4" stroke-linecap="round"/>
<path class="stepTwoPath" d="M48.3809 28.6006L45.0479 32.8858C45.0173 32.9251 44.9973 32.9717 44.9899 33.021L42.5873 48.8782" stroke="" stroke-width="1.4" stroke-linecap="round"/>
<path class="stepTwoPath" d="M12.209 28.1416V37.3148C12.209 38.648 13.2898 39.7288 14.623 39.7288H20.1752" stroke="" stroke-width="1.4" stroke-linecap="round"/>
<path class="stepTwoPath" d="M31.0381 33.6935L33.1636 25.6638C33.1924 25.5551 33.2811 25.4727 33.3916 25.452L36.6342 24.844C36.841 24.8052 37.0194 24.9917 36.9716 25.1966L35.4841 31.5715C35.4365 31.7757 35.6137 31.9618 35.82 31.9243L37.4439 31.6291C37.6839 31.5854 37.8681 31.8386 37.7526 32.0536L31.9117 42.9298C31.7547 43.2222 31.309 43.0664 31.3684 42.7398L32.9068 34.2784C32.9394 34.0995 32.802 33.9349 32.6202 33.9349H31.0381" stroke="" stroke-width="1.4" stroke-linecap="round"/>
</svg>
