<svg xmlns="http://www.w3.org/2000/svg" width="" height="" viewBox="0 0 40 40" fill="none">
  <g class="stepTwoPath" clip-path="url(#clip0_6729_436)">
    <path class="stepTwoPath" d="M12.8473 31.6988C13.3377 30.9569 13.6242 30.0689 13.6242 29.115C13.6242 26.525 11.5163 24.418 8.92523 24.418C6.33419 24.418 4.22635 26.525 4.22635 29.115C4.22635 30.069 4.51288 30.9569 5.00327 31.6989C3.13936 32.471 1.84204 34.3212 1.84204 36.4028V39.2808C1.84204 39.6782 2.16419 40.0004 2.56161 40.0004H15.2889C15.6863 40.0004 16.0085 39.6782 16.0085 39.2808V36.4028C16.0085 34.3209 14.7112 32.4707 12.8473 31.6988ZM8.92523 25.8571C10.7226 25.8571 12.185 27.3186 12.185 29.115C12.185 30.9125 10.7227 32.3749 8.92523 32.3749C7.12781 32.3749 5.66549 30.9125 5.66549 29.115C5.66549 27.3186 7.12781 25.8571 8.92523 25.8571ZM14.5693 38.5612H3.28119V36.4028C3.28119 34.7176 4.46704 33.2435 6.085 32.8552C6.87452 33.4562 7.85868 33.814 8.92523 33.814C9.99178 33.814 10.976 33.4562 11.7655 32.8552C13.3835 33.2432 14.5693 34.7174 14.5693 36.4028V38.5612Z" fill=""/>
    <path class="stepTwoPath" d="M35.5204 31.6987C36.0107 30.9568 36.2971 30.0689 36.2971 29.115C36.2971 26.525 34.1892 24.418 31.5983 24.418C29.0084 24.418 26.9014 26.525 26.9014 29.115C26.9014 30.0687 27.1876 30.9565 27.6777 31.6983C25.813 32.4701 24.5151 34.3207 24.5151 36.4028V39.2808C24.5151 39.6782 24.8372 40.0004 25.2346 40.0004H37.964C38.3615 40.0004 38.6836 39.6782 38.6836 39.2808V36.4028C38.6835 34.3209 37.3854 32.4706 35.5204 31.6987ZM31.5983 25.8571C33.3957 25.8571 34.858 27.3186 34.858 29.115C34.858 30.9125 33.3957 32.3749 31.5983 32.3749C29.8019 32.3749 28.3405 30.9125 28.3405 29.115C28.3405 27.3186 29.8019 25.8571 31.5983 25.8571ZM37.2444 38.5612H25.9541V36.4028C25.9541 34.7173 27.1405 33.243 28.759 32.855C29.5482 33.4561 30.5321 33.814 31.5983 33.814C32.6648 33.814 33.649 33.4562 34.4386 32.8551C36.0577 33.2433 37.2443 34.7174 37.2443 36.4028V38.5612H37.2444Z" fill=""/>
    <path class="stepTwoPath" d="M31.6179 22.1721C31.7358 22.2475 31.8706 22.2856 32.0059 22.2856C32.1223 22.2856 32.239 22.2574 32.3453 22.2005C32.575 22.0777 32.7203 21.8403 32.7253 21.5798L32.7669 19.4085C34.6731 18.9411 36.0868 17.1983 36.0868 15.1859C36.0868 13.0802 34.5816 11.3201 32.5908 10.9237C32.6932 10.4681 32.7459 10.0027 32.7459 9.53175C32.7458 6.01735 29.8867 3.1582 26.3724 3.1582H21.463C21.0655 3.1582 20.7434 3.48036 20.7434 3.87778C20.7434 4.2752 21.0655 4.59735 21.463 4.59735H26.3724C29.0932 4.59735 31.3067 6.81097 31.3067 9.53182C31.3067 9.97608 31.2466 10.4141 31.129 10.8397H21.2998C19.1486 10.8397 17.3584 12.4112 17.0144 14.4663H15.081C14.9183 14.4663 14.7604 14.5214 14.6331 14.6227L10.3712 18.0122L10.3158 15.1494C10.3086 14.7816 10.0253 14.4784 9.65879 14.4464C7.13367 14.2265 5.15564 12.0677 5.15564 9.53167C5.15564 6.81097 7.37005 4.59735 10.092 4.59735H15.0014C15.3988 4.59735 15.721 4.2752 15.721 3.87778C15.721 3.48036 15.3988 3.1582 15.0014 3.1582H10.092C6.57651 3.1582 3.71649 6.01735 3.71649 9.53182C3.71649 11.1309 4.3169 12.6627 5.4072 13.8451C6.34135 14.8582 7.55966 15.5351 8.88878 15.7905L8.96052 19.4954C8.96585 19.7691 9.12595 20.0161 9.37363 20.1326C9.47127 20.1785 9.57583 20.2011 9.67988 20.2011C9.8397 20.2011 9.99815 20.1479 10.1279 20.0447L15.3322 15.9055H17.0144C17.3584 17.9606 19.1486 19.5321 21.2998 19.5321H27.4937L31.6179 22.1721ZM18.3929 15.1859C18.3929 13.5829 19.697 12.2789 21.2998 12.2789H31.7408C33.3436 12.2789 34.6477 13.5829 34.6477 15.1859C34.6477 16.6798 33.4831 17.9517 31.9964 18.0813C31.6299 18.1132 31.3465 18.4165 31.3395 18.7844L31.3111 20.2668L28.0922 18.2063C27.9765 18.1322 27.8418 18.0928 27.7043 18.0928H21.2998C19.6969 18.0929 18.3929 16.7888 18.3929 15.1859Z" fill=""/>
    <path class="stepTwoPath" d="M22.4379 14.4648C22.0405 14.4648 21.7183 14.788 21.7183 15.1854C21.7183 15.5828 22.0405 15.905 22.4379 15.905C22.8353 15.905 23.1575 15.5828 23.1575 15.1854V15.1834C23.1575 14.786 22.8353 14.4648 22.4379 14.4648Z" fill=""/>
    <path class="stepTwoPath" d="M26.5216 14.4648C26.1242 14.4648 25.802 14.788 25.802 15.1854C25.802 15.5828 26.1242 15.905 26.5216 15.905C26.919 15.905 27.2411 15.5828 27.2411 15.1854V15.1834C27.2411 14.786 26.919 14.4648 26.5216 14.4648Z" fill="#3B3C4A"/>
    <path class="stepTwoPath" d="M30.6025 15.905C30.9999 15.905 31.3221 15.5828 31.3221 15.1854V15.1834C31.3221 14.786 30.9999 14.4648 30.6025 14.4648C30.2051 14.4648 29.8829 14.788 29.8829 15.1854C29.8829 15.5828 30.2051 15.905 30.6025 15.905Z" fill=""/>
    <path class="stepTwoPath" d="M18.2321 4.59735H18.2362C18.6336 4.59735 18.9537 4.2752 18.9537 3.87778C18.9537 3.48036 18.6296 3.1582 18.2321 3.1582C17.8347 3.1582 17.5126 3.48036 17.5126 3.87778C17.5126 4.2752 17.8347 4.59735 18.2321 4.59735Z" fill=""/>
  </g>
  <defs>
    <clipPath id="clip0_6729_436">
      <rect class="stepTwoPath" width="40" height="40" fill="white"/>
    </clipPath>
  </defs>
</svg>