<svg xmlns="http://www.w3.org/2000/svg" width="" height="" viewBox="0 0 40 40" fill="none">
  <path class="stepTwoPath" d="M22.4557 35.6704C23.0618 35.8899 23.6576 35.9986 24.2373 35.9986C25.5169 35.9986 26.7171 35.4673 27.7718 34.4208C28.5579 33.6454 29.2523 32.7782 29.8857 31.9566C29.8861 31.9563 29.8864 31.9559 29.8867 31.9553C30.3988 31.2876 30.598 30.454 30.4333 29.6685C30.2686 28.883 29.7516 28.1997 29.0166 27.7951C27.7061 27.0686 26.3496 26.3837 25.0378 25.7216L23.9014 25.146C22.7174 24.5428 21.8626 24.6835 21.3535 24.9094C20.8366 25.1382 20.1449 25.6893 19.7839 27.0149C19.7786 27.0344 19.7741 27.0562 19.7705 27.079C19.6872 27.3329 19.4935 27.5266 19.2334 27.6148C18.957 27.7082 18.6654 27.6617 18.4355 27.4859C16.1901 25.7697 14.2708 23.8602 12.5664 21.6464C12.3913 21.4208 12.3434 21.1346 12.4352 20.8615C12.5251 20.5936 12.7285 20.3951 13.0391 20.2987C13.0674 20.2948 13.0954 20.2889 13.1227 20.2815C14.4701 19.9107 15.0042 19.1818 15.2148 18.6359C15.4362 18.0621 15.5264 17.104 14.6969 15.7977C14.0755 14.8179 13.5684 13.7307 13.0781 12.6796C12.8542 12.1994 12.6302 11.7199 12.3945 11.2453C11.8066 10.0699 11.0348 9.67696 10.4909 9.55424C9.95117 9.43314 9.09505 9.45561 8.07259 10.2551C7.32129 10.8482 6.52441 11.4956 5.78581 12.2131C4.14746 13.8046 3.68783 15.7424 4.45703 17.8156C7.67643 26.5201 13.7324 32.5275 22.4557 35.6704ZM6.71484 13.1695C7.41016 12.494 8.17546 11.8726 8.89648 11.3033C9.18392 11.0783 9.59049 10.8329 9.99479 10.8329C10.0625 10.8329 10.1305 10.8397 10.1976 10.855C10.6735 10.9621 11.0065 11.4507 11.2012 11.84C11.4313 12.3033 11.6504 12.7733 11.8698 13.2434C12.3779 14.3329 12.9036 15.4595 13.5713 16.5122C13.8646 16.9742 14.1722 17.6346 13.971 18.1558C13.7959 18.6089 13.2594 18.8537 12.82 18.9813C12.7467 18.9924 12.6956 19.0096 12.6823 19.0149C11.9707 19.2066 11.4059 19.7382 11.1712 20.4371C10.9385 21.1304 11.0661 21.8882 11.5114 22.4618C13.2868 24.7675 15.2868 26.7574 17.6257 28.5451C18.2054 28.9885 18.9658 29.1125 19.6608 28.8778C20.3529 28.6434 20.8799 28.0855 21.0703 27.385C21.0762 27.3638 21.0811 27.3394 21.0846 27.3143C21.2119 26.87 21.4531 26.3231 21.8932 26.1285C22.3359 25.9331 22.8997 26.1324 23.2962 26.3342L24.4368 26.9117C25.7373 27.5682 27.082 28.2473 28.3717 28.9621C28.7734 29.1835 29.0423 29.5315 29.1283 29.9419C29.2142 30.3524 29.1084 30.7785 28.8298 31.1428C28.2249 31.927 27.5651 32.7522 26.8343 33.4729C25.6595 34.6382 24.376 34.9468 22.9082 34.4162C14.5716 31.4126 8.78418 25.6718 5.70736 17.3527C5.11947 15.7675 5.44889 14.3993 6.71484 13.1695Z" fill=""/>
  <path class="stepTwoPath" d="M18.3812 20.6447C18.3438 20.9032 18.4606 21.1597 18.68 21.3013C18.79 21.3719 18.9154 21.4074 19.041 21.4074C19.1663 21.4074 19.2917 21.3722 19.4014 21.3016L21.708 19.82C23.1416 21.965 25.5409 23.2811 28.1471 23.2811C28.7793 23.2811 29.4014 23.2059 30.0003 23.0578L33.1305 25.0679C33.2406 25.1385 33.3656 25.1737 33.4909 25.1737C33.6165 25.1737 33.7419 25.1382 33.8519 25.0675C34.0713 24.9259 34.1882 24.6694 34.1507 24.411L33.6523 20.9871C35.0885 19.5386 35.9056 17.5669 35.9056 15.5226C35.9056 12.4886 34.1476 9.76038 31.4097 8.49325C30.1745 5.84521 27.494 4.00146 24.3844 4.00146C20.1064 4.00146 16.626 7.47998 16.626 11.756C16.626 13.8006 17.443 15.7723 18.8792 17.2205L18.3812 20.6447ZM34.5723 15.5226C34.5723 17.3143 33.8141 19.0386 32.4922 20.2537C32.3301 20.4028 32.252 20.6226 32.2835 20.8407L32.6204 23.1558L30.4723 21.7762C30.3096 21.6717 30.1091 21.6431 29.9248 21.6971C29.3568 21.8634 28.7585 21.9478 28.1471 21.9478C26.1109 21.9478 24.2214 20.9815 23.0165 19.3801C23.4648 19.4605 23.9201 19.5148 24.3844 19.5148C28.6605 19.5148 32.1393 16.0343 32.1393 11.756C32.1393 11.297 32.0916 10.8498 32.0148 10.4125C33.5979 11.6068 34.5723 13.476 34.5723 15.5226ZM17.9593 11.756C17.9593 8.21533 20.8415 5.3348 24.3844 5.3348C27.9251 5.3348 30.806 8.21533 30.806 11.756C30.806 15.299 27.9251 18.1815 24.3844 18.1815C23.7731 18.1815 23.1751 18.0972 22.6071 17.9308C22.4215 17.8752 22.222 17.9051 22.0592 18.0096L19.9111 19.3895L20.248 17.0741C20.2796 16.856 20.2015 16.6362 20.0394 16.4871C18.7174 15.2723 17.9593 13.548 17.9593 11.756Z" fill=""/>
  <path class="stepTwoPath" d="M20.9977 12.4076H21.4068C21.775 12.4076 22.0735 12.109 22.0735 11.7409C22.0735 11.3727 21.775 11.0742 21.4068 11.0742H20.9977C20.6295 11.0742 20.331 11.3727 20.331 11.7409C20.331 12.109 20.6295 12.4076 20.9977 12.4076Z" fill=""/>
  <path class="stepTwoPath" d="M24.1782 12.4076H24.5874C24.9555 12.4076 25.254 12.109 25.254 11.7409C25.254 11.3727 24.9555 11.0742 24.5874 11.0742H24.1782C23.81 11.0742 23.5115 11.3727 23.5115 11.7409C23.5115 12.109 23.81 12.4076 24.1782 12.4076Z" fill=""/>
  <path class="stepTwoPath" d="M27.3584 12.4076H27.7676C28.1358 12.4076 28.4343 12.109 28.4343 11.7409C28.4343 11.3727 28.1358 11.0742 27.7676 11.0742H27.3584C26.9903 11.0742 26.6918 11.3727 26.6918 11.7409C26.6918 12.109 26.9903 12.4076 27.3584 12.4076Z" fill=""/>
</svg>