<svg width="" height="" viewBox="0 0 134 134" fill="none" xmlns="http://www.w3.org/2000/svg">
<path  class="stepOnePath" d="M6.00006 76.1289C6.00005 59.9593 12.4234 44.4519 23.8571 33.0182C35.2908 21.5846 50.7981 15.1612 66.9678 15.1612C83.1374 15.1612 98.6448 21.5846 110.078 33.0182C121.512 44.4519 127.936 59.9593 127.936 76.1289L66.9678 76.1289L6.00006 76.1289Z" stroke="url(#paint0_linear_7956_243)" stroke-width="3"/>
<path class="stepOnePath" d="M24.5807 75.548C24.5807 64.4603 28.9853 53.8266 36.8255 45.9864C44.6658 38.1462 55.2994 33.7416 66.3871 33.7416C77.4749 33.7416 88.1085 38.1462 95.9488 45.9864C103.789 53.8266 108.194 64.4603 108.194 75.548L66.3872 75.548L24.5807 75.548Z" stroke="url(#paint1_linear_7956_243)" stroke-width="3"/>
<line class="stepOnePath" x1="67.8871" y1="14" x2="67.8871" y2="33.7419" stroke="url(#paint2_linear_7956_243)" stroke-width="3"/>
<line class="stepOnePath" x1="20.9962" y1="35.0038" x2="34.9559" y2="48.9634" stroke="url(#paint3_linear_7956_243)" stroke-width="3"/>
<line class="stepOnePath" x1="114.774" y1="37.2932" x2="98.6023" y2="48.6167" stroke="url(#paint4_linear_7956_243)" stroke-width="3"/>
<path class="stepOnePath" d="M68.5622 80.2641L96.5143 68.1967C97.3246 67.8468 96.9985 66.6299 96.1218 66.7321L65.8809 70.2575C65.4166 70.3116 65.1085 70.7653 65.2295 71.2169L67.5184 79.7589C67.6393 80.2104 68.133 80.4493 68.5622 80.2641Z" fill="white" stroke="#F52E42" stroke-width="3" stroke-linecap="round"/>
<circle class="stepOnePath" cx="67.5484" cy="75.5486" r="5.80645" fill="white" stroke="#F52E42" stroke-width="3"/>
<path class="stepOnePath" d="M65.4591 90.8276L67.6773 87.601C68.0131 87.1127 68.778 87.3503 68.778 87.9429V99.2759C68.778 99.6091 69.0482 99.8793 69.3815 99.8793H78.5081C78.991 99.8793 79.2783 100.418 79.0091 100.819L66.5635 119.355C66.2313 119.85 65.4591 119.615 65.4591 119.019V107.724C65.4591 107.391 65.1889 107.121 64.8556 107.121H55.4502C54.9628 107.121 54.6765 106.573 54.9548 106.173L59.1229 100.181L61.5367 96.7112" stroke="#F52E42" stroke-width="3" stroke-linecap="round"/>
<defs>
<linearGradient id="paint0_linear_7956_243" x1="66.9678" y1="15.1612" x2="66.9678" y2="137.097" gradientUnits="userSpaceOnUse">
<stop class="stepOnePath" stop-color="#FFABB3"/>
<stop class="stepOnePath" offset="0.490206" stop-color="#FF314A"/>
</linearGradient>
<linearGradient id="paint1_linear_7956_243" x1="66.3872" y1="33.7416" x2="66.3872" y2="117.354" gradientUnits="userSpaceOnUse">
<stop class="stepOnePath" stop-color="#FFABB4"/>
<stop class="stepOnePath" offset="0.484767" stop-color="#F42D41"/>
</linearGradient>
<linearGradient id="paint2_linear_7956_243" x1="65.8871" y1="14" x2="65.8871" y2="33.7419" gradientUnits="userSpaceOnUse">
<stop class="stepOnePath" stop-color="#FFACB4"/>
<stop class="stepOnePath" offset="1" stop-color="#FFACB5"/>
</linearGradient>
<linearGradient id="paint3_linear_7956_243" x1="19.582" y1="36.418" x2="33.5416" y2="50.3777" gradientUnits="userSpaceOnUse">
<stop class="stepOnePath" stop-color="#FF8A97"/>
<stop class="stepOnePath" offset="1" stop-color="#FD8A95"/>
</linearGradient>
<linearGradient id="paint4_linear_7956_243" x1="97.4551" y1="46.9784" x2="113.627" y2="35.6549" gradientUnits="userSpaceOnUse">
<stop class="stepOnePath" stop-color="#FF7F8D"/>
<stop class="stepOnePath" offset="1" stop-color="#FF7F8E"/>
</linearGradient>
</defs>
</svg>
