<svg xmlns="http://www.w3.org/2000/svg" width="" height="" viewBox="0 0 40 40" fill="none">
  <path class="stepTwoPath" fill-rule="evenodd" clip-rule="evenodd" d="M18.0155 25.9198H2.32283C1.8524 25.9198 1.40119 25.7329 1.06848 25.4002C0.735852 25.0676 0.54895 24.6164 0.54895 24.146V23.3292C0.54895 22.8587 0.735852 22.4075 1.06848 22.0748C1.40119 21.7422 1.8524 21.5553 2.32283 21.5553H37.677C38.1475 21.5553 38.5987 21.7422 38.9314 22.0748C39.264 22.4075 39.4509 22.8587 39.4509 23.3292V24.146C39.4509 24.6164 39.264 25.0676 38.9314 25.4002C38.5987 25.7329 38.1475 25.9198 37.677 25.9198H21.9844L27.4168 35.329C27.5289 35.5232 27.5289 35.7624 27.4168 35.9565C27.3047 36.1507 27.0976 36.2702 26.8734 36.2702H13.1264C12.9023 36.2702 12.6951 36.1507 12.5831 35.9565C12.471 35.7624 12.471 35.5232 12.5831 35.329L18.0155 25.9198ZM20.5354 25.9198H19.4645C18.5211 27.5538 14.2132 35.0153 14.2132 35.0153H25.7867L20.5354 25.9198ZM38.196 23.3292C38.196 23.1915 38.1413 23.0595 38.044 22.9622C37.9467 22.8649 37.8147 22.8102 37.677 22.8102H2.32283C2.18519 22.8102 2.05319 22.8649 1.95585 22.9622C1.85852 23.0595 1.80385 23.1915 1.80385 23.3292V24.146C1.80385 24.2836 1.85852 24.4156 1.95585 24.5129C2.05319 24.6103 2.18519 24.6649 2.32283 24.6649H37.677C37.8147 24.6649 37.9467 24.6103 38.044 24.5129C38.1413 24.4156 38.196 24.2836 38.196 24.146V23.3292ZM8.75577 20.1408C4.23609 20.1408 0.54895 16.4559 0.54895 11.9362C0.54895 7.41663 4.23617 3.72949 8.75577 3.72949C13.2754 3.72949 16.9602 7.41655 16.9602 11.9362C16.9602 16.4559 13.2755 20.1408 8.75577 20.1408ZM8.75577 18.8859C12.5842 18.8859 15.7053 15.7646 15.7053 11.9362C15.7053 8.10777 12.5842 4.98439 8.75577 4.98439C4.92723 4.98439 1.80385 8.10777 1.80385 11.9362C1.80385 15.7647 4.9273 18.8859 8.75577 18.8859ZM7.75852 11.7136L10.9983 8.44008L10.9994 8.4389C11.6798 7.75506 12.7902 7.75177 13.474 8.43208C14.1577 9.11216 14.162 10.2185 13.482 10.9056L13.4817 10.9059C11.9864 12.4147 10.5025 13.9326 9.0004 15.4347C8.31687 16.1183 7.20707 16.1183 6.52354 15.4347L4.03397 12.943C3.35075 12.2597 3.34966 11.1539 4.03287 10.4671L4.03397 10.466C4.7175 9.78251 5.82738 9.78251 6.51091 10.466L7.75852 11.7136ZM7.31719 13.047L5.62354 11.3533C5.42997 11.1598 5.11577 11.1596 4.92189 11.3528C4.7284 11.5479 4.72746 11.8616 4.92134 12.0556L7.41083 14.5474C7.60464 14.7412 7.9193 14.7412 8.11311 14.5474C9.61374 13.0467 11.0962 11.5303 12.5901 10.0228C12.7829 9.82808 12.7828 9.51451 12.589 9.32173C12.3957 9.12941 12.0818 9.13051 11.8893 9.32369L8.20683 13.0446C8.08934 13.1633 7.92942 13.2303 7.76244 13.2307C7.59546 13.2311 7.43523 13.165 7.31719 13.047ZM31.2481 20.1391C26.7294 20.1391 23.0431 16.455 23.0431 11.9362C23.0431 7.41757 26.7295 3.73122 31.2481 3.73122C35.7668 3.73122 39.4509 7.41757 39.4509 11.9362C39.4509 16.455 35.7669 20.1391 31.2481 20.1391ZM31.2481 18.8842C35.0755 18.8842 38.196 15.7637 38.196 11.9362C38.196 8.10871 35.0756 4.98612 31.2481 4.98612C27.4206 4.98612 24.298 8.10871 24.298 11.9362C24.298 15.7638 27.4206 18.8842 31.2481 18.8842ZM28.7469 11.936C28.7469 11.936 27.1533 10.3406 27.1547 10.342C26.4639 9.65475 26.4635 8.52941 27.1536 7.84165C27.8413 7.15169 28.9666 7.152 29.6525 7.84141L31.2479 9.43506L32.8413 7.84165C33.5315 7.15137 34.6562 7.15232 35.3432 7.8422C36.0297 8.52926 36.0295 9.65404 35.3427 10.3409L33.7475 11.936L35.3424 13.5292C35.3429 13.5296 35.3434 13.53 35.3439 13.5305C36.0302 14.2204 36.029 15.3445 35.3427 16.0308C34.6563 16.7172 33.5322 16.7183 32.8424 16.0319C32.842 16.0315 32.8415 16.0311 32.841 16.0306L31.2479 14.4357L29.6527 16.0308C28.9659 16.7177 27.8412 16.7178 27.1541 16.0314C26.4642 15.3444 26.4632 14.2197 27.1536 13.5294L28.7469 11.936ZM30.0777 12.3799L28.0409 14.4167C27.8407 14.6169 27.8395 14.9431 28.0398 15.1424L28.0409 15.1435C28.24 15.3426 28.5662 15.3426 28.7653 15.1435L30.8045 13.1044C30.9221 12.9867 31.0818 12.9206 31.2483 12.9206C31.4148 12.9206 31.5744 12.9868 31.692 13.1046C31.692 13.1046 33.7279 15.1427 33.7289 15.1437C33.9298 15.3421 34.256 15.3428 34.4554 15.1435C34.6551 14.9438 34.654 14.6168 34.4545 14.4159L32.4165 12.3802C32.2988 12.2625 32.2326 12.1029 32.2325 11.9364C32.2325 11.77 32.2985 11.6103 32.4162 11.4926L34.4554 9.45349C34.6545 9.25435 34.6545 8.92816 34.4554 8.72902L34.4542 8.72792C34.2551 8.52769 33.9288 8.52879 33.7286 8.72902L31.6918 10.7658C31.4468 11.0107 31.0497 11.0109 30.8047 10.7661L28.7656 8.72926C28.7652 8.72879 28.7647 8.72832 28.7642 8.72792C28.5657 8.52832 28.2406 8.52832 28.042 8.72792C28.0413 8.72863 28.0405 8.72941 28.0398 8.73012C27.8402 8.92871 27.8402 9.25381 28.0398 9.45239C28.0402 9.45279 28.0407 9.45326 28.0411 9.45373L30.078 11.4928C30.3228 11.7379 30.3227 12.135 30.0777 12.3799Z" fill=""/>
</svg>